<svg width="17" height="18" viewBox="0 0 17 18" fill="none" xmlns="http://www.w3.org/2000/svg">
<path d="M1.62385 8.4294C1.49094 8.2943 1.41627 8.11106 1.41627 7.92C1.41627 7.72894 1.49094 7.5457 1.62385 7.4106C1.75677 7.2755 1.93703 7.1996 2.125 7.1996C2.31297 7.1996 2.49323 7.2755 2.62615 7.4106L7.79167 12.6621V0.72C7.79167 0.529044 7.86629 0.345909 7.99913 0.210883C8.13197 0.0758569 8.31214 0 8.5 0C8.68786 0 8.86803 0.0758569 9.00087 0.210883C9.13371 0.345909 9.20833 0.529044 9.20833 0.72V12.6621L14.3739 7.4106C14.4397 7.3437 14.5178 7.29064 14.6038 7.25444C14.6898 7.21823 14.7819 7.1996 14.875 7.1996C14.9681 7.1996 15.0602 7.21823 15.1462 7.25444C15.2322 7.29064 15.3103 7.3437 15.3761 7.4106C15.442 7.4775 15.4942 7.55691 15.5298 7.64431C15.5654 7.73172 15.5837 7.8254 15.5837 7.92C15.5837 8.0146 15.5654 8.10828 15.5298 8.19569C15.4942 8.28309 15.442 8.3625 15.3761 8.4294L9.00115 14.9094C8.93536 14.9763 8.85724 15.0295 8.77125 15.0657C8.68526 15.1019 8.59309 15.1206 8.5 15.1206C8.40691 15.1206 8.31474 15.1019 8.22875 15.0657C8.14276 15.0295 8.06464 14.9763 7.99885 14.9094L1.62385 8.4294ZM16.2917 16.56H0.708333C0.520472 16.56 0.340304 16.6359 0.207466 16.7709C0.0746279 16.9059 0 17.089 0 17.28C0 17.471 0.0746279 17.6541 0.207466 17.7891C0.340304 17.9241 0.520472 18 0.708333 18H16.2917C16.4795 18 16.6597 17.9241 16.7925 17.7891C16.9254 17.6541 17 17.471 17 17.28C17 17.089 16.9254 16.9059 16.7925 16.7709C16.6597 16.6359 16.4795 16.56 16.2917 16.56Z" fill="#B07F46"/>
</svg>
