<svg width="132" height="132" viewBox="0 0 132 132" fill="none" xmlns="http://www.w3.org/2000/svg">
<rect width="131.08" height="131.08" fill="#F5F1E5"/>
<path d="M72.0945 45.4965C72.0945 47.0536 73.977 47.8334 75.078 46.7324L90.566 31.2444L99.8347 40.5139L84.3467 56.0019C83.2457 57.1029 84.0254 58.9854 85.5825 58.9854H107.486V72.0935H85.5817C84.0246 72.0935 83.2448 73.976 84.3458 75.0771L99.8338 90.565L90.5652 99.8337L75.078 84.3465C73.977 83.2455 72.0945 84.0253 72.0945 85.5824V107.485H58.9864V82.1251C58.9864 81.4973 59.6305 81.0719 60.2253 81.2729C61.894 81.8368 63.6814 82.143 65.5404 82.143C74.7103 82.143 82.1439 74.7093 82.1439 65.5395C82.1439 56.3696 74.7103 48.9359 65.5404 48.9359C56.3706 48.9359 48.9369 56.3696 48.9369 65.5395C48.9369 67.3985 49.2431 69.1859 49.807 70.8546C50.008 71.4494 49.5826 72.0935 48.9547 72.0935H23.5947V58.9854H45.4975C47.0546 58.9854 47.8344 57.1029 46.7333 56.0019L31.2453 40.5139L40.514 31.2444L56.0028 46.7332C57.1039 47.8342 58.9864 47.0545 58.9864 45.4974V23.5938H72.0945V45.4965Z" fill="#FF8800"/>
</svg>
