<svg width="111" height="124" viewBox="0 0 111 124" fill="none" xmlns="http://www.w3.org/2000/svg">
<circle cx="51.1046" cy="72.2178" r="51.1046" fill="url(#paint0_linear_460_728)"/>
<circle cx="58.9405" cy="72.2178" r="51.1046" fill="url(#paint1_linear_460_728)" fill-opacity="0.74"/>
<path d="M41.8476 31.0553C39.6362 29.3856 36.2104 29.2665 36.2104 29.2665C36.2104 29.2665 45.7557 20.0084 51.0568 19.0321C56.3579 18.0558 57.8704 19.5145 60.5738 19.6448C63.2771 19.7751 63.3857 18.759 67.3392 18.3517C71.2927 17.9443 78.8956 20.1361 86.1128 24.8648C93.33 29.5935 106.25 42.7338 106.25 42.7338C106.25 42.7338 102.168 44.0625 99.3001 43.8407C96.4322 43.6188 91.4817 41.7704 86.3529 41.2057C83.4079 40.8815 68.7284 46.067 58.953 43.4248C49.1777 40.7826 44.059 32.725 41.8476 31.0553Z" fill="#6D8B4E"/>
<mask id="mask0_460_728" style="mask-type:alpha" maskUnits="userSpaceOnUse" x="34" y="27" width="73" height="25">
<path d="M95.388 41.1537C97.9533 42.2389 106.202 42.8546 106.202 42.8546L92.0865 51.1081L56.9906 50.0713L34.863 29.4227C34.863 29.4227 42.9313 26.9867 45.7506 28.1983C48.57 29.4099 59.7212 34.5103 62.5641 34.9098C65.407 35.3094 74.4116 33.7664 78.5246 34.7975C82.6377 35.8285 92.8227 40.0684 95.388 41.1537Z" fill="#90CB9E"/>
</mask>
<g mask="url(#mask0_460_728)">
<path d="M40.7075 31.2038C38.4961 29.534 35.0702 29.4149 35.0702 29.4149C35.0702 29.4149 44.6155 20.1568 49.9167 19.1805C55.2178 18.2042 57.8095 19.7462 59.4336 19.7933C61.0577 19.8403 64.2517 18.3867 65.6217 18.3075C66.9918 18.2282 77.7554 20.2845 84.9726 25.0133C92.1899 29.742 105.11 42.8822 105.11 42.8822C105.11 42.8822 101.028 44.211 98.1599 43.9891C95.2921 43.7673 90.3416 41.9188 85.2128 41.3542C82.2677 41.0299 67.5882 46.2154 57.8129 43.5732C48.0376 40.9311 42.9189 32.8735 40.7075 31.2038Z" fill="#AAC578"/>
</g>
<defs>
<linearGradient id="paint0_linear_460_728" x1="51.1046" y1="21.1133" x2="51.1046" y2="123.322" gradientUnits="userSpaceOnUse">
<stop stop-color="#FFCF98"/>
<stop offset="1" stop-color="#FF9E2E"/>
</linearGradient>
<linearGradient id="paint1_linear_460_728" x1="58.9405" y1="21.1133" x2="58.9405" y2="123.322" gradientUnits="userSpaceOnUse">
<stop stop-color="#FDB869"/>
<stop offset="1" stop-color="#F8931C"/>
</linearGradient>
</defs>
</svg>
