<svg width="111" height="129" viewBox="0 0 111 129" fill="none" xmlns="http://www.w3.org/2000/svg">
<circle cx="51.1046" cy="77.8487" r="51.1046" fill="url(#paint0_linear_460_759)"/>
<circle cx="58.9405" cy="77.8487" r="51.1046" fill="url(#paint1_linear_460_759)" fill-opacity="0.74"/>
<path d="M50.6355 24.2113C46.1039 31.203 34.71 44.4096 34.71 44.4096C34.71 44.4096 38.1011 44.1309 41.1838 43.7622C45.4565 43.2512 57.2388 47.1286 65.3958 41.3022C73.5528 35.4757 73.5528 24.7292 75.1065 21.7513C76.6602 18.7733 80.7084 16.8346 84.0404 13.4648C88.2218 9.236 93.3627 1.94141 93.3627 1.94141C93.3627 1.94141 65.2663 5.40619 59.181 11.0047C53.0956 16.6033 54.0644 18.9211 50.6355 24.2113Z" fill="#6D8B4E"/>
<mask id="mask0_460_759" style="mask-type:alpha" maskUnits="userSpaceOnUse" x="34" y="0" width="63" height="45">
<path d="M40.7954 19.0333C36.2638 26.025 34.5806 44.5398 34.5806 44.5398C34.5806 44.5398 39.6896 41.6236 43.126 39.7492C47.3987 37.4186 49.4703 39.1018 55.5557 36.1242C61.6411 33.1465 63.7127 20.5867 66.8201 17.868C69.9276 15.1493 77.3077 11.5237 81.5804 9.19311C86.8012 6.34538 96.3407 0 96.3407 0C96.3407 0 55.4262 0.228173 49.3409 5.82672C43.2555 11.4253 44.2243 13.7431 40.7954 19.0333Z" fill="#90CB9E"/>
</mask>
<g mask="url(#mask0_460_759)">
<path d="M50.6355 24.2113C46.1039 31.203 34.71 44.4096 34.71 44.4096C34.71 44.4096 38.1011 44.1309 41.1838 43.7622C45.4565 43.2512 57.2388 47.1286 65.3958 41.3022C73.5528 35.4757 73.5528 24.7292 75.1065 21.7513C76.6602 18.7733 80.7084 16.8346 84.0404 13.4648C88.2218 9.236 93.3627 1.94141 93.3627 1.94141C93.3627 1.94141 65.2663 5.40619 59.181 11.0047C53.0956 16.6033 54.0644 18.9211 50.6355 24.2113Z" fill="#AAC578"/>
</g>
<defs>
<linearGradient id="paint0_linear_460_759" x1="51.1046" y1="26.7441" x2="51.1046" y2="128.953" gradientUnits="userSpaceOnUse">
<stop stop-color="#FFCF98"/>
<stop offset="1" stop-color="#FF9E2E"/>
</linearGradient>
<linearGradient id="paint1_linear_460_759" x1="58.9405" y1="26.7441" x2="58.9405" y2="128.953" gradientUnits="userSpaceOnUse">
<stop stop-color="#FDB869"/>
<stop offset="1" stop-color="#F8931C"/>
</linearGradient>
</defs>
</svg>
