<svg width="122" height="133" viewBox="0 0 122 133" fill="none" xmlns="http://www.w3.org/2000/svg">
<rect x="70.1737" y="10.6006" width="5.85702" height="22.2222" rx="2.73818" transform="rotate(13.6374 70.1737 10.6006)" fill="#8FC200"/>
<path d="M83.7603 16.201C89.0111 17.3676 92.1065 20.9028 93.436 22.8064C93.9184 23.497 93.6954 24.4034 92.9597 24.8138C90.7318 26.0569 85.8631 28.2574 81.1527 26.9487C74.7699 25.1754 71.5786 17.9622 71.5786 17.9622C71.5786 17.9622 76.4432 14.5754 83.7603 16.201Z" fill="#8FC200"/>
<circle cx="58.8705" cy="73.2666" r="48.7511" transform="rotate(13.6374 58.8705 73.2666)" fill="#FF8800"/>
<path d="M26.6327 58.8499C27.5093 55.0306 29.1628 53.2264 31.0659 53.7898C32.969 54.3532 33.8493 55.9427 32.7347 60.3303C31.6201 64.718 30.0288 65.8894 28.237 65.4498C26.4452 65.0103 25.7562 62.6692 26.6327 58.8499Z" fill="white"/>
<path d="M17.1845 72.3479C18.061 68.5286 19.7146 66.7245 21.6177 67.2879C23.5208 67.8513 24.4011 69.4407 23.2865 73.8284C22.1719 78.216 20.5805 79.3874 18.7888 78.9479C16.997 78.5084 16.3079 76.1672 17.1845 72.3479Z" fill="white"/>
<path d="M25.1213 83.48C25.253 79.5636 26.5319 77.4771 28.5075 77.6671C30.4832 77.857 31.6506 79.2493 31.3937 83.769C31.1367 88.2887 29.7982 89.7422 27.9554 89.6526C26.1127 89.5631 24.9896 87.3964 25.1213 83.48Z" fill="white"/>
</svg>
