<svg width="250" height="37" viewBox="0 0 250 37" fill="none" xmlns="http://www.w3.org/2000/svg">
<g clip-path="url(#clip0_1007_815)">
<path fill-rule="evenodd" clip-rule="evenodd" d="M61.4612 9.12839V26.9047C61.4612 31.8102 57.4793 35.7928 52.5747 35.7928H34.8016C29.897 35.7928 25.915 31.8102 25.915 26.9047V9.12839C25.915 4.2229 29.897 0.240234 34.8016 0.240234H52.5747C57.4793 0.240234 61.4612 4.2229 61.4612 9.12839Z" fill="#AE7A3F"/>
<path fill-rule="evenodd" clip-rule="evenodd" d="M34.5314 19.0315C34.2704 19.0495 34.0128 19.2442 34.0207 19.6274C34.0285 20.0108 34.3186 20.2613 34.6165 20.3084C35.1555 20.3935 35.4293 20.4836 35.7229 20.734C36.2052 21.1454 35.9125 22.6167 36.4889 23.7984C37.0764 25.0028 38.0931 26.5247 39.4677 27.0331C41.1558 27.6574 44.6878 27.7141 46.617 27.5439C48.1721 27.4066 49.922 26.8914 51.0427 26.0116C52.1632 25.132 53.057 23.9828 53.3406 22.2661C53.4009 21.9011 53.2429 21.3453 52.7448 21.3298C52.0752 21.3088 51.9967 21.7388 51.8936 22.0108C51.544 22.9327 51.0839 23.558 50.532 23.6282C49.4534 23.765 46.7588 23.7275 45.2551 23.7133C43.8356 23.6999 42.2763 23.8694 40.9145 23.3729C39.6544 22.9133 38.8839 22.0491 38.2761 21.3299C37.5728 20.4977 36.8859 19.7551 36.2335 19.3721C35.6577 19.0339 34.9426 19.0031 34.5313 19.0316L34.5314 19.0315Z" fill="white"/>
<path fill-rule="evenodd" clip-rule="evenodd" d="M40.9133 19.3732C40.9476 19.9242 41.9576 20.5715 42.6155 20.9055C43.0227 21.1121 44.0577 21.6006 43.807 22.0121C43.6516 22.2674 42.9752 22.0706 42.5305 22.0121C42.0266 21.9459 41.0377 21.4727 40.5406 21.1304C39.7112 20.5592 38.8312 19.1657 38.7005 18.6072C38.655 18.4124 38.3482 16.8231 39.1037 14.5913C39.1116 14.5682 39.1186 14.5447 39.1262 14.5211C39.6335 12.9485 40.4805 11.8571 42.2752 10.265C43.4708 9.20424 45.5236 8.29295 46.5306 8.13689C46.8669 8.08472 47.5611 7.7866 47.8071 8.05178C48.0532 8.31681 47.8708 8.54675 47.6369 9.15838C47.1191 10.5125 46.8502 12.9676 47.2115 14.6915C47.5312 16.2173 48.352 18.1324 49.6797 19.6287C49.9465 19.9294 50.1469 20.4209 50.0201 20.5651C49.7077 20.9208 48.777 20.5806 48.4881 20.5651C47.9632 20.5368 46.2528 19.8706 45.4242 19.5436C44.3058 19.102 43.0196 18.8753 42.4454 18.8625C41.6853 18.8456 40.9001 19.1588 40.9133 19.3732Z" fill="white"/>
<path fill-rule="evenodd" clip-rule="evenodd" d="M45.9378 9.89017C46.0771 9.95896 45.3269 12.0987 45.3863 13.2013C45.452 14.4224 45.9103 15.5897 46.1508 16.4378C46.2608 16.826 44.9236 15.2648 44.7262 14.0674C44.5789 13.1745 44.6449 12.2109 44.9362 11.5085C45.0732 11.1784 45.7304 9.78751 45.938 9.89017H45.9378Z" fill="#AE7A3F"/>
<path fill-rule="evenodd" clip-rule="evenodd" d="M45.9378 9.89017C46.0771 9.95896 45.3269 12.0987 45.3863 13.2013C45.452 14.4224 45.9103 15.5897 46.1508 16.4378C46.2608 16.826 44.9236 15.2648 44.7262 14.0674C44.5789 13.1745 44.6449 12.2109 44.9362 11.5085C45.0732 11.1784 45.7304 9.78751 45.938 9.89017H45.9378Z" fill="#AE7A3F"/>
<path d="M89.0579 30.3175C89.3462 31.1369 89.3865 31.7718 89.1787 32.2218C88.971 32.6718 88.6826 33.0295 88.3136 33.2949C87.9445 33.5602 87.5869 33.8024 87.2408 34.0219C86.8947 34.2412 86.7216 34.547 86.7216 34.9392C86.7216 35.1702 86.7678 35.3463 86.8599 35.4674C86.9521 35.5885 87.0501 35.6781 87.154 35.736C87.2693 35.8166 87.4076 35.8568 87.5693 35.8568H99.8738C100.07 35.8568 100.243 35.8165 100.393 35.736C100.532 35.6781 100.653 35.5885 100.756 35.4674C100.86 35.3463 100.912 35.1702 100.912 34.9392C100.912 34.5931 100.765 34.2872 100.471 34.0219C100.177 33.7566 99.8334 33.4797 99.441 33.1911C99.0486 32.9025 98.6534 32.5592 98.2553 32.161C97.8573 31.7629 97.5544 31.2582 97.3468 30.647C95.8817 26.3425 94.6272 22.6526 93.5832 19.5775C92.5392 16.5025 91.6537 13.8974 90.927 11.7624C90.2 9.62744 89.6118 7.89659 89.1618 6.56976C88.7119 5.24292 88.3513 4.19281 88.08 3.41958C87.8088 2.64635 87.6098 2.07797 87.483 1.71444C87.3562 1.35091 87.2639 1.06542 87.206 0.857641C87.1481 0.649866 87.0703 0.485493 86.9724 0.364368C86.8746 0.243243 86.7736 0.153669 86.6699 0.0957998C86.5428 0.0383924 86.4217 0.00976562 86.3064 0.00976562H81.0627C80.9588 0.00976562 80.8434 0.0383924 80.7163 0.0957998C80.6238 0.153669 80.5286 0.243243 80.4307 0.364368C80.3328 0.485493 80.255 0.65002 80.1971 0.857641C80.1392 1.06542 80.0238 1.42017 79.8507 1.92222C79.6776 2.42411 79.4268 3.14532 79.0979 4.08569C78.7691 5.02607 78.3567 6.22901 77.8609 7.69467C77.3649 9.16033 76.7536 10.9604 76.0268 13.0951C75.2999 15.2298 74.4462 17.7425 73.4653 20.633C72.4845 23.5237 71.3538 26.8617 70.0732 30.6469C69.8655 31.258 69.5626 31.7627 69.1647 32.1609C68.7666 32.559 68.3714 32.9024 67.9791 33.191C67.5867 33.4795 67.2434 33.7564 66.9491 34.0218C66.6549 34.2871 66.5078 34.5928 66.5078 34.939C66.5078 35.1701 66.5597 35.3461 66.6635 35.4673C66.7674 35.5884 66.8885 35.678 67.027 35.7358C67.1773 35.8165 67.3505 35.8566 67.5462 35.8566H76.0607C76.2224 35.8566 76.3667 35.8163 76.4938 35.7358C76.5857 35.678 76.678 35.5884 76.7705 35.4673C76.863 35.3461 76.9092 35.1701 76.9092 34.939C76.9092 34.4662 76.7216 34.0942 76.3466 33.8231C75.9716 33.5517 75.585 33.2576 75.1869 32.9403C74.7888 32.623 74.4802 32.2104 74.2609 31.7025C74.0416 31.1946 74.0821 30.4619 74.3821 29.5046L76.4937 23.2733H86.6177L89.0579 30.3175ZM81.5988 8.37017L85.4058 19.6554H77.7049L81.5986 8.37017H81.5988Z" fill="#AE7A3F"/>
<path d="M120.764 34.5569C120.96 34.8916 121.173 35.1485 121.404 35.3273C121.635 35.5062 121.859 35.6301 122.078 35.6993C122.309 35.8032 122.546 35.8551 122.788 35.8551H129.624C129.843 35.8551 130.045 35.8148 130.23 35.7343C130.38 35.6764 130.519 35.5868 130.645 35.4657C130.772 35.3446 130.836 35.1685 130.836 34.9375C130.847 34.6839 130.74 34.4849 130.515 34.3408C130.29 34.1966 129.993 34.015 129.624 33.7955C129.255 33.5762 128.834 33.2819 128.361 32.9127C127.888 32.5435 127.409 32.0128 126.925 31.3204L118.826 20.1559L123.55 15.3608C124.196 14.7262 124.801 14.2474 125.367 13.9242C125.932 13.601 126.426 13.3386 126.847 13.1368C127.268 12.935 127.605 12.7419 127.859 12.557C128.113 12.3724 128.24 12.1069 128.24 11.7607C128.24 11.5764 128.199 11.4292 128.118 11.3193C128.038 11.2096 127.951 11.126 127.859 11.0686C127.732 11.0107 127.605 10.9818 127.478 10.9818H118.427C118.243 10.9818 118.081 11.0221 117.943 11.1026C117.793 11.1605 117.666 11.2558 117.562 11.3886C117.458 11.5214 117.406 11.7146 117.406 11.9684C117.406 12.4644 117.588 12.8307 117.951 13.0674C118.315 13.3041 118.615 13.5724 118.851 13.8723C119.088 14.1723 119.14 14.5732 119.007 15.0751C118.874 15.577 118.295 16.3301 117.268 17.334L112.872 21.558V0.284936C112.872 -0.14185 110.877 0.018368 110.646 0.0876263L104.686 1.11573C104.467 1.1736 104.271 1.2544 104.098 1.35829C103.959 1.45017 103.827 1.57129 103.7 1.72135C103.573 1.87141 103.51 2.0561 103.51 2.27511C103.51 2.63325 103.625 2.8929 103.856 3.0545C104.086 3.21595 104.349 3.39186 104.643 3.58225C104.937 3.77263 105.2 4.0295 105.43 4.35271C105.661 4.67591 105.776 5.16642 105.776 5.82406V31.0258C105.776 31.5911 105.664 32.0613 105.439 32.4363C105.214 32.8114 104.957 33.1317 104.669 33.397C104.381 33.6624 104.124 33.9162 103.899 34.1586C103.674 34.401 103.561 34.6839 103.561 35.0072C103.561 35.215 103.596 35.3794 103.665 35.5005C103.735 35.6216 103.804 35.7109 103.873 35.7683C103.977 35.8262 104.081 35.8551 104.185 35.8551H114.464C114.568 35.8551 114.672 35.8262 114.776 35.7683C114.845 35.7109 114.914 35.6218 114.983 35.5005C115.053 35.3794 115.087 35.2148 115.087 35.0072C115.087 34.6837 114.975 34.4008 114.75 34.1586C114.525 33.9162 114.268 33.6624 113.98 33.397C113.691 33.1317 113.434 32.8116 113.209 32.4363C112.984 32.0613 112.872 31.5911 112.872 31.0258V26.3174L113.997 25.1928L120.763 34.5567L120.764 34.5569Z" fill="#AE7A3F"/>
<path d="M134.767 14.9499C134.767 15.7002 135.007 16.306 135.485 16.7674C135.964 17.2288 136.584 17.4595 137.346 17.4595C138.188 17.4595 138.828 17.2431 139.267 16.8105C139.705 16.3777 140.112 15.8989 140.487 15.3739C140.862 14.8489 141.306 14.3729 141.82 13.946C142.333 13.5189 143.068 13.3054 144.026 13.3054C145.087 13.3054 145.947 13.7208 146.605 14.5516C147.262 15.3824 147.591 16.5364 147.591 18.0137V19.5716C145.837 19.4098 144.069 19.456 142.286 19.71C140.504 19.9639 138.9 20.4429 137.476 21.1468C136.051 21.8508 134.888 22.8086 133.988 24.0203C133.089 25.232 132.639 26.7261 132.639 28.5031C132.639 30.8225 133.34 32.614 134.741 33.8776C136.143 35.1412 137.969 35.773 140.219 35.773C142.088 35.773 143.593 35.4873 144.735 34.9162C145.878 34.345 146.829 33.6093 147.591 32.7093V34.6617C147.591 34.962 147.64 35.1927 147.738 35.3542C147.836 35.5156 147.943 35.6366 148.058 35.7172C148.208 35.8097 148.364 35.8559 148.526 35.8559H155.967C156.14 35.8559 156.302 35.827 156.452 35.7691C156.567 35.7117 156.677 35.6226 156.781 35.5013C156.885 35.3802 156.936 35.2157 156.936 35.008C156.936 34.6845 156.824 34.4016 156.599 34.1594C156.374 33.917 156.117 33.6632 155.829 33.3979C155.54 33.1325 155.283 32.8124 155.058 32.4372C154.833 32.0621 154.721 31.0934 154.721 30.5281V18.1693C154.721 15.6768 153.778 13.6863 151.891 12.1977C150.005 10.7091 147.372 9.96484 143.992 9.96484C142.665 9.96484 141.436 10.0946 140.305 10.3542C139.175 10.6139 138.2 10.9716 137.381 11.4273C136.562 11.883 135.921 12.4109 135.46 13.011C134.998 13.6111 134.767 14.2573 134.767 14.9497L134.767 14.9499ZM147.608 28.4681C147.458 29.3221 147.063 30.1069 146.423 30.8222C145.782 31.5376 144.891 31.8953 143.749 31.8953C142.583 31.8953 141.646 31.4857 140.936 30.6665C140.227 29.8472 139.872 28.8145 139.872 27.5683C139.872 26.5876 140.062 25.7858 140.443 25.1626C140.824 24.5394 141.294 24.0375 141.854 23.6568C142.414 23.276 143.019 22.999 143.671 22.826C144.323 22.6528 144.934 22.5403 145.505 22.4884C146.076 22.4366 146.564 22.4221 146.968 22.445C147.372 22.468 147.585 22.4795 147.608 22.4795V28.4682L147.608 28.4681Z" fill="#AE7A3F"/>
<path d="M161.346 29.3333C161.346 30.6029 161.51 31.6616 161.839 32.5098C162.168 33.358 162.621 34.0474 163.197 34.578C163.774 35.1087 164.452 35.4836 165.231 35.7029C166.01 35.9223 169.981 35.9079 170.708 35.66C171.435 35.4121 172.075 35.1669 172.629 34.9245C172.953 34.7627 173.186 34.5376 173.33 34.249C173.475 33.9604 173.521 33.6806 173.469 33.4096C173.417 33.1385 173.281 32.9221 173.062 32.7605C172.843 32.5988 172.537 32.5758 172.145 32.6916C171.753 32.7835 171.334 32.8181 170.89 32.795C170.446 32.7721 170.045 32.6539 169.687 32.4404C169.329 32.2271 169.032 31.9184 168.796 31.5142C168.56 31.1102 168.442 30.5563 168.442 29.8525V9.10235H172.041C172.249 9.10235 172.439 9.04479 172.612 8.92951C172.75 8.83702 172.877 8.70142 172.993 8.52258C173.108 8.34374 173.166 8.07533 173.166 7.71734C173.166 7.35981 173.108 7.07724 172.993 6.86946C172.877 6.66169 172.75 6.51163 172.612 6.41913C172.439 6.30385 172.249 6.24629 172.041 6.24629H168.407V1.21306C168.407 0.854917 168.317 0.583732 168.139 0.399197C167.96 0.214816 167.749 0.105234 167.507 0.0706048C167.265 0.0359757 167.008 0.0907667 166.737 0.234978C166.465 0.379189 166.238 0.601278 166.053 0.901551C165.764 1.42083 165.395 1.73973 164.945 2.3569C164.495 2.97407 162.312 4.82711 161.683 5.3464C161.054 5.86568 160.394 6.26953 159.701 6.5578C159.286 6.71956 158.943 6.90425 158.672 7.11202C158.401 7.3198 158.266 7.60807 158.266 7.97698C158.266 8.26587 158.317 8.48226 158.421 8.62647C158.525 8.77068 158.652 8.88303 158.802 8.96353C158.952 9.05603 159.13 9.1022 159.338 9.1022H161.346V29.333V29.3333Z" fill="#AE7A3F"/>
<path d="M182.936 23.1098C182.936 24.5481 183.037 25.8759 183.239 27.0933C183.441 28.3105 183.756 29.3606 184.183 30.2434C184.61 31.1263 185.152 31.8215 185.81 32.329C186.468 32.8366 187.269 33.0906 188.215 33.0906C189.161 33.0906 189.963 32.8368 190.62 32.329C191.278 31.8215 191.82 31.1263 192.247 30.2434C192.674 29.3606 192.989 28.3107 193.191 27.0933C193.393 25.876 193.494 24.5481 193.494 23.1098C193.494 21.7034 193.393 20.3929 193.191 19.1784C192.989 17.9638 192.674 16.9181 192.247 16.0413C191.82 15.1645 191.278 14.4752 190.62 13.9731C189.963 13.4712 189.161 13.2202 188.215 13.2202C187.269 13.2202 186.468 13.4712 185.81 13.9731C185.152 14.475 184.61 15.1645 184.183 16.0413C183.756 16.9181 183.441 17.9638 183.239 19.1784C183.037 20.3931 182.936 21.7036 182.936 23.1098ZM200.935 23.1034C200.935 24.592 200.717 26.0978 200.282 27.621C199.847 29.1442 199.127 30.5289 198.123 31.7751C197.12 33.0213 195.804 34.0426 194.175 34.8388C192.547 35.635 190.54 36.0331 188.154 36.0331C185.806 36.0331 183.827 35.635 182.218 34.8388C180.608 34.0426 179.302 33.0213 178.298 31.7751C177.295 30.5289 176.577 29.1441 176.144 27.621C175.711 26.0978 175.495 24.592 175.495 23.1034C175.495 21.6494 175.711 20.1608 176.144 18.6376C176.577 17.1144 177.295 15.7383 178.298 14.5093C179.302 13.2804 180.608 12.2678 182.218 11.4717C183.827 10.6755 185.806 10.2773 188.154 10.2773C190.54 10.2773 192.547 10.6755 194.175 11.4717C195.803 12.2678 197.12 13.2805 198.123 14.5093C199.127 15.7383 199.847 17.1144 200.282 18.6376C200.717 20.1608 200.935 21.6494 200.935 23.1034Z" fill="#AE7A3F"/>
<path d="M217.716 30.3906C217.716 31.0949 217.401 31.6806 216.773 32.148C216.144 32.6155 215.23 32.8491 214.03 32.8491C213.383 32.8491 212.731 32.7683 212.074 32.6065C211.416 32.4448 210.767 32.1967 210.127 31.8621C209.487 31.5275 208.875 31.1093 208.293 30.6073C207.711 30.1054 207.177 29.5082 206.692 28.8158C206.462 28.4929 206.231 28.1812 206 27.8811C205.77 27.5808 205.429 27.4308 204.979 27.4308C204.748 27.4308 204.572 27.4885 204.451 27.6041C204.33 27.7195 204.252 27.8349 204.217 27.9501C204.137 28.1232 204.097 28.3079 204.097 28.5043V32.1043C204.097 32.6582 204.446 33.1775 205.144 33.6622C205.841 34.1468 206.698 34.5622 207.713 34.9084C208.729 35.2545 209.822 35.5286 210.993 35.7307C212.164 35.9328 213.216 36.0337 214.151 36.0337C215.662 36.0337 217.03 35.8664 218.253 35.5319C219.476 35.1973 220.523 34.7068 221.394 34.0605C222.265 33.4141 222.931 32.6352 223.393 31.7237C223.854 30.8123 224.085 29.7968 224.085 28.6771C224.085 27.1539 223.753 25.8962 223.09 24.9039C222.426 23.9117 221.601 23.0635 220.615 22.3595C219.628 21.6556 218.561 21.0699 217.413 20.6025C216.265 20.1351 215.198 19.6794 214.212 19.2354C213.225 18.7913 212.4 18.3067 211.737 17.7814C211.074 17.2561 210.742 16.6071 210.742 15.8342C210.742 15.2456 211.019 14.7033 211.573 14.2069C212.127 13.7106 212.963 13.2133 214.082 13.2133C214.982 13.2133 216.626 13.395 217.77 14.0077C218.621 14.4636 219.623 15.2228 220.305 16.007C220.928 16.7227 221.436 17.2709 221.828 17.6517C222.22 18.0324 222.653 18.2228 223.126 18.2228C223.334 18.2228 223.498 18.1766 223.619 18.0844C223.74 17.9923 223.83 17.8882 223.888 17.7725C223.945 17.646 223.974 17.5074 223.974 17.3571V13.5494C223.974 12.9955 223.685 12.5108 223.109 12.0954C222.532 11.6801 221.814 11.0932 220.954 10.8336C220.094 10.5739 218.154 10.1256 217.128 9.98707C216.101 9.84855 215.149 9.7793 214.273 9.7793C212.784 9.7793 211.432 9.94367 210.214 10.2726C208.997 10.6015 207.952 11.3296 207.081 11.9583C206.211 12.5872 205.292 13.6008 204.825 14.5009C204.358 15.4009 204.124 16.4109 204.124 17.5305C204.124 19.0419 204.456 20.311 205.119 21.3382C205.782 22.3654 206.857 23.2339 207.843 23.9435C208.829 24.6532 209.897 25.2504 211.045 25.735C212.193 26.2197 213.26 26.6899 214.247 27.1456C215.233 27.6013 216.058 28.0743 216.721 28.5646C217.385 29.055 217.716 29.6637 217.716 30.3906H217.716Z" fill="#AE7A3F"/>
</g>
<defs>
<clipPath id="clip0_1007_815">
<rect width="250" height="36.0337" fill="white"/>
</clipPath>
</defs>
</svg>
