<svg width="119" height="22" viewBox="0 0 119 22" fill="none" xmlns="http://www.w3.org/2000/svg">
<path fill-rule="evenodd" clip-rule="evenodd" d="M21.2738 5.46394V16.1027C21.2738 19.0386 18.8907 21.4221 15.9553 21.4221H5.31844C2.38312 21.4221 0 19.0386 0 16.1027V5.46394C0 2.52809 2.38312 0.144531 5.31844 0.144531H15.9553C18.8907 0.144531 21.2738 2.52809 21.2738 5.46394Z" fill="#AE7A3F"/>
<path fill-rule="evenodd" clip-rule="evenodd" d="M5.15733 11.3915C5.00114 11.4023 4.84697 11.5188 4.85167 11.7482C4.85636 11.9776 5.02996 12.1276 5.20826 12.1558C5.53086 12.2067 5.6947 12.2606 5.87041 12.4105C6.15904 12.6567 5.98387 13.5372 6.32886 14.2445C6.68047 14.9652 7.28894 15.8761 8.11162 16.1804C9.12189 16.554 11.2357 16.588 12.3903 16.4861C13.321 16.4039 14.3683 16.0955 15.039 15.569C15.7097 15.0426 16.2446 14.3548 16.4143 13.3274C16.4504 13.1089 16.3558 12.7763 16.0577 12.767C15.657 12.7545 15.61 13.0118 15.5483 13.1746C15.3391 13.7263 15.0637 14.1006 14.7334 14.1426C14.0879 14.2245 12.4752 14.202 11.5753 14.1935C10.7257 14.1855 9.79252 14.2869 8.97749 13.9898C8.22333 13.7147 7.76221 13.1975 7.39844 12.7671C6.97757 12.2691 6.56646 11.8246 6.17598 11.5954C5.83137 11.393 5.4034 11.3746 5.15724 11.3916L5.15733 11.3915Z" fill="white"/>
<path fill-rule="evenodd" clip-rule="evenodd" d="M8.97691 11.5945C8.99745 11.9242 9.60186 12.3116 9.99566 12.5115C10.2393 12.6351 10.8588 12.9275 10.7087 13.1738C10.6157 13.3266 10.2109 13.2088 9.94473 13.1738C9.64321 13.1342 9.05132 12.851 8.75386 12.6461C8.25747 12.3043 7.73078 11.4703 7.65259 11.136C7.62533 11.0194 7.4417 10.0683 7.89388 8.73259C7.89858 8.71877 7.90281 8.70468 7.90733 8.69059C8.21096 7.7494 8.71785 7.09624 9.79194 6.14335C10.5075 5.50852 11.7361 4.96313 12.3387 4.86973C12.54 4.83851 12.9555 4.66009 13.1027 4.8188C13.25 4.97741 13.1409 5.11502 13.0009 5.48107C12.691 6.29146 12.53 7.76082 12.7462 8.79255C12.9376 9.70574 13.4288 10.8519 14.2234 11.7474C14.3831 11.9274 14.503 12.2215 14.4271 12.3078C14.2402 12.5206 13.6832 12.3171 13.5103 12.3078C13.1961 12.2908 12.1725 11.8922 11.6766 11.6964C11.0072 11.4322 10.2375 11.2965 9.8938 11.2888C9.43895 11.2787 8.96899 11.4662 8.97691 11.5945Z" fill="white"/>
<path fill-rule="evenodd" clip-rule="evenodd" d="M11.9834 5.91925C12.0667 5.96042 11.6178 7.24104 11.6533 7.90092C11.6926 8.63173 11.9669 9.3303 12.1108 9.83792C12.1767 10.0702 11.3764 9.13585 11.2582 8.41923C11.1701 7.88489 11.2096 7.30819 11.3839 6.88779C11.4659 6.69022 11.8592 5.85781 11.9835 5.91925H11.9834Z" fill="#AE7A3F"/>
<path fill-rule="evenodd" clip-rule="evenodd" d="M11.9834 5.91925C12.0667 5.96042 11.6178 7.24104 11.6533 7.90092C11.6926 8.63173 11.9669 9.3303 12.1108 9.83792C12.1767 10.0702 11.3764 9.13585 11.2582 8.41923C11.1701 7.88489 11.2096 7.30819 11.3839 6.88779C11.4659 6.69022 11.8592 5.85781 11.9835 5.91925H11.9834Z" fill="#AE7A3F"/>
<path d="M37.7898 18.1445C37.9623 18.6349 37.9864 19.0149 37.8621 19.2842C37.7378 19.5535 37.5652 19.7676 37.3443 19.9264C37.1234 20.0852 36.9094 20.2302 36.7023 20.3615C36.4951 20.4928 36.3915 20.6758 36.3915 20.9105C36.3915 21.0488 36.4192 21.1542 36.4743 21.2266C36.5295 21.2991 36.5882 21.3527 36.6503 21.3874C36.7193 21.4356 36.8021 21.4597 36.8989 21.4597H44.2629C44.3804 21.4597 44.484 21.4356 44.5737 21.3874C44.6565 21.3527 44.729 21.2991 44.7912 21.2266C44.8534 21.1542 44.8844 21.0488 44.8844 20.9105C44.8844 20.7034 44.7963 20.5203 44.6203 20.3615C44.4442 20.2027 44.2387 20.037 44.0039 19.8643C43.769 19.6916 43.5325 19.4861 43.2943 19.2478C43.056 19.0095 42.8748 18.7075 42.7506 18.3417C41.8737 15.7656 41.1229 13.5572 40.4981 11.7168C39.8733 9.87646 39.3433 8.31739 38.9084 7.03963C38.4733 5.76187 38.1213 4.72599 37.852 3.9319C37.5827 3.13781 37.3669 2.50934 37.2046 2.04658C37.0422 1.58381 36.9231 1.24365 36.8472 1.02608C36.7713 0.808514 36.7161 0.637648 36.6815 0.513298C36.6468 0.388949 36.6002 0.290574 36.5417 0.218083C36.4831 0.145592 36.4227 0.0919831 36.3606 0.0573494C36.2845 0.022992 36.2121 0.00585938 36.1431 0.00585938H33.0048C32.9426 0.00585938 32.8735 0.022992 32.7975 0.0573494C32.7421 0.0919831 32.6851 0.145592 32.6265 0.218083C32.568 0.290574 32.5214 0.389041 32.4867 0.513298C32.4521 0.637648 32.383 0.849963 32.2794 1.15043C32.1758 1.4508 32.0257 1.88243 31.8289 2.44523C31.6321 3.00803 31.3853 3.72797 31.0886 4.60514C30.7918 5.48231 30.4259 6.55964 29.9909 7.83722C29.5558 9.1148 29.0449 10.6186 28.4579 12.3485C27.8709 14.0786 27.1942 16.0763 26.4278 18.3416C26.3034 18.7074 26.1222 19.0094 25.884 19.2477C25.6458 19.486 25.4093 19.6915 25.1745 19.8642C24.9396 20.0369 24.7342 20.2026 24.5581 20.3614C24.382 20.5202 24.2939 20.7032 24.2939 20.9104C24.2939 21.0487 24.325 21.1541 24.3871 21.2266C24.4493 21.299 24.5218 21.3526 24.6047 21.3873C24.6946 21.4355 24.7983 21.4596 24.9154 21.4596H30.0112C30.108 21.4596 30.1943 21.4355 30.2704 21.3873C30.3254 21.3526 30.3806 21.299 30.436 21.2266C30.4913 21.1541 30.519 21.0487 30.519 20.9104C30.519 20.6275 30.4067 20.4048 30.1823 20.2425C29.9578 20.0801 29.7265 19.9041 29.4882 19.7142C29.25 19.5243 29.0653 19.2774 28.934 18.9734C28.8028 18.6695 28.827 18.2309 29.0066 17.658L30.2703 13.9287H36.3294L37.7898 18.1445ZM33.3256 5.00941L35.604 11.7634H30.9952L33.3255 5.00941H33.3256Z" fill="#AE7A3F"/>
<path d="M56.7645 20.6817C56.8821 20.882 57.0098 21.0358 57.1478 21.1428C57.2859 21.2498 57.4204 21.324 57.5515 21.3654C57.6897 21.4276 57.8313 21.4586 57.9763 21.4586H62.0676C62.1987 21.4586 62.3194 21.4345 62.4298 21.3863C62.5198 21.3517 62.6028 21.2981 62.6787 21.2256C62.7545 21.1531 62.7925 21.0477 62.7925 20.9095C62.7993 20.7577 62.7354 20.6386 62.6007 20.5524C62.4661 20.4661 62.2884 20.3574 62.0674 20.226C61.8465 20.0948 61.5945 19.9186 61.3115 19.6977C61.0285 19.4767 60.7419 19.1591 60.4519 18.7447L55.6047 12.063L58.4323 9.19316C58.8187 8.81339 59.1812 8.52683 59.5195 8.3334C59.8579 8.13996 60.1532 7.98291 60.4051 7.86216C60.6571 7.7414 60.8591 7.6258 61.011 7.51517C61.163 7.40464 61.2389 7.24575 61.2389 7.03859C61.2389 6.92824 61.2147 6.84019 61.1664 6.77442C61.118 6.70874 61.0663 6.65873 61.0113 6.62437C60.9352 6.58974 60.8591 6.57242 60.7831 6.57242H55.3664C55.256 6.57242 55.1593 6.59655 55.0766 6.64473C54.9866 6.67936 54.9105 6.73638 54.8483 6.81587C54.7862 6.89536 54.7551 7.01096 54.7551 7.16285C54.7551 7.45972 54.8639 7.67895 55.0814 7.82061C55.299 7.96228 55.4784 8.12283 55.6201 8.30235C55.7617 8.48188 55.7928 8.72183 55.7133 9.0222C55.6338 9.32257 55.287 9.77327 54.6726 10.3741L52.0417 12.9021V0.170529C52.0417 -0.0848945 50.8478 0.0109929 50.7095 0.0524428L47.1424 0.667744C47.0114 0.702377 46.8941 0.750736 46.7905 0.81291C46.7076 0.867901 46.6282 0.940392 46.5523 1.0302C46.4764 1.12001 46.4385 1.23054 46.4385 1.36162C46.4385 1.57596 46.5075 1.73135 46.6455 1.82806C46.7836 1.92469 46.9406 2.02997 47.1167 2.14391C47.2927 2.25785 47.4498 2.41159 47.5878 2.60502C47.7259 2.79845 47.7948 3.09201 47.7948 3.4856V18.5684C47.7948 18.9067 47.7275 19.1881 47.5929 19.4126C47.4582 19.6371 47.3046 19.8287 47.1321 19.9875C46.9596 20.1463 46.806 20.2982 46.6714 20.4433C46.5367 20.5884 46.4694 20.7577 46.4694 20.9512C46.4694 21.0756 46.4901 21.1739 46.5316 21.2464C46.573 21.3189 46.6145 21.3723 46.6559 21.4067C46.7181 21.4413 46.7802 21.4586 46.8423 21.4586H52.9946C53.0567 21.4586 53.1189 21.4413 53.181 21.4067C53.2224 21.3723 53.2639 21.319 53.3053 21.2464C53.3467 21.1739 53.3675 21.0755 53.3675 20.9512C53.3675 20.7576 53.3001 20.5883 53.1655 20.4433C53.0309 20.2982 52.8772 20.1463 52.7045 19.9875C52.5318 19.8287 52.3781 19.6372 52.2435 19.4126C52.1088 19.1881 52.0415 18.9067 52.0415 18.5684V15.7505L52.7149 15.0775L56.7645 20.6816L56.7645 20.6817Z" fill="#AE7A3F"/>
<path d="M65.1459 8.94832C65.1459 9.39736 65.2892 9.7599 65.5758 10.0361C65.8624 10.3122 66.2336 10.4503 66.6893 10.4503C67.1933 10.4503 67.5764 10.3208 67.8388 10.0618C68.1011 9.80283 68.3444 9.51627 68.569 9.20208C68.7934 8.88789 69.0593 8.60299 69.3667 8.34748C69.674 8.09187 70.1141 7.96411 70.687 7.96411C71.3224 7.96411 71.8368 8.21272 72.2305 8.70993C72.6241 9.20715 72.8208 9.89779 72.8208 10.782V11.7143C71.7711 11.6175 70.7129 11.6451 69.6461 11.7971C68.5793 11.9491 67.6196 12.2358 66.7669 12.6571C65.9142 13.0784 65.2185 13.6516 64.6799 14.3768C64.1414 15.102 63.8721 15.9962 63.8721 17.0597C63.8721 18.4478 64.2916 19.52 65.1304 20.2762C65.9694 21.0324 67.0621 21.4106 68.4085 21.4106C69.5271 21.4106 70.4283 21.2396 71.1118 20.8978C71.7954 20.5559 72.365 20.1157 72.8208 19.577V20.7455C72.8208 20.9252 72.8502 21.0633 72.9089 21.1599C72.9677 21.2565 73.0315 21.3289 73.1005 21.3772C73.1902 21.4326 73.2834 21.4602 73.3802 21.4602H77.8336C77.9373 21.4602 78.034 21.4429 78.124 21.4082C78.193 21.3739 78.2585 21.3206 78.3206 21.248C78.3828 21.1755 78.4138 21.077 78.4138 20.9528C78.4138 20.7591 78.3465 20.5898 78.2119 20.4449C78.0772 20.2998 77.9235 20.1479 77.7509 19.9891C77.5782 19.8303 77.4245 19.6387 77.2898 19.4141C77.1552 19.1897 77.0879 18.6099 77.0879 18.2716V10.8751C77.0879 9.38336 76.5234 8.19209 75.3944 7.30119C74.2655 6.41029 72.6895 5.96484 70.6667 5.96484C69.8724 5.96484 69.137 6.04249 68.4603 6.19788C67.7837 6.35328 67.2003 6.56734 66.71 6.84008C66.2198 7.11282 65.8366 7.42876 65.5603 7.7879C65.2841 8.14704 65.146 8.53382 65.146 8.94822L65.1459 8.94832ZM72.8309 17.0387C72.7412 17.5498 72.5048 18.0195 72.1216 18.4476C71.7384 18.8758 71.205 19.0898 70.5214 19.0898C69.8238 19.0898 69.2628 18.8447 68.8382 18.3544C68.4135 17.8641 68.2011 17.246 68.2011 16.5002C68.2011 15.9133 68.3151 15.4334 68.5429 15.0604C68.7707 14.6875 69.0522 14.3871 69.3872 14.1592C69.7223 13.9313 70.0847 13.7655 70.4748 13.662C70.8648 13.5584 71.2307 13.491 71.5724 13.46C71.9142 13.429 72.206 13.4203 72.4478 13.434C72.6895 13.4477 72.8173 13.4547 72.8308 13.4547V17.0388L72.8309 17.0387Z" fill="#AE7A3F"/>
<path d="M81.0524 17.5564C81.0524 18.3162 81.1508 18.9498 81.3476 19.4574C81.5444 19.9651 81.8153 20.3776 82.1606 20.6952C82.5058 21.0128 82.9114 21.2372 83.3775 21.3685C83.8436 21.4997 86.2206 21.4912 86.6556 21.3428C87.0907 21.1944 87.4739 21.0476 87.8053 20.9026C87.9989 20.8058 88.1388 20.671 88.225 20.4983C88.3113 20.3256 88.3388 20.1581 88.3078 19.9959C88.2768 19.8337 88.1955 19.7042 88.0643 19.6075C87.9331 19.5107 87.7501 19.497 87.5154 19.5662C87.2808 19.6212 87.0305 19.6419 86.7646 19.6281C86.4987 19.6144 86.2587 19.5437 86.0446 19.4159C85.8305 19.2882 85.6527 19.1035 85.5113 18.8616C85.3698 18.6198 85.2991 18.2883 85.2991 17.8671V5.44847H87.4533C87.5776 5.44847 87.6915 5.41402 87.795 5.34503C87.8779 5.28967 87.9539 5.20852 88.023 5.10149C88.092 4.99446 88.1267 4.83382 88.1267 4.61957C88.1267 4.40559 88.0921 4.23648 88.023 4.11213C87.9539 3.98778 87.8779 3.89797 87.795 3.84261C87.6914 3.77362 87.5775 3.73917 87.4533 3.73917H85.2782V0.726868C85.2782 0.512526 85.2247 0.350227 85.1178 0.239786C85.0107 0.129437 84.8848 0.0638538 84.7398 0.0431289C84.5947 0.0224039 84.4411 0.0551954 84.2788 0.141503C84.1164 0.227811 83.9801 0.360727 83.8698 0.540436C83.6969 0.851218 83.4759 1.04207 83.2066 1.41144C82.9373 1.7808 81.6309 2.88982 81.2544 3.2006C80.878 3.51138 80.4826 3.75308 80.0683 3.9256C79.8198 4.02241 79.6144 4.13295 79.4522 4.25729C79.29 4.38164 79.209 4.55417 79.209 4.77496C79.209 4.94785 79.24 5.07736 79.3022 5.16367C79.3643 5.24997 79.4402 5.31721 79.5298 5.36539C79.6195 5.42075 79.7265 5.44838 79.8508 5.44838H81.0524V17.5562V17.5564Z" fill="#AE7A3F"/>
<path d="M93.974 13.8324C93.974 14.6931 94.0344 15.4878 94.1553 16.2164C94.2763 16.9449 94.4644 17.5734 94.72 18.1017C94.9755 18.6301 95.3001 19.0461 95.6937 19.3499C96.0873 19.6537 96.5671 19.8057 97.1332 19.8057C97.6993 19.8057 98.1791 19.6538 98.5727 19.3499C98.9663 19.0461 99.2909 18.6301 99.5464 18.1017C99.802 17.5734 99.9902 16.945 100.111 16.2164C100.232 15.4879 100.292 14.6931 100.292 13.8324C100.292 12.9907 100.232 12.2063 100.111 11.4795C99.9902 10.7525 99.802 10.1267 99.5464 9.60199C99.2909 9.07723 98.9663 8.66467 98.5727 8.3642C98.1791 8.06383 97.6993 7.9136 97.1332 7.9136C96.5671 7.9136 96.0873 8.06383 95.6937 8.3642C95.3001 8.66458 94.9755 9.07723 94.72 9.60199C94.4644 10.1267 94.2763 10.7525 94.1553 11.4795C94.0344 12.2064 93.974 12.9907 93.974 13.8324ZM104.746 13.8285C104.746 14.7194 104.616 15.6206 104.355 16.5322C104.094 17.4439 103.664 18.2726 103.063 19.0184C102.462 19.7642 101.675 20.3755 100.7 20.852C99.7256 21.3284 98.5244 21.5667 97.0967 21.5667C95.6914 21.5667 94.507 21.3284 93.5438 20.852C92.5806 20.3755 91.7987 19.7642 91.1981 19.0184C90.5976 18.2726 90.1678 17.4438 89.9089 16.5322C89.6499 15.6206 89.5205 14.7194 89.5205 13.8285C89.5205 12.9583 89.65 12.0674 89.9089 11.1558C90.1678 10.2442 90.5976 9.42062 91.1981 8.68512C91.7986 7.94961 92.5805 7.34361 93.5438 6.86712C94.507 6.39063 95.6914 6.15234 97.0967 6.15234C98.5245 6.15234 99.7256 6.39063 100.7 6.86712C101.675 7.34361 102.462 7.9497 103.063 8.68512C103.664 9.42062 104.094 10.2442 104.355 11.1558C104.616 12.0674 104.746 12.9583 104.746 13.8285Z" fill="#AE7A3F"/>
<path d="M114.789 18.189C114.789 18.6105 114.6 18.9611 114.224 19.2408C113.848 19.5206 113.301 19.6604 112.582 19.6604C112.196 19.6604 111.805 19.612 111.412 19.5152C111.018 19.4184 110.63 19.2699 110.247 19.0697C109.864 18.8694 109.498 18.6192 109.149 18.3187C108.801 18.0183 108.481 17.6609 108.191 17.2465C108.053 17.0533 107.915 16.8668 107.777 16.6871C107.639 16.5074 107.435 16.4176 107.166 16.4176C107.028 16.4176 106.922 16.4522 106.85 16.5213C106.777 16.5904 106.731 16.6595 106.71 16.7284C106.662 16.832 106.638 16.9426 106.638 17.0601V19.2147C106.638 19.5462 106.847 19.857 107.264 20.147C107.682 20.4371 108.195 20.6857 108.802 20.8928C109.41 21.1 110.064 21.264 110.765 21.385C111.466 21.5059 112.096 21.5663 112.655 21.5663C113.56 21.5663 114.378 21.4662 115.11 21.266C115.842 21.0657 116.468 20.7722 116.99 20.3854C117.511 19.9985 117.91 19.5324 118.186 18.9869C118.462 18.4414 118.6 17.8336 118.6 17.1635C118.6 16.2519 118.402 15.4992 118.005 14.9053C117.608 14.3115 117.114 13.8039 116.523 13.3826C115.933 12.9613 115.294 12.6108 114.607 12.331C113.92 12.0513 113.282 11.7785 112.691 11.5128C112.101 11.2471 111.607 10.957 111.21 10.6426C110.813 10.3283 110.615 9.93983 110.615 9.47725C110.615 9.12502 110.781 8.80042 111.112 8.50336C111.443 8.2063 111.944 7.90869 112.614 7.90869C113.152 7.90869 114.137 8.01748 114.821 8.38417C115.33 8.657 115.93 9.11139 116.338 9.58069C116.711 10.009 117.015 10.3371 117.25 10.565C117.484 10.7929 117.743 10.9068 118.026 10.9068C118.151 10.9068 118.249 10.8792 118.322 10.824C118.394 10.7688 118.448 10.7066 118.482 10.6373C118.517 10.5616 118.534 10.4787 118.534 10.3887V8.10986C118.534 7.77836 118.361 7.4883 118.016 7.23969C117.671 6.99109 117.241 6.63987 116.727 6.48448C116.212 6.32908 115.051 6.06076 114.437 5.97787C113.822 5.89497 113.252 5.85352 112.728 5.85352C111.837 5.85352 111.027 5.95189 110.299 6.14873C109.57 6.34557 108.945 6.78135 108.424 7.15762C107.903 7.53399 107.353 8.14063 107.074 8.67929C106.794 9.21796 106.654 9.82239 106.654 10.4925C106.654 11.397 106.853 12.1566 107.25 12.7713C107.647 13.3861 108.289 13.9059 108.88 14.3306C109.47 14.7553 110.109 15.1127 110.796 15.4027C111.483 15.6928 112.122 15.9742 112.712 16.2469C113.303 16.5197 113.796 16.8027 114.193 17.0962C114.59 17.3897 114.789 17.754 114.789 18.189H114.789Z" fill="#AE7A3F"/>
</svg>
