<svg width="16" height="16" viewBox="0 0 16 16" fill="none" xmlns="http://www.w3.org/2000/svg">
<path d="M9.25 4.17736C9.25 4.47433 9.60905 4.62305 9.81904 4.41306L12.7729 1.45915L14.5407 3.22705L11.5868 6.18096C11.3768 6.39095 11.5255 6.75 11.8225 6.75H16V9.25H11.8223C11.5253 9.25 11.3766 9.60905 11.5866 9.81904L14.5405 12.7729L12.7728 14.5407L9.81904 11.5869C9.60905 11.377 9.25 11.5257 9.25 11.8226V16H6.75V11.1633C6.75 11.0435 6.87283 10.9624 6.98628 11.0007C7.30454 11.1083 7.64544 11.1667 8 11.1667C9.7489 11.1667 11.1667 9.7489 11.1667 8C11.1667 6.2511 9.7489 4.83333 8 4.83333C6.2511 4.83333 4.83333 6.2511 4.83333 8C4.83333 8.35456 4.89174 8.69546 4.99928 9.01372C5.03761 9.12717 4.95648 9.25 4.83673 9.25H0V6.75H4.17736C4.47433 6.75 4.62305 6.39095 4.41306 6.18096L1.45915 3.22705L3.22689 1.45915L6.18096 4.41322C6.39095 4.62321 6.75 4.47449 6.75 4.17752V0H9.25V4.17736Z" fill="#DAF6FF"/>
</svg>
