<svg width="323" height="47" viewBox="0 0 323 47" fill="none" xmlns="http://www.w3.org/2000/svg">
<g clip-path="url(#clip0_1007_799)">
<path d="M70.5288 16.0633C71.8321 13.665 73.6492 11.7891 75.9796 10.4493C78.3105 9.10939 80.9568 8.43945 83.9063 8.43945C87.5264 8.43945 90.6202 9.41754 93.2012 11.3604C95.7823 13.3032 97.4931 15.9561 98.3624 19.3192H90.1994C89.5938 18.0196 88.7246 17.0416 87.6183 16.3582C86.4992 15.6748 85.2357 15.3399 83.8134 15.3399C81.5227 15.3399 79.6795 16.1437 78.2571 17.765C76.8355 19.3862 76.1244 21.5568 76.1244 24.2634C76.1244 26.9699 76.8355 29.1406 78.2571 30.7618C79.6795 32.3831 81.5227 33.1871 83.8134 33.1871C85.2357 33.1871 86.4992 32.852 87.6183 32.1688C88.7375 31.4854 89.5938 30.5072 90.1994 29.2076H98.3624C97.4931 32.5707 95.7685 35.2103 93.2012 37.1396C90.6202 39.0691 87.5264 40.0338 83.9063 40.0338C80.9568 40.0338 78.3105 39.3639 75.9796 38.024C73.6492 36.684 71.8321 34.8217 70.5288 32.4367C69.2252 30.0518 68.5801 27.3317 68.5801 24.2634C68.5801 21.1951 69.2252 18.4618 70.5288 16.0633Z" fill="#AE7A3F"/>
<path d="M106.683 38.628C104.787 37.5963 103.299 36.1224 102.206 34.2064C101.126 32.2904 100.573 30.0528 100.573 27.4937C100.573 24.9344 101.126 22.7236 102.22 20.7943C103.325 18.8648 104.827 17.391 106.736 16.3592C108.644 15.3275 110.791 14.8184 113.16 14.8184C115.531 14.8184 117.677 15.3275 119.586 16.3592C121.495 17.391 122.996 18.8648 124.102 20.7943C125.208 22.7236 125.748 24.9613 125.748 27.4937C125.748 30.0261 125.194 32.2635 124.075 34.1929C122.956 36.1224 121.442 37.5963 119.52 38.628C117.598 39.6597 115.452 40.1689 113.069 40.1689C110.685 40.1689 108.565 39.6597 106.67 38.628H106.683ZM116.715 32.0492C117.716 30.9906 118.217 29.4767 118.217 27.4937C118.217 25.5107 117.73 24.0099 116.769 22.9381C115.794 21.8794 114.609 21.3435 113.187 21.3435C111.765 21.3435 110.541 21.8661 109.58 22.9111C108.619 23.9563 108.144 25.4837 108.144 27.4802C108.144 29.4767 108.619 30.9773 109.553 32.0358C110.488 33.0943 111.673 33.6303 113.095 33.6303C114.517 33.6303 115.729 33.0943 116.715 32.0358V32.0492Z" fill="#AE7A3F"/>
<path d="M128.776 20.7686C129.71 18.8526 131.001 17.3788 132.62 16.347C134.24 15.3153 136.044 14.8062 138.045 14.8062C139.638 14.8062 141.086 15.1412 142.403 15.8244C143.72 16.5078 144.76 17.4189 145.51 18.5578V7.11523H152.936V39.8083H145.51V36.271C144.812 37.4501 143.825 38.388 142.535 39.0982C141.244 39.8083 139.743 40.1567 138.045 40.1567C136.044 40.1567 134.24 39.6341 132.62 38.589C131.001 37.5438 129.724 36.0567 128.776 34.1272C127.841 32.1977 127.367 29.9735 127.367 27.4278C127.367 24.8821 127.841 22.6712 128.776 20.7552V20.7686ZM143.97 23.0195C142.942 21.9344 141.692 21.385 140.217 21.385C138.743 21.385 137.492 21.9209 136.465 22.9929C135.438 24.0647 134.925 25.5519 134.925 27.4278C134.925 29.3037 135.438 30.8044 136.465 31.9164C137.492 33.0152 138.743 33.5778 140.217 33.5778C141.692 33.5778 142.942 33.0285 143.97 31.9432C144.997 30.8579 145.51 29.3706 145.51 27.4813C145.51 25.5921 144.997 24.105 143.97 23.0195Z" fill="#AE7A3F"/>
<path d="M180.165 29.3024H163.365C163.484 30.8298 163.971 32.0091 164.813 32.813C165.669 33.6168 166.722 34.0323 167.96 34.0323C169.817 34.0323 171.106 33.2417 171.831 31.6473H179.73C179.323 33.2685 178.599 34.729 177.532 36.0153C176.478 37.3149 175.149 38.3332 173.556 39.0701C171.963 39.8071 170.184 40.1689 168.21 40.1689C165.841 40.1689 163.72 39.6597 161.877 38.628C160.02 37.5963 158.572 36.1224 157.532 34.2064C156.492 32.2904 155.965 30.0528 155.965 27.4937C155.965 24.9344 156.479 22.6968 157.505 20.7808C158.534 18.8648 159.968 17.391 161.825 16.3592C163.681 15.3275 165.8 14.8184 168.21 14.8184C170.619 14.8184 172.634 15.314 174.464 16.319C176.28 17.324 177.716 18.7443 178.743 20.6066C179.769 22.4557 180.283 24.6263 180.283 27.1051C180.283 27.8153 180.244 28.5522 180.151 29.3159L180.165 29.3024ZM172.7 25.1086C172.7 23.8089 172.266 22.7773 171.396 22.0134C170.527 21.2497 169.448 20.8611 168.144 20.8611C166.841 20.8611 165.853 21.223 164.997 21.9599C164.141 22.6968 163.615 23.742 163.418 25.0952H172.714L172.7 25.1086Z" fill="#AE7A3F"/>
<path d="M199.308 39.817L192.976 28.1064H191.197V39.817H183.771V8.79883H196.228C198.637 8.79883 200.678 9.22758 202.377 10.0851C204.075 10.9426 205.338 12.1083 206.181 13.5956C207.024 15.0829 207.446 16.7443 207.446 18.5665C207.446 20.63 206.879 22.4657 205.734 24.0869C204.588 25.7081 202.903 26.8604 200.678 27.5303L207.708 39.817H199.321H199.308ZM191.185 22.7603H195.794C197.148 22.7603 198.176 22.4254 198.848 21.7421C199.533 21.0587 199.874 20.1074 199.874 18.8746C199.874 17.642 199.533 16.7711 198.848 16.0877C198.163 15.4043 197.148 15.0694 195.794 15.0694H191.185V22.7603Z" fill="#AE7A3F"/>
<path d="M211.145 20.7663C212.081 18.8503 213.37 17.3764 214.99 16.3447C216.61 15.313 218.426 14.9512 220.415 14.9512H235.306V39.806H227.88V36.3222C227.156 37.4745 226.155 38.3991 224.865 39.1093C223.574 39.8193 222.074 40.1678 220.375 40.1678C218.401 40.1678 216.61 39.6452 214.99 38.6C213.37 37.555 212.093 36.0678 211.145 34.1383C210.211 32.2087 209.737 29.9846 209.737 27.4389C209.737 24.8931 210.211 22.6823 211.145 20.7663ZM226.339 23.0173C225.313 21.9319 224.061 21.3827 222.588 21.3827C221.114 21.3827 219.861 21.9186 218.836 22.9904C217.808 24.0624 217.293 25.5497 217.293 27.4255C217.293 29.3014 217.808 30.802 218.836 31.9141C219.861 33.0128 221.114 33.5755 222.588 33.5755C224.061 33.5755 225.313 33.0263 226.339 31.9408C227.366 30.8555 227.88 29.3684 227.88 27.479C227.88 25.5898 227.366 24.1026 226.339 23.0173Z" fill="#AE7A3F"/>
<path d="M250.248 15.8647C251.552 15.1545 253.04 14.8062 254.724 14.8062C256.727 14.8062 258.529 15.3153 260.149 16.347C261.769 17.3788 263.046 18.8526 263.995 20.7686C264.929 22.6847 265.404 24.9087 265.404 27.4411C265.404 29.9735 264.929 32.2112 263.995 34.1405C263.06 36.07 261.769 37.5573 260.149 38.6024C258.529 39.6475 256.727 40.17 254.724 40.17C253.013 40.17 251.526 39.8217 250.248 39.1384C248.971 38.4416 247.97 37.5305 247.246 36.3782V39.8217H239.82V7.11523H247.246V18.6516C247.944 17.4993 248.946 16.5748 250.248 15.8647ZM256.305 23.0062C255.279 21.9344 254.014 21.3983 252.5 21.3983C250.987 21.3983 249.774 21.9477 248.748 23.033C247.721 24.1183 247.207 25.6056 247.207 27.4948C247.207 29.384 247.721 30.8712 248.748 31.9566C249.774 33.0419 251.026 33.5913 252.5 33.5913C253.975 33.5913 255.238 33.0419 256.278 31.9297C257.318 30.8311 257.846 29.3305 257.846 27.4411C257.846 25.5519 257.332 24.078 256.305 23.0062Z" fill="#AE7A3F"/>
<path d="M278.86 15.8647C280.164 15.1545 281.652 14.8062 283.337 14.8062C285.339 14.8062 287.142 15.3153 288.762 16.347C290.38 17.3788 291.659 18.8526 292.606 20.7686C293.541 22.6847 294.014 24.9087 294.014 27.4411C294.014 29.9735 293.541 32.2112 292.606 34.1405C291.671 36.07 290.38 37.5573 288.762 38.6024C287.142 39.6475 285.339 40.17 283.337 40.17C281.625 40.17 280.137 39.8217 278.86 39.1384C277.583 38.4416 276.582 37.5305 275.858 36.3782V39.8217H268.433V7.11523H275.858V18.6516C276.555 17.4993 277.556 16.5748 278.86 15.8647ZM284.916 23.0062C283.89 21.9344 282.626 21.3983 281.111 21.3983C279.598 21.3983 278.387 21.9477 277.359 23.033C276.333 24.1183 275.819 25.6056 275.819 27.4948C275.819 29.384 276.333 30.8712 277.359 31.9566C278.387 33.0419 279.636 33.5913 281.111 33.5913C282.586 33.5913 283.851 33.0419 284.891 31.9297C285.931 30.8311 286.457 29.3305 286.457 27.4411C286.457 25.5519 285.944 24.078 284.916 23.0062Z" fill="#AE7A3F"/>
<path d="M297.596 11.4259C296.766 10.6487 296.358 9.68402 296.358 8.53171C296.358 7.37942 296.766 6.37447 297.596 5.59738C298.425 4.82018 299.479 4.43164 300.781 4.43164C302.085 4.43164 303.099 4.82018 303.928 5.59738C304.758 6.37447 305.166 7.35255 305.166 8.53171C305.166 9.7108 304.758 10.6487 303.928 11.4259C303.099 12.203 302.058 12.5915 300.781 12.5915C299.504 12.5915 298.412 12.203 297.596 11.4259ZM304.481 15.164V39.8178H297.055V15.1507H304.481V15.164Z" fill="#AE7A3F"/>
<path d="M322.493 33.4022V39.8068H318.714C316.028 39.8068 313.923 39.1368 312.421 37.797C310.919 36.4571 310.17 34.2731 310.17 31.2316V21.4237H307.221V15.1531H310.17V9.15039H317.596V15.1531H322.454V21.4237H317.596V31.3254C317.596 32.0623 317.767 32.5983 318.123 32.9198C318.465 33.2414 319.045 33.4022 319.86 33.4022H322.507H322.493Z" fill="#AE7A3F"/>
<path d="M23.4561 0C36.4089 0.000174125 46.909 10.5002 46.9092 23.4531C46.9092 36.4063 36.409 46.9071 23.4561 46.9072C10.5028 46.9072 0.00195312 36.4064 0.00195312 23.4531C0.00210405 10.5001 10.5029 0 23.4561 0ZM19.1904 6.56641C20.2213 13.9768 24.4789 12.0461 26.9863 17.1533C26.9515 17.1062 22.7262 11.4118 15.7988 13.5205C15.8143 13.5529 18.3577 18.8464 25.834 19.9307C25.8414 19.956 26.4361 21.9917 26.6162 22.3525C26.6162 22.3525 15.0664 16.3299 11.5596 27.8896C8.94971 27.2984 8.07453 30.132 11.0742 32.0674C11.0742 32.0674 11.5843 30.0399 12.8271 29.4385C12.8271 29.4385 10.1605 32.4132 13.2969 35.9756H24.5537C24.8259 35.5246 26.0288 33.1545 23.0518 31.3604C25.1535 31.3302 26.8646 35.2944 28.7051 36.0029H31.3818C31.4724 35.7828 31.6616 35.1233 31.2168 34.5303C30.5312 33.7442 29.0306 33.8505 29.0439 32.3965C29.5624 25.6318 39.7053 27.7088 39.3828 19.5674C39.3428 19.5164 36.0901 15.3889 32.0078 15.1514C29.357 14.9949 28.7147 15.3495 28.5996 15.6133C28.4351 14.2456 27.266 7.90922 19.1904 6.56641Z" fill="#AE7A3F"/>
</g>
<defs>
<clipPath id="clip0_1007_799">
<rect width="322.509" height="46.9076" fill="white"/>
</clipPath>
</defs>
</svg>
