<svg width="193" height="37" viewBox="0 0 193 37" fill="none" xmlns="http://www.w3.org/2000/svg">
<path d="M7.90412 36.6968C3.76523 36.6968 1.20717 34.771 0.546103 31.3507L4.19637 30.3735C4.68499 32.4429 5.74845 33.3339 7.90412 33.3339C9.11129 33.3339 9.94482 32.874 9.94482 32.098C9.94482 31.2357 9.255 30.8621 6.29455 29.9136C2.84548 28.8214 1.32214 27.4992 1.32214 25.1711C1.32214 22.5843 3.90895 20.6011 7.18556 20.6011C10.3185 20.6011 13.049 22.4119 13.7963 25.0849L10.146 26.1484C9.65739 24.7112 8.56519 23.9352 7.18556 23.9352C6.09336 23.9352 5.43228 24.5388 5.43228 25.1711C5.43228 25.746 5.77719 25.9472 8.47896 26.8382C12.158 28.1028 14.055 29.425 14.055 32.0693C14.055 34.7998 11.3819 36.6968 7.90412 36.6968ZM20.2004 36.6968C16.7513 36.6968 14.7106 34.5986 14.7106 31.0633V21.0322H18.8208V30.1148C18.8208 32.0118 19.7405 32.9315 21.4938 32.9315C23.1321 32.9315 24.1668 31.8393 24.1668 30.1148V21.0322H28.277V36.2656H24.3393V34.9147H24.2818C23.4195 36.0069 21.8387 36.6968 20.2004 36.6968ZM33.9796 36.2656H30.0132V21.0322H33.8072V22.3831H33.8647C34.7269 21.2622 36.2503 20.6011 37.8598 20.6011C39.3257 20.6011 40.9352 21.2622 41.7688 22.4693H41.8263C42.8322 21.2909 44.1544 20.6011 45.9077 20.6011C49.3567 20.6011 51.5411 23.1592 51.5411 26.1771V36.2656H47.5747V26.9531C47.5747 25.2861 46.5975 24.3376 45.1316 24.3376C43.637 24.3376 42.6598 25.4011 42.6598 27.0394V36.2656H38.8658V26.9531C38.8658 25.2861 37.8886 24.3376 36.4227 24.3376C34.9281 24.3376 33.9796 25.4011 33.9796 27.0394V36.2656ZM57.0531 36.2656H53.0867V21.0322H56.8807V22.3831H56.9382C57.8004 21.2622 59.3238 20.6011 60.9333 20.6011C62.3992 20.6011 64.0088 21.2622 64.8423 22.4693H64.8998C65.9057 21.2909 67.2279 20.6011 68.9812 20.6011C72.4302 20.6011 74.6146 23.1592 74.6146 26.1771V36.2656H70.6482V26.9531C70.6482 25.2861 69.671 24.3376 68.2051 24.3376C66.7105 24.3376 65.7333 25.4011 65.7333 27.0394V36.2656H61.9393V26.9531C61.9393 25.2861 60.9621 24.3376 59.4962 24.3376C58.0016 24.3376 57.0531 25.4011 57.0531 27.0394V36.2656ZM82.8284 36.6968C78.5171 36.6968 75.5566 33.4776 75.5566 28.6489C75.5566 23.9065 78.5171 20.6011 82.7422 20.6011C86.996 20.6011 89.899 23.849 89.899 28.6489V29.8561H79.6955C79.8105 32.0118 80.9602 33.2477 82.8284 33.2477C84.323 33.2477 85.444 32.5291 86.5074 30.9771L89.4104 33.2477C87.9445 35.5471 85.7026 36.6968 82.8284 36.6968ZM79.6955 26.9531H85.9038C85.7601 25.1136 84.6392 24.0502 82.7709 24.0502C81.0751 24.0502 79.8392 25.1999 79.6955 26.9531ZM95.1198 36.2656H91.0096V21.0322H94.8611V22.3831H94.9186C95.5796 21.3771 96.7006 20.7448 98.1952 20.7448C98.9425 20.7448 99.5748 20.831 100.178 21.0035L99.4886 24.9124C98.8275 24.74 98.3389 24.6825 97.7928 24.6825C96.0395 24.6825 95.1198 25.8609 95.1198 28.0741V36.2656ZM105.41 36.2656H101.156V16.1461H105.41V24.0214H111.935V16.1461H116.189V36.2656H111.935V27.9016H105.41V36.2656ZM123.061 36.6968C120.043 36.6968 118.06 34.886 118.06 32.1267C118.06 29.5687 119.583 28.1891 123.492 27.2406C125.907 26.6657 126.654 26.2346 126.654 25.4298C126.654 24.5388 125.878 24.0214 124.556 24.0214C122.975 24.0214 121.94 24.9124 121.653 26.4645L117.887 25.631C118.347 22.6131 121.049 20.6011 124.556 20.6011C128.378 20.6011 130.793 22.8143 130.793 26.3783V36.2656H127.114V35.0585H127.056C126.165 36.1219 124.757 36.6968 123.061 36.6968ZM123.866 33.2477C125.59 33.2477 126.798 32.3854 126.798 31.1208V28.9076H126.74C126.481 29.3675 125.849 29.7124 124.469 30.1148C122.63 30.6034 121.998 31.0633 121.998 31.8681C121.998 32.7878 122.63 33.2477 123.866 33.2477ZM139.141 36.6968C134.83 36.6968 131.754 33.4489 131.754 28.6489C131.754 23.849 134.83 20.6011 139.141 20.6011C142.849 20.6011 145.551 22.7855 146.097 26.3495L142.217 27.0681C141.9 25.2573 140.78 24.3376 139.141 24.3376C137.101 24.3376 135.865 25.9184 135.865 28.6489C135.865 31.3794 137.101 32.9603 139.141 32.9603C140.837 32.9603 141.929 32.0405 142.217 30.2298L146.097 30.9483C145.551 34.5123 142.849 36.6968 139.141 36.6968ZM151.177 36.2656H147.067V15.2838H151.177V26.8669H151.235L156.293 21.0322H161.352L155.862 27.1256L161.524 36.2656H156.782L153.045 29.9423H152.988L151.177 32.0405V36.2656ZM167.149 36.6968C163.01 36.6968 160.452 34.771 159.79 31.3507L163.441 30.3735C163.929 32.4429 164.993 33.3339 167.149 33.3339C168.356 33.3339 169.189 32.874 169.189 32.098C169.189 31.2357 168.499 30.8621 165.539 29.9136C162.09 28.8214 160.567 27.4992 160.567 25.1711C160.567 22.5843 163.153 20.6011 166.43 20.6011C169.563 20.6011 172.293 22.4119 173.041 25.0849L169.39 26.1484C168.902 24.7112 167.81 23.9352 166.43 23.9352C165.338 23.9352 164.677 24.5388 164.677 25.1711C164.677 25.746 165.022 25.9472 167.723 26.8382C171.402 28.1028 173.299 29.425 173.299 32.0693C173.299 34.7998 170.626 36.6968 167.149 36.6968Z" fill="white"/>
<path d="M181.65 6.85163C181.65 7.33872 182.239 7.58265 182.584 7.23823L187.428 2.39327L190.328 5.29295L185.483 10.1379C185.139 10.4823 185.382 11.0712 185.87 11.0712H192.721V15.1717H185.869C185.382 15.1717 185.138 15.7606 185.483 16.105L190.328 20.95L187.428 23.8494L182.584 19.0047C182.239 18.6603 181.65 18.9042 181.65 19.3913V26.2429H177.55V18.3098C177.55 18.1134 177.751 17.9803 177.937 18.0432C178.459 18.2196 179.018 18.3154 179.6 18.3154C182.468 18.3154 184.794 15.99 184.794 13.1215C184.794 10.2529 182.468 7.92755 179.6 7.92755C176.731 7.92755 174.406 10.2529 174.406 13.1215C174.406 13.703 174.502 14.2621 174.678 14.7842C174.741 14.9702 174.608 15.1717 174.412 15.1717H166.479V11.0712H173.33C173.817 11.0712 174.061 10.4823 173.717 10.1379L168.872 5.29295L171.771 2.39327L176.616 7.23849C176.961 7.58291 177.55 7.33898 177.55 6.8519V0H181.65V6.85163Z" fill="white"/>
<g clip-path="url(#clip0_997_145)">
<path d="M19.7363 4.36925C20.0909 3.71671 20.5853 3.20632 21.2194 2.84176C21.8536 2.4772 22.5736 2.29492 23.3761 2.29492C24.3611 2.29492 25.2028 2.56105 25.9051 3.08966C26.6074 3.61828 27.0729 4.34009 27.3094 5.25514H25.0883C24.9236 4.90154 24.6871 4.63543 24.3861 4.44949C24.0816 4.26355 23.7378 4.17242 23.3508 4.17242C22.7275 4.17242 22.226 4.39114 21.839 4.83226C21.4522 5.27337 21.2588 5.86397 21.2588 6.60038C21.2588 7.3368 21.4522 7.92739 21.839 8.36851C22.226 8.80962 22.7275 9.02838 23.3508 9.02838C23.7378 9.02838 24.0816 8.93721 24.3861 8.75131C24.6906 8.56537 24.9236 8.29923 25.0883 7.94562H27.3094C27.0729 8.86067 26.6036 9.57886 25.9051 10.1038C25.2028 10.6288 24.3611 10.8913 23.3761 10.8913C22.5736 10.8913 21.8536 10.709 21.2194 10.3444C20.5853 9.97985 20.0909 9.47313 19.7363 8.82422C19.3816 8.17531 19.2061 7.43523 19.2061 6.60038C19.2061 5.76554 19.3816 5.02186 19.7363 4.36925Z" fill="white"/>
<path d="M29.5734 10.5095C29.0576 10.2288 28.6529 9.82777 28.3554 9.30645C28.0616 8.78513 27.9111 8.1763 27.9111 7.48001C27.9111 6.78368 28.0616 6.18216 28.3591 5.65721C28.6599 5.13222 29.0684 4.73123 29.5879 4.45048C30.1072 4.16978 30.6912 4.03125 31.3359 4.03125C31.9809 4.03125 32.5647 4.16978 33.0842 4.45048C33.6037 4.73123 34.0119 5.13222 34.313 5.65721C34.614 6.18216 34.7607 6.79098 34.7607 7.48001C34.7607 8.16904 34.6102 8.77783 34.3057 9.30278C34.0012 9.82777 33.5892 10.2288 33.0662 10.5095C32.5432 10.7902 31.9594 10.9288 31.3109 10.9288C30.6624 10.9288 30.0856 10.7902 29.5699 10.5095H29.5734ZM32.3032 8.71952C32.5754 8.43148 32.7117 8.01956 32.7117 7.48001C32.7117 6.94047 32.5792 6.53213 32.3177 6.24051C32.0524 5.95246 31.7302 5.80665 31.3432 5.80665C30.9562 5.80665 30.6231 5.94884 30.3616 6.23317C30.1001 6.51754 29.9711 6.93313 29.9711 7.47634C29.9711 8.01956 30.1001 8.42785 30.3544 8.71585C30.6087 9.00385 30.9312 9.1497 31.3182 9.1497C31.7049 9.1497 32.0347 9.00385 32.3032 8.71585V8.71952Z" fill="white"/>
<path d="M35.5844 5.65042C35.8387 5.1291 36.1899 4.72811 36.6304 4.44736C37.0712 4.16666 37.5619 4.02814 38.1065 4.02814C38.54 4.02814 38.934 4.11928 39.2922 4.30518C39.6505 4.49112 39.9335 4.73903 40.1375 5.04889V1.93555H42.1582V10.8308H40.1375V9.8684C39.9477 10.1892 39.679 10.4444 39.328 10.6376C38.977 10.8308 38.5684 10.9256 38.1065 10.9256C37.5619 10.9256 37.0712 10.7835 36.6304 10.4991C36.1899 10.2147 35.8424 9.81009 35.5844 9.2851C35.3302 8.76011 35.2012 8.15496 35.2012 7.4623C35.2012 6.76963 35.3302 6.16811 35.5844 5.64679V5.65042ZM39.7185 6.26287C39.439 5.96761 39.0987 5.81813 38.6975 5.81813C38.2962 5.81813 37.956 5.96394 37.6765 6.25561C37.3972 6.54724 37.2575 6.9519 37.2575 7.4623C37.2575 7.97269 37.3972 8.38102 37.6765 8.68357C37.956 8.98254 38.2962 9.13562 38.6975 9.13562C39.0987 9.13562 39.439 8.98617 39.7185 8.69087C39.998 8.39557 40.1375 7.99091 40.1375 7.47685C40.1375 6.96283 39.998 6.55821 39.7185 6.26287Z" fill="white"/>
<path d="M49.5669 7.97214H44.9959C45.0282 8.38772 45.1607 8.70859 45.3898 8.92731C45.6227 9.14603 45.9093 9.25907 46.2461 9.25907C46.7513 9.25907 47.102 9.04397 47.2994 8.61016H49.4487C49.3378 9.05127 49.1408 9.44863 48.8505 9.79861C48.5638 10.1522 48.2021 10.4293 47.7687 10.6298C47.3353 10.8303 46.8512 10.9288 46.3142 10.9288C45.6696 10.9288 45.0926 10.7902 44.591 10.5095C44.0858 10.2288 43.6919 9.82777 43.4089 9.30645C43.126 8.78513 42.9824 8.1763 42.9824 7.48001C42.9824 6.78368 43.1223 6.17486 43.4016 5.65354C43.6813 5.13222 44.0716 4.73123 44.5768 4.45048C45.082 4.16978 45.6585 4.03125 46.3142 4.03125C46.9695 4.03125 47.5179 4.16611 48.0158 4.43956C48.51 4.713 48.9006 5.09943 49.18 5.60615C49.4593 6.10925 49.5991 6.69985 49.5991 7.37428C49.5991 7.56752 49.5885 7.76801 49.5632 7.97581L49.5669 7.97214ZM47.5359 6.83106C47.5359 6.47745 47.4176 6.19675 47.1811 5.98892C46.9446 5.78112 46.651 5.67539 46.2963 5.67539C45.9415 5.67539 45.6728 5.77387 45.44 5.97436C45.2072 6.17486 45.064 6.45923 45.0102 6.82743H47.5395L47.5359 6.83106Z" fill="white"/>
<path d="M54.7751 10.8341L53.0523 7.64784H52.5683V10.8341H50.5479V2.39453H53.9371C54.5924 2.39453 55.1478 2.51119 55.6102 2.74449C56.0722 2.97783 56.4159 3.29499 56.6451 3.69966C56.8746 4.10433 56.9892 4.55637 56.9892 5.05217C56.9892 5.61361 56.8351 6.11308 56.5236 6.55419C56.2116 6.9953 55.7533 7.30883 55.1478 7.4911L57.0606 10.8341H54.7788H54.7751ZM52.565 6.19324H53.8189C54.1875 6.19324 54.4672 6.10211 54.6499 5.91621C54.8363 5.73027 54.9292 5.47143 54.9292 5.136C54.9292 4.80062 54.8363 4.56367 54.6499 4.37773C54.4636 4.1918 54.1875 4.10066 53.8189 4.10066H52.565V6.19324Z" fill="white"/>
<path d="M57.9962 5.65057C58.251 5.12925 58.6017 4.72822 59.0425 4.44751C59.4833 4.16681 59.9775 4.06836 60.5186 4.06836H64.5701V10.831H62.5496V9.88311C62.3527 10.1966 62.0803 10.4482 61.7292 10.6414C61.3781 10.8346 60.97 10.9294 60.5076 10.9294C59.9705 10.9294 59.4833 10.7872 59.0425 10.5029C58.6017 10.2185 58.2543 9.81387 57.9962 9.28888C57.7421 8.76389 57.6133 8.15873 57.6133 7.46607C57.6133 6.77341 57.7421 6.17189 57.9962 5.65057ZM62.1304 6.26302C61.8511 5.96772 61.5106 5.81828 61.1098 5.81828C60.7086 5.81828 60.3677 5.96409 60.0888 6.25572C59.8091 6.54739 59.6692 6.95205 59.6692 7.46245C59.6692 7.97284 59.8091 8.38113 60.0888 8.68372C60.3677 8.98265 60.7086 9.13577 61.1098 9.13577C61.5106 9.13577 61.8511 8.98632 62.1304 8.69098C62.4098 8.39568 62.5496 7.99106 62.5496 7.477C62.5496 6.96298 62.4098 6.55832 62.1304 6.26302Z" fill="white"/>
<path d="M68.635 4.31615C68.9898 4.12291 69.3947 4.02814 69.853 4.02814C70.3978 4.02814 70.8883 4.16666 71.3291 4.44736C71.7699 4.72811 72.1173 5.1291 72.3754 5.65042C72.6295 6.17178 72.7587 6.77689 72.7587 7.46592C72.7587 8.15496 72.6295 8.76378 72.3754 9.28873C72.121 9.81372 71.7699 10.2184 71.3291 10.5028C70.8883 10.7871 70.3978 10.9293 69.853 10.9293C69.3874 10.9293 68.9829 10.8345 68.635 10.6486C68.2876 10.459 68.0152 10.2111 67.8183 9.89755V10.8345H65.7979V1.93555H67.8183V5.07442C68.0083 4.76089 68.2807 4.50934 68.635 4.31615ZM70.2832 6.25924C70.0039 5.96761 69.6597 5.82176 69.2479 5.82176C68.8361 5.82176 68.5062 5.97124 68.2269 6.26654C67.9476 6.56184 67.8077 6.9665 67.8077 7.48052C67.8077 7.99454 67.9476 8.3992 68.2269 8.6945C68.5062 8.9898 68.8467 9.13929 69.2479 9.13929C69.6491 9.13929 69.9929 8.9898 70.2759 8.6872C70.5588 8.38828 70.7024 7.97999 70.7024 7.46592C70.7024 6.9519 70.5625 6.55087 70.2832 6.25924Z" fill="white"/>
<path d="M76.4202 4.31615C76.7749 4.12291 77.1799 4.02814 77.6382 4.02814C78.1829 4.02814 78.6735 4.16666 79.1143 4.44736C79.5546 4.72811 79.9025 5.1291 80.1602 5.65042C80.4146 6.17178 80.5435 6.77689 80.5435 7.46592C80.5435 8.15496 80.4146 8.76378 80.1602 9.28873C79.9057 9.81372 79.5546 10.2184 79.1143 10.5028C78.6735 10.7871 78.1829 10.9293 77.6382 10.9293C77.1725 10.9293 76.7676 10.8345 76.4202 10.6486C76.0728 10.459 75.8004 10.2111 75.6035 9.89755V10.8345H73.583V1.93555H75.6035V5.07442C75.7931 4.76089 76.0654 4.50934 76.4202 4.31615ZM78.068 6.25924C77.7886 5.96761 77.4449 5.82176 77.0327 5.82176C76.6208 5.82176 76.2913 5.97124 76.0116 6.26654C75.7327 6.56184 75.5928 6.9665 75.5928 7.48052C75.5928 7.99454 75.7327 8.3992 76.0116 8.6945C76.2913 8.9898 76.6314 9.13929 77.0327 9.13929C77.4339 9.13929 77.778 8.9898 78.061 8.6872C78.344 8.38828 78.4871 7.97999 78.4871 7.46592C78.4871 6.9519 78.3477 6.55087 78.068 6.25924Z" fill="white"/>
<path d="M81.5185 3.1081C81.2926 2.89664 81.1816 2.63417 81.1816 2.32065C81.1816 2.00712 81.2926 1.73369 81.5185 1.52226C81.7439 1.31079 82.0306 1.20508 82.3849 1.20508C82.7397 1.20508 83.0157 1.31079 83.2412 1.52226C83.4671 1.73369 83.578 1.99981 83.578 2.32065C83.578 2.64146 83.4671 2.89664 83.2412 3.1081C83.0157 3.31954 82.7323 3.42526 82.3849 3.42526C82.0375 3.42526 81.7403 3.31954 81.5185 3.1081ZM83.3917 4.1252V10.8331H81.3712V4.12157H83.3917V4.1252Z" fill="white"/>
<path d="M88.2922 9.08684V10.8294H87.2638C86.5331 10.8294 85.9602 10.6471 85.5516 10.2826C85.1431 9.91802 84.9392 9.32379 84.9392 8.49625V5.82767H84.1367V4.12152H84.9392V2.48828H86.9596V4.12152H88.2816V5.82767H86.9596V8.52177C86.9596 8.72227 87.0061 8.86812 87.1032 8.95559C87.1961 9.04309 87.3539 9.08684 87.5758 9.08684H88.2959H88.2922Z" fill="white"/>
<path d="M6.92871 0C10.4529 0 13.3103 2.85666 13.3105 6.38086C13.3105 9.90524 10.4531 12.7627 6.92871 12.7627C3.40445 12.7626 0.547852 9.90516 0.547852 6.38086C0.548049 2.85674 3.40457 0.000140108 6.92871 0ZM5.76855 1.78613C6.04905 3.80245 7.20742 3.27728 7.88965 4.66699C7.88965 4.66699 6.73822 3.10279 4.8457 3.67871C4.85599 3.70008 5.55038 5.12901 7.5752 5.42285C7.57603 5.42573 7.73891 5.98361 7.78809 6.08203C7.75803 6.06644 4.64104 4.4581 3.69141 7.58789C2.98179 7.42756 2.74391 8.19817 3.55957 8.72461C3.56249 8.71314 3.70253 8.17166 4.03711 8.00977C4.03711 8.00977 3.31118 8.81895 4.16406 9.78809H7.22754C7.30187 9.66478 7.62785 9.02007 6.81836 8.53223C7.39008 8.52403 7.85579 9.60278 8.35645 9.7959H9.08496C9.10959 9.736 9.16101 9.55685 9.04004 9.39551C8.85353 9.18156 8.44559 9.2101 8.44922 8.81445C8.59033 6.97402 11.3503 7.53909 11.2627 5.32422C11.2627 5.32422 10.3734 4.18726 9.25586 4.12207C8.53462 4.0795 8.35944 4.17628 8.32812 4.24805C8.28336 3.87595 7.96551 2.15161 5.76855 1.78613Z" fill="white"/>
</g>
<defs>
<clipPath id="clip0_997_145">
<rect width="87.7498" height="12.7629" fill="white" transform="translate(0.546875)"/>
</clipPath>
</defs>
</svg>
