<svg width="143" height="28" viewBox="0 0 143 28" fill="none" xmlns="http://www.w3.org/2000/svg">
<path d="M5.86488 27.3883C2.79382 27.3883 0.895727 25.9594 0.40521 23.4215L3.11372 22.6964C3.47627 24.2319 4.26537 24.893 5.86488 24.893C6.76061 24.893 7.37909 24.5518 7.37909 23.976C7.37909 23.3362 6.86724 23.0589 4.67058 22.3551C2.11136 21.5447 0.981035 20.5637 0.981035 18.8362C0.981035 16.9168 2.90045 15.4452 5.33171 15.4452C7.65634 15.4452 9.68239 16.7888 10.2369 18.7722L7.52837 19.5613C7.16582 18.495 6.3554 17.9191 5.33171 17.9191C4.52129 17.9191 4.03077 18.367 4.03077 18.8362C4.03077 19.2627 4.28669 19.412 6.29142 20.0732C9.02125 21.0115 10.4288 21.9926 10.4288 23.9546C10.4288 25.9807 8.44543 27.3883 5.86488 27.3883ZM14.9888 27.3883C12.4295 27.3883 10.9153 25.8314 10.9153 23.2082V15.7651H13.9651V22.5044C13.9651 23.912 14.6475 24.5944 15.9485 24.5944C17.1641 24.5944 17.9319 23.784 17.9319 22.5044V15.7651H20.9816V27.0684H18.0598V26.066H18.0172C17.3774 26.8764 16.2044 27.3883 14.9888 27.3883ZM25.213 27.0684H22.2699V15.7651H25.085V16.7675H25.1277C25.7675 15.9357 26.8978 15.4452 28.0921 15.4452C29.1798 15.4452 30.3741 15.9357 30.9926 16.8315H31.0352C31.7817 15.9571 32.7627 15.4452 34.0636 15.4452C36.6228 15.4452 38.2437 17.3433 38.2437 19.5826V27.0684H35.3006V20.1585C35.3006 18.9215 34.5755 18.2177 33.4878 18.2177C32.3788 18.2177 31.6537 19.0068 31.6537 20.2224V27.0684H28.8386V20.1585C28.8386 18.9215 28.1134 18.2177 27.0258 18.2177C25.9168 18.2177 25.213 19.0068 25.213 20.2224V27.0684ZM42.3336 27.0684H39.3905V15.7651H42.2056V16.7675H42.2483C42.8881 15.9357 44.0184 15.4452 45.2127 15.4452C46.3004 15.4452 47.4947 15.9357 48.1132 16.8315H48.1558C48.9023 15.9571 49.8833 15.4452 51.1842 15.4452C53.7435 15.4452 55.3643 17.3433 55.3643 19.5826V27.0684H52.4212V20.1585C52.4212 18.9215 51.6961 18.2177 50.6084 18.2177C49.4994 18.2177 48.7743 19.0068 48.7743 20.2224V27.0684H45.9592V20.1585C45.9592 18.9215 45.2341 18.2177 44.1464 18.2177C43.0374 18.2177 42.3336 19.0068 42.3336 20.2224V27.0684ZM61.459 27.3883C58.2599 27.3883 56.0633 24.9997 56.0633 21.4167C56.0633 17.8978 58.2599 15.4452 61.395 15.4452C64.5513 15.4452 66.7054 17.8552 66.7054 21.4167V22.3125H59.1343C59.2196 23.912 60.0727 24.829 61.459 24.829C62.5679 24.829 63.3997 24.2959 64.1888 23.1442L66.3428 24.829C65.2551 26.5352 63.5916 27.3883 61.459 27.3883ZM59.1343 20.1585H63.7409C63.6343 18.7935 62.8025 18.0045 61.4163 18.0045C60.158 18.0045 59.241 18.8575 59.1343 20.1585ZM70.5792 27.0684H67.5294V15.7651H70.3872V16.7675H70.4299C70.9204 16.0211 71.7522 15.5519 72.8611 15.5519C73.4156 15.5519 73.8848 15.6158 74.3327 15.7438L73.8209 18.6443C73.3303 18.5163 72.9678 18.4736 72.5626 18.4736C71.2616 18.4736 70.5792 19.348 70.5792 20.9902V27.0684ZM78.2147 27.0684H75.0583V12.1396H78.2147V17.9831H83.0559V12.1396H86.2123V27.0684H83.0559V20.8622H78.2147V27.0684ZM91.3117 27.3883C89.0724 27.3883 87.6008 26.0447 87.6008 23.9973C87.6008 22.0992 88.7311 21.0755 91.6316 20.3717C93.4231 19.9452 93.9776 19.6253 93.9776 19.0281C93.9776 18.367 93.4017 17.9831 92.4207 17.9831C91.2477 17.9831 90.4799 18.6443 90.2667 19.7959L87.4729 19.1774C87.8141 16.9381 89.8188 15.4452 92.4207 15.4452C95.2572 15.4452 97.0486 17.0874 97.0486 19.7319V27.0684H94.3188V26.1726H94.2761C93.615 26.9617 92.57 27.3883 91.3117 27.3883ZM91.9088 24.829C93.1885 24.829 94.0842 24.1892 94.0842 23.2509V21.6087H94.0415C93.8496 21.9499 93.3804 22.2058 92.3567 22.5044C90.9918 22.867 90.5226 23.2082 90.5226 23.8054C90.5226 24.4878 90.9918 24.829 91.9088 24.829ZM103.243 27.3883C100.044 27.3883 97.7622 24.9783 97.7622 21.4167C97.7622 17.8552 100.044 15.4452 103.243 15.4452C105.994 15.4452 107.999 17.0661 108.404 19.7106L105.525 20.2438C105.291 18.9002 104.459 18.2177 103.243 18.2177C101.729 18.2177 100.812 19.3907 100.812 21.4167C100.812 23.4428 101.729 24.6158 103.243 24.6158C104.502 24.6158 105.312 23.9333 105.525 22.5897L108.404 23.1229C107.999 25.7674 105.994 27.3883 103.243 27.3883ZM112.174 27.0684H109.124V11.4998H112.174V20.0945H112.217L115.97 15.7651H119.724L115.65 20.2864L119.852 27.0684H116.333L113.56 22.3765H113.518L112.174 23.9333V27.0684ZM124.025 27.3883C120.954 27.3883 119.056 25.9594 118.565 23.4215L121.274 22.6964C121.636 24.2319 122.425 24.893 124.025 24.893C124.92 24.893 125.539 24.5518 125.539 23.976C125.539 23.3362 125.027 23.0589 122.83 22.3551C120.271 21.5447 119.141 20.5637 119.141 18.8362C119.141 16.9168 121.06 15.4452 123.492 15.4452C125.816 15.4452 127.842 16.7888 128.397 18.7722L125.688 19.5613C125.326 18.495 124.515 17.9191 123.492 17.9191C122.681 17.9191 122.191 18.367 122.191 18.8362C122.191 19.2627 122.447 19.412 124.451 20.0732C127.181 21.0115 128.589 21.9926 128.589 23.9546C128.589 25.9807 126.605 27.3883 124.025 27.3883Z" fill="white"/>
<path d="M134.786 5.08393C134.786 5.44535 135.223 5.62635 135.478 5.37079L139.073 1.77581L141.225 3.92739L137.63 7.52236C137.374 7.77792 137.555 8.21489 137.917 8.21489H143.001V11.2574H137.916C137.555 11.2574 137.374 11.6944 137.629 11.95L141.224 15.5449L139.073 17.6963L135.478 14.1015C135.223 13.846 134.786 14.027 134.786 14.3884V19.4723H131.743V13.5859C131.743 13.4402 131.893 13.3415 132.031 13.3881C132.418 13.519 132.833 13.5901 133.264 13.5901C135.393 13.5901 137.118 11.8646 137.118 9.73617C137.118 7.60772 135.393 5.88227 133.264 5.88227C131.136 5.88227 129.411 7.60772 129.411 9.73617C129.411 10.1677 129.482 10.5826 129.613 10.9699C129.659 11.108 129.56 11.2574 129.415 11.2574H123.528V8.21489H128.612C128.974 8.21489 129.155 7.77792 128.899 7.52236L125.304 3.92739L127.456 1.77581L131.051 5.37098C131.306 5.62654 131.743 5.44555 131.743 5.08413V0H134.786V5.08393Z" fill="white"/>
<path d="M0.00378118 0.0171427C1.34333 -0.0182938 2.81268 0.0121782 4.16101 0.0122923L12.1624 0.0131482L12.1642 11.7662C10.8126 11.7976 9.34148 11.7694 7.98198 11.7698L0 11.7656L0.00378118 0.0171427ZM9.82664 10.0507C9.26946 9.25733 5.61858 3.90825 5.2508 3.6352L5.24938 10.0367C6.73054 10.0441 8.36855 10.0062 9.82664 10.0507ZM1.765 10.0409L3.47737 10.0458L3.48125 1.79884C2.91782 1.79439 2.33367 1.78109 1.77226 1.80603C1.77134 4.51078 1.81318 7.34365 1.765 10.0409ZM10.4365 7.74087C10.4227 5.76031 10.4221 3.77963 10.435 1.79901C9.50107 1.78977 8.56703 1.78634 7.63294 1.78874C7.23974 1.78891 6.52989 1.81128 6.15617 1.78018C6.5561 2.34899 10.2403 7.63798 10.4365 7.74087Z" fill="white"/>
<path d="M61.4333 3.15608C64.2378 2.89644 65.3658 5.43451 64.1618 7.79015C63.8528 8.39491 63.0572 8.75527 62.4077 8.88914C61.6167 8.93656 61.0255 8.93256 60.3207 8.4671C59.003 7.59688 58.8767 5.42367 59.6987 4.18527C60.1168 3.55529 60.6982 3.29058 61.4333 3.15608ZM62.0536 7.92653C64.031 7.53959 63.9293 4.10253 61.8223 4.12701C61.3968 4.18134 60.9815 4.29974 60.7468 4.68293C59.978 5.93724 60.3064 7.89361 62.0536 7.92653Z" fill="white"/>
<path d="M65.7578 3.23721C66.1256 3.23333 66.5089 3.24321 66.8779 3.24749C67.6181 4.46602 68.3675 5.67942 69.1249 6.88768L69.1306 3.24189C69.4727 3.23379 69.8485 3.24321 70.1935 3.24452C70.2038 5.10565 70.2032 6.96683 70.1918 8.82802L69.0358 8.83218C68.5171 7.84949 67.4439 6.23105 66.8305 5.24614C66.8402 6.44048 66.8345 7.63493 66.8133 8.8291L65.7584 8.8307L65.7578 3.23721Z" fill="white"/>
<path d="M44.1805 3.24251C44.512 3.23292 44.881 3.24102 45.2157 3.24108C45.2617 5.05205 45.2242 7.00545 45.2229 8.82709L44.0877 8.83308L41.8553 5.19945C41.8333 6.39093 41.8484 7.63292 41.8459 8.82846L40.8027 8.83023L40.8046 3.24644C41.1392 3.22836 41.5655 3.24228 41.9077 3.24473C42.5917 4.21789 43.5094 5.83879 44.1784 6.91261L44.1805 3.24251Z" fill="white"/>
<path d="M48.2663 3.24602C48.6304 3.22417 49.1146 3.24209 49.4878 3.24557L51.7086 8.81851C51.3151 8.83728 50.8507 8.82975 50.4516 8.83335C50.3451 8.4969 50.1987 7.94395 49.9894 7.66645C49.8961 7.54262 49.741 7.5687 49.5854 7.56254C48.9804 7.56094 48.3754 7.56442 47.7704 7.57298L47.3153 8.83026C46.9182 8.83437 46.5042 8.82541 46.1055 8.82279C46.6711 7.1393 47.5997 4.94914 48.2663 3.24602ZM48.1375 6.57882L48.8429 6.58002L49.6074 6.58892L48.8731 4.60573C48.6103 5.20633 48.3617 5.95135 48.1375 6.57882Z" fill="white"/>
<path d="M23.5682 3.24451C24.9136 3.20868 26.3568 3.23681 27.7066 3.24132L27.7108 4.18252C26.8224 4.21083 25.586 4.21288 24.6991 4.18669L24.7012 5.4018L27.4907 5.4123L27.4884 6.37998L24.9685 6.38723C24.8127 6.39037 24.8424 6.36743 24.7364 6.4435C24.6476 6.77361 24.6926 7.46762 24.7008 7.82911C25.5287 7.89046 26.9142 7.85365 27.8001 7.85736C27.809 8.16784 27.7996 8.51313 27.797 8.8267C26.4466 8.8643 24.9307 8.83001 23.5672 8.82984C23.5381 6.99832 23.5607 5.07648 23.5682 3.24451Z" fill="white"/>
<path d="M34.913 3.2447C35.2655 3.22895 35.6959 3.24287 36.0545 3.24538L36.0565 5.41814C36.7724 5.42949 37.5087 5.42236 38.2265 5.42424L38.2305 3.24396C38.5901 3.23192 38.9997 3.24316 39.3634 3.24487C39.3786 4.47527 39.3609 5.72679 39.3674 6.95857C39.3692 7.28429 39.3884 8.52325 39.3442 8.79059L39.2114 8.83402L38.2286 8.83054L38.225 6.38879C37.5027 6.37874 36.7803 6.38051 36.058 6.39409L36.0512 8.82757L34.9117 8.83077C34.8758 7.01683 34.9025 5.06137 34.913 3.2447Z" fill="white"/>
<path d="M30.9747 3.15783C32.3267 2.98858 33.2119 3.46581 33.6824 4.77239C33.3635 4.87271 32.8953 4.97291 32.5608 5.05491C32.2677 4.35817 31.797 3.95193 30.9761 4.17054C29.9504 4.46356 29.8387 6.05136 30.0965 6.89653C30.4695 8.11871 31.8284 8.34354 32.4534 7.1407C32.5199 6.95034 32.4915 6.93482 32.6306 6.82805C32.9666 6.7852 33.3648 6.98001 33.6969 7.10178C32.8695 9.79735 29.3849 9.37246 28.8912 6.8551C28.5595 5.16345 29.153 3.53759 30.9747 3.15783Z" fill="white"/>
<path d="M51.5889 3.2373L56.0161 3.24301L56.0246 4.18325C55.4756 4.17805 54.9265 4.18855 54.3781 4.21475L54.3753 7.27524C54.3768 7.7928 54.3726 8.31037 54.3628 8.82782L53.2386 8.82902L53.2386 4.1954C52.7011 4.17942 52.1294 4.19169 51.5893 4.19415L51.5889 3.2373Z" fill="white"/>
<path d="M18.1572 3.24467C19.4984 3.18949 21.2219 3.23075 22.5874 3.24558L22.5868 4.18274C22.0362 4.18011 21.4856 4.19078 20.9355 4.21486L20.9348 7.33293L20.929 8.8268L19.8036 8.83108L19.8021 4.20197C19.273 4.18382 18.6907 4.1893 18.1572 4.18473V3.24467Z" fill="white"/>
<path d="M56.9775 3.24455C57.3282 3.22829 57.7504 3.24085 58.1069 3.24267C58.1268 5.09205 58.1086 6.97566 58.108 8.82777L56.9766 8.82988L56.9775 3.24455Z" fill="white"/>
<path d="M75.3639 0.0410156L76.0778 0.0460375C76.5194 1.12699 76.95 2.2124 77.3698 3.30208C77.1539 3.31618 76.8495 3.30505 76.6267 3.30368C76.5445 3.04239 76.4868 2.66531 76.2246 2.57395L75.0806 2.57966L74.8047 3.31755L74.0947 3.30123L75.3639 0.0410156ZM75.81 2.01559L76.0327 1.98551C76.1424 1.76725 75.8231 1.0927 75.7066 0.890122C75.5798 1.20015 75.3422 1.62778 75.3781 1.9248C75.4975 2.04726 75.5975 2.00857 75.81 2.01559Z" fill="white"/>
<path d="M72.0569 0.0152326C72.9999 -0.0491351 73.3912 0.059685 73.7939 0.948222C73.6374 0.996612 73.4803 1.02737 73.3204 1.06161C72.8326 0.970191 72.8743 0.508547 72.314 0.585184C71.3492 0.716943 71.4606 2.31204 72.0946 2.71468C72.218 2.79389 72.3682 2.81894 72.5104 2.7839C72.8012 2.71394 72.9468 2.50572 73.093 2.26839C73.0896 2.22519 73.1267 2.18057 73.1513 2.14165C73.3449 2.11962 73.6111 2.2471 73.8007 2.321C73.7801 2.37127 73.7579 2.4212 73.735 2.47074C72.7492 4.606 70.1566 2.70977 71.0774 0.823652C71.3041 0.35847 71.5948 0.178206 72.0569 0.0152326Z" fill="white"/>
</svg>
