<svg width="144" height="17" viewBox="0 0 144 17" fill="none" xmlns="http://www.w3.org/2000/svg">
<path d="M9.82812 4.43844C9.82812 4.75397 10.2096 4.91199 10.4327 4.68888L13.5713 1.55034L15.4495 3.42874L12.3109 6.56728C12.0878 6.79039 12.2459 7.17188 12.5614 7.17188H17V9.82812H12.5612C12.2457 9.82812 12.0877 10.2096 12.3108 10.4327L15.4493 13.5713L13.5711 15.4495L10.4327 12.3111C10.2096 12.088 9.82812 12.246 9.82812 12.5616V17H7.17188V11.861C7.17188 11.7337 7.30238 11.6475 7.42292 11.6883C7.76107 11.8025 8.12328 11.8646 8.5 11.8646C10.3582 11.8646 11.8646 10.3582 11.8646 8.5C11.8646 6.64179 10.3582 5.13542 8.5 5.13542C6.64179 5.13542 5.13542 6.64179 5.13542 8.5C5.13542 8.87672 5.19747 9.23892 5.31173 9.57708C5.35246 9.69762 5.26626 9.82812 5.13903 9.82812H0V7.17188H4.43844C4.75397 7.17188 4.91199 6.79039 4.68888 6.56727L1.55034 3.42874L3.42857 1.55034L6.56728 4.68905C6.79039 4.91216 7.17188 4.75415 7.17188 4.43862V0H9.82812V4.43844Z" fill="white"/>
<path d="M29.2618 15.8C25.8618 15.8 23.8218 14.06 23.4618 10.88L25.4818 10.48C25.7818 12.84 26.9618 13.9 29.3018 13.9C31.0618 13.9 32.1818 13.12 32.1818 11.92C32.1818 10.64 31.3218 9.94 28.6018 9.06C25.2618 7.96 24.1218 6.86 24.1218 4.98C24.1218 2.74 25.9818 1.2 28.6818 1.2C31.3618 1.2 33.3818 2.8 33.8218 5.28L31.8218 5.72C31.3818 3.98 30.3218 3.1 28.6818 3.1C27.1418 3.1 26.1618 3.84 26.1618 4.98C26.1618 5.92 26.9018 6.46 29.2818 7.22C32.8818 8.42 34.2218 9.7 34.2218 11.88C34.2218 14.22 32.2218 15.8 29.2618 15.8ZM38.8945 15.8C36.5145 15.8 35.1345 14.34 35.1345 11.8V4.9H37.0945V11.44C37.0945 13.16 37.8745 13.98 39.4745 13.98C40.9545 13.98 41.8945 12.98 41.8945 11.44V4.9H43.8545V15.5H41.9745V14.56H41.9345C41.2745 15.32 40.1345 15.8 38.8945 15.8ZM47.4091 15.5H45.4891V4.9H47.3691V5.74H47.4091C47.9691 5.04 49.0091 4.6 50.0491 4.6C51.1691 4.6 52.2291 5.12 52.7891 5.92H52.8291C53.5491 5.1 54.5491 4.6 55.7291 4.6C57.8891 4.6 59.5091 6.08 59.5091 8.22V15.5H57.5891V8.54C57.5891 7.24 56.7491 6.42 55.5091 6.42C54.2491 6.42 53.4291 7.32 53.4291 8.66V15.5H51.5691V8.54C51.5691 7.24 50.7091 6.42 49.5091 6.42C48.2291 6.42 47.4091 7.32 47.4091 8.66V15.5ZM62.9763 15.5H61.0563V4.9H62.9363V5.74H62.9763C63.5363 5.04 64.5763 4.6 65.6163 4.6C66.7363 4.6 67.7963 5.12 68.3563 5.92H68.3963C69.1163 5.1 70.1163 4.6 71.2963 4.6C73.4563 4.6 75.0763 6.08 75.0763 8.22V15.5H73.1563V8.54C73.1563 7.24 72.3163 6.42 71.0763 6.42C69.8163 6.42 68.9963 7.32 68.9963 8.66V15.5H67.1363V8.54C67.1363 7.24 66.2763 6.42 65.0763 6.42C63.7963 6.42 62.9763 7.32 62.9763 8.66V15.5ZM81.1635 15.8C78.2035 15.8 76.2235 13.54 76.2235 10.2C76.2235 6.88 78.2235 4.6 81.1435 4.6C84.0435 4.6 85.9435 6.76 85.9435 9.96V10.78H78.2035C78.2635 12.62 79.3835 14.06 81.1435 14.06C82.4835 14.06 83.2835 13.54 84.1635 12.12L85.6835 13.14C84.7435 14.9 83.1835 15.8 81.1635 15.8ZM78.2435 9.28H84.0035C83.9235 7.58 82.8435 6.34 81.1435 6.34C79.5235 6.34 78.2835 7.68 78.2435 9.28ZM89.1507 15.5H87.1907V4.9H89.0307V5.78H89.0707C89.4907 5.12 90.2907 4.72 91.2907 4.72C91.7307 4.72 92.0907 4.78 92.4707 4.88L92.0907 6.84C91.6707 6.72 91.3507 6.66 90.9907 6.66C89.7707 6.66 89.1507 7.48 89.1507 9.34V15.5ZM95.6476 15.5H93.5876V1.5H95.6476V7.4H101.388V1.5H103.448V15.5H101.388V9.22H95.6476V15.5ZM108.594 15.8C106.474 15.8 105.114 14.6 105.114 12.74C105.114 10.96 106.154 10.02 108.854 9.38C110.774 8.9 111.374 8.5 111.374 7.74C111.374 6.88 110.634 6.32 109.434 6.32C108.134 6.32 107.234 7.1 106.974 8.42L105.074 8.02C105.434 5.94 107.154 4.6 109.434 4.6C111.894 4.6 113.414 5.98 113.414 8.22V15.5H111.614V14.48H111.574C110.914 15.32 109.834 15.8 108.594 15.8ZM108.834 14.04C110.374 14.04 111.474 13.16 111.474 11.92V9.82H111.434C111.234 10.28 110.614 10.6 109.354 10.94C107.674 11.36 107.034 11.82 107.034 12.62C107.034 13.54 107.674 14.04 108.834 14.04ZM119.527 15.8C116.587 15.8 114.547 13.54 114.547 10.2C114.547 6.86 116.587 4.6 119.527 4.6C121.987 4.6 123.827 6.1 124.207 8.5L122.327 8.88C122.047 7.3 121.007 6.42 119.527 6.42C117.707 6.42 116.507 7.88 116.507 10.2C116.507 12.52 117.707 13.98 119.527 13.98C121.027 13.98 122.047 13.1 122.327 11.52L124.207 11.9C123.827 14.3 121.987 15.8 119.527 15.8ZM127.298 15.5H125.338V0.9H127.298V9.48H127.338L131.618 4.9H134.078L130.178 9.04L134.318 15.5H132.018L128.818 10.38H128.778L127.298 12V15.5ZM138.446 15.8C135.666 15.8 133.946 14.4 133.626 11.94L135.466 11.54C135.806 13.32 136.646 14.06 138.446 14.06C139.706 14.06 140.506 13.46 140.506 12.62C140.506 11.88 139.906 11.48 137.706 10.8C135.126 10.02 134.146 9.22 134.146 7.68C134.146 5.96 135.766 4.6 137.886 4.6C140.106 4.6 141.766 5.84 142.206 7.74L140.366 8.22C140.006 6.98 139.186 6.34 137.886 6.34C136.826 6.34 136.106 6.94 136.106 7.64C136.106 8.28 136.606 8.58 138.526 9.18C141.366 10.08 142.486 10.94 142.486 12.62C142.486 14.48 140.846 15.8 138.446 15.8Z" fill="white"/>
</svg>
