<svg width="250" height="39" viewBox="0 0 250 39" fill="none" xmlns="http://www.w3.org/2000/svg">
<rect x="36.5" width="39" height="39" rx="19.5" fill="#AE7A3F"/>
<path d="M57.9901 13.4153C57.9901 13.888 58.5617 14.1248 58.8959 13.7905L63.5981 9.08835L66.412 11.9026L61.7099 16.6047C61.3756 16.939 61.6124 17.5105 62.0851 17.5105H68.735V21.4901H62.0848C61.6121 21.4901 61.3754 22.0617 61.7096 22.3959L66.4118 27.0981L63.5978 29.912L58.8959 25.2101C58.5617 24.8759 57.9901 25.1126 57.9901 25.5853V32.235H54.0105V24.5357C54.0105 24.3451 54.2061 24.216 54.3866 24.277C54.8933 24.4482 55.4359 24.5411 56.0003 24.5411C58.7843 24.5411 61.0411 22.2843 61.0411 19.5003C61.0411 16.7164 58.7843 14.4595 56.0003 14.4595C53.2164 14.4595 50.9595 16.7164 50.9595 19.5003C50.9595 20.0647 51.0525 20.6074 51.2237 21.114C51.2847 21.2946 51.1555 21.4901 50.9649 21.4901H43.2656V17.5105H49.9153C50.388 17.5105 50.6248 16.939 50.2905 16.6047L45.5883 11.9026L48.4023 9.08835L53.1047 13.7908C53.439 14.125 54.0105 13.8883 54.0105 13.4156V6.76562H57.9901V13.4153Z" fill="#FFFBF6"/>
<path d="M91.636 27.86C87.292 27.86 84.484 24.428 84.484 19.1C84.484 13.772 87.292 10.34 91.636 10.34C95.044 10.34 97.612 12.572 98.092 15.956L95.668 16.364C95.212 13.964 93.796 12.644 91.636 12.644C88.732 12.644 86.956 15.092 86.956 19.1C86.956 23.108 88.732 25.556 91.636 25.556C94.228 25.556 95.764 23.9 95.716 21.212H91.852V19.004H98.116V20.9C98.116 25.124 95.572 27.86 91.636 27.86ZM105.061 27.86C101.509 27.86 99.1334 25.148 99.1334 21.14C99.1334 17.156 101.533 14.42 105.037 14.42C108.517 14.42 110.797 17.012 110.797 20.852V21.836H101.509C101.581 24.044 102.925 25.772 105.037 25.772C106.645 25.772 107.605 25.148 108.661 23.444L110.485 24.668C109.357 26.78 107.485 27.86 105.061 27.86ZM101.557 20.036H108.469C108.373 17.996 107.077 16.508 105.037 16.508C103.093 16.508 101.605 18.116 101.557 20.036ZM117.652 27.86C114.004 27.86 111.58 25.148 111.58 21.14C111.58 17.132 114.004 14.42 117.652 14.42C121.276 14.42 123.724 17.132 123.724 21.14C123.724 25.148 121.276 27.86 117.652 27.86ZM117.652 25.676C119.956 25.676 121.372 23.924 121.372 21.14C121.372 18.356 119.956 16.604 117.652 16.604C115.348 16.604 113.932 18.356 113.932 21.14C113.932 23.924 115.348 25.676 117.652 25.676ZM127.561 27.5H125.209V14.78H127.417V15.836H127.465C127.969 15.044 128.929 14.564 130.129 14.564C130.657 14.564 131.089 14.636 131.545 14.756L131.089 17.108C130.585 16.964 130.201 16.892 129.769 16.892C128.305 16.892 127.561 17.876 127.561 20.108V27.5ZM137.463 33.26C135.015 33.26 133.023 32.012 132.111 29.924L134.103 28.796C134.943 30.476 135.855 31.124 137.463 31.124C139.407 31.124 140.583 29.804 140.583 27.668V26.276H140.535C139.815 27.284 138.471 27.86 136.887 27.86C133.551 27.86 131.199 25.076 131.199 21.14C131.199 17.228 133.551 14.444 136.911 14.444C138.351 14.444 139.695 15.02 140.535 16.004H140.583V14.78H142.887V27.788C142.887 31.076 140.751 33.26 137.463 33.26ZM137.175 25.676C139.071 25.676 140.535 24.164 140.535 22.244V20.06C140.535 18.14 139.047 16.628 137.103 16.628C134.943 16.628 133.551 18.404 133.551 21.14C133.551 23.924 134.967 25.676 137.175 25.676ZM150.182 27.86C146.63 27.86 144.254 25.148 144.254 21.14C144.254 17.156 146.654 14.42 150.158 14.42C153.638 14.42 155.918 17.012 155.918 20.852V21.836H146.63C146.702 24.044 148.046 25.772 150.158 25.772C151.766 25.772 152.726 25.148 153.782 23.444L155.606 24.668C154.478 26.78 152.606 27.86 150.182 27.86ZM146.678 20.036H153.59C153.494 17.996 152.198 16.508 150.158 16.508C148.214 16.508 146.726 18.116 146.678 20.036ZM169.07 27.86C164.99 27.86 162.542 25.772 162.11 21.956L164.534 21.476C164.894 24.308 166.31 25.58 169.118 25.58C171.23 25.58 172.574 24.644 172.574 23.204C172.574 21.668 171.542 20.828 168.278 19.772C164.27 18.452 162.902 17.132 162.902 14.876C162.902 12.188 165.134 10.34 168.374 10.34C171.59 10.34 174.014 12.26 174.542 15.236L172.142 15.764C171.614 13.676 170.342 12.62 168.374 12.62C166.526 12.62 165.35 13.508 165.35 14.876C165.35 16.004 166.238 16.652 169.094 17.564C173.414 19.004 175.022 20.54 175.022 23.156C175.022 25.964 172.622 27.86 169.07 27.86ZM178.589 27.5H176.237V9.98H178.589V15.908H178.637C179.357 15.02 180.725 14.42 182.069 14.42C184.973 14.42 186.869 16.316 186.869 19.22V27.5H184.517V19.652C184.517 17.756 183.437 16.604 181.613 16.604C179.789 16.604 178.589 17.828 178.589 19.652V27.5ZM192.451 27.86C189.907 27.86 188.275 26.42 188.275 24.188C188.275 22.052 189.523 20.924 192.763 20.156C195.067 19.58 195.787 19.1 195.787 18.188C195.787 17.156 194.899 16.484 193.459 16.484C191.899 16.484 190.819 17.42 190.507 19.004L188.227 18.524C188.659 16.028 190.723 14.42 193.459 14.42C196.411 14.42 198.235 16.076 198.235 18.764V27.5H196.075V26.276H196.027C195.235 27.284 193.939 27.86 192.451 27.86ZM192.739 25.748C194.587 25.748 195.907 24.692 195.907 23.204V20.684H195.859C195.619 21.236 194.875 21.62 193.363 22.028C191.347 22.532 190.579 23.084 190.579 24.044C190.579 25.148 191.347 25.748 192.739 25.748ZM205.667 27.86C202.019 27.86 199.595 25.148 199.595 21.14C199.595 17.132 202.019 14.42 205.667 14.42C209.291 14.42 211.739 17.132 211.739 21.14C211.739 25.148 209.291 27.86 205.667 27.86ZM205.667 25.676C207.971 25.676 209.387 23.924 209.387 21.14C209.387 18.356 207.971 16.604 205.667 16.604C203.363 16.604 201.947 18.356 201.947 21.14C201.947 23.924 203.363 25.676 205.667 25.676Z" fill="#AE7A3F"/>
</svg>
