<svg width="250" height="39" viewBox="0 0 250 39" fill="none" xmlns="http://www.w3.org/2000/svg">
<rect x="62" width="39" height="39" rx="19.5" fill="#AE7A3F"/>
<path d="M83.4901 13.4153C83.4901 13.888 84.0617 14.1248 84.3959 13.7905L89.0981 9.08835L91.912 11.9026L87.2099 16.6047C86.8756 16.939 87.1124 17.5105 87.5851 17.5105H94.235V21.4901H87.5848C87.1121 21.4901 86.8754 22.0617 87.2096 22.3959L91.9118 27.0981L89.0978 29.912L84.3959 25.2101C84.0617 24.8759 83.4901 25.1126 83.4901 25.5853V32.235H79.5105V24.5357C79.5105 24.3451 79.7061 24.216 79.8866 24.277C80.3933 24.4482 80.9359 24.5411 81.5003 24.5411C84.2843 24.5411 86.5411 22.2843 86.5411 19.5003C86.5411 16.7164 84.2843 14.4595 81.5003 14.4595C78.7164 14.4595 76.4595 16.7164 76.4595 19.5003C76.4595 20.0647 76.5525 20.6074 76.7237 21.114C76.7847 21.2946 76.6555 21.4901 76.4649 21.4901H68.7656V17.5105H75.4153C75.888 17.5105 76.1248 16.939 75.7905 16.6047L71.0883 11.9026L73.9023 9.08835L78.6047 13.7908C78.939 14.125 79.5105 13.8883 79.5105 13.4156V6.76562H83.4901V13.4153Z" fill="#FFFBF6"/>
<path d="M113.416 27.5H110.944V10.7H113.416V17.78H120.304V10.7H122.776V27.5H120.304V19.964H113.416V27.5ZM129.599 27.86C126.743 27.86 125.087 26.108 125.087 23.06V14.78H127.439V22.628C127.439 24.692 128.375 25.676 130.295 25.676C132.071 25.676 133.199 24.476 133.199 22.628V14.78H135.551V27.5H133.295V26.372H133.247C132.455 27.284 131.087 27.86 129.599 27.86ZM142.721 27.86C139.409 27.86 137.033 25.1 137.033 21.14C137.033 17.18 139.409 14.42 142.745 14.42C144.233 14.42 145.505 15.02 146.321 15.932H146.369V9.98H148.721V27.5H146.489V26.276H146.441C145.649 27.26 144.281 27.86 142.721 27.86ZM143.009 25.676C144.881 25.676 146.369 24.164 146.369 22.244V20.012C146.369 18.092 144.881 16.604 142.937 16.604C140.777 16.604 139.385 18.356 139.385 21.14C139.385 23.924 140.801 25.676 143.009 25.676ZM162.182 27.5H150.23V25.436L159.326 13.052V13.004H150.566V10.7H162.35V12.764L153.254 25.148V25.196H162.182V27.5ZM167.602 27.86C165.058 27.86 163.426 26.42 163.426 24.188C163.426 22.052 164.674 20.924 167.914 20.156C170.218 19.58 170.938 19.1 170.938 18.188C170.938 17.156 170.05 16.484 168.61 16.484C167.05 16.484 165.97 17.42 165.658 19.004L163.378 18.524C163.81 16.028 165.874 14.42 168.61 14.42C171.562 14.42 173.386 16.076 173.386 18.764V27.5H171.226V26.276H171.178C170.386 27.284 169.09 27.86 167.602 27.86ZM167.89 25.748C169.738 25.748 171.058 24.692 171.058 23.204V20.684H171.01C170.77 21.236 170.026 21.62 168.514 22.028C166.498 22.532 165.73 23.084 165.73 24.044C165.73 25.148 166.498 25.748 167.89 25.748ZM177.578 27.5H175.226V9.98H177.578V15.908H177.626C178.346 15.02 179.714 14.42 181.058 14.42C183.962 14.42 185.858 16.316 185.858 19.22V27.5H183.506V19.652C183.506 17.756 182.426 16.604 180.602 16.604C178.778 16.604 177.578 17.828 177.578 19.652V27.5Z" fill="#AE7A3F"/>
</svg>
