<svg width="250" height="39" viewBox="0 0 250 39" fill="none" xmlns="http://www.w3.org/2000/svg">
<rect x="45.5" width="39" height="39" rx="19.5" fill="#AE7A3F"/>
<path d="M66.9901 13.4153C66.9901 13.888 67.5617 14.1248 67.8959 13.7905L72.5981 9.08835L75.412 11.9026L70.7099 16.6047C70.3756 16.939 70.6124 17.5105 71.0851 17.5105H77.735V21.4901H71.0848C70.6121 21.4901 70.3754 22.0617 70.7096 22.3959L75.4118 27.0981L72.5978 29.912L67.8959 25.2101C67.5617 24.8759 66.9901 25.1126 66.9901 25.5853V32.235H63.0105V24.5357C63.0105 24.3451 63.2061 24.216 63.3866 24.277C63.8933 24.4482 64.4359 24.5411 65.0003 24.5411C67.7843 24.5411 70.0411 22.2843 70.0411 19.5003C70.0411 16.7164 67.7843 14.4595 65.0003 14.4595C62.2164 14.4595 59.9595 16.7164 59.9595 19.5003C59.9595 20.0647 60.0525 20.6074 60.2237 21.114C60.2847 21.2946 60.1555 21.4901 59.9649 21.4901H52.2656V17.5105H58.9153C59.388 17.5105 59.6248 16.939 59.2905 16.6047L54.5883 11.9026L57.4023 9.08835L62.1047 13.7908C62.439 14.125 63.0105 13.8883 63.0105 13.4156V6.76562H66.9901V13.4153Z" fill="#FFFBF6"/>
<path d="M98.284 27.86C95.212 27.86 93.388 26.132 93.148 22.772L95.524 22.46C95.716 24.644 96.532 25.556 98.284 25.556C100.012 25.556 100.948 24.332 100.948 22.1V10.7H103.42V22.292C103.42 25.796 101.284 27.86 98.284 27.86ZM111.346 27.86C107.698 27.86 105.274 25.148 105.274 21.14C105.274 17.132 107.698 14.42 111.346 14.42C114.97 14.42 117.418 17.132 117.418 21.14C117.418 25.148 114.97 27.86 111.346 27.86ZM111.346 25.676C113.65 25.676 115.066 23.924 115.066 21.14C115.066 18.356 113.65 16.604 111.346 16.604C109.042 16.604 107.626 18.356 107.626 21.14C107.626 23.924 109.042 25.676 111.346 25.676ZM123.733 27.86C120.397 27.86 118.333 26.18 117.949 23.228L120.157 22.748C120.565 24.884 121.573 25.772 123.733 25.772C125.245 25.772 126.205 25.052 126.205 24.044C126.205 23.156 125.485 22.676 122.845 21.86C119.749 20.924 118.573 19.964 118.573 18.116C118.573 16.052 120.517 14.42 123.061 14.42C125.725 14.42 127.717 15.908 128.245 18.188L126.037 18.764C125.605 17.276 124.621 16.508 123.061 16.508C121.789 16.508 120.925 17.228 120.925 18.068C120.925 18.836 121.525 19.196 123.829 19.916C127.237 20.996 128.581 22.028 128.581 24.044C128.581 26.276 126.613 27.86 123.733 27.86ZM135.274 27.86C131.722 27.86 129.346 25.148 129.346 21.14C129.346 17.156 131.746 14.42 135.25 14.42C138.73 14.42 141.01 17.012 141.01 20.852V21.836H131.722C131.794 24.044 133.138 25.772 135.25 25.772C136.858 25.772 137.818 25.148 138.874 23.444L140.698 24.668C139.57 26.78 137.698 27.86 135.274 27.86ZM131.77 20.036H138.682C138.586 17.996 137.29 16.508 135.25 16.508C133.306 16.508 131.818 18.116 131.77 20.036ZM144.859 32.9H142.507V14.78H144.811V15.956H144.859C145.675 15.044 146.971 14.42 148.483 14.42C151.819 14.42 154.195 17.18 154.195 21.14C154.195 25.1 151.819 27.86 148.507 27.86C147.019 27.86 145.651 27.236 144.907 26.348H144.859V32.9ZM148.219 25.676C150.427 25.676 151.843 23.924 151.843 21.14C151.843 18.356 150.451 16.604 148.291 16.604C146.347 16.604 144.859 18.092 144.859 20.012V22.244C144.859 24.164 146.347 25.676 148.219 25.676ZM158.032 27.5H155.68V9.98H158.032V15.908H158.08C158.8 15.02 160.168 14.42 161.512 14.42C164.416 14.42 166.312 16.316 166.312 19.22V27.5H163.96V19.652C163.96 17.756 162.88 16.604 161.056 16.604C159.232 16.604 158.032 17.828 158.032 19.652V27.5ZM176.492 27.5H174.044V10.7H177.092L182.3 23.396H182.348L187.556 10.7H190.604V27.5H188.156V14.9H188.108L182.828 27.5H181.796L176.54 14.9H176.492V27.5ZM196.762 27.86C194.218 27.86 192.586 26.42 192.586 24.188C192.586 22.052 193.834 20.924 197.074 20.156C199.378 19.58 200.098 19.1 200.098 18.188C200.098 17.156 199.21 16.484 197.77 16.484C196.21 16.484 195.13 17.42 194.818 19.004L192.538 18.524C192.97 16.028 195.034 14.42 197.77 14.42C200.722 14.42 202.546 16.076 202.546 18.764V27.5H200.386V26.276H200.338C199.546 27.284 198.25 27.86 196.762 27.86ZM197.05 25.748C198.898 25.748 200.218 24.692 200.218 23.204V20.684H200.17C199.93 21.236 199.186 21.62 197.674 22.028C195.658 22.532 194.89 23.084 194.89 24.044C194.89 25.148 195.658 25.748 197.05 25.748Z" fill="#AE7A3F"/>
</svg>
