<svg width="250" height="34" viewBox="0 0 250 34" fill="none" xmlns="http://www.w3.org/2000/svg">
<path d="M14.2412 15.7746C16.116 15.5995 17.7761 16.9949 17.9484 18.8908C18.1208 20.7867 16.7401 22.4648 14.8652 22.6382C12.9914 22.8115 11.3332 21.4164 11.161 19.5217C10.9888 17.627 12.3676 15.9496 14.2412 15.7746Z" fill="#E7963A"/>
<path d="M3.17697 26.7245C5.05468 26.5981 6.6773 28.0369 6.79873 29.936C6.92012 31.835 5.49422 33.4731 3.61602 33.5922C1.74292 33.7111 0.128291 32.2739 0.00721035 30.3799C-0.113867 28.486 1.30431 26.8506 3.17697 26.7245Z" fill="#E7963A"/>
<path d="M25.2075 4.80296C27.0733 4.69137 28.6768 6.12703 28.7933 8.01341C28.9097 9.89975 27.4953 11.5259 25.6302 11.6499C23.7565 11.7744 22.1393 10.3359 22.0223 8.44083C21.9053 6.54573 23.3331 4.91507 25.2075 4.80296Z" fill="#E7963A"/>
<path d="M14.2255 26.7568C16.0877 26.5721 17.7441 27.952 17.9212 29.8357C18.0982 31.7193 16.7284 33.3901 14.8651 33.5633C13.0099 33.7358 11.3664 32.358 11.1902 30.4825C11.0139 28.607 12.3714 26.9408 14.2255 26.7568ZM15.0689 32.2356C16.1964 31.9525 16.8853 30.8007 16.6098 29.6594C16.3342 28.5181 15.1979 27.817 14.0682 28.0911C12.9322 28.3668 12.2341 29.5237 12.5113 30.6713C12.7883 31.819 13.9351 32.5203 15.0689 32.2356Z" fill="#E7963A"/>
<path d="M25.1341 26.7612C26.9839 26.6102 28.6062 28.0004 28.7623 29.8705C28.9183 31.7405 27.5493 33.386 25.7006 33.5505C23.8424 33.7159 22.2051 32.3229 22.0483 30.4433C21.8914 28.5637 23.2748 26.9131 25.1341 26.7612ZM25.5268 32.2844C26.6934 32.2176 27.5826 31.2022 27.507 30.0231C27.4315 28.844 26.42 27.9531 25.2546 28.0393C24.1027 28.1244 23.2342 29.1328 23.3089 30.2982C23.3837 31.4637 24.3737 32.3503 25.5268 32.2844Z" fill="#E7963A"/>
<path d="M25.1432 15.8133C26.9892 15.6668 28.6051 17.0566 28.7583 18.9225C28.9115 20.7885 27.5444 22.4288 25.6998 22.5921C23.8436 22.7564 22.2089 21.3633 22.0547 19.4854C21.9005 17.6075 23.2856 15.9608 25.1432 15.8133ZM25.7029 21.3033C26.8581 21.137 27.6587 20.0517 27.4872 18.8846C27.3156 17.7176 26.2375 16.9146 25.0845 17.0951C23.9413 17.2741 23.1556 18.3529 23.3256 19.51C23.4956 20.6671 24.5576 21.4682 25.7029 21.3033Z" fill="#E7963A"/>
<g clip-path="url(#clip0_1248_1732)">
<path fill-rule="evenodd" clip-rule="evenodd" d="M145.947 4.19324C148.878 3.96496 148.365 6.29894 148.358 8.44226L148.345 13.0487C148.345 16.6043 148.427 20.1989 148.309 23.7509C148.007 32.9705 136.393 36.7483 130.401 29.9393C125.021 24.1633 128.511 12.9266 136.959 12.7762C140.47 12.7138 142.176 13.7379 144.67 16.0565C144.672 14.5343 144.482 6.16167 144.798 5.26062C144.991 4.71031 145.444 4.42959 145.947 4.19324ZM144.984 22.4989C144.678 18.7274 141.379 15.9152 137.607 16.2098C133.818 16.506 130.99 19.8237 131.299 23.6122C131.607 27.4008 134.933 30.2184 138.72 29.8983C142.489 29.5795 145.291 26.2704 144.984 22.4989Z" fill="#E7963A"/>
<path fill-rule="evenodd" clip-rule="evenodd" d="M164.15 12.7721C170.052 12.5087 174.739 17.3065 174.618 23.1656C174.587 24.6372 174.64 26.2265 174.62 27.7145C174.601 29.0113 174.715 30.3661 174.586 31.6617C174.436 33.2429 172.438 33.7798 171.362 32.7643C170.7 32.1407 170.828 30.8359 170.827 29.9693C170.094 30.968 169.258 31.597 168.215 32.2516C167.274 32.7521 165.985 33.181 164.926 33.3004C151.801 34.7795 150.074 14.376 163.001 12.8385C163.342 12.7862 163.808 12.7873 164.15 12.7721ZM163.873 16.2057C160.085 16.4759 157.236 19.7691 157.514 23.5563C157.792 27.3435 161.09 30.186 164.876 29.901C168.652 29.6166 171.485 26.3289 171.208 22.5523C170.931 18.7757 167.649 15.9362 163.873 16.2057Z" fill="#E7963A"/>
<path d="M57.9213 15.5785C60.5117 12.2453 66.5632 11.6405 69.597 14.6948C72.0913 17.206 71.686 21.1641 71.673 24.4164C71.6692 26.2831 71.6776 28.1499 71.6984 30.0165C71.7038 30.8929 71.7968 32.1312 71.1212 32.7804C70.1758 33.6888 68.4789 33.401 68.0642 32.0882C67.7676 31.1491 67.8615 30.0951 67.8656 29.1199L67.8879 23.3584C67.8922 22.1489 68.001 20.3673 67.735 19.2211C66.587 14.275 59.4304 15.5003 59.2372 20.3736C59.1389 22.8506 59.2083 25.3655 59.2145 27.8427C59.2022 29.4253 59.7821 32.6335 57.9367 33.226C57.4679 33.3784 56.9575 33.337 56.5194 33.111C56.108 32.8962 55.5602 32.2744 55.5287 31.8053C55.2535 27.745 55.7088 23.5685 55.3355 19.5062C55.2069 18.1072 54.4006 17.1233 53.1817 16.4957C52.1966 15.981 51.0446 15.8893 49.9905 16.2416C46.3489 17.4362 46.7757 20.9761 46.7855 23.9288L46.8192 29.4153C46.8274 30.6553 47.0132 32.862 45.4702 33.2039C42.4031 33.8834 43.0358 30.1182 43.0374 28.4341L43.0379 21.9207L43.0333 17.3159C43.0276 16.3863 42.8464 14.5556 43.3202 13.8437C44.533 12.0215 46.3836 12.9401 46.8734 14.7248C48.2121 13.4461 49.471 12.9394 51.2944 12.7543C51.9063 12.701 52.522 12.7124 53.1315 12.7885C55.2636 13.0567 56.6328 13.9248 57.9213 15.5785Z" fill="#E7963A"/>
<path fill-rule="evenodd" clip-rule="evenodd" d="M213.372 12.8387C215.535 12.6012 217.891 12.8755 219.756 13.992C222.563 15.6716 224.056 19.1527 224.113 22.3269C224.134 23.4896 223.653 24.2463 222.448 24.3103C220.822 24.3967 219.206 24.356 217.585 24.3543H208.123C208.859 28.0366 211.683 30.2519 215.492 30.1971C216.802 30.1782 217.792 29.7577 218.988 29.2498C220.018 28.5896 222.04 27.6598 222.609 29.6443C222.704 29.9771 222.496 30.6387 222.252 30.9012C220.896 32.358 218.618 32.9811 216.708 33.2781C213.894 33.6485 210.761 32.9817 208.503 31.2254C204.027 27.7436 203.611 20.4937 207.059 16.1746C208.634 14.2006 210.899 13.1406 213.372 12.8387ZM220.658 21.4646C220.223 17.6135 217.469 15.5081 213.626 15.9226C210.782 16.4789 208.563 18.5231 208.187 21.4578L215.382 21.4607L220.658 21.4646Z" fill="#E7963A"/>
<path d="M78.811 12.9188C78.9911 12.903 79.1715 12.8913 79.3521 12.8836C79.5687 12.8752 79.7448 12.885 79.9585 12.928C81.8358 13.3417 81.2563 15.2636 81.3779 16.536C81.7054 19.9629 80.3093 26.0079 83.0213 28.5176C85.8386 31.1247 92.0021 30.341 92.7964 26.13C92.9972 25.0651 92.9239 23.7435 92.9207 22.6491L92.891 17.4817C92.8804 15.9377 92.4334 13.0658 94.708 12.8533C97.4742 12.5947 96.69 17.6755 96.6765 19.6676L96.6852 27.6771C96.6857 28.5578 96.7708 30.9608 96.6161 31.7338C96.1807 33.9098 93.0134 33.8787 92.8808 31.0051C92.2936 31.505 91.7033 31.9707 91.0283 32.3479C88.8232 33.5805 85.9932 33.7025 83.5939 33.0155C81.4467 32.4008 79.8061 30.9871 78.7286 29.0436C78.2031 28.0959 77.8955 27.0487 77.738 25.9799C77.5216 24.513 77.396 15.1486 77.7018 14.1106C77.8808 13.503 78.2733 13.2082 78.811 12.9188Z" fill="#E7963A"/>
<path d="M112.862 12.7533C114.715 12.5262 117.137 13.0875 118.691 14.0871C123.292 17.0357 122.575 22.4088 122.583 27.1337C122.585 28.3345 122.834 31.4533 122.269 32.4657C121.304 33.9092 118.975 33.4062 118.841 31.6399C118.567 28.0118 119.083 24.1888 118.658 20.5918C118.244 17.0818 114.583 15.6184 111.461 16.2013C109.995 16.5872 108.431 17.4683 107.727 18.8648C106.43 21.437 108.069 31.1132 106.809 32.6042C106.474 33.0005 105.985 33.2319 105.47 33.273C104.995 33.3111 104.518 33.1901 104.152 32.8781C103.741 32.528 103.564 32.1315 103.52 31.6031C103.43 30.4977 103.481 29.3568 103.483 28.2467L103.479 22.7083L103.477 17.6104C103.477 16.5419 103.46 15.529 103.541 14.4506C103.655 12.9368 105.526 12.4226 106.594 13.3453C107.207 13.8746 107.245 14.367 107.284 15.1302C109.07 13.5325 110.524 12.977 112.862 12.7533Z" fill="#E7963A"/>
<path d="M189.675 12.7545C191.65 12.5437 194.025 13.0751 195.675 14.1481C200.076 17.0283 199.377 22.4127 199.402 26.9617C199.397 28.4377 199.47 29.9651 199.383 31.4345C199.332 32.2994 198.847 33.1222 197.945 33.2536C195.348 33.6319 195.698 30.7619 195.706 29.2049L195.724 24.3646C195.726 23.1594 195.795 21.8933 195.579 20.7087C194.93 17.1465 191.641 15.5415 188.296 16.2153C186.903 16.6906 185.502 17.3012 184.703 18.6144C183.156 21.1552 184.962 31.1254 183.651 32.6728C183.34 33.0399 182.873 33.2341 182.399 33.2695C181.892 33.3076 181.322 33.1823 180.933 32.8396C180.472 32.4332 180.359 31.9724 180.324 31.381C180.134 28.1159 180.292 24.6532 180.292 21.3682C180.291 19.3604 180.118 16.2667 180.352 14.3901C180.396 14.0466 180.528 13.7612 180.759 13.5046C181.11 13.118 181.618 12.9209 182.132 12.8946C182.641 12.8685 183.15 13.0151 183.527 13.3652C184.059 13.8584 184.098 14.4583 184.122 15.1373C185.755 13.6409 187.493 12.963 189.675 12.7545Z" fill="#E7963A"/>
</g>
<defs>
<clipPath id="clip0_1248_1732">
<rect width="186" height="33.6" fill="white" transform="translate(39.5996)"/>
</clipPath>
</defs>
</svg>
