<svg width="188" height="28" viewBox="0 0 188 28" fill="none" xmlns="http://www.w3.org/2000/svg">
<path d="M11.868 13.1471C13.4304 13.0012 14.8137 14.164 14.9573 15.744C15.101 17.3239 13.9504 18.7223 12.388 18.8668C10.8265 19.0112 9.4447 17.8486 9.30117 16.2697C9.15764 14.6908 10.3067 13.293 11.868 13.1471Z" fill="#AE7A3F"/>
<path d="M2.64747 22.2721C4.21224 22.1667 5.56442 23.3657 5.66561 24.9483C5.76677 26.5308 4.57852 27.8959 3.01335 27.9951C1.45243 28.0942 0.106909 26.8965 0.00600862 25.3183C-0.0948892 23.74 1.08692 22.3771 2.64747 22.2721Z" fill="#AE7A3F"/>
<path d="M21.0066 4.00507C22.5614 3.91208 23.8977 5.10846 23.9947 6.68044C24.0918 8.25239 22.913 9.60755 21.3588 9.71083C19.7974 9.81457 18.4498 8.61589 18.3523 7.03663C18.2548 5.45738 19.4446 4.0985 21.0066 4.00507Z" fill="#AE7A3F"/>
<path d="M11.8548 22.299C13.4066 22.145 14.787 23.295 14.9345 24.8647C15.082 26.4344 13.9405 27.8267 12.3878 27.9711C10.8418 28.1148 9.47218 26.9666 9.32533 25.4037C9.17845 23.8408 10.3097 22.4523 11.8548 22.299ZM12.5576 26.8646C13.4972 26.6287 14.0713 25.6689 13.8416 24.7178C13.612 23.7667 12.6651 23.1824 11.7237 23.4109C10.777 23.6407 10.1953 24.6047 10.4262 25.5611C10.6571 26.5174 11.6127 27.1019 12.5576 26.8646Z" fill="#AE7A3F"/>
<path d="M20.9449 22.3043C22.4864 22.1784 23.8383 23.3369 23.9684 24.8953C24.0984 26.4537 22.9576 27.8249 21.417 27.962C19.8685 28.0998 18.5041 26.939 18.3734 25.3727C18.2427 23.8064 19.3955 22.4308 20.9449 22.3043ZM21.2721 26.9069C22.2443 26.8513 22.9854 26.0051 22.9224 25.0225C22.8594 24.0399 22.0165 23.2975 21.0454 23.3693C20.0855 23.4403 19.3617 24.2806 19.424 25.2518C19.4862 26.223 20.3112 26.9618 21.2721 26.9069Z" fill="#AE7A3F"/>
<path d="M20.9527 13.1807C22.491 13.0586 23.8375 14.2167 23.9652 15.7717C24.0929 17.3267 22.9537 18.6936 21.4165 18.8297C19.8696 18.9666 18.5074 17.8057 18.3789 16.2408C18.2504 14.6759 19.4046 13.3036 20.9527 13.1807ZM21.4191 17.7557C22.3817 17.6171 23.0489 16.7127 22.906 15.7401C22.763 14.7676 21.8646 14.0984 20.9037 14.2489C19.9511 14.398 19.2963 15.297 19.438 16.2612C19.5797 17.2255 20.4647 17.8931 21.4191 17.7557Z" fill="#AE7A3F"/>
<path d="M121.623 3.49336C124.065 3.30338 123.637 5.24839 123.632 7.03437L123.62 10.8732C123.62 13.8364 123.689 16.832 123.591 19.7922C123.339 27.4752 113.66 30.6235 108.667 24.9494C104.184 20.1361 107.093 10.7722 114.132 10.6467C117.058 10.5946 118.48 11.448 120.558 13.3801C120.56 12.1121 120.401 5.13741 120.664 4.38398C120.825 3.92515 121.204 3.69037 121.623 3.49336ZM120.821 18.7492C120.565 15.6063 117.816 13.2624 114.673 13.508C111.516 13.7548 109.159 16.5198 109.416 19.677C109.673 22.8341 112.445 25.1819 115.6 24.9152C118.741 24.6496 121.076 21.8922 120.821 18.7492Z" fill="#AE7A3F"/>
<path d="M136.792 10.6434C141.71 10.4241 145.616 14.4228 145.515 19.3055C145.489 20.5317 145.533 21.8556 145.517 23.0955C145.501 24.1762 145.596 25.305 145.488 26.3846C145.363 27.7023 143.699 28.1505 142.802 27.3045C142.25 26.7849 142.357 25.6967 142.355 24.9744C141.745 25.8066 141.048 26.3313 140.18 26.8768C139.396 27.2939 138.321 27.6513 137.438 27.7508C126.501 28.9835 125.061 11.9805 135.834 10.699C136.118 10.6554 136.507 10.6561 136.792 10.6434ZM136.561 13.5047C133.405 13.7299 131.03 16.4748 131.262 19.6307C131.493 22.7867 134.242 25.1553 137.397 24.9178C140.543 24.6807 142.904 21.9408 142.673 18.7938C142.442 15.6467 139.707 13.2802 136.561 13.5047Z" fill="#AE7A3F"/>
<path d="M48.2684 12.9811C50.4271 10.2034 55.47 9.69943 57.9981 12.2447C60.0767 14.3373 59.7389 17.6358 59.7281 20.346C59.7249 21.9016 59.732 23.4572 59.7493 25.0127C59.7538 25.7431 59.8314 26.7751 59.2683 27.3161C58.4805 28.073 57.0664 27.8332 56.7208 26.7392C56.4737 25.9566 56.5519 25.0783 56.5553 24.2656L56.5739 19.4644C56.5775 18.4565 56.6682 16.9717 56.4465 16.0166C55.4898 11.8949 49.526 12.916 49.365 16.977C49.2831 19.0412 49.3409 21.137 49.3461 23.2013C49.3358 24.5201 49.8191 27.1936 48.2812 27.6874C47.8905 27.8144 47.4653 27.7799 47.1002 27.5915C46.7573 27.4125 46.3008 26.8944 46.2746 26.5034C46.0452 23.1199 46.4246 19.6395 46.1136 16.2542C46.0064 15.0884 45.3345 14.2684 44.3187 13.7454C43.4979 13.3165 42.5378 13.2401 41.6594 13.5337C38.6247 14.5292 38.9804 17.4791 38.9886 19.9397L39.0166 24.5118C39.0235 25.5451 39.1783 27.384 37.8925 27.669C35.3366 28.2352 35.8638 25.0975 35.8652 23.6941L35.8656 18.2663L35.8617 14.4289C35.857 13.6543 35.706 12.1287 36.1008 11.5355C37.1115 10.017 38.6537 10.7824 39.0618 12.2697C40.1774 11.2041 41.2265 10.7818 42.746 10.6276C43.2559 10.5832 43.769 10.5927 44.2769 10.6561C46.0537 10.8796 47.1947 11.6031 48.2684 12.9811Z" fill="#AE7A3F"/>
<path d="M177.81 10.6987C179.612 10.5008 181.575 10.7283 183.13 11.6587C185.469 13.0583 186.713 15.9596 186.761 18.605C186.778 19.5737 186.377 20.2039 185.374 20.2573C184.019 20.3293 182.672 20.2959 181.321 20.2944H173.437C174.05 23.363 176.402 25.2093 179.577 25.1636C180.668 25.1478 181.494 24.7977 182.49 24.3745C183.349 23.8243 185.033 23.0493 185.507 24.7036C185.586 24.981 185.414 25.5309 185.21 25.7495C184.08 26.9638 182.182 27.4834 180.59 27.7309C178.245 28.0395 175.634 27.4835 173.753 26.02C170.023 23.1185 169.676 17.0773 172.549 13.478C173.862 11.8332 175.749 10.9504 177.81 10.6987ZM183.882 17.8852C183.519 14.6759 181.224 12.9215 178.022 13.2671C175.651 13.7308 173.803 15.434 173.489 17.8794L179.485 17.8813L183.882 17.8852Z" fill="#AE7A3F"/>
<path d="M65.6758 10.7637C65.8259 10.7506 65.9762 10.7408 66.1268 10.7344C66.3073 10.7274 66.454 10.7355 66.6321 10.7714C68.1965 11.1161 67.7136 12.7177 67.8149 13.778C68.0879 16.6338 66.9244 21.6713 69.1844 23.7627C71.5321 25.9353 76.6684 25.2822 77.3303 21.7731C77.4977 20.8856 77.4366 19.7843 77.434 18.8723L77.4092 14.5661C77.4004 13.2795 77.0278 10.8862 78.9233 10.7091C81.2285 10.4937 80.575 14.7276 80.5638 16.3878L80.571 23.0623C80.5714 23.7962 80.6423 25.7987 80.5134 26.4428C80.1506 28.2562 77.5112 28.2303 77.4007 25.8356C76.9114 26.2522 76.4194 26.6403 75.8569 26.9546C74.0193 27.9818 71.661 28.0835 69.6616 27.511C67.8722 26.9987 66.5051 25.8206 65.6072 24.2011C65.1693 23.4113 64.9129 22.5386 64.7816 21.6479C64.6013 20.4255 64.4967 12.6219 64.7515 11.7569C64.9007 11.2506 65.2278 11.0048 65.6758 10.7637Z" fill="#AE7A3F"/>
<path d="M94.052 10.6277C95.5965 10.4385 97.6146 10.9062 98.9098 11.7393C102.744 14.1964 102.146 18.674 102.153 22.6114C102.154 23.6121 102.362 26.2111 101.891 27.0548C101.087 28.2577 99.1461 27.8385 99.0348 26.3666C98.8061 23.3432 99.2359 20.1573 98.8823 17.1598C98.5373 14.2349 95.4865 13.0153 92.8843 13.5011C91.6625 13.8227 90.3599 14.557 89.7731 15.7206C88.6922 17.8642 90.0582 25.9277 89.0079 27.1702C88.7287 27.5004 88.3213 27.6932 87.8924 27.7275C87.4958 27.7592 87.0984 27.6584 86.7936 27.3985C86.4514 27.1066 86.3035 26.7762 86.2673 26.3359C86.1917 25.4147 86.2347 24.464 86.2358 23.5389L86.2327 18.9235L86.2308 14.6753C86.2309 13.7849 86.2171 12.9408 86.2845 12.0421C86.3793 10.7806 87.939 10.3522 88.8287 11.1211C89.3391 11.5621 89.371 11.9725 89.404 12.6085C90.8919 11.2771 92.1041 10.8142 94.052 10.6277Z" fill="#AE7A3F"/>
<path d="M158.063 10.6278C159.708 10.4521 161.688 10.895 163.062 11.7891C166.73 14.1892 166.147 18.6763 166.168 22.4671C166.164 23.6971 166.225 24.97 166.153 26.1944C166.11 26.9152 165.706 27.6008 164.955 27.7104C162.79 28.0256 163.082 25.6339 163.088 24.3365L163.103 20.3029C163.106 19.2985 163.163 18.2434 162.983 17.2563C162.442 14.2878 159.701 12.9503 156.913 13.5118C155.753 13.9079 154.585 14.4167 153.919 15.511C152.63 17.6283 154.135 25.9368 153.043 27.2263C152.784 27.5323 152.394 27.6941 152 27.7236C151.577 27.7553 151.102 27.6509 150.777 27.3653C150.394 27.0267 150.299 26.6427 150.27 26.1499C150.112 23.4289 150.243 20.5433 150.243 17.8058C150.242 16.1327 150.099 13.5546 150.294 11.9908C150.33 11.7046 150.44 11.4667 150.633 11.2529C150.925 10.9307 151.349 10.7664 151.777 10.7445C152.201 10.7228 152.625 10.8449 152.94 11.1367C153.382 11.5477 153.415 12.0476 153.435 12.6135C154.796 11.3664 156.244 10.8016 158.063 10.6278Z" fill="#AE7A3F"/>
</svg>
