<svg width="240" height="78" viewBox="0 0 240 78" fill="none" xmlns="http://www.w3.org/2000/svg">
<path d="M63.3996 17.5053H66.2993V20.405H63.3996V17.5053ZM66.2993 17.5053H69.1989V20.405H66.2993V17.5053ZM69.1989 17.5053H72.0986V20.405H69.1989V17.5053ZM72.0986 17.5053H74.9982V20.405H72.0986V17.5053ZM72.0986 20.405H74.9982V23.3046H72.0986V20.405ZM72.0986 23.3046H74.9982V26.2043H72.0986V23.3046ZM72.0986 26.2043H74.9982V29.1039H72.0986V26.2043ZM63.3996 20.405H66.2993V23.3046H63.3996V20.405ZM63.3996 23.3046H66.2993V26.2043H63.3996V23.3046ZM63.3996 26.2043H66.2993V29.1039H63.3996V26.2043ZM63.3996 32.0036H66.2993V34.9032H63.3996V32.0036ZM63.3996 34.9032H66.2993V37.8028H63.3996V34.9032ZM63.3996 37.8028H66.2993V40.7025H63.3996V37.8028ZM63.3996 40.7025H66.2993V43.6021H63.3996V40.7025ZM63.3996 43.6021H66.2993V46.5018H63.3996V43.6021ZM66.2993 46.5018H69.1989V49.4014H66.2993V46.5018ZM66.2993 49.4014H69.1989V52.3011H66.2993V49.4014ZM66.2993 52.3011H69.1989V55.2007H66.2993V52.3011ZM66.2993 55.2007H69.1989V58.1004H66.2993V55.2007ZM66.2993 58.1004H69.1989V61H66.2993V58.1004ZM63.3996 29.1039H66.2993V32.0036H63.3996V29.1039ZM63.3996 46.5018H66.2993V49.4014H63.3996V46.5018ZM63.3996 49.4014H66.2993V52.3011H63.3996V49.4014ZM63.3996 52.3011H66.2993V55.2007H63.3996V52.3011ZM63.3996 55.2007H66.2993V58.1004H63.3996V55.2007ZM63.3996 58.1004H66.2993V61H63.3996V58.1004ZM69.1989 58.1004H72.0986V61H69.1989V58.1004ZM69.1989 55.2007H72.0986V58.1004H69.1989V55.2007ZM69.1989 52.3011H72.0986V55.2007H69.1989V52.3011ZM69.1989 49.4014H72.0986V52.3011H69.1989V49.4014ZM69.1989 43.6021H72.0986V46.5018H69.1989V43.6021ZM69.1989 40.7025H72.0986V43.6021H69.1989V40.7025ZM69.1989 34.9032H72.0986V37.8028H69.1989V34.9032ZM69.1989 32.0036H72.0986V34.9032H69.1989V32.0036ZM69.1989 29.1039H72.0986V32.0036H69.1989V29.1039ZM69.1989 37.8028H72.0986V40.7025H69.1989V37.8028ZM69.1989 46.5018H72.0986V49.4014H69.1989V46.5018ZM66.2993 43.6021H69.1989V46.5018H66.2993V43.6021ZM66.2993 40.7025H69.1989V43.6021H66.2993V40.7025ZM66.2993 37.8028H69.1989V40.7025H66.2993V37.8028ZM66.2993 34.9032H69.1989V37.8028H66.2993V34.9032ZM66.2993 32.0036H69.1989V34.9032H66.2993V32.0036ZM66.2993 29.1039H69.1989V32.0036H66.2993V29.1039ZM66.2993 26.2043H69.1989V29.1039H66.2993V26.2043ZM66.2993 23.3046H69.1989V26.2043H66.2993V23.3046ZM66.2993 20.405H69.1989V23.3046H66.2993V20.405ZM69.1989 20.405H72.0986V23.3046H69.1989V20.405ZM69.1989 23.3046H72.0986V26.2043H69.1989V23.3046ZM69.1989 26.2043H72.0986V29.1039H69.1989V26.2043ZM72.0986 29.1039H74.9982V32.0036H72.0986V29.1039ZM72.0986 32.0036H74.9982V34.9032H72.0986V32.0036ZM74.9982 32.0036H77.8979V34.9032H74.9982V32.0036ZM74.9982 34.9032H77.8979V37.8028H74.9982V34.9032ZM72.0986 34.9032H74.9982V37.8028H72.0986V34.9032ZM74.9982 29.1039H77.8979V32.0036H74.9982V29.1039ZM74.9982 26.2043H77.8979V29.1039H74.9982V26.2043ZM74.9982 23.3046H77.8979V26.2043H74.9982V23.3046ZM74.9982 37.8028H77.8979V40.7025H74.9982V37.8028ZM77.8979 37.8028H80.7975V40.7025H77.8979V37.8028ZM77.8979 34.9032H80.7975V37.8028H77.8979V34.9032ZM77.8979 32.0036H80.7975V34.9032H77.8979V32.0036ZM77.8979 29.1039H80.7975V32.0036H77.8979V29.1039ZM74.9982 40.7025H77.8979V43.6021H74.9982V40.7025ZM77.8979 40.7025H80.7975V43.6021H77.8979V40.7025ZM80.7975 40.7025H83.6972V43.6021H80.7975V40.7025ZM80.7975 37.8028H83.6972V40.7025H80.7975V37.8028ZM80.7975 34.9032H83.6972V37.8028H80.7975V34.9032ZM77.8979 46.5018H80.7975V49.4014H77.8979V46.5018ZM77.8979 43.6021H80.7975V46.5018H77.8979V43.6021ZM80.7975 43.6021H83.6972V46.5018H80.7975V43.6021ZM80.7975 46.5018H83.6972V49.4014H80.7975V46.5018ZM83.6972 43.6021H86.5968V46.5018H83.6972V43.6021ZM83.6972 40.7025H86.5968V43.6021H83.6972V40.7025ZM83.6972 46.5018H86.5968V49.4014H83.6972V46.5018ZM83.6972 49.4014H86.5968V52.3011H83.6972V49.4014ZM80.7975 49.4014H83.6972V52.3011H80.7975V49.4014ZM80.7975 52.3011H83.6972V55.2007H80.7975V52.3011ZM83.6972 52.3011H86.5968V55.2007H83.6972V52.3011ZM83.6972 55.2007H86.5968V58.1004H83.6972V55.2007ZM83.6972 58.1004H86.5968V61H83.6972V58.1004ZM86.5968 58.1004H89.4964V61H86.5968V58.1004ZM89.4964 58.1004H92.3961V61H89.4964V58.1004ZM92.3961 58.1004H95.2957V61H92.3961V58.1004ZM92.3961 55.2007H95.2957V58.1004H92.3961V55.2007ZM89.4964 52.3011H92.3961V55.2007H89.4964V52.3011ZM89.4964 49.4014H92.3961V52.3011H89.4964V49.4014ZM89.4964 46.5018H92.3961V49.4014H89.4964V46.5018ZM89.4964 43.6021H92.3961V46.5018H89.4964V43.6021ZM89.4964 40.7025H92.3961V43.6021H89.4964V40.7025ZM92.3961 46.5018H95.2957V49.4014H92.3961V46.5018ZM92.3961 49.4014H95.2957V52.3011H92.3961V49.4014ZM92.3961 52.3011H95.2957V55.2007H92.3961V52.3011ZM89.4964 55.2007H92.3961V58.1004H89.4964V55.2007ZM86.5968 55.2007H89.4964V58.1004H86.5968V55.2007ZM86.5968 52.3011H89.4964V55.2007H86.5968V52.3011ZM86.5968 49.4014H89.4964V52.3011H86.5968V49.4014ZM86.5968 46.5018H89.4964V49.4014H86.5968V46.5018ZM86.5968 43.6021H89.4964V46.5018H86.5968V43.6021ZM86.5968 40.7025H89.4964V43.6021H86.5968V40.7025ZM86.5968 37.8028H89.4964V40.7025H86.5968V37.8028ZM89.4964 37.8028H92.3961V40.7025H89.4964V37.8028ZM92.3961 43.6021H95.2957V46.5018H92.3961V43.6021ZM92.3961 40.7025H95.2957V43.6021H92.3961V40.7025ZM92.3961 37.8028H95.2957V40.7025H92.3961V37.8028ZM92.3961 34.9032H95.2957V37.8028H92.3961V34.9032ZM92.3961 32.0036H95.2957V34.9032H92.3961V32.0036ZM92.3961 29.1039H95.2957V32.0036H92.3961V29.1039ZM89.4964 29.1039H92.3961V32.0036H89.4964V29.1039ZM89.4964 26.2043H92.3961V29.1039H89.4964V26.2043ZM86.5968 29.1039H89.4964V32.0036H86.5968V29.1039ZM86.5968 32.0036H89.4964V34.9032H86.5968V32.0036ZM86.5968 34.9032H89.4964V37.8028H86.5968V34.9032ZM89.4964 34.9032H92.3961V37.8028H89.4964V34.9032ZM89.4964 32.0036H92.3961V34.9032H89.4964V32.0036ZM86.5968 17.5053H89.4964V20.405H86.5968V17.5053ZM89.4964 17.5053H92.3961V20.405H89.4964V17.5053ZM92.3961 17.5053H95.2957V20.405H92.3961V17.5053ZM92.3961 20.405H95.2957V23.3046H92.3961V20.405ZM92.3961 23.3046H95.2957V26.2043H92.3961V23.3046ZM92.3961 26.2043H95.2957V29.1039H92.3961V26.2043ZM89.4964 23.3046H92.3961V26.2043H89.4964V23.3046ZM89.4964 20.405H92.3961V23.3046H89.4964V20.405ZM86.5968 26.2043H89.4964V29.1039H86.5968V26.2043ZM86.5968 23.3046H89.4964V26.2043H86.5968V23.3046ZM86.5968 20.405H89.4964V23.3046H86.5968V20.405ZM105.326 29.1039H108.225V32.0036H105.326V29.1039ZM108.225 29.1039H111.125V32.0036H108.225V29.1039ZM111.125 29.1039H114.025V32.0036H111.125V29.1039ZM114.025 29.1039H116.924V32.0036H114.025V29.1039ZM116.924 29.1039H119.824V32.0036H116.924V29.1039ZM119.824 29.1039H122.724V32.0036H119.824V29.1039ZM122.724 32.0036H125.623V34.9032H122.724V32.0036ZM119.824 32.0036H122.724V34.9032H119.824V32.0036ZM116.924 32.0036H119.824V34.9032H116.924V32.0036ZM114.025 32.0036H116.924V34.9032H114.025V32.0036ZM111.125 32.0036H114.025V34.9032H111.125V32.0036ZM108.225 32.0036H111.125V34.9032H108.225V32.0036ZM105.326 32.0036H108.225V34.9032H105.326V32.0036ZM102.426 32.0036H105.326V34.9032H102.426V32.0036ZM102.426 34.9032H105.326V37.8028H102.426V34.9032ZM105.326 34.9032H108.225V37.8028H105.326V34.9032ZM99.5264 34.9032H102.426V37.8028H99.5264V34.9032ZM99.5264 37.8028H102.426V40.7025H99.5264V37.8028ZM99.5264 40.7025H102.426V43.6021H99.5264V40.7025ZM102.426 40.7025H105.326V43.6021H102.426V40.7025ZM105.326 40.7025H108.225V43.6021H105.326V40.7025ZM105.326 37.8028H108.225V40.7025H105.326V37.8028ZM102.426 37.8028H105.326V40.7025H102.426V37.8028ZM102.426 43.6021H105.326V46.5018H102.426V43.6021ZM102.426 46.5018H105.326V49.4014H102.426V46.5018ZM102.426 49.4014H105.326V52.3011H102.426V49.4014ZM99.5264 49.4014H102.426V52.3011H99.5264V49.4014ZM99.5264 52.3011H102.426V55.2007H99.5264V52.3011ZM99.5264 46.5018H102.426V49.4014H99.5264V46.5018ZM99.5264 43.6021H102.426V46.5018H99.5264V43.6021ZM105.326 43.6021H108.225V46.5018H105.326V43.6021ZM105.326 46.5018H108.225V49.4014H105.326V46.5018ZM105.326 49.4014H108.225V52.3011H105.326V49.4014ZM105.326 52.3011H108.225V55.2007H105.326V52.3011ZM102.426 52.3011H105.326V55.2007H102.426V52.3011ZM102.426 55.2007H105.326V58.1004H102.426V55.2007ZM105.326 55.2007H108.225V58.1004H105.326V55.2007ZM108.225 55.2007H111.125V58.1004H108.225V55.2007ZM108.225 52.3011H111.125V55.2007H108.225V52.3011ZM105.326 58.1004H108.225V61H105.326V58.1004ZM108.225 58.1004H111.125V61H108.225V58.1004ZM111.125 58.1004H114.025V61H111.125V58.1004ZM114.025 58.1004H116.924V61H114.025V58.1004ZM116.924 58.1004H119.824V61H116.924V58.1004ZM119.824 58.1004H122.724V61H119.824V58.1004ZM116.924 55.2007H119.824V58.1004H116.924V55.2007ZM114.025 55.2007H116.924V58.1004H114.025V55.2007ZM111.125 55.2007H114.025V58.1004H111.125V55.2007ZM119.824 55.2007H122.724V58.1004H119.824V55.2007ZM122.724 55.2007H125.623V58.1004H122.724V55.2007ZM119.824 52.3011H122.724V55.2007H119.824V52.3011ZM116.924 52.3011H119.824V55.2007H116.924V52.3011ZM122.724 52.3011H125.623V55.2007H122.724V52.3011ZM125.623 52.3011H128.523V55.2007H125.623V52.3011ZM125.623 49.4014H128.523V52.3011H125.623V49.4014ZM122.724 46.5018H125.623V49.4014H122.724V46.5018ZM122.724 49.4014H125.623V52.3011H122.724V49.4014ZM119.824 49.4014H122.724V52.3011H119.824V49.4014ZM125.623 46.5018H128.523V49.4014H125.623V46.5018ZM125.623 43.6021H128.523V46.5018H125.623V43.6021ZM122.724 43.6021H125.623V46.5018H122.724V43.6021ZM122.724 40.7025H125.623V43.6021H122.724V40.7025ZM122.724 37.8028H125.623V40.7025H122.724V37.8028ZM125.623 37.8028H128.523V40.7025H125.623V37.8028ZM125.623 34.9032H128.523V37.8028H125.623V34.9032ZM125.623 40.7025H128.523V43.6021H125.623V40.7025ZM119.824 43.6021H122.724V46.5018H119.824V43.6021ZM119.824 46.5018H122.724V49.4014H119.824V46.5018ZM119.824 40.7025H122.724V43.6021H119.824V40.7025ZM119.824 37.8028H122.724V40.7025H119.824V37.8028ZM119.824 34.9032H122.724V37.8028H119.824V34.9032ZM116.924 34.9032H119.824V37.8028H116.924V34.9032ZM122.724 34.9032H125.623V37.8028H122.724V34.9032ZM108.225 34.9032H111.125V37.8028H108.225V34.9032ZM111.125 34.9032H114.025V37.8028H111.125V34.9032ZM114.025 34.9032H116.924V37.8028H114.025V34.9032ZM111.125 52.3011H114.025V55.2007H111.125V52.3011ZM114.025 52.3011H116.924V55.2007H114.025V52.3011ZM138.547 29.1039H141.447V32.0036H138.547V29.1039ZM135.647 32.0036H138.547V34.9032H135.647V32.0036ZM135.647 34.9032H138.547V37.8028H135.647V34.9032ZM132.748 32.0036H135.647V34.9032H132.748V32.0036ZM132.748 29.1039H135.647V32.0036H132.748V29.1039ZM135.647 29.1039H138.547V32.0036H135.647V29.1039ZM135.647 37.8028H138.547V40.7025H135.647V37.8028ZM132.748 37.8028H135.647V40.7025H132.748V37.8028ZM132.748 40.7025H135.647V43.6021H132.748V40.7025ZM132.748 34.9032H135.647V37.8028H132.748V34.9032ZM132.748 43.6021H135.647V46.5018H132.748V43.6021ZM132.748 46.5018H135.647V49.4014H132.748V46.5018ZM132.748 49.4014H135.647V52.3011H132.748V49.4014ZM132.748 52.3011H135.647V55.2007H132.748V52.3011ZM132.748 55.2007H135.647V58.1004H132.748V55.2007ZM135.647 55.2007H138.547V58.1004H135.647V55.2007ZM138.547 55.2007H141.447V58.1004H138.547V55.2007ZM138.547 58.1004H141.447V61H138.547V58.1004ZM135.647 58.1004H138.547V61H135.647V58.1004ZM132.748 58.1004H135.647V61H132.748V58.1004ZM138.547 52.3011H141.447V55.2007H138.547V52.3011ZM138.547 49.4014H141.447V52.3011H138.547V49.4014ZM138.547 46.5018H141.447V49.4014H138.547V46.5018ZM138.547 43.6021H141.447V46.5018H138.547V43.6021ZM138.547 40.7025H141.447V43.6021H138.547V40.7025ZM138.547 37.8028H141.447V40.7025H138.547V37.8028ZM138.547 34.9032H141.447V37.8028H138.547V34.9032ZM138.547 32.0036H141.447V34.9032H138.547V32.0036ZM135.647 40.7025H138.547V43.6021H135.647V40.7025ZM135.647 46.5018H138.547V49.4014H135.647V46.5018ZM135.647 49.4014H138.547V52.3011H135.647V49.4014ZM135.647 52.3011H138.547V55.2007H135.647V52.3011ZM135.647 43.6021H138.547V46.5018H135.647V43.6021ZM150.146 58.1004H153.045V61H150.146V58.1004ZM153.045 58.1004H155.945V61H153.045V58.1004ZM153.045 55.2007H155.945V58.1004H153.045V55.2007ZM153.045 52.3011H155.945V55.2007H153.045V52.3011ZM153.045 49.4014H155.945V52.3011H153.045V49.4014ZM155.945 49.4014H158.845V52.3011H155.945V49.4014ZM155.945 46.5018H158.845V49.4014H155.945V46.5018ZM155.945 52.3011H158.845V55.2007H155.945V52.3011ZM155.945 55.2007H158.845V58.1004H155.945V55.2007ZM155.945 58.1004H158.845V61H155.945V58.1004ZM150.146 55.2007H153.045V58.1004H150.146V55.2007ZM150.146 52.3011H153.045V55.2007H150.146V52.3011ZM150.146 49.4014H153.045V52.3011H150.146V49.4014ZM150.146 46.5018H153.045V49.4014H150.146V46.5018ZM150.146 43.6021H153.045V46.5018H150.146V43.6021ZM150.146 40.7025H153.045V43.6021H150.146V40.7025ZM150.146 37.8028H153.045V40.7025H150.146V37.8028ZM150.146 34.9032H153.045V37.8028H150.146V34.9032ZM150.146 32.0036H153.045V34.9032H150.146V32.0036ZM147.246 32.0036H150.146V34.9032H147.246V32.0036ZM153.045 34.9032H155.945V37.8028H153.045V34.9032ZM153.045 37.8028H155.945V40.7025H153.045V37.8028ZM153.045 40.7025H155.945V43.6021H153.045V40.7025ZM153.045 43.6021H155.945V46.5018H153.045V43.6021ZM153.045 46.5018H155.945V49.4014H153.045V46.5018ZM155.945 43.6021H158.845V46.5018H155.945V43.6021ZM155.945 40.7025H158.845V43.6021H155.945V40.7025ZM155.945 37.8028H158.845V40.7025H155.945V37.8028ZM155.945 34.9032H158.845V37.8028H155.945V34.9032ZM153.045 32.0036H155.945V34.9032H153.045V32.0036ZM150.146 29.1039H153.045V32.0036H150.146V29.1039ZM147.246 29.1039H150.146V32.0036H147.246V29.1039ZM144.346 29.1039H147.246V32.0036H144.346V29.1039ZM144.346 32.0036H147.246V34.9032H144.346V32.0036ZM141.447 32.0036H144.346V34.9032H141.447V32.0036ZM141.447 34.9032H144.346V37.8028H141.447V34.9032ZM144.346 34.9032H147.246V37.8028H144.346V34.9032ZM147.246 34.9032H150.146V37.8028H147.246V34.9032ZM141.447 37.8028H144.346V40.7025H141.447V37.8028ZM167.544 58.1004H170.443V61H167.544V58.1004ZM170.443 58.1004H173.343V61H170.443V58.1004ZM170.443 55.2007H173.343V58.1004H170.443V55.2007ZM170.443 52.3011H173.343V55.2007H170.443V52.3011ZM170.443 49.4014H173.343V52.3011H170.443V49.4014ZM173.343 49.4014H176.242V52.3011H173.343V49.4014ZM173.343 46.5018H176.242V49.4014H173.343V46.5018ZM173.343 52.3011H176.242V55.2007H173.343V52.3011ZM173.343 55.2007H176.242V58.1004H173.343V55.2007ZM173.343 58.1004H176.242V61H173.343V58.1004ZM167.544 55.2007H170.443V58.1004H167.544V55.2007ZM167.544 52.3011H170.443V55.2007H167.544V52.3011ZM167.544 49.4014H170.443V52.3011H167.544V49.4014ZM167.544 46.5018H170.443V49.4014H167.544V46.5018ZM167.544 43.6021H170.443V46.5018H167.544V43.6021ZM167.544 40.7025H170.443V43.6021H167.544V40.7025ZM167.544 37.8028H170.443V40.7025H167.544V37.8028ZM167.544 34.9032H170.443V37.8028H167.544V34.9032ZM167.544 32.0036H170.443V34.9032H167.544V32.0036ZM164.644 32.0036H167.544V34.9032H164.644V32.0036ZM170.443 34.9032H173.343V37.8028H170.443V34.9032ZM170.443 37.8028H173.343V40.7025H170.443V37.8028ZM170.443 40.7025H173.343V43.6021H170.443V40.7025ZM170.443 43.6021H173.343V46.5018H170.443V43.6021ZM170.443 46.5018H173.343V49.4014H170.443V46.5018ZM173.343 43.6021H176.242V46.5018H173.343V43.6021ZM173.343 40.7025H176.242V43.6021H173.343V40.7025ZM173.343 37.8028H176.242V40.7025H173.343V37.8028ZM173.343 34.9032H176.242V37.8028H173.343V34.9032ZM170.443 32.0036H173.343V34.9032H170.443V32.0036ZM167.544 29.1039H170.443V32.0036H167.544V29.1039ZM164.644 29.1039H167.544V32.0036H164.644V29.1039ZM161.744 29.1039H164.644V32.0036H161.744V29.1039ZM161.744 32.0036H164.644V34.9032H161.744V32.0036ZM158.845 32.0036H161.744V34.9032H158.845V32.0036ZM158.845 34.9032H161.744V37.8028H158.845V34.9032ZM161.744 34.9032H164.644V37.8028H161.744V34.9032ZM164.644 34.9032H167.544V37.8028H164.644V34.9032ZM158.845 37.8028H161.744V40.7025H158.845V37.8028Z" fill="#AE7A3F"/>
</svg>
