<svg width="68" height="27" viewBox="0 0 68 27" fill="none" xmlns="http://www.w3.org/2000/svg">
<path d="M3.47691e-05 0.000453979H1.73542V1.73584H3.47691e-05V0.000453979ZM1.73542 0.000453979H3.47081V1.73584H1.73542V0.000453979ZM3.47081 0.000453979H5.20619V1.73584H3.47081V0.000453979ZM5.20619 0.000453979H6.94158V1.73584H5.20619V0.000453979ZM5.20619 1.73584H6.94158V3.47123H5.20619V1.73584ZM5.20619 3.47123H6.94158V5.20661H5.20619V3.47123ZM5.20619 5.20661H6.94158V6.942H5.20619V5.20661ZM3.47691e-05 1.73584H1.73542V3.47123H3.47691e-05V1.73584ZM3.47691e-05 3.47123H1.73542V5.20661H3.47691e-05V3.47123ZM3.47691e-05 5.20661H1.73542V6.942H3.47691e-05V5.20661ZM3.47691e-05 8.67739H1.73542V10.4128H3.47691e-05V8.67739ZM3.47691e-05 10.4128H1.73542V12.1482H3.47691e-05V10.4128ZM3.47691e-05 12.1482H1.73542V13.8835H3.47691e-05V12.1482ZM3.47691e-05 13.8835H1.73542V15.6189H3.47691e-05V13.8835ZM3.47691e-05 15.6189H1.73542V17.3543H3.47691e-05V15.6189ZM1.73542 17.3543H3.47081V19.0897H1.73542V17.3543ZM1.73542 19.0897H3.47081V20.8251H1.73542V19.0897ZM1.73542 20.8251H3.47081V22.5605H1.73542V20.8251ZM1.73542 22.5605H3.47081V24.2959H1.73542V22.5605ZM1.73542 24.2959H3.47081V26.0312H1.73542V24.2959ZM3.47691e-05 6.942H1.73542V8.67739H3.47691e-05V6.942ZM3.47691e-05 17.3543H1.73542V19.0897H3.47691e-05V17.3543ZM3.47691e-05 19.0897H1.73542V20.8251H3.47691e-05V19.0897ZM3.47691e-05 20.8251H1.73542V22.5605H3.47691e-05V20.8251ZM3.47691e-05 22.5605H1.73542V24.2959H3.47691e-05V22.5605ZM3.47691e-05 24.2959H1.73542V26.0312H3.47691e-05V24.2959ZM3.47081 24.2959H5.20619V26.0312H3.47081V24.2959ZM3.47081 22.5605H5.20619V24.2959H3.47081V22.5605ZM3.47081 20.8251H5.20619V22.5605H3.47081V20.8251ZM3.47081 19.0897H5.20619V20.8251H3.47081V19.0897ZM3.47081 15.6189H5.20619V17.3543H3.47081V15.6189ZM3.47081 13.8835H5.20619V15.6189H3.47081V13.8835ZM3.47081 10.4128H5.20619V12.1482H3.47081V10.4128ZM3.47081 8.67739H5.20619V10.4128H3.47081V8.67739ZM3.47081 6.942H5.20619V8.67739H3.47081V6.942ZM3.47081 12.1482H5.20619V13.8835H3.47081V12.1482ZM3.47081 17.3543H5.20619V19.0897H3.47081V17.3543ZM1.73542 15.6189H3.47081V17.3543H1.73542V15.6189ZM1.73542 13.8835H3.47081V15.6189H1.73542V13.8835ZM1.73542 12.1482H3.47081V13.8835H1.73542V12.1482ZM1.73542 10.4128H3.47081V12.1482H1.73542V10.4128ZM1.73542 8.67739H3.47081V10.4128H1.73542V8.67739ZM1.73542 6.942H3.47081V8.67739H1.73542V6.942ZM1.73542 5.20661H3.47081V6.942H1.73542V5.20661ZM1.73542 3.47123H3.47081V5.20661H1.73542V3.47123ZM1.73542 1.73584H3.47081V3.47123H1.73542V1.73584ZM3.47081 1.73584H5.20619V3.47123H3.47081V1.73584ZM3.47081 3.47123H5.20619V5.20661H3.47081V3.47123ZM3.47081 5.20661H5.20619V6.942H3.47081V5.20661ZM5.20619 6.942H6.94158V8.67739H5.20619V6.942ZM5.20619 8.67739H6.94158V10.4128H5.20619V8.67739ZM6.94158 8.67739H8.67697V10.4128H6.94158V8.67739ZM6.94158 10.4128H8.67697V12.1482H6.94158V10.4128ZM5.20619 10.4128H6.94158V12.1482H5.20619V10.4128ZM6.94158 6.942H8.67697V8.67739H6.94158V6.942ZM6.94158 5.20661H8.67697V6.942H6.94158V5.20661ZM6.94158 3.47123H8.67697V5.20661H6.94158V3.47123ZM6.94158 12.1482H8.67697V13.8835H6.94158V12.1482ZM8.67697 12.1482H10.4124V13.8835H8.67697V12.1482ZM8.67697 10.4128H10.4124V12.1482H8.67697V10.4128ZM8.67697 8.67739H10.4124V10.4128H8.67697V8.67739ZM8.67697 6.942H10.4124V8.67739H8.67697V6.942ZM6.94158 13.8835H8.67697V15.6189H6.94158V13.8835ZM8.67697 13.8835H10.4124V15.6189H8.67697V13.8835ZM10.4124 13.8835H12.1477V15.6189H10.4124V13.8835ZM10.4124 12.1482H12.1477V13.8835H10.4124V12.1482ZM10.4124 10.4128H12.1477V12.1482H10.4124V10.4128ZM8.67697 17.3543H10.4124V19.0897H8.67697V17.3543ZM8.67697 15.6189H10.4124V17.3543H8.67697V15.6189ZM10.4124 15.6189H12.1477V17.3543H10.4124V15.6189ZM10.4124 17.3543H12.1477V19.0897H10.4124V17.3543ZM12.1477 15.6189H13.8831V17.3543H12.1477V15.6189ZM12.1477 13.8835H13.8831V15.6189H12.1477V13.8835ZM12.1477 17.3543H13.8831V19.0897H12.1477V17.3543ZM12.1477 19.0897H13.8831V20.8251H12.1477V19.0897ZM10.4124 19.0897H12.1477V20.8251H10.4124V19.0897ZM10.4124 20.8251H12.1477V22.5605H10.4124V20.8251ZM12.1477 20.8251H13.8831V22.5605H12.1477V20.8251ZM12.1477 22.5605H13.8831V24.2959H12.1477V22.5605ZM12.1477 24.2959H13.8831V26.0312H12.1477V24.2959ZM13.8831 24.2959H15.6185V26.0312H13.8831V24.2959ZM15.6185 24.2959H17.3539V26.0312H15.6185V24.2959ZM17.3539 24.2959H19.0893V26.0312H17.3539V24.2959ZM17.3539 22.5605H19.0893V24.2959H17.3539V22.5605ZM15.6185 20.8251H17.3539V22.5605H15.6185V20.8251ZM15.6185 19.0897H17.3539V20.8251H15.6185V19.0897ZM15.6185 17.3543H17.3539V19.0897H15.6185V17.3543ZM15.6185 15.6189H17.3539V17.3543H15.6185V15.6189ZM15.6185 13.8835H17.3539V15.6189H15.6185V13.8835ZM17.3539 17.3543H19.0893V19.0897H17.3539V17.3543ZM17.3539 19.0897H19.0893V20.8251H17.3539V19.0897ZM17.3539 20.8251H19.0893V22.5605H17.3539V20.8251ZM15.6185 22.5605H17.3539V24.2959H15.6185V22.5605ZM13.8831 22.5605H15.6185V24.2959H13.8831V22.5605ZM13.8831 20.8251H15.6185V22.5605H13.8831V20.8251ZM13.8831 19.0897H15.6185V20.8251H13.8831V19.0897ZM13.8831 17.3543H15.6185V19.0897H13.8831V17.3543ZM13.8831 15.6189H15.6185V17.3543H13.8831V15.6189ZM13.8831 13.8835H15.6185V15.6189H13.8831V13.8835ZM13.8831 12.1482H15.6185V13.8835H13.8831V12.1482ZM15.6185 12.1482H17.3539V13.8835H15.6185V12.1482ZM17.3539 15.6189H19.0893V17.3543H17.3539V15.6189ZM17.3539 13.8835H19.0893V15.6189H17.3539V13.8835ZM17.3539 12.1482H19.0893V13.8835H17.3539V12.1482ZM17.3539 10.4128H19.0893V12.1482H17.3539V10.4128ZM17.3539 8.67739H19.0893V10.4128H17.3539V8.67739ZM17.3539 6.942H19.0893V8.67739H17.3539V6.942ZM15.6185 6.942H17.3539V8.67739H15.6185V6.942ZM15.6185 5.20661H17.3539V6.942H15.6185V5.20661ZM13.8831 6.942H15.6185V8.67739H13.8831V6.942ZM13.8831 8.67739H15.6185V10.4128H13.8831V8.67739ZM13.8831 10.4128H15.6185V12.1482H13.8831V10.4128ZM15.6185 10.4128H17.3539V12.1482H15.6185V10.4128ZM15.6185 8.67739H17.3539V10.4128H15.6185V8.67739ZM13.8831 0.000453979H15.6185V1.73584H13.8831V0.000453979ZM15.6185 0.000453979H17.3539V1.73584H15.6185V0.000453979ZM17.3539 0.000453979H19.0893V1.73584H17.3539V0.000453979ZM17.3539 1.73584H19.0893V3.47123H17.3539V1.73584ZM17.3539 3.47123H19.0893V5.20661H17.3539V3.47123ZM17.3539 5.20661H19.0893V6.942H17.3539V5.20661ZM15.6185 3.47123H17.3539V5.20661H15.6185V3.47123ZM15.6185 1.73584H17.3539V3.47123H15.6185V1.73584ZM13.8831 5.20661H15.6185V6.942H13.8831V5.20661ZM13.8831 3.47123H15.6185V5.20661H13.8831V3.47123ZM13.8831 1.73584H15.6185V3.47123H13.8831V1.73584ZM25.092 6.942H26.8274V8.67739H25.092V6.942ZM26.8274 6.942H28.5628V8.67739H26.8274V6.942ZM28.5628 6.942H30.2982V8.67739H28.5628V6.942ZM30.2982 6.942H32.0336V8.67739H30.2982V6.942ZM32.0336 6.942H33.769V8.67739H32.0336V6.942ZM33.769 6.942H35.5043V8.67739H33.769V6.942ZM35.5043 8.67739H37.2397V10.4128H35.5043V8.67739ZM33.769 8.67739H35.5043V10.4128H33.769V8.67739ZM32.0336 8.67739H33.769V10.4128H32.0336V8.67739ZM30.2982 8.67739H32.0336V10.4128H30.2982V8.67739ZM28.5628 8.67739H30.2982V10.4128H28.5628V8.67739ZM26.8274 8.67739H28.5628V10.4128H26.8274V8.67739ZM25.092 8.67739H26.8274V10.4128H25.092V8.67739ZM23.3566 8.67739H25.092V10.4128H23.3566V8.67739ZM23.3566 10.4128H25.092V12.1482H23.3566V10.4128ZM25.092 10.4128H26.8274V12.1482H25.092V10.4128ZM21.6213 10.4128H23.3566V12.1482H21.6213V10.4128ZM21.6213 12.1482H23.3566V13.8835H21.6213V12.1482ZM21.6213 13.8835H23.3566V15.6189H21.6213V13.8835ZM23.3566 13.8835H25.092V15.6189H23.3566V13.8835ZM25.092 13.8835H26.8274V15.6189H25.092V13.8835ZM25.092 12.1482H26.8274V13.8835H25.092V12.1482ZM23.3566 12.1482H25.092V13.8835H23.3566V12.1482ZM23.3566 15.6189H25.092V17.3543H23.3566V15.6189ZM23.3566 17.3543H25.092V19.0897H23.3566V17.3543ZM23.3566 19.0897H25.092V20.8251H23.3566V19.0897ZM21.6213 19.0897H23.3566V20.8251H21.6213V19.0897ZM21.6213 20.8251H23.3566V22.5605H21.6213V20.8251ZM21.6213 17.3543H23.3566V19.0897H21.6213V17.3543ZM21.6213 15.6189H23.3566V17.3543H21.6213V15.6189ZM25.092 15.6189H26.8274V17.3543H25.092V15.6189ZM25.092 17.3543H26.8274V19.0897H25.092V17.3543ZM25.092 19.0897H26.8274V20.8251H25.092V19.0897ZM25.092 20.8251H26.8274V22.5605H25.092V20.8251ZM23.3566 20.8251H25.092V22.5605H23.3566V20.8251ZM23.3566 22.5605H25.092V24.2959H23.3566V22.5605ZM25.092 22.5605H26.8274V24.2959H25.092V22.5605ZM26.8274 22.5605H28.5628V24.2959H26.8274V22.5605ZM26.8274 20.8251H28.5628V22.5605H26.8274V20.8251ZM25.092 24.2959H26.8274V26.0312H25.092V24.2959ZM26.8274 24.2959H28.5628V26.0312H26.8274V24.2959ZM28.5628 24.2959H30.2982V26.0312H28.5628V24.2959ZM30.2982 24.2959H32.0336V26.0312H30.2982V24.2959ZM32.0336 24.2959H33.769V26.0312H32.0336V24.2959ZM33.769 24.2959H35.5043V26.0312H33.769V24.2959ZM32.0336 22.5605H33.769V24.2959H32.0336V22.5605ZM30.2982 22.5605H32.0336V24.2959H30.2982V22.5605ZM28.5628 22.5605H30.2982V24.2959H28.5628V22.5605ZM33.769 22.5605H35.5043V24.2959H33.769V22.5605ZM35.5043 22.5605H37.2397V24.2959H35.5043V22.5605ZM33.769 20.8251H35.5043V22.5605H33.769V20.8251ZM32.0336 20.8251H33.769V22.5605H32.0336V20.8251ZM35.5043 20.8251H37.2397V22.5605H35.5043V20.8251ZM37.2397 20.8251H38.9751V22.5605H37.2397V20.8251ZM37.2397 19.0897H38.9751V20.8251H37.2397V19.0897ZM35.5043 17.3543H37.2397V19.0897H35.5043V17.3543ZM35.5043 19.0897H37.2397V20.8251H35.5043V19.0897ZM33.769 19.0897H35.5043V20.8251H33.769V19.0897ZM37.2397 17.3543H38.9751V19.0897H37.2397V17.3543ZM37.2397 15.6189H38.9751V17.3543H37.2397V15.6189ZM35.5043 15.6189H37.2397V17.3543H35.5043V15.6189ZM35.5043 13.8835H37.2397V15.6189H35.5043V13.8835ZM35.5043 12.1482H37.2397V13.8835H35.5043V12.1482ZM37.2397 12.1482H38.9751V13.8835H37.2397V12.1482ZM37.2397 10.4128H38.9751V12.1482H37.2397V10.4128ZM37.2397 13.8835H38.9751V15.6189H37.2397V13.8835ZM33.769 15.6189H35.5043V17.3543H33.769V15.6189ZM33.769 17.3543H35.5043V19.0897H33.769V17.3543ZM33.769 13.8835H35.5043V15.6189H33.769V13.8835ZM33.769 12.1482H35.5043V13.8835H33.769V12.1482ZM33.769 10.4128H35.5043V12.1482H33.769V10.4128ZM32.0336 10.4128H33.769V12.1482H32.0336V10.4128ZM35.5043 10.4128H37.2397V12.1482H35.5043V10.4128ZM26.8274 10.4128H28.5628V12.1482H26.8274V10.4128ZM28.5628 10.4128H30.2982V12.1482H28.5628V10.4128ZM30.2982 10.4128H32.0336V12.1482H30.2982V10.4128ZM28.5628 20.8251H30.2982V22.5605H28.5628V20.8251ZM30.2982 20.8251H32.0336V22.5605H30.2982V20.8251ZM44.9745 6.942H46.7099V8.67739H44.9745V6.942ZM43.2391 8.67739H44.9745V10.4128H43.2391V8.67739ZM43.2391 10.4128H44.9745V12.1482H43.2391V10.4128ZM41.5037 8.67739H43.2391V10.4128H41.5037V8.67739ZM41.5037 6.942H43.2391V8.67739H41.5037V6.942ZM43.2391 6.942H44.9745V8.67739H43.2391V6.942ZM43.2391 12.1482H44.9745V13.8835H43.2391V12.1482ZM41.5037 12.1482H43.2391V13.8835H41.5037V12.1482ZM41.5037 13.8835H43.2391V15.6189H41.5037V13.8835ZM41.5037 10.4128H43.2391V12.1482H41.5037V10.4128ZM41.5037 15.6189H43.2391V17.3543H41.5037V15.6189ZM41.5037 17.3543H43.2391V19.0897H41.5037V17.3543ZM41.5037 19.0897H43.2391V20.8251H41.5037V19.0897ZM41.5037 20.8251H43.2391V22.5605H41.5037V20.8251ZM41.5037 22.5605H43.2391V24.2959H41.5037V22.5605ZM43.2391 22.5605H44.9745V24.2959H43.2391V22.5605ZM44.9745 22.5605H46.7099V24.2959H44.9745V22.5605ZM44.9745 24.2959H46.7099V26.0312H44.9745V24.2959ZM43.2391 24.2959H44.9745V26.0312H43.2391V24.2959ZM41.5037 24.2959H43.2391V26.0312H41.5037V24.2959ZM44.9745 20.8251H46.7099V22.5605H44.9745V20.8251ZM44.9745 19.0897H46.7099V20.8251H44.9745V19.0897ZM44.9745 17.3543H46.7099V19.0897H44.9745V17.3543ZM44.9745 15.6189H46.7099V17.3543H44.9745V15.6189ZM44.9745 13.8835H46.7099V15.6189H44.9745V13.8835ZM44.9745 12.1482H46.7099V13.8835H44.9745V12.1482ZM44.9745 10.4128H46.7099V12.1482H44.9745V10.4128ZM44.9745 8.67739H46.7099V10.4128H44.9745V8.67739ZM43.2391 13.8835H44.9745V15.6189H43.2391V13.8835ZM43.2391 17.3543H44.9745V19.0897H43.2391V17.3543ZM43.2391 19.0897H44.9745V20.8251H43.2391V19.0897ZM43.2391 20.8251H44.9745V22.5605H43.2391V20.8251ZM43.2391 15.6189H44.9745V17.3543H43.2391V15.6189ZM51.916 24.2959H53.6514V26.0312H51.916V24.2959ZM53.6514 24.2959H55.3868V26.0312H53.6514V24.2959ZM53.6514 22.5605H55.3868V24.2959H53.6514V22.5605ZM53.6514 20.8251H55.3868V22.5605H53.6514V20.8251ZM53.6514 19.0897H55.3868V20.8251H53.6514V19.0897ZM55.3868 19.0897H57.1222V20.8251H55.3868V19.0897ZM55.3868 17.3543H57.1222V19.0897H55.3868V17.3543ZM55.3868 20.8251H57.1222V22.5605H55.3868V20.8251ZM55.3868 22.5605H57.1222V24.2959H55.3868V22.5605ZM55.3868 24.2959H57.1222V26.0312H55.3868V24.2959ZM51.916 22.5605H53.6514V24.2959H51.916V22.5605ZM51.916 20.8251H53.6514V22.5605H51.916V20.8251ZM51.916 19.0897H53.6514V20.8251H51.916V19.0897ZM51.916 17.3543H53.6514V19.0897H51.916V17.3543ZM51.916 15.6189H53.6514V17.3543H51.916V15.6189ZM51.916 13.8835H53.6514V15.6189H51.916V13.8835ZM51.916 12.1482H53.6514V13.8835H51.916V12.1482ZM51.916 10.4128H53.6514V12.1482H51.916V10.4128ZM51.916 8.67739H53.6514V10.4128H51.916V8.67739ZM50.1806 8.67739H51.916V10.4128H50.1806V8.67739ZM53.6514 10.4128H55.3868V12.1482H53.6514V10.4128ZM53.6514 12.1482H55.3868V13.8835H53.6514V12.1482ZM53.6514 13.8835H55.3868V15.6189H53.6514V13.8835ZM53.6514 15.6189H55.3868V17.3543H53.6514V15.6189ZM53.6514 17.3543H55.3868V19.0897H53.6514V17.3543ZM55.3868 15.6189H57.1222V17.3543H55.3868V15.6189ZM55.3868 13.8835H57.1222V15.6189H55.3868V13.8835ZM55.3868 12.1482H57.1222V13.8835H55.3868V12.1482ZM55.3868 10.4128H57.1222V12.1482H55.3868V10.4128ZM53.6514 8.67739H55.3868V10.4128H53.6514V8.67739ZM51.916 6.942H53.6514V8.67739H51.916V6.942ZM50.1806 6.942H51.916V8.67739H50.1806V6.942ZM48.4452 6.942H50.1806V8.67739H48.4452V6.942ZM48.4452 8.67739H50.1806V10.4128H48.4452V8.67739ZM46.7099 8.67739H48.4452V10.4128H46.7099V8.67739ZM46.7099 10.4128H48.4452V12.1482H46.7099V10.4128ZM48.4452 10.4128H50.1806V12.1482H48.4452V10.4128ZM50.1806 10.4128H51.916V12.1482H50.1806V10.4128ZM46.7099 12.1482H48.4452V13.8835H46.7099V12.1482ZM62.3283 24.2959H64.0637V26.0312H62.3283V24.2959ZM64.0637 24.2959H65.7991V26.0312H64.0637V24.2959ZM64.0637 22.5605H65.7991V24.2959H64.0637V22.5605ZM64.0637 20.8251H65.7991V22.5605H64.0637V20.8251ZM64.0637 19.0897H65.7991V20.8251H64.0637V19.0897ZM65.7991 19.0897H67.5345V20.8251H65.7991V19.0897ZM65.7991 17.3543H67.5345V19.0897H65.7991V17.3543ZM65.7991 20.8251H67.5345V22.5605H65.7991V20.8251ZM65.7991 22.5605H67.5345V24.2959H65.7991V22.5605ZM65.7991 24.2959H67.5345V26.0312H65.7991V24.2959ZM62.3283 22.5605H64.0637V24.2959H62.3283V22.5605ZM62.3283 20.8251H64.0637V22.5605H62.3283V20.8251ZM62.3283 19.0897H64.0637V20.8251H62.3283V19.0897ZM62.3283 17.3543H64.0637V19.0897H62.3283V17.3543ZM62.3283 15.6189H64.0637V17.3543H62.3283V15.6189ZM62.3283 13.8835H64.0637V15.6189H62.3283V13.8835ZM62.3283 12.1482H64.0637V13.8835H62.3283V12.1482ZM62.3283 10.4128H64.0637V12.1482H62.3283V10.4128ZM62.3283 8.67739H64.0637V10.4128H62.3283V8.67739ZM60.5929 8.67739H62.3283V10.4128H60.5929V8.67739ZM64.0637 10.4128H65.7991V12.1482H64.0637V10.4128ZM64.0637 12.1482H65.7991V13.8835H64.0637V12.1482ZM64.0637 13.8835H65.7991V15.6189H64.0637V13.8835ZM64.0637 15.6189H65.7991V17.3543H64.0637V15.6189ZM64.0637 17.3543H65.7991V19.0897H64.0637V17.3543ZM65.7991 15.6189H67.5345V17.3543H65.7991V15.6189ZM65.7991 13.8835H67.5345V15.6189H65.7991V13.8835ZM65.7991 12.1482H67.5345V13.8835H65.7991V12.1482ZM65.7991 10.4128H67.5345V12.1482H65.7991V10.4128ZM64.0637 8.67739H65.7991V10.4128H64.0637V8.67739ZM62.3283 6.942H64.0637V8.67739H62.3283V6.942ZM60.5929 6.942H62.3283V8.67739H60.5929V6.942ZM58.8576 6.942H60.5929V8.67739H58.8576V6.942ZM58.8576 8.67739H60.5929V10.4128H58.8576V8.67739ZM57.1222 8.67739H58.8576V10.4128H57.1222V8.67739ZM57.1222 10.4128H58.8576V12.1482H57.1222V10.4128ZM58.8576 10.4128H60.5929V12.1482H58.8576V10.4128ZM60.5929 10.4128H62.3283V12.1482H60.5929V10.4128ZM57.1222 12.1482H58.8576V13.8835H57.1222V12.1482Z" fill="#AE7A3F"/>
</svg>
