<svg width="241" height="48" viewBox="0 0 241 48" fill="none" xmlns="http://www.w3.org/2000/svg">
<g clip-path="url(#clip0_1388_465)">
<path d="M95.1885 16.1819C98.6274 16.2345 104.415 15.395 103.19 21.3636C102.961 22.4774 102.011 23.1084 101.079 23.6326C101.834 25.4206 102.799 27.1278 103.517 28.9908C102.882 29.0018 102.127 29.0408 101.496 28.9916C101.127 28.9628 101.133 28.8747 100.94 28.6021C100.245 27.0386 99.5653 25.4684 98.9014 23.8915L97.3561 23.9258C97.3975 25.3579 97.4462 27.6335 97.3564 29.0143L95.201 29.0034L95.1885 16.1819ZM97.3872 21.9607C98.4273 21.9673 99.6697 22.113 100.571 21.5666C101.215 20.8549 101.6 19.5832 100.748 18.8667C99.7108 17.9946 98.6048 18.1493 97.3572 18.1827L97.3872 21.9607Z" fill="#AE7A3F"/>
<path d="M116.436 16.183C117.147 16.2049 117.914 16.1843 118.631 16.1777C118.676 17.7683 118.606 19.4219 118.551 21.0156C118.814 20.5172 119.043 20.1745 119.355 19.71C124.562 16.9459 125.367 24.8761 123.629 28.0347C122.828 28.9777 121.409 29.4071 120.208 29.0334C119.311 28.7549 119.05 28.2446 118.657 27.4628C118.507 27.6832 118.578 28.6879 118.581 29.038C117.89 29.0022 117.121 29.0065 116.421 28.996C116.334 24.9471 116.339 20.2277 116.436 16.183ZM120.778 27.2676C121.372 26.9566 121.557 26.7633 121.994 26.2548C122.134 24.6419 122.751 21.3019 120.45 21.1151C120.329 21.1059 120.208 21.1032 120.085 21.1071C118.586 21.538 118.543 22.9589 118.531 24.3088C118.518 25.9321 118.88 27.2832 120.778 27.2676Z" fill="#AE7A3F"/>
<path d="M130.464 19.2595C133.162 18.8177 134.973 20.7081 135.021 23.3179C135.073 26.2031 135.077 28.3779 131.698 29.1001C130.501 29.1854 129.5 29.095 128.459 28.3631C126.417 26.9289 126.432 22.5823 127.716 20.6653C128.346 19.7248 129.382 19.4128 130.464 19.2595ZM131.605 27.1753C132.191 26.8188 132.513 26.6006 132.685 25.8124C132.995 24.4085 133.199 21.2562 131.116 21.1898C130.885 21.1825 130.516 21.2109 130.273 21.2293C129.701 21.5484 129.441 21.7881 129.285 22.4471C128.837 24.3239 128.755 27.6506 131.605 27.1753Z" fill="#AE7A3F"/>
<path d="M109.148 19.2524C111.019 18.8941 113.261 20.0968 113.573 22.047C114.084 25.2341 114.112 28.1864 110.467 29.0989C108.231 29.2487 106.006 28.44 105.752 25.9541C105.421 22.7045 105.41 19.875 109.148 19.2524ZM110.455 27.0928C111.921 26.2273 111.574 23.6874 111.35 22.1831C110.535 21.0009 110.279 21.1335 108.885 21.2433C108.237 21.6834 108.057 21.9718 107.918 22.7636C107.593 24.6119 107.616 27.8882 110.455 27.0928Z" fill="#AE7A3F"/>
<path d="M172.461 19.248C174.185 19.033 176.72 19.194 177.368 21.1895C177.443 21.4184 177.48 21.6242 177.411 21.8604C177.095 21.9923 175.884 21.9231 175.467 21.9139L174.639 21.0218C174.252 21.0094 173.865 21.0014 173.476 20.9977C172.663 20.9921 171.774 21.1901 171.772 22.2089C172.334 23.7491 177.463 22.7631 177.644 25.6677C177.783 27.9045 176.701 28.8255 174.61 29.1254C172.031 29.1818 170.174 29.2488 169.333 26.3447C169.978 26.3157 170.76 26.3339 171.417 26.3316L172.18 27.1987C172.92 27.3527 175.792 27.7004 175.43 26.0024C175.113 24.5166 171.702 25.1126 170.676 24.1209C170.257 23.7157 169.826 23.4351 169.743 22.7213C169.445 20.426 170.399 19.641 172.461 19.248Z" fill="#AE7A3F"/>
<path d="M65.6685 16.1869C67.3945 16.2026 69.1205 16.1943 70.8462 16.1621L70.8684 22.4987C70.8734 24.2302 71.1156 26.344 69.992 27.7785C69.416 28.5132 68.5703 28.986 67.6439 29.0911C65.9619 29.2972 64.9049 29.109 63.5848 28.0818C63.2033 27.6322 62.4357 26.5068 62.4424 25.9404C62.4542 24.9278 64.0445 25.1357 64.6141 25.1519C65.0907 27.5932 67.0806 28.0534 68.563 26.0821C68.747 24.3886 68.6286 20.1545 68.619 18.2613C67.7242 18.2321 66.5833 18.2712 65.6703 18.2793L65.6685 16.1869Z" fill="#AE7A3F"/>
<path d="M139.673 16.6545L141.924 16.6211L141.933 19.3657C143.166 19.3468 144.427 19.3564 145.662 19.3521V21.4282C144.434 21.3894 143.149 21.3955 141.915 21.3843C141.933 22.6877 141.712 25.7117 142.152 26.7359C143.024 27.4391 143.776 26.5745 145.2 26.9688C145.553 27.2728 145.448 27.2251 145.535 27.8024C145.546 28.1557 145.565 28.659 145.357 28.9353C144.916 29.0499 144.693 28.9777 144.298 29.0182C138.662 29.5973 139.669 25.5273 139.683 21.392L137.062 21.3896L137.105 19.3406L139.678 19.358C139.691 18.469 139.675 17.5465 139.673 16.6545Z" fill="#AE7A3F"/>
<path d="M162.23 19.2489C164.12 18.9619 167.218 20.166 166.785 22.4057C166.503 22.8105 166.643 22.6606 166.228 22.8789C166.01 23.0698 164.83 22.728 164.763 22.5559C163.91 20.2822 161.28 20.7216 161.03 23.0668C160.938 23.9367 160.976 25.4214 161.237 26.2573C161.494 27.0765 162.807 27.4383 163.551 27.1393C164.318 26.8309 164.452 26.4864 164.74 25.7734C164.883 25.6654 165.142 25.6636 165.321 25.6313C167.945 25.1559 166.633 27.9945 165.123 28.658C162.727 29.7951 159.322 29.018 158.888 26.0002C158.685 24.5857 158.625 22.2704 159.37 20.9737C160.042 19.8037 160.998 19.4633 162.23 19.2489Z" fill="#AE7A3F"/>
<path d="M148.73 19.3516L153.739 19.3457C153.901 20.9749 153.801 25.1283 153.805 26.9374L156.744 26.8854V29.0132L153.272 28.99C151.645 28.9612 149.92 28.9937 148.284 28.9969C148.26 28.1937 148.285 27.7083 148.357 26.9065C149.456 26.9324 150.555 26.9387 151.654 26.925L151.653 21.3717C150.679 21.3755 149.706 21.3915 148.732 21.4198L148.73 19.3516Z" fill="#AE7A3F"/>
<path d="M74.4769 16.2007L76.58 16.1699C76.5713 19.6394 76.4828 23.4699 76.6029 26.9095C78.3994 26.9121 80.1957 26.9041 81.992 26.8856C82.0061 27.6383 82.0131 28.2624 81.9654 29.0127C79.4975 28.9494 76.8429 28.977 74.3688 28.9984C74.3688 27.7525 74.2849 16.5907 74.4769 16.2007Z" fill="#AE7A3F"/>
<path d="M62.4687 29.6629C65.1092 29.4889 67.1197 30.2743 69.6625 30.7677C77.0871 32.2084 84.372 32.781 91.9426 32.624C96.0384 32.5489 100.125 32.2144 104.179 31.6225C105.878 31.3707 107.572 31.0853 109.259 30.7664C111.257 30.3704 114.512 29.3783 116.401 29.6701L116.445 29.7746L116.117 29.8898C98.5166 34.5164 80.0189 34.4837 62.4346 29.7948L62.4687 29.6629Z" fill="#AE7A3F"/>
<path d="M148.48 12.1991C155.942 11.7719 171.635 13.3296 178.67 15.9016C177.94 15.8772 176.895 15.8645 176.207 15.71C170.742 14.483 165.273 13.4673 159.678 13.0683C158.133 12.9583 156.522 12.9429 154.976 12.7611C145.277 12.4625 136.005 13.5111 126.586 15.7094C125.898 15.8701 124.979 15.843 124.265 15.8227C125.964 15.2644 127.748 14.9497 129.486 14.5532C135.904 13.089 141.948 12.5558 148.48 12.1991Z" fill="#AE7A3F"/>
<path d="M152.114 15.2324C154.064 15.2842 154.753 16.909 152.949 17.7617C150.956 17.9189 150.29 15.9989 152.114 15.2324Z" fill="#AE7A3F"/>
<path d="M0 38.7023C2.838 37.7621 7.73454 36.7427 10.708 36.2407C24.3443 33.8075 38.352 34.4771 51.6953 38.2001C55.6282 39.2827 59.45 40.7932 63.3337 41.9713C71.6631 44.5623 80.3289 45.9061 89.0502 45.9591C98.0087 46.1016 107.126 44.5377 115.67 41.9412C118.888 40.9631 122.16 39.6949 125.295 38.735C143.769 33.0791 163.43 33.5669 181.607 40.1269C183.173 40.6921 184.909 41.2568 186.528 41.7716C200.836 46.2489 216.016 47.1652 230.756 44.4412C234.516 43.7651 237.407 42.8831 241 42.028V42.9899C240.401 43.0487 237.865 43.7607 237.148 43.9457C235.239 44.428 233.316 44.8561 231.382 45.2295C222.844 46.8226 214.129 47.2408 205.477 46.4725C199.397 45.907 193.39 44.7314 187.545 42.9633C182.594 41.4664 177.822 39.5465 172.74 38.3242C165.33 36.5422 157.636 35.5272 150.023 35.7134C141.746 35.8676 133.531 37.1624 125.607 39.5612C120.266 41.1895 115.864 42.9761 110.288 44.3395C102.164 46.3303 93.7975 47.1426 85.4436 46.7517C78.1437 46.3922 70.914 45.1475 63.913 43.0447C60.5402 42.0227 57.1328 40.7043 53.7457 39.6855C35.1176 34.0824 18.5492 34.6525 0 39.5445V38.7023Z" fill="#AE7A3F"/>
<path d="M0 6.61782C1.29879 6.53797 3.08944 6.23468 4.42902 6.04974C6.55839 5.74779 8.69493 5.49896 10.8366 5.3035C20.2228 4.40123 29.6675 4.28007 39.0737 4.9413C43.7595 5.30171 48.4279 5.86127 53.0665 6.61846C57.2344 7.32009 61.5916 8.27231 65.7416 8.88999C74.5747 10.2079 83.4998 10.806 92.4293 10.6783C99.4059 10.6115 106.966 9.79394 113.878 8.78691C118.299 8.14277 122.918 7.05603 127.355 6.39054C136.491 4.94521 145.739 4.33422 154.986 4.56508C161.715 4.72137 168.427 5.30942 175.079 6.32564C179.853 7.0666 184.83 8.2039 189.56 8.87287C203.374 10.9455 217.395 11.2499 231.286 9.77868C234.243 9.47182 238.104 9.03932 241 8.5162V8.89486C239.602 8.9941 237.356 9.3672 235.906 9.55972C233.481 9.89058 231.048 10.1566 228.61 10.3575C219.414 11.1679 210.168 11.2249 200.962 10.5279C196.379 10.1407 191.812 9.57786 187.272 8.84061C178.887 7.41429 170.285 5.5445 161.757 5.18525C150.233 4.69974 137.558 4.75753 126.165 6.89763C112.68 9.43038 99.5185 11.4784 85.7362 10.9763C78.5281 10.774 71.3406 10.1054 64.2184 8.97458C58.3877 8.0612 52.9447 6.82404 46.9892 6.07447C36.1912 4.79195 25.297 4.52736 14.4496 5.28416C9.48356 5.66818 4.90549 6.31333 0 7.00097V6.61782Z" fill="#AE7A3F"/>
<path d="M241 30.0613C237.741 30.8959 233.921 31.5637 230.597 32.0821C217.24 34.1444 203.616 33.7025 190.419 30.7789C188.88 30.4396 187.29 30.0672 185.761 29.6674C185.382 29.5682 185.159 29.4671 185.104 29.0828C185.313 28.8547 185.247 28.8134 185.534 28.8921C199.142 32.6318 213.386 33.5266 227.381 31.8524C232.043 31.2947 236.424 30.3938 241 29.4131V30.0613Z" fill="#AE7A3F"/>
<path d="M0 26.5782C18.1204 22.3955 36.3099 22.12 54.3524 26.8285C54.7141 26.9229 55.5428 27.2121 55.7401 27.5181L55.7071 27.7213C55.4021 27.8947 55.128 27.7862 54.7427 27.6792C37.2942 22.8278 17.5591 22.9806 0 27.2653V26.5782Z" fill="#AE7A3F"/>
<path d="M0 15.4091C4.39649 14.5536 7.90625 13.767 12.4274 13.1532C24.5172 11.522 36.7947 11.9431 48.745 14.3988C49.716 14.6044 54.8938 15.7131 55.4722 16.0964C55.5532 16.1497 55.6248 16.2161 55.6841 16.2929L55.6659 16.5075C55.5014 16.5715 51.5445 15.5545 51.0176 15.4341C38.0242 12.4644 24.0988 11.8833 10.9168 13.9009C9.01181 14.1789 7.11348 14.5007 5.22331 14.8665C3.64284 15.1876 1.555 15.6999 0 15.9233V15.4091Z" fill="#AE7A3F"/>
<path d="M241 18.8051C225.128 22.2262 211.325 23.1834 195.18 20.4439C193.592 20.1745 185.829 18.778 185.212 17.9065L185.252 17.7401C185.607 17.6651 187.771 18.3447 188.361 18.4827C191.38 19.2031 194.428 19.802 197.496 20.2778C210.129 22.1719 222.992 21.8815 235.525 19.4192C236.857 19.1488 239.812 18.6142 241 18.1957V18.8051Z" fill="#AE7A3F"/>
</g>
<defs>
<clipPath id="clip0_1388_465">
<rect width="241" height="48" fill="white"/>
</clipPath>
</defs>
</svg>
