<svg width="84" height="84" viewBox="0 0 84 84" fill="none" xmlns="http://www.w3.org/2000/svg">
<path d="M48.4997 21.9028C48.4997 23.4599 50.3823 24.2396 51.4833 23.1386L66.9713 7.65062L76.2399 16.9201L60.7519 32.4081C59.6509 33.5091 60.4307 35.3917 61.9878 35.3917H83.8914V48.4997H61.9869C60.4299 48.4997 59.6501 50.3823 60.7511 51.4833L76.2391 66.9713L66.9705 76.2399L51.4833 60.7528C50.3823 59.6518 48.4997 60.4316 48.4997 61.9886V83.8914H35.3917V58.5314C35.3917 57.9035 36.0357 57.4782 36.6305 57.6791C38.2993 58.243 40.0867 58.5492 41.9457 58.5492C51.1156 58.5492 58.5492 51.1156 58.5492 41.9457C58.5492 32.7758 51.1156 25.3422 41.9457 25.3422C32.7758 25.3422 25.3422 32.7758 25.3422 41.9457C25.3422 43.8048 25.6484 45.5921 26.2123 47.2609C26.4133 47.8557 25.9879 48.4997 25.36 48.4997H0V35.3917H21.9028C23.4599 35.3917 24.2396 33.5091 23.1386 32.4081L7.65062 16.9201L16.9193 7.65062L32.4081 23.1395C33.5091 24.2405 35.3917 23.4607 35.3917 21.9036V0H48.4997V21.9028Z" fill="#FF8800"/>
</svg>
