<svg width="259" height="66" viewBox="0 0 259 66" fill="none" xmlns="http://www.w3.org/2000/svg">
<path d="M99.6377 7.22336C109.942 7.17882 123.356 5.9214 133.005 9.59679C136.118 10.7835 139.888 14.428 140.806 17.7636C143.931 29.1468 139.974 35.9202 128.997 39.7734C132.411 46.0292 139.146 55.6007 143.204 62.164L132.735 62.246C131.228 61.7386 120.337 43.3366 118.7 40.6112C115.556 40.5163 112.126 40.6054 108.958 40.6273L108.938 62.1605C105.931 62.253 102.634 62.1941 99.5986 62.2007L99.6377 7.22336Z" fill="#AE7A3F"/>
<path d="M108.989 14.3734C116.918 14.1925 131.86 12.0398 132.395 23.0879C132.578 26.85 131.938 28.348 129.528 31.1269C124.684 34.9007 115.114 33.8273 108.949 33.7488C108.899 27.2906 108.914 20.8316 108.989 14.3734Z" fill="#FFFBF6"/>
<path d="M236.814 20.9752C237.079 20.9479 237.349 20.9307 237.618 20.9229C252.333 20.5073 258.298 30.319 258.61 43.6233C248.7 43.8768 238.345 43.6205 228.341 43.7448C228.677 51.9436 233.165 59.092 242.263 56.4002C245.775 55.3623 247.493 51.5784 249.028 48.5467L249.872 48.2721L258.079 48.5065C255.22 57.5897 251.782 61.6241 241.728 63.042C220.833 65.9901 213.017 42.6002 223.337 27.7924C226.376 23.4291 231.497 21.5475 236.814 20.9752Z" fill="#AE7A3F"/>
<path d="M235.864 27.5338C238.001 27.2529 239.841 27.4267 241.978 27.5529C242.106 27.6181 242.235 27.6869 242.36 27.7588C246.731 30.2568 247.321 32.9002 248.587 37.4513C246.54 37.5646 244.142 37.5603 242.067 37.6064L228.513 37.5877C229.829 32.2685 230.603 29.8568 235.864 27.5338Z" fill="#FFFBF6"/>
<path d="M163.247 20.998C178.469 21.2789 182.043 29.9574 180.704 43.6012C171.141 43.9074 160.372 43.7043 150.727 43.7223C150.715 49.3637 150.797 52.1852 155.372 55.9859C163.633 58.2039 167.512 55.6543 170.758 48.3074L176.575 48.359L178.454 48.5211C178.575 48.6715 178.946 49.0715 178.938 49.2137C178.348 57.5379 168.727 62.8711 161.68 63.2023C151.262 63.9648 141.911 58.4316 141.469 47.0301C140.93 33.1106 148.833 21.9465 163.247 20.998Z" fill="#AE7A3F"/>
<path d="M160.524 27.5512C163.958 27.1891 166.442 27.084 169.138 29.4864C171.353 31.4633 173.646 34.5805 171.36 37.318C169.915 37.8235 164.571 37.6305 162.731 37.6188L151.63 37.5833C151.915 36.8442 152.208 36.1098 152.513 35.3794C154.454 30.7676 156.134 29.3391 160.524 27.5512Z" fill="#FFFBF6"/>
<path d="M212.954 21.9633C215.802 21.8004 219.751 21.9645 222.677 22.0036L219.544 28.0579C213.091 39.3586 206.763 50.7293 200.56 62.1684C196.829 62.2918 192.794 62.2164 189.04 62.2176C186.786 51.5418 184.306 32.9379 182.813 21.9793C185.731 21.8723 189.083 21.9618 192.036 21.9735C192.61 31.65 194.72 43.7204 195.813 53.6864C201.228 45.095 208.04 31.1981 212.954 21.9633Z" fill="#AE7A3F"/>
<path d="M32.2156 36.566L31.9773 37.2406C30.9851 37.8352 30.4226 37.7598 29.6609 36.9598C29.3406 33.5965 29.5046 22.0977 29.7078 18.677C30.4148 17.9258 31.0711 18.1145 32.3132 18.0039C31.9851 21.7156 31.8484 32.7641 32.2156 36.566Z" fill="#AE7A3F"/>
<path d="M34.8674 34.2973C34.4416 32.7867 34.176 25.3012 35.0353 23.7074C35.3947 23.0426 36.258 22.9691 37.09 22.7109C37.1291 25.0777 37.715 32.5172 36.469 34.0375L34.8674 34.2973Z" fill="#AE7A3F"/>
<path d="M39.3529 19.6406C40.6967 19.7316 41.0365 19.5246 41.9623 20.2629C42.306 24.0137 42.5209 47.3559 41.8451 50.4566C40.9037 50.3152 40.1147 50.2945 39.4154 49.6457C39.2006 48.1602 39.1498 46.6793 39.1732 45.1801C39.2865 36.6672 39.0443 28.1512 39.3529 19.6406Z" fill="#AE7A3F"/>
<path d="M68.7903 6.90625C69.72 7.04492 69.9817 7.11523 70.8645 7.45156C71.8215 9.54922 71.259 28.5398 71.22 32.0727C70.2785 31.9762 69.6223 31.9855 68.845 31.4203C68.3293 26.9555 68.6536 11.8738 68.7903 6.90625Z" fill="#AE7A3F"/>
<path d="M10.1996 6.89453L12.0551 7.31015C12.9926 8.6 12.516 29.2301 12.4731 32.3574C9.94962 31.741 10.0629 31.507 10.0629 28.777C10.0629 21.4898 10.0043 14.1789 10.1996 6.89453Z" fill="#AE7A3F"/>
<path d="M49.3212 17.8242C50.372 17.9578 50.5751 17.993 51.5282 18.4418C52.0204 20.2117 51.7626 34.8477 51.7431 37.8465C51.1259 37.7445 50.4228 37.5824 49.8017 37.4547C48.6572 35.6973 49.2744 20.8449 49.3212 17.8242Z" fill="#AE7A3F"/>
<path d="M14.7974 7.01758C15.5591 7.11172 16.3911 7.26055 17.1567 7.38047C17.9418 8.30586 17.5239 19.8043 17.4926 21.6988C16.5864 21.6141 16.1059 21.5285 15.2153 21.3231C14.2739 20.2168 14.7622 9.09648 14.7974 7.01758Z" fill="#AE7A3F"/>
<path d="M34.6759 42.7871C35.836 42.9602 36.2266 42.8152 36.9923 43.5242C37.3712 47.5398 37.1056 54.7598 37.0509 59.0457C36.2618 58.9453 35.7071 58.7988 34.9376 58.5992C34.1563 57.2613 34.6251 45.2469 34.6759 42.7871Z" fill="#AE7A3F"/>
<path d="M44.274 42.8125C44.8873 42.8773 45.5983 43.0043 46.2193 43.0992C47.192 44.4852 46.6608 56.3562 46.6139 59.0227C45.6412 58.9535 45.4147 58.9414 44.5162 58.5899C43.9654 56.4805 44.235 45.55 44.274 42.8125Z" fill="#AE7A3F"/>
<path d="M14.782 42.9141C16.032 42.9957 16.6805 42.7976 17.45 43.5191C17.8328 46.8 17.5867 53.3488 17.5516 56.8738C16.8328 56.8344 16.0633 56.7543 15.3407 56.693C14.2977 55.5609 14.7625 45.1504 14.782 42.9141Z" fill="#AE7A3F"/>
<path d="M5.14866 9.03516C6.26975 9.16172 6.96506 9.02969 7.6799 9.69063C8.02756 12.9203 7.81663 19.8309 7.7932 23.3773C6.9846 23.2664 6.32834 23.1199 5.53146 22.9375C4.54318 21.8461 5.10178 11.127 5.14866 9.03516Z" fill="#AE7A3F"/>
<path d="M63.8801 7.01172C64.8176 7.1 65.3996 7.09453 66.2238 7.58203C66.6965 10.6879 66.4152 18.5922 66.302 21.8738C65.6418 21.75 65.0871 21.5645 64.4465 21.3652C63.0207 19.2566 63.7551 10.0949 63.8801 7.01172Z" fill="#AE7A3F"/>
<path d="M64.2471 42.7754C65.0518 42.8902 65.2002 42.9664 65.9424 43.3117C66.8799 45.4465 66.7432 55.041 65.9229 57.2766C65.0908 57.0578 64.9697 57.0145 64.251 56.5395C63.3486 54.0777 63.3369 45.1984 64.2471 42.7754Z" fill="#AE7A3F"/>
<path d="M73.8136 8.85742C74.4659 8.97461 75.0206 9.14844 75.6534 9.33555C76.9464 11.4484 76.298 20.4336 76.2003 23.5344L74.3683 23.0176C72.9503 21.2445 73.6925 11.7012 73.8136 8.85742Z" fill="#AE7A3F"/>
<path d="M53.9735 26.7461C54.325 26.7805 55.8953 27.0043 56.0321 27.1879C57.4032 29.0496 56.7235 35.5277 56.6415 37.7941L54.7586 37.5453C52.9383 35.3656 53.8055 29.6875 53.9735 26.7461Z" fill="#AE7A3F"/>
<path d="M14.926 26.8736C15.6955 26.8583 16.0978 26.9146 16.8595 27.02C18.2775 28.6997 17.6056 35.1697 17.5549 37.6478C16.5627 37.6622 16.3049 37.6908 15.3908 37.3306C14.0158 35.2747 14.715 29.4704 14.926 26.8736Z" fill="#AE7A3F"/>
<path d="M24.8017 26.6289L26.4501 26.9359C28.0165 28.9773 27.3095 34.9793 27.2275 37.8309C25.872 37.6371 25.9267 37.85 24.9735 37.0227C24.0556 34.0598 24.5908 29.8375 24.8017 26.6289Z" fill="#AE7A3F"/>
<path d="M64.0518 26.4805L65.7198 27.018C67.0675 28.6969 66.7042 36.0984 65.9073 37.9773L64.4112 37.4551C63.1651 35.6977 63.712 28.6891 64.0518 26.4805Z" fill="#AE7A3F"/>
<path d="M44.3603 22.8516L46.0049 23.2355C47.3525 24.8109 46.7236 31.952 46.6728 34.3164L45.0049 34.0652C43.3603 32.1773 44.2002 25.6461 44.3603 22.8516Z" fill="#AE7A3F"/>
<path d="M29.7272 53C30.3014 53.0766 31.3522 53.198 31.6139 53.6938C32.7038 55.7422 32.2116 61.8519 32.1296 64.0559C31.2272 63.9902 31.0045 63.9375 30.1413 63.6742C28.8288 61.4867 29.5475 55.7641 29.7272 53Z" fill="#AE7A3F"/>
<path d="M49.376 53.0371C49.7315 53.1203 50.9112 53.343 51.0557 53.5215C52.4307 55.2305 51.7706 61.8887 51.7002 64.0934C50.9073 64.0504 50.5987 63.959 49.833 63.7523C48.544 61.748 49.2198 55.6645 49.376 53.0371Z" fill="#AE7A3F"/>
<path d="M53.8799 56.5898L55.8291 56.8422C57.5361 58.2531 56.8916 63.6496 56.458 65.6715C55.0322 65.602 55.044 65.8402 54.1221 65.0152C53.3526 62.4625 53.7783 59.3652 53.8799 56.5898Z" fill="#AE7A3F"/>
<path d="M19.8128 40.6992L21.4494 40.8559C22.9924 42.493 22.3284 47.8961 22.2581 50.3781C21.8596 50.3207 20.344 50.0715 20.1761 49.8559C18.8714 48.1871 19.637 42.8895 19.8128 40.6992Z" fill="#AE7A3F"/>
<path d="M58.9221 40.5723C60.4455 40.802 60.2736 40.541 61.2385 41.4789C61.9416 44.3016 61.5431 47.2313 61.4455 50.2273L59.6798 50.0367C58.1134 48.2891 58.8166 43.0516 58.9221 40.5723Z" fill="#AE7A3F"/>
<path d="M58.9614 53.0742L60.7349 53.4106C62.2427 55.2367 61.5864 59.6887 61.5356 62.3621C60.1138 62.1891 59.9341 62.423 59.1177 61.5352C58.3677 58.9164 58.8247 55.8992 58.9614 53.0742Z" fill="#AE7A3F"/>
<path d="M29.6493 40.5039C31.0282 40.7773 30.9969 40.5461 31.8485 41.4723C32.5985 44.3023 32.1532 47.5285 31.9969 50.5188C31.4423 50.4113 30.2899 50.2324 30.0477 49.8047C28.9462 47.8531 29.54 42.4586 29.6493 40.5039Z" fill="#AE7A3F"/>
<path d="M49.2784 40.5801L50.958 40.8527C52.4619 42.5762 51.7823 47.7512 51.7119 50.3227C50.3643 50.1215 50.3447 50.3449 49.5244 49.4813C48.7783 46.7492 49.1768 43.5 49.2784 40.5801Z" fill="#AE7A3F"/>
<path d="M19.7546 53.2031C20.6687 53.2574 21.1101 53.2102 21.8289 53.7527C22.864 56.2441 22.3328 59.7574 22.1609 62.5219C21.2781 62.4168 20.7703 62.4395 20.1179 61.8551C19.1531 59.2547 19.6101 56.0367 19.7546 53.2031Z" fill="#AE7A3F"/>
<path d="M24.7941 56.584C25.3957 56.6797 26.4894 56.7258 26.7785 57.1207C27.9308 58.7039 27.2629 63.7848 27.1261 65.734C25.8722 65.659 25.8605 65.8551 24.9699 65.1656C24.1066 62.475 24.6105 59.4855 24.7941 56.584Z" fill="#AE7A3F"/>
<path d="M53.9107 14.1094C55.4849 14.2855 55.3521 14.0309 56.4068 14.9316C57.1959 16.6969 56.7037 19.616 56.5357 21.6363C55.3131 21.5914 55.2623 21.7633 54.274 21.1758C53.3677 19.2848 53.8092 16.3426 53.9107 14.1094Z" fill="#AE7A3F"/>
<path d="M19.7588 30.0703C21.0791 30.2117 20.9893 30.0152 21.9932 30.7543C22.7276 32.7121 22.3448 35.5809 22.2667 37.8137C20.7393 37.591 20.876 37.8438 19.8643 36.9309C19.0909 35.1285 19.587 32.1223 19.7588 30.0703Z" fill="#AE7A3F"/>
<path d="M58.9306 30.082C60.204 30.2066 60.2353 30.0207 61.1884 30.7227C61.9228 32.5785 61.5438 35.3496 61.5087 37.5539C60.2235 37.5211 60.1532 37.7207 59.1922 37.0609C58.3836 35.1734 58.829 32.2969 58.9306 30.082Z" fill="#AE7A3F"/>
<path d="M19.7472 10.8672C20.7354 10.9051 21.087 10.8621 21.8956 11.3977C22.7511 13.2395 22.3566 16.2277 22.2706 18.3824C20.7511 18.1465 20.8878 18.3965 19.8722 17.4867C19.1339 15.7957 19.5948 12.8117 19.7472 10.8672Z" fill="#AE7A3F"/>
<path d="M58.9181 10.916C60.2345 11.0246 60.2306 10.8277 61.215 11.5508C61.8517 13.1059 61.5158 16.1129 61.4962 18.0504C60.5548 18.1328 60.047 18.2633 59.2501 17.7469C58.3751 16.0473 58.8165 12.9863 58.9181 10.916Z" fill="#AE7A3F"/>
<path d="M24.7932 14.0469C25.3596 14.1469 26.4573 14.2293 26.7581 14.5855C27.8831 15.9207 27.2776 20.0902 27.1487 21.8398C26.5979 21.7191 25.6369 21.6105 25.3049 21.268C24.0354 19.9516 24.6526 15.9672 24.7932 14.0469Z" fill="#AE7A3F"/>
<path d="M31.6999 0L32.1374 0.681645C32.3874 3.20625 33.0085 6.43047 30.5163 7.7168L29.7663 6.73008C29.3092 3.91289 28.4811 0.941797 31.6999 0Z" fill="#AE7A3F"/>
<path d="M68.8096 44.377C69.7939 44.4637 70.1142 44.4359 70.8525 45.0703C71.6494 47.0129 71.2705 49.6633 71.1885 51.8851C70.3095 51.8285 69.7939 51.8738 69.0869 51.3594C68.1885 49.4953 68.665 46.5523 68.8096 44.377Z" fill="#AE7A3F"/>
<path d="M49.2895 0.128906C50.227 0.188672 50.7583 0.137107 51.4653 0.757419C52.2153 2.53593 51.7661 5.34688 51.6645 7.45586C50.3481 7.24414 50.3637 7.45977 49.5122 6.61563C48.8012 4.86563 49.1723 2.09414 49.2895 0.128906Z" fill="#AE7A3F"/>
<path d="M10.223 44.375C11.7347 44.6133 11.4534 44.3363 12.3206 45.3137C12.9417 47.2051 12.5511 50.0789 12.4066 52.1387C11.8831 52.009 10.8831 51.8633 10.6019 51.5148C9.53158 50.1754 10.1019 46.0906 10.223 44.375Z" fill="#AE7A3F"/>
<path d="M53.8677 40.6211C55.3599 40.7539 55.3091 40.5359 56.4341 41.3035C57.1763 42.6297 56.7466 44.9449 56.6021 46.541C55.7115 46.491 54.9068 46.5461 54.2388 45.9535C53.438 44.6973 53.7896 42.2207 53.8677 40.6211Z" fill="#AE7A3F"/>
<path d="M0.184387 10.8979C1.24298 10.896 1.74689 10.8304 2.67658 11.3757C3.5008 12.5554 3.08281 14.6257 2.95 16.144C1.96171 16.1507 1.20781 16.2687 0.461716 15.6183C-0.288284 14.4507 0.0750124 12.3667 0.184387 10.8979Z" fill="#AE7A3F"/>
<path d="M24.7582 40.627C26.0355 40.7922 26.0668 40.6074 27.0121 41.3387C27.6879 42.6473 27.309 44.9668 27.1879 46.518C26.3129 46.4551 25.6215 46.5023 24.9926 45.8855C24.2269 44.5508 24.6293 42.2418 24.7582 40.627Z" fill="#AE7A3F"/>
<path d="M34.6844 10.8594L36.4501 11.1109C37.5516 12.5152 37.1728 14.1469 37.0985 16.0816C36.1845 16.0926 35.6063 16.1875 34.8915 15.6125C34.1806 14.4398 34.5634 12.316 34.6844 10.8594Z" fill="#AE7A3F"/>
<path d="M44.3246 10.8164C45.2504 10.8645 45.6996 10.8113 46.4223 11.3648C47.1059 12.6035 46.7778 14.7797 46.684 16.2773C45.6684 16.193 45.3949 16.2051 44.5512 15.6582C43.8285 14.4437 44.2035 12.3102 44.3246 10.8164Z" fill="#AE7A3F"/>
<path d="M78.4542 10.8477L80.2042 11.1402C81.2784 12.5125 80.8917 14.2527 80.7901 16.0984C79.5128 16.0324 79.6886 16.2168 78.6886 15.5867C78.0323 14.4273 78.3604 12.2688 78.4542 10.8477Z" fill="#AE7A3F"/>
</svg>
