<svg width="447" height="128" viewBox="0 0 447 128" fill="none" xmlns="http://www.w3.org/2000/svg">
<g clip-path="url(#clip0_1102_2)">
<path d="M154.399 70.8996C150.599 68.7996 148.599 67.0996 148.599 64.6996C148.599 61.5996 151.299 59.6996 155.599 59.6996C160.599 59.6996 164.999 61.7996 164.999 61.7996L168.499 51.0996C168.499 51.0996 165.299 48.5996 155.799 48.5996C142.599 48.5996 133.399 56.1996 133.399 66.7996C133.399 72.7996 137.699 77.3996 143.399 80.6996C147.999 83.2996 149.599 85.1996 149.599 87.8996C149.599 90.7996 147.299 93.0996 142.999 93.0996C136.599 93.0996 130.599 89.7996 130.599 89.7996L126.899 100.5C126.899 100.5 132.499 104.2 141.799 104.2C155.399 104.2 165.099 97.4996 165.099 85.4996C165.299 78.8996 160.299 74.2996 154.399 70.8996Z" fill="#AE7A3F"/>
<path d="M208.6 48.4004C201.9 48.4004 196.7 51.6004 192.6 56.4004L192.4 56.3004L198.2 25.9004H183L168.3 103.2H183.4L188.4 76.8004C190.4 66.8004 195.5 60.7004 200.3 60.7004C203.7 60.7004 205 63.0004 205 66.3004C205 68.4004 204.8 70.9004 204.3 73.0004L198.6 103.3H213.7L219.6 72.1004C220.3 68.8004 220.7 64.9004 220.7 62.2004C220.9 53.5004 216.5 48.4004 208.6 48.4004Z" fill="#AE7A3F"/>
<path d="M255.1 48.4004C236.9 48.4004 224.8 64.8004 224.8 83.1004C224.8 94.8004 232 104.3 245.6 104.3C263.5 104.3 275.5 88.3004 275.5 69.6004C275.6 58.7004 269.3 48.4004 255.1 48.4004ZM247.7 92.6004C242.5 92.6004 240.4 88.2004 240.4 82.7004C240.4 74.0004 244.9 59.9004 253.1 59.9004C258.5 59.9004 260.2 64.5004 260.2 69.0004C260.2 78.4004 255.7 92.6004 247.7 92.6004Z" fill="#AE7A3F"/>
<path d="M314.299 48.4004C304.099 48.4004 298.299 57.4004 298.299 57.4004H298.099L298.999 49.3004H285.599C284.899 54.8004 283.699 63.1004 282.499 69.4004L271.999 124.6H287.099L291.299 102.2H291.599C291.599 102.2 294.699 104.2 300.499 104.2C318.299 104.2 329.899 86.0004 329.899 67.6004C329.899 57.5004 325.399 48.4004 314.299 48.4004ZM299.899 92.9004C295.999 92.9004 293.699 90.7004 293.699 90.7004L296.199 76.6004C297.999 67.2004 302.899 60.9004 308.099 60.9004C312.699 60.9004 314.099 65.2004 314.099 69.2004C314.099 78.9004 308.299 92.9004 299.899 92.9004Z" fill="#AE7A3F"/>
<path d="M351.5 26.7012C346.7 26.7012 342.8 30.5012 342.8 35.5012C342.8 40.0012 345.6 43.1012 349.9 43.1012H350.1C354.8 43.1012 358.9 39.9012 359 34.3012C359.1 29.8012 356.1 26.7012 351.5 26.7012Z" fill="#AE7A3F"/>
<path d="M330.3 103.2H345.5L355.8 49.5996H340.5L330.3 103.2Z" fill="#AE7A3F"/>
<path d="M394.2 49.5004H383.7L384.2 47.0004C385.1 41.8004 388.1 37.2004 393.2 37.2004C395.9 37.2004 398 38.0004 398 38.0004L401 26.2004C401 26.2004 398.4 24.9004 392.8 24.9004C387.4 24.9004 382.1 26.4004 378 29.9004C372.8 34.3004 370.4 40.6004 369.2 47.0004L368.8 49.5004H361.8L359.6 60.9004H366.6L358.6 103.2H373.7L381.7 60.9004H392.1L394.2 49.5004Z" fill="#AE7A3F"/>
<path d="M430.599 49.5996C430.599 49.5996 421.099 73.3996 416.899 86.3996H416.699C416.399 82.1996 412.999 49.5996 412.999 49.5996H397.099L406.199 98.7996C406.399 99.8996 406.299 100.6 405.899 101.3C404.099 104.7 401.199 108 397.699 110.4C394.899 112.5 391.699 113.8 389.199 114.7L393.399 127.5C396.499 126.8 402.799 124.3 408.199 119.3C415.099 112.8 421.499 102.9 427.999 89.2996L446.499 49.5996H430.599Z" fill="#AE7A3F"/>
<path d="M74.7998 14.7998C74.7998 14.7998 73.3998 15.1998 71.0998 15.8998C70.6998 14.5998 70.0998 13.0998 69.2998 11.4998C66.6998 6.49978 62.7998 3.79978 58.1998 3.79978C57.8998 3.79978 57.5998 3.79978 57.1998 3.89978C57.0998 3.69978 56.8998 3.59978 56.7998 3.39978C54.7998 1.19978 52.1998 0.199778 49.0998 0.299778C43.0998 0.499778 37.0998 4.79978 32.2998 12.4998C28.8998 17.8998 26.2998 24.6998 25.5998 29.9998C18.6998 32.0998 13.8998 33.5998 13.7998 33.6998C10.2998 34.7998 10.1998 34.8998 9.7998 38.1998C9.4998 40.6998 0.299805 111.1 0.299805 111.1L75.8998 124.2V14.6998C75.2998 14.6998 74.9998 14.7998 74.7998 14.7998ZM57.2998 20.1998C53.2998 21.3998 48.8998 22.7998 44.5998 24.0998C45.7998 19.3998 48.1998 14.6998 50.9998 11.5998C52.0998 10.4998 53.5998 9.19978 55.2998 8.39978C56.9998 11.9998 57.3998 16.8998 57.2998 20.1998ZM49.0998 4.39978C50.4998 4.39978 51.6998 4.69978 52.6998 5.29978C51.0998 6.09978 49.4998 7.39978 47.9998 8.89978C44.1998 12.9998 41.2998 19.3998 40.0998 25.4998C36.4998 26.5998 32.8998 27.6998 29.5998 28.6998C31.7998 19.0998 39.8998 4.59978 49.0998 4.39978ZM37.4998 59.3998C37.8998 65.7998 54.7998 67.1998 55.7998 82.2998C56.4998 94.1998 49.4998 102.3 39.3998 102.9C27.1998 103.7 20.4998 96.4998 20.4998 96.4998L23.0998 85.4998C23.0998 85.4998 29.7998 90.5998 35.1998 90.1998C38.6998 89.9998 39.9998 87.0998 39.8998 85.0998C39.3998 76.6998 25.5998 77.1998 24.6998 63.3998C23.8998 51.7998 31.4998 40.0998 48.2998 38.9998C54.7998 38.5998 58.0998 40.1998 58.0998 40.1998L54.2998 54.5998C54.2998 54.5998 49.9998 52.5998 44.8998 52.9998C37.4998 53.4998 37.3998 58.1998 37.4998 59.3998ZM61.2998 18.9998C61.2998 15.9998 60.8998 11.6998 59.4998 8.09978C64.0998 8.99978 66.2998 14.0998 67.2998 17.1998C65.4998 17.6998 63.4998 18.2998 61.2998 18.9998Z" fill="#AE7A3F"/>
<path d="M78.2002 124L109.6 116.2C109.6 116.2 96.1002 24.9004 96.0002 24.3004C95.9002 23.7004 95.4002 23.3004 94.9002 23.3004C94.4002 23.3004 85.6002 23.1004 85.6002 23.1004C85.6002 23.1004 80.2002 17.9004 78.2002 15.9004V124Z" fill="#AE7A3F"/>
</g>
<defs>
<clipPath id="clip0_1102_2">
<rect width="446.3" height="127.5" fill="white"/>
</clipPath>
</defs>
</svg>
