<svg width="250" height="50" viewBox="0 0 250 50" fill="none" xmlns="http://www.w3.org/2000/svg">
<path d="M73.6738 9.61408C73.6378 9.36208 73.4218 9.21808 73.2418 9.21808C73.0618 9.21808 69.4978 9.14608 69.4978 9.14608C69.4978 9.14608 66.5098 6.26608 66.2218 5.94208C65.9338 5.65408 65.3578 5.72608 65.1418 5.79808C65.1418 5.79808 64.5658 5.97808 63.6298 6.26608C63.4858 5.76208 63.2338 5.15008 62.9098 4.50208C61.8658 2.48608 60.2818 1.40608 58.4098 1.40608C58.2658 1.40608 58.1578 1.40608 58.0138 1.44208C57.9418 1.37008 57.9058 1.29808 57.8338 1.26208C57.0058 0.398079 55.9618 -0.033921 54.7018 0.00207898C52.2898 0.074079 49.8778 1.83808 47.8978 4.93408C46.5298 7.13008 45.4858 9.86608 45.1618 11.9901C42.3898 12.8541 40.4458 13.4661 40.3738 13.4661C38.9698 13.8981 38.9338 13.9341 38.7538 15.2661C38.6818 16.2741 35.0098 44.6781 35.0098 44.6781L65.8258 50.0061L79.1818 46.6941C79.1458 46.6941 73.7098 9.86608 73.6738 9.61408ZM62.0818 6.77008C61.3618 6.98608 60.5698 7.23808 59.7058 7.52608C59.7058 6.30208 59.5258 4.57408 58.9858 3.13408C60.8218 3.42208 61.7218 5.51008 62.0818 6.77008ZM58.0858 7.99408C56.4658 8.49808 54.7018 9.03808 52.9378 9.57808C53.4418 7.67008 54.3778 5.79808 55.5298 4.53808C55.9618 4.07008 56.5738 3.56608 57.2578 3.27808C57.9778 4.68208 58.1218 6.66208 58.0858 7.99408ZM54.7738 1.62208C55.3498 1.62208 55.8178 1.73008 56.2138 2.01808C55.5658 2.34208 54.9178 2.84608 54.3418 3.49408C52.7938 5.15008 51.6058 7.70608 51.1378 10.1901C49.6618 10.6581 48.2218 11.0901 46.9258 11.4861C47.7898 7.56208 51.0658 1.73008 54.7738 1.62208Z" fill="#E8BE8E"/>
<path d="M73.2412 9.21772C73.0612 9.21772 69.4972 9.14572 69.4972 9.14572C69.4972 9.14572 66.5092 6.26572 66.2212 5.94172C66.1132 5.83372 65.9692 5.76172 65.8252 5.76172V50.0057L79.1812 46.6937C79.1812 46.6937 73.7452 9.86572 73.7092 9.61372C73.6372 9.36172 73.4212 9.21772 73.2412 9.21772Z" fill="#E7963A"/>
<path d="M58.4098 16.0928L56.8618 21.8888C56.8618 21.8888 55.1338 21.0968 53.0818 21.2408C50.0578 21.4208 50.0578 23.3288 50.0578 23.7968C50.2378 26.3888 57.0418 26.9648 57.4378 33.0488C57.7258 37.8368 54.9178 41.1128 50.8138 41.3648C45.9178 41.6168 43.2178 38.7368 43.2178 38.7368L44.2618 34.3088C44.2618 34.3088 46.9978 36.3608 49.1578 36.2168C50.5618 36.1448 51.1018 34.9568 51.0298 34.1648C50.8138 30.7808 45.2698 30.9968 44.9098 25.4168C44.6218 20.7368 47.6818 16.0208 54.4498 15.5888C57.0778 15.4088 58.4098 16.0928 58.4098 16.0928Z" fill="white"/>
<path d="M97.2336 27.1825C95.6856 26.3545 94.8936 25.6345 94.8936 24.6625C94.8936 23.4385 96.0096 22.6465 97.7376 22.6465C99.7536 22.6465 101.554 23.4745 101.554 23.4745L102.958 19.1545C102.958 19.1545 101.662 18.1465 97.8456 18.1465C92.5176 18.1465 88.8096 21.2065 88.8096 25.4905C88.8096 27.9385 90.5376 29.7745 92.8416 31.1065C94.7136 32.1505 95.3616 32.9065 95.3616 34.0225C95.3616 35.1745 94.4256 36.1105 92.6976 36.1105C90.1416 36.1105 87.6936 34.7785 87.6936 34.7785L86.1816 39.0985C86.1816 39.0985 88.4136 40.6105 92.1936 40.6105C97.6656 40.6105 101.626 37.9105 101.626 33.0505C101.59 30.4225 99.6096 28.5505 97.2336 27.1825Z" fill="#E7963A"/>
<path d="M119.051 18.0731C116.351 18.0731 114.227 19.3691 112.607 21.3131L112.535 21.2771L114.875 9.03711H108.791L102.851 40.2131H108.935L110.951 29.5571C111.743 25.5251 113.831 23.0411 115.775 23.0411C117.143 23.0411 117.683 23.9771 117.683 25.3091C117.683 26.1371 117.611 27.1811 117.431 28.0091L115.127 40.2131H121.211L123.587 27.6131C123.839 26.2811 124.019 24.6971 124.019 23.6171C124.055 20.1611 122.255 18.0731 119.051 18.0731Z" fill="#E7963A"/>
<path d="M137.842 18.0742C130.498 18.0742 125.638 24.6982 125.638 32.0782C125.638 36.7942 128.554 40.6102 134.026 40.6102C141.226 40.6102 146.086 34.1662 146.086 26.6062C146.122 22.2502 143.566 18.0742 137.842 18.0742ZM134.854 35.9662C132.766 35.9662 131.902 34.2022 131.902 31.9702C131.902 28.4782 133.702 22.7902 137.014 22.7902C139.174 22.7902 139.894 24.6622 139.894 26.4622C139.894 30.2062 138.058 35.9662 134.854 35.9662Z" fill="#E7963A"/>
<path d="M161.71 18.0742C157.606 18.0742 155.266 21.7102 155.266 21.7102H155.194L155.554 18.4342H150.154C149.902 20.6302 149.398 24.0142 148.93 26.5342L144.682 48.8542H150.766L152.458 39.8182H152.602C152.602 39.8182 153.862 40.6102 156.166 40.6102C163.33 40.6102 168.01 33.2662 168.01 25.8502C168.01 21.7462 166.174 18.0742 161.71 18.0742ZM155.878 36.0382C154.294 36.0382 153.358 35.1382 153.358 35.1382L154.366 29.4502C155.086 25.6342 157.066 23.1142 159.19 23.1142C161.062 23.1142 161.638 24.8422 161.638 26.4622C161.638 30.4222 159.298 36.0382 155.878 36.0382Z" fill="#E7963A"/>
<path d="M176.722 9.32617C174.778 9.32617 173.23 10.8742 173.23 12.8542C173.23 14.6542 174.382 15.9142 176.11 15.9142H176.182C178.09 15.9142 179.71 14.6182 179.746 12.3862C179.746 10.6222 178.558 9.32617 176.722 9.32617Z" fill="#E7963A"/>
<path d="M168.19 40.1781H174.274L178.414 18.5781H172.294L168.19 40.1781Z" fill="#E7963A"/>
<path d="M193.93 18.5415H189.682L189.898 17.5335C190.258 15.4455 191.482 13.6095 193.534 13.6095C194.614 13.6095 195.478 13.9335 195.478 13.9335L196.666 9.14547C196.666 9.14547 195.622 8.60547 193.354 8.60547C191.194 8.60547 189.034 9.21747 187.378 10.6215C185.29 12.3855 184.318 14.9415 183.85 17.5335L183.67 18.5415H180.826L179.926 23.1495H182.77L179.53 40.2135H185.614L188.854 23.1495H193.066L193.93 18.5415Z" fill="#E7963A"/>
<path d="M208.618 18.5781C208.618 18.5781 204.802 28.1901 203.11 33.4461H203.038C202.93 31.7541 201.526 18.5781 201.526 18.5781H195.118L198.79 38.4141C198.862 38.8461 198.826 39.1341 198.646 39.4221C197.926 40.7901 196.738 42.1221 195.334 43.0941C194.182 43.9221 192.886 44.4621 191.878 44.8221L193.57 50.0061C194.794 49.7541 197.386 48.7101 199.546 46.6941C202.318 44.1021 204.91 40.0701 207.538 34.5981L214.99 18.5781H208.618Z" fill="#E7963A"/>
</svg>
