<svg width="104" height="66" viewBox="0 0 104 66" fill="none" xmlns="http://www.w3.org/2000/svg">
<path d="M49.9109 0.196155C51.0594 0.182778 52.2483 0.0722546 53.2716 0.672238C60.621 4.98166 60.229 23.1856 51.8622 25.6585C47.9515 26.2031 45.1483 22.0988 44.3809 18.8346C44.0961 17.6232 45.1619 18.3762 43.8936 16.8329C43.1558 15.9351 43.4823 11.6933 43.5992 10.2794C45.1863 8.83538 44.4164 8.93757 44.475 6.91493C44.4878 6.47098 44.9442 5.26334 45.1664 4.82267C46.3328 2.50892 47.4395 1.10194 49.9109 0.196155ZM46.6883 14.969C48.0901 13.7831 47.8414 12.1265 46.8649 10.762L46.6263 10.6566C45.0884 11.6693 44.7067 14.102 46.6883 14.969ZM53.0251 17.3321C51.8916 18.5313 52.0421 21.5812 53.3692 21.634C54.3794 20.2495 55.0026 18.2209 53.0251 17.3321ZM55.4889 14.8864C56.6611 13.9139 56.5548 13.6259 56.515 12.1458C56.2445 11.7496 55.6668 10.7188 55.2029 10.6334C54.3621 11.9035 54.1806 12.5367 54.5072 14.0452L54.5414 14.1993C54.7661 14.4791 55.0035 14.8537 55.3283 14.9511L55.4889 14.8864ZM48.9247 21.8993C49.625 20.7542 50.732 17.6454 48.6324 17.3176C46.8699 19.0506 47.6571 20.272 48.9247 21.8993ZM48.7757 4.17565C47.3248 5.22474 47.0978 7.84342 48.9673 8.55765C50.0407 7.81633 50.1155 5.61267 49.3807 4.62092C49.2294 4.41566 49.0185 4.2604 48.7757 4.17565ZM52.9539 4.26117C52.0076 5.23877 51.5039 8.24856 53.4973 8.45217C54.5989 7.3101 54.5935 4.35876 52.9539 4.26117Z" fill="#AE7A3F"/>
<path d="M30.0229 0.520597C31.1812 0.458537 32.183 0.443406 33.2179 1.0731C35.3564 2.37416 36.9409 5.54392 37.4964 7.89374C38.632 12.6966 38.3227 17.7185 35.7943 22.0542C34.9048 23.5794 33.7206 24.7083 31.9889 25.1451C31.9196 25.1587 31.8503 25.1715 31.7808 25.1838C21.6839 26.9546 20.9593 2.05608 30.0229 0.520597ZM27.4142 8.124C27.8591 8.32783 28.3071 8.52169 28.7271 8.77157C29.3735 8.35459 29.7525 8.06293 29.909 7.28049C30.1108 6.27109 30.0694 4.34626 28.7333 4.14944C28.1812 4.24681 27.8766 4.25042 27.5292 4.7219C26.9566 5.49863 27.2444 7.20166 27.4142 8.124ZM28.7383 21.8791C30.4054 21.0416 30.4904 17.6583 28.7075 17.0591C28.0207 17.3711 27.5212 17.6633 27.3158 18.4054C26.8487 20.0922 27.2802 21.1378 28.7383 21.8791ZM34.8953 10.5307C33.996 11.5053 33.5657 13.7801 34.6542 14.8178C34.9705 15.1193 35.3684 15.1048 35.7845 15.1296C36.8015 13.7154 37.1995 10.6757 34.8953 10.5307ZM33.2344 21.9319C34.3853 21.3095 34.4652 19.7264 34.4728 18.5932C34.0824 17.941 33.7853 17.2692 33.0525 17.0174C31.7597 18.1132 31.669 18.3814 31.6437 20.0908C32.1209 21.0532 32.3014 21.3308 33.2344 21.9319ZM26.3437 10.5725C24.4328 11.3629 24.3525 14.6957 26.5648 15.2192C28.3438 14.3604 27.7957 10.3323 26.3437 10.5725ZM32.695 4.22543C31.3313 5.02804 31.6163 6.74981 31.9516 8.0478C32.4049 8.33529 32.8242 8.71061 33.2979 8.69274C33.5684 8.47849 33.9317 8.20722 34.1687 7.97083C34.3928 7.00397 34.7304 5.64304 34.1553 4.73298C33.7821 4.14253 33.3252 4.21556 32.695 4.22543Z" fill="#AE7A3F"/>
<path d="M86.7329 0.107978C88.7183 -0.0181149 102.302 -0.125567 103.307 0.344924C103.628 0.954995 103.45 3.67158 103.401 4.45259C100.312 4.63471 95.1612 4.59557 92.0733 4.46169C92.2101 6.51712 91.9721 9.00883 92.2008 10.993C94.4936 10.5722 99.418 10.7722 101.872 10.8431C101.926 12.3075 101.916 13.7331 101.909 15.1979C101.73 15.3404 101.411 15.4043 101.19 15.3887C98.3209 15.1863 94.8904 15.5729 92.1128 15.3391L92.0728 25.7957C90.6059 25.8393 87.6915 25.7235 86.3469 25.9754C86.2585 24.3205 86.191 0.838988 86.3851 0.263894L86.7329 0.107978Z" fill="#AE7A3F"/>
<path d="M67.6058 0.0980708C72.9203 -0.0457848 78.793 0.0549796 84.1303 0.0666021C84.1501 1.40363 84.2283 3.25346 84.1049 4.52064C82.8938 4.63073 80.5276 4.55211 79.2424 4.54147C77.1916 4.52448 74.9306 4.58851 72.9018 4.51428C72.8381 6.61083 72.932 8.84958 72.971 10.9626C74.4319 10.641 80.9745 10.6818 82.4858 10.9055C82.7316 12.0739 82.6967 13.5957 82.6432 14.7838C82.6747 14.9717 82.6446 15.0219 82.5891 15.2004C82.1289 15.4216 73.8768 15.3749 72.9576 15.3146L72.9477 22.0556C72.9484 23.114 72.999 24.7772 72.9014 25.7945L67.4139 25.8115L67.3919 9.79122C67.3885 8.49849 67.2552 0.622837 67.6058 0.0980708Z" fill="#AE7A3F"/>
<path d="M0.240167 0.0758591C7.33439 0.0466933 14.4287 0.0544795 21.5228 0.0992151C21.53 1.5711 21.5296 3.04288 21.5216 4.51477C19.0299 4.6322 16.0046 4.53231 13.4493 4.55917C13.5542 6.12185 13.5105 8.09987 13.5137 9.69324L13.5267 18.2201C13.5305 19.2864 13.7278 25.1134 13.2446 25.6519C12.4183 25.9704 8.84147 25.8615 7.87912 25.7484L7.86643 12.6335C7.86454 10.0631 7.77182 7.0056 7.90194 4.49975C5.70709 4.63165 2.33335 4.53571 0.061376 4.54459C0.0372783 3.68442 -0.137784 0.630449 0.240167 0.0758591Z" fill="#AE7A3F"/>
<path d="M54.056 37.4751C54.2274 37.2284 54.2399 37.1043 54.3137 36.8188C54.017 36.0599 52.7728 36.8018 52.0453 36.1426C51.8755 35.8315 51.8852 35.781 51.9313 35.4274C52.4942 34.7174 53.3938 35.4613 54.2765 34.9116L54.2831 34.7275C53.9968 34.4273 53.0002 34.1292 52.5301 33.9268C52.663 33.867 52.788 33.8032 52.9178 33.7377C53.5548 32.4848 54.2756 33.4438 55.3062 32.9635L55.3953 32.7143L55.2773 32.5214C54.3897 32.1553 52.8915 32.7419 52.2502 31.9982C52.1543 30.603 54.3728 31.2361 55.1314 31.0663C55.4569 30.9934 55.2694 30.4253 55.7356 30.1389C56.7505 30.1414 57.8799 31.6396 59.0757 31.1344C59.6463 30.8933 59.5055 30.6582 59.7222 30.1391C59.8813 30.0183 59.9753 29.9723 60.1532 29.9678C61.5109 29.9337 61.0543 30.8125 61.453 31.0135C62.0171 31.2979 64.0454 30.8693 64.5743 31.3506C64.6459 31.716 64.6804 31.8067 64.5383 32.167C63.8314 32.9599 61.7802 31.945 61.2443 32.6988C61.2795 33.0355 61.2171 32.9302 61.4445 33.1169C62.1104 33.0186 63.1187 33.0762 63.9007 33.0161C63.8931 33.438 63.9287 33.9555 63.9459 34.3843C63.5291 34.3924 62.9413 34.3585 62.6347 34.6422L62.7674 34.7914C63.2765 34.997 63.8767 34.9349 64.4349 34.9222C64.6542 35.4025 64.7941 35.7536 64.6273 36.2489C64.2093 36.5438 63.9813 36.4818 63.4321 36.4743C62.9639 36.5018 62.7858 36.4835 62.4098 36.7479L62.3735 36.934C63.0452 37.6824 64.3345 37.0573 63.7728 38.4028C62.5414 38.8445 59.7873 38.1053 59.0605 38.9535C59.4979 39.5482 62.8369 39.2382 63.8086 39.3516C64.1308 39.7049 64.4676 40.0547 64.7394 40.4461C63.67 40.5563 59.5499 40.4587 59.1152 40.769C58.8527 41.4796 59.7043 42.7141 57.7492 42.5319C57.0253 41.8657 57.7179 40.9407 57.3046 40.5065C57.3161 40.4054 57.4151 40.0598 57.4462 39.9408C57.5113 39.751 57.5346 39.4967 57.5643 39.2918C57.5266 38.9821 57.5112 38.9247 57.3932 38.6352C57.1611 38.4648 53.588 38.4605 52.9347 38.4204C52.7546 38.1298 52.9008 37.8548 53.0684 37.6188C53.4838 37.3832 53.5728 37.4106 54.056 37.4751ZM59.0841 33.0294C59.4136 33.0372 59.4181 33.0915 59.6572 32.9307C59.5149 32.2292 58.0472 32.4245 57.458 32.4446C57.1474 32.5191 56.945 32.5245 56.7598 32.7667C57.1108 33.1714 58.5203 33.0544 59.0841 33.0294ZM57.3804 37.3606C57.4041 36.8961 57.4811 36.8919 57.279 36.5562C56.8934 36.3761 56.3506 36.5347 55.8905 36.5281C55.7003 36.7338 55.6713 36.7443 55.6366 37.0075C56.0535 37.4722 56.7743 37.3666 57.3804 37.3606ZM59.0405 36.5985C59.128 37.0471 59.0412 36.9362 59.3395 37.2263C59.9541 37.4226 60.3271 37.0604 60.9953 37.2318L61.1064 36.8396C60.7865 36.3564 59.5993 36.5385 59.0405 36.5985ZM57.3176 35.1501L57.4375 34.6693C57.1435 34.2026 56.3787 34.4299 55.7923 34.3752C55.8235 34.8258 55.7438 34.759 56.007 34.9914C56.5583 35.0193 56.8399 34.9377 57.3176 35.1501ZM60.6101 34.8631L60.8911 34.854L61.0091 34.6396C60.6079 34.4557 60.1185 34.4313 59.6735 34.3827L59.2725 34.5755L59.2094 34.7634C59.5146 34.9856 59.8583 34.9861 60.2198 34.9318C60.3504 34.9117 60.4805 34.8888 60.6101 34.8631Z" fill="#AE7A3F"/>
<path d="M64.4354 34.9238C64.6546 35.4041 64.7946 35.7552 64.6278 36.2505C64.2098 36.5454 63.9818 36.4834 63.4326 36.4759C63.5888 35.5917 63.7553 35.5279 64.4354 34.9238Z" fill="#AE7A3F"/>
<path d="M52.9352 38.422C52.7551 38.1315 52.9013 37.8565 53.0689 37.6204C53.4843 37.3849 53.5733 37.4123 54.0565 37.4768C53.9359 37.9489 54.003 38.0345 53.6951 38.2913L52.9352 38.422Z" fill="#AE7A3F"/>
<path d="M59.6731 34.3848C60.1181 34.4334 60.6075 34.4578 61.0087 34.6417L60.8907 34.8561L60.6097 34.8652C60.4801 34.8909 60.35 34.9138 60.2194 34.9339C59.8579 34.9883 59.5142 34.9877 59.209 34.7655L59.2721 34.5776L59.6731 34.3848Z" fill="white"/>
<path d="M44.4759 32.3785C44.8711 32.2169 45.3509 32.1133 45.7806 32.1595C46.4043 32.7184 49.7199 32.2039 50.9288 32.4703C50.9818 34.0492 50.9448 35.6131 50.9985 37.1898C51.0148 37.6674 51.0876 38.1183 50.7542 38.5118C50.123 38.8139 48.7326 38.119 47.9045 38.1126C47.1835 38.107 46.5479 38.1049 45.8208 38.1835C45.9589 39.1246 46.2263 41.5372 45.6591 42.2938C43.9493 43.1876 44.4446 40.7491 44.3837 39.8635C44.3447 39.2942 44.436 38.5792 44.3744 38.0267C43.2914 38.164 42.3429 38.0257 41.2704 38.2757L41.0857 38.5717C40.7504 38.816 40.2544 38.8242 39.8286 38.8712C39.6349 36.9343 39.7134 34.5739 39.6357 32.5501C40.9173 32.33 43.0445 32.4471 44.4759 32.3785ZM41.3169 36.7472C42.1962 36.5001 43.5175 36.5934 44.438 36.627C44.3744 35.7253 44.4055 34.6713 44.4109 33.756C43.6287 33.7955 42.1028 33.8087 41.3554 33.6919C41.3544 34.5792 41.392 35.8942 41.3169 36.7472ZM49.4238 36.5877C49.4094 35.6871 49.3602 34.6201 49.4883 33.7433C48.272 33.858 47.1232 33.7068 45.9255 33.7393C46.0195 34.5774 45.9027 36.1012 46.2907 36.5563C46.9274 36.7403 48.4312 36.424 49.4238 36.5877Z" fill="#AE7A3F"/>
<path d="M41.3175 36.7476C42.1969 36.5006 43.5182 36.5939 44.4387 36.6274C44.4741 37.0751 44.4842 37.5868 44.375 38.0272C43.292 38.1644 42.3436 38.0262 41.271 38.2762C41.0572 37.7548 41.194 37.2731 41.3175 36.7476Z" fill="#AE7A3F"/>
<path d="M92.0578 33.9078C91.8046 33.3216 91.6413 33.7165 91.4844 33.2917C91.8813 32.5155 92.7581 30.5516 93.5511 30.2777C94.4702 29.9588 94.4793 31.0311 95.0567 31.1714C96.5933 31.5449 97.1957 30.3386 97.7983 32.2502L97.9496 32.0124L98.6454 32.9282L98.5728 33.0904L98.5216 33.5999L98.2129 33.7498C97.7821 33.7511 97.7496 33.6721 97.5029 33.9014L97.4782 34.1665C97.5824 34.687 97.5466 37.8717 97.461 38.4256C96.9714 38.8668 96.7345 38.3378 96.4679 38.8129C96.6541 39.6587 99.0919 41.8881 97.1085 42.324C96.7165 42.2173 96.561 42.0015 96.3673 41.6639C96.2807 41.5113 96.1975 41.3568 96.1178 41.2004C95.0953 41.2705 92.6052 42.5081 91.8957 42.1723C91.7708 42.0061 91.5906 41.7632 91.6693 41.5567C92.5345 39.2829 92.0657 36.9858 92.1302 34.5247L92.0578 33.9078ZM94.6842 33.5801C94.6808 32.9342 94.7057 32.5086 93.9033 32.4516C93.2801 32.674 93.2645 32.9591 93.0621 33.539L93.0752 33.9419C93.8009 33.4274 93.8665 33.6414 94.6842 33.5801ZM97.1918 32.8599C96.9207 32.5805 96.8823 32.5348 96.4935 32.4341C96.1095 32.5443 96.0807 32.5801 95.8997 32.9628C96.1508 33.5969 96.4707 33.7489 97.1445 33.4985C97.2801 33.2817 97.2623 33.2502 97.2486 32.9831L97.1918 32.8599ZM95.7402 40.2005L95.7145 40.0086L95.6559 40.0021C95.4103 39.9725 95.3949 39.9687 95.1729 39.87C95.0231 39.3854 95.1535 39.2653 95.4384 38.8633C95.1876 38.4933 94.0909 38.5778 93.6416 38.5796C93.5835 38.9445 93.4857 39.8574 93.7001 40.1566C94.2897 40.4573 94.998 40.1663 95.7402 40.2005ZM96.1036 35.3231L96.0727 34.9896C95.6576 34.6455 93.9288 34.7066 93.4919 34.9698L93.4561 35.2314C93.8599 35.2528 95.7976 35.3836 96.1036 35.3231Z" fill="#AE7A3F"/>
<path d="M92.0578 33.9078C91.8046 33.3216 91.6413 33.7165 91.4844 33.2917C91.8813 32.5155 92.7581 30.5516 93.5511 30.2777C94.4702 29.9588 94.4793 31.0311 95.0567 31.1714C96.5933 31.5449 97.1957 30.3386 97.7983 32.2502C97.6539 32.6552 97.6541 32.7412 97.1918 32.8599C96.9207 32.5805 96.8823 32.5348 96.4935 32.4341C96.1095 32.5443 96.0807 32.5801 95.8997 32.9628C95.7572 33.7219 95.2743 33.2333 94.6842 33.5801C94.6808 32.9342 94.7057 32.5086 93.9033 32.4516C93.2801 32.674 93.2645 32.9591 93.0621 33.539C92.7533 33.5839 92.4452 33.6334 92.138 33.6878L92.0578 33.9078Z" fill="#AE7A3F"/>
<path d="M97.7986 32.2515L97.9498 32.0137L98.6456 32.9294L98.573 33.0916L98.5218 33.6011L98.2132 33.751C97.7823 33.7523 97.7498 33.6734 97.5032 33.9027L97.4784 34.1678C96.0473 34.3246 94.7476 34.2706 93.3125 34.1819L92.9551 34.0295L93.0754 33.9431C93.8011 33.4287 93.8668 33.6427 94.6844 33.5814C95.2746 33.2346 95.7574 33.7232 95.8999 32.9641C96.151 33.5982 96.4709 33.7501 97.1448 33.4997C97.2803 33.2829 97.2625 33.2515 97.2488 32.9844L97.1921 32.8611C97.6543 32.7425 97.6541 32.6564 97.7986 32.2515Z" fill="#AE7A3F"/>
<path d="M97.7989 32.2515L97.9502 32.0137L98.6459 32.9294L98.5734 33.0916C98.3241 33.4688 98.1227 33.6136 97.6673 33.6004C97.2847 33.3576 97.4005 33.4754 97.2492 32.9844L97.1924 32.8611C97.6546 32.7425 97.6544 32.6564 97.7989 32.2515Z" fill="#AE7A3F"/>
<path d="M92.0576 33.9078L92.1378 33.6879C92.445 33.6335 92.7531 33.5839 93.0619 33.5391L93.075 33.9419L92.9546 34.0283L93.312 34.1807C92.7877 34.1553 92.573 34.1972 92.13 34.5248L92.0576 33.9078Z" fill="#AE7A3F"/>
<path d="M96.1036 35.3241L95.9951 35.7442C95.5488 36.2088 94.4961 36.1127 93.9565 35.8846C93.6009 35.7344 93.5974 35.5493 93.4561 35.2324C93.8599 35.2538 95.7976 35.3846 96.1036 35.3241Z" fill="#AE7A3F"/>
<path d="M75.5432 35.7871C75.8871 36.0131 75.9839 36.0875 76.2764 36.3744C76.3045 37.3989 76.1951 39.0218 76.9918 39.7657C77.3463 40.0966 77.621 40.0749 77.6498 40.7223C77.7544 43.0741 72.0205 42.3876 70.5837 42.074C70.5118 41.5376 70.5472 40.8724 70.3022 40.5284C68.7501 39.9168 67.0909 41.3818 66.5862 40.6738C66.4849 40.0697 66.4965 36.8588 66.571 36.1978C66.912 35.8991 67.0441 35.9576 67.5146 36.0298L68.1374 36.028C69.1073 36.0538 73.9055 36.161 74.5728 35.9738L74.4442 35.8506C74.864 35.8607 75.1328 35.8854 75.5432 35.7871ZM71.9026 38.7102L71.9746 39.0293C72.3902 39.2508 74.034 39.1315 74.711 39.2265L74.8149 38.9849C74.4403 38.4249 72.566 38.6764 71.9026 38.7102ZM70.4875 39.1106L70.4566 38.8553C69.9116 38.5235 68.5109 38.6481 67.8379 38.6682C67.865 38.8565 67.845 39.0357 67.9748 39.1054C68.4229 39.3464 70.0145 39.1713 70.4875 39.1106ZM74.7736 37.5248L74.7636 37.3078C74.3071 36.9846 72.6534 37.1579 72.0585 37.1934L72.0748 37.3715C72.6622 37.5271 74.1662 37.5879 74.7736 37.5248ZM76.0995 40.9339L76.1234 40.6564C75.5437 40.2193 72.7563 40.4291 71.8521 40.4569L71.8495 40.7933C72.471 41.2519 75.2333 40.9879 76.0995 40.9339ZM70.3817 37.4003C69.9686 37.0625 68.3989 37.1512 67.7988 37.1513L68.0324 37.4666C68.6086 37.5501 69.8752 37.6731 70.3817 37.4003Z" fill="#AE7A3F"/>
<path d="M71.9023 38.7084C72.5658 38.6747 74.4401 38.4231 74.8147 38.9832L74.7108 39.2248C74.0337 39.1298 72.39 39.2491 71.9744 39.0276L71.9023 38.7084Z" fill="white"/>
<path d="M67.8379 38.6684C68.511 38.6483 69.9116 38.5237 70.4566 38.8555L70.4875 39.1108C70.0145 39.1715 68.4229 39.3466 67.9748 39.1056C67.845 39.0359 67.865 38.8567 67.8379 38.6684Z" fill="white"/>
<path d="M72.0586 37.1935C72.6535 37.1579 74.3072 36.9846 74.7637 37.3078L74.7737 37.5248C74.1663 37.588 72.6623 37.5271 72.075 37.3715L72.0586 37.1935Z" fill="#AE7A3F"/>
<path d="M67.7988 37.1512C68.3989 37.1511 69.9686 37.0624 70.3817 37.4002C69.8752 37.673 68.6086 37.55 68.0325 37.4665L67.7988 37.1512Z" fill="#AE7A3F"/>
<path d="M53.8604 0.214888C55.155 0.0876987 56.6875 0.18342 58.0053 0.150197C62.7588 0.0302446 64.5878 5.82208 64.4792 9.61484C63.2793 9.50838 60.7827 9.59752 59.4594 9.60377C58.1912 6.45802 58.0445 3.18575 54.9742 0.89294C54.6039 0.616412 54.2557 0.475955 53.8604 0.214888Z" fill="#AE7A3F"/>
<path d="M23.7382 35.1133C24.0466 35.1437 24.7856 35.1545 24.9451 35.3262C25.0086 36.8874 25.0601 40.8446 24.7746 42.2531L22.6695 42.2986C22.8684 41.1633 23.5598 40.4064 23.4423 39.5565L23.2514 39.4344C21.9308 39.8308 22.8753 41.6319 22.2088 42.1731C21.7705 42.2636 21.7022 42.2418 21.267 42.1394C20.7276 41.6051 21.5099 40.1709 20.8122 39.429L20.5672 39.3977C20.0393 39.9271 20.6116 41.2741 20.2925 41.9754C19.8447 42.2983 19.5038 42.2104 18.8974 42.2023C18.8936 41.4263 19.0841 39.7861 18.5158 39.3103L18.223 39.3413C18.0652 40.2834 18.3342 41.605 17.8196 42.2689C17.4639 42.505 17.0442 42.4661 16.6494 42.3445C16.7031 40.1418 16.6219 37.3684 16.541 35.1715C18.7816 35.1784 21.5442 35.251 23.7382 35.1133ZM23.3171 38.1518L23.5052 37.9827C23.5287 37.478 23.5684 37.144 23.4342 36.6495C23.2186 36.5367 23.2016 36.5419 22.9531 36.5242C22.6557 36.9353 22.2834 37.6853 22.7441 38.0841L23.3171 38.1518ZM20.8304 38.2872C21.0927 37.8104 21.1167 37.2202 20.9801 36.7017C20.8216 36.5394 20.8332 36.5441 20.6134 36.4866C20.5495 36.9574 20.4234 37.5808 20.5253 38.0283L20.8304 38.2872Z" fill="#AE7A3F"/>
<path d="M15.8359 42.1727C15.7458 42.313 15.6264 42.3704 15.4716 42.4249C15.1964 42.5217 14.9152 42.5381 14.6512 42.4022C13.9424 42.0371 14.7074 37.2784 14.3004 36.3456C14.2162 36.1524 13.524 36.4698 13.2189 36.3288C12.9013 36.0304 12.7732 35.2394 12.9331 34.8619C13.2004 34.2311 14.0896 33.5743 14.4027 32.9759C14.7948 32.2263 14.8395 31.1904 15.3241 30.4593C15.5924 30.0392 16.1813 30.014 16.5686 30.2947C16.96 31.1501 16.1176 32.2733 16.1585 33.1938L16.3145 33.2404C17.6394 32.2584 18.5742 32.2904 19.5187 30.6618C19.7768 30.2756 20.9939 30.1192 21.2797 30.404C22.5665 31.6869 24.4216 32.4532 25.713 33.5752C25.4916 33.987 25.4427 34.3691 25.0886 34.6788C24.748 34.7087 24.8487 34.6993 24.5056 34.4683C23.7227 34.0956 19.4936 34.9893 18.4919 34.4333C18.2147 34.2795 18.0599 34.2137 17.7402 34.3117C17.1424 34.4953 16.7857 34.8511 16.1517 34.5527C16.1026 34.5295 16.0538 34.5056 16.0054 34.481L15.8428 34.5847C15.8487 35.759 15.6857 41.4976 15.8359 42.1727ZM18.8289 33.0402C19.5615 33.0579 20.406 33.0966 21.1289 33.0793C21.5012 33.0992 21.818 33.1709 22.1012 32.9701C22.1289 33.0333 20.5786 31.3255 20.7779 31.4192C20.3741 32.3406 19.7439 32.5316 18.8289 33.0402Z" fill="#AE7A3F"/>
<path d="M60.707 17.0043C61.979 16.9477 63.2536 16.9919 64.5184 17.1364C64.2915 19.2163 63.1635 22.2958 61.6568 23.8551C60.9062 24.632 59.05 25.7052 57.9707 25.7207C56.501 25.744 55.0309 25.7363 53.5615 25.6976C57.4127 24.1511 57.9628 21.1306 58.9839 17.6453C59.1933 16.9304 60.0955 17.0202 60.707 17.0043Z" fill="#AE7A3F"/>
<path d="M36.513 0.432522C37.9518 0.412347 39.8594 0.408619 40.9428 1.44916C42.1235 2.59222 43.1459 4.06126 43.5958 5.64532C43.8401 6.50571 44.6022 8.62648 43.9082 9.3531C43.6054 9.50485 43.3762 9.42975 43.0293 9.37986C41.715 9.34784 40.6735 9.34784 39.3608 9.4088C38.5891 5.79301 37.9957 3.48836 35.2402 0.763106L35.2863 0.638767C35.627 0.444584 36.1092 0.456205 36.513 0.432522Z" fill="#AE7A3F"/>
<path d="M24.5236 48.9871C26.527 48.8246 26.7294 49.4911 28.3517 50.6241C28.7559 51.9546 28.7151 52.3329 28.6324 53.7253C27.6656 55.1223 27.1899 55.463 25.599 55.8523C25.1556 55.9535 24.2074 55.8337 23.7549 55.7363C23.064 55.5869 22.4651 55.1659 22.097 54.571C21.3583 53.3824 21.5455 51.7947 21.8578 50.5042C22.9122 49.7892 23.2511 49.3237 24.5236 48.9871ZM23.9462 54.0478C24.8032 54.2934 25.0722 54.4306 25.9354 54.1833C26.4461 53.7513 26.4527 53.0617 26.6877 52.4219C26.2393 51.0293 26.1822 50.5543 24.5268 50.6076C23.4175 51.6182 23.6917 52.722 23.9462 54.0478Z" fill="#AE7A3F"/>
<path d="M12.1942 49.0059C13.8802 49.1224 14.4213 49.5943 15.5658 50.6659C16.1733 52.9788 16.0261 53.6956 14.4711 55.4602C13.8907 55.6395 13.0922 55.7618 12.4799 55.8745C8.97405 56.1459 8.59427 53.4896 8.95279 50.8305C9.42484 50.2291 10.2077 49.6659 10.8247 49.1839C11.2645 49.1154 11.7489 49.0633 12.1942 49.0059ZM12.5302 54.3452C13.7117 53.8033 14.1147 52.7824 13.6099 51.4901C13.3442 50.8095 12.6496 50.5407 11.913 50.6154C11.346 50.8312 11.1698 50.8913 10.9421 51.4468C10.3433 52.9064 10.7582 54.3307 12.5302 54.3452Z" fill="#AE7A3F"/>
<path d="M45.4468 49.0902C45.9459 49.03 46.7577 48.9864 47.2349 49.1263L47.3062 49.1478C48.0151 49.3554 48.6682 49.8465 49.284 50.2607C50.1286 52.4535 50.3119 54.9608 47.5644 55.71C44.03 56.4943 42.0842 54.1962 43.2813 50.7638C43.563 49.9562 44.6595 49.35 45.4468 49.0902ZM47.1967 54.1788C48.5137 53.2842 47.8747 51.6849 47.1868 50.6053C46.6498 50.603 46.1235 50.5978 45.5863 50.6206C44.5821 52.1975 44.515 54.7488 47.1967 54.1788Z" fill="#AE7A3F"/>
<path d="M56.9714 46.3518C58.7388 46.1808 59.9186 46.6676 61.2213 47.767C61.5731 48.6808 61.5987 49.0864 61.7215 50.054C61.0371 50.1566 60.5077 50.1595 59.8203 50.1739L59.4456 48.609C58.9877 48.4226 58.4111 48.2526 57.9332 48.0979C57.3818 48.192 56.618 48.45 56.0665 48.6177C54.9255 51.2873 55.3112 55.179 59.1639 54.0262C59.8582 53.6985 60.1609 52.9574 61.0348 53.2058C61.3735 53.454 61.486 53.8745 61.6378 54.2685L61.0184 55.0998C52.0812 58.7864 51.1236 47.5838 56.9714 46.3518Z" fill="#AE7A3F"/>
<path d="M7.56081 34.816C8.01872 34.6914 8.25658 34.584 8.65606 34.7974C8.9488 35.3439 8.57158 35.6749 8.85307 36.02C9.89713 36.0656 11.0366 35.8039 11.8233 36.2641C13.2138 38.4577 4.01595 43.2616 1.97182 42.401C1.59679 42.2431 1.54482 42.1711 1.33864 41.8731C1.20195 40.4145 6.29426 40.8083 6.46322 39.7703C6.00809 39.2115 5.61963 38.8959 5.20073 38.3075C4.29071 38.6804 3.39038 39.0758 2.50059 39.4933L2.35064 39.4313L2.17416 38.8967C1.99298 38.8216 1.81224 38.7455 1.63194 38.6685L1.59049 38.4609C2.66728 37.8475 6.38597 36.3434 6.81495 35.429C6.92681 35.4204 7.43247 34.931 7.56081 34.816ZM8.16587 38.8333C8.85719 38.3809 9.48318 37.8387 10.0269 37.2211C9.31811 37.2406 8.5649 37.2726 7.85967 37.269C7.29123 37.3151 6.5339 37.4707 6.10415 37.865C6.23905 38.1877 7.68937 38.5958 8.16587 38.8333Z" fill="#AE7A3F"/>
<path d="M39.3304 17.2012C40.6791 17.1719 42.1849 17.1141 43.5397 17.1698C43.8767 17.1837 43.9095 17.3114 44.0744 17.5353C44.1516 17.8712 44.1329 18.1871 44.0195 18.5107C43.1194 21.0761 42.1546 23.4999 39.661 24.8488C38.8155 25.2042 35.9451 25.7024 35.2881 25.042C35.4506 24.6475 35.7491 24.7574 36.078 24.4003C36.6917 23.7338 37.1707 23.0279 37.6537 22.2751C38.6065 20.7902 38.8066 18.6327 39.3304 17.2012Z" fill="#AE7A3F"/>
<path d="M33.8692 34.7308C34.2409 34.6793 34.4092 34.625 34.752 34.7939C35.1587 35.4376 34.6364 35.7772 35.1293 36.0418C35.9531 36.0371 37.6813 35.8989 38.2643 36.4114C38.543 37.1695 37.838 37.481 37.3698 38.0454C35.7465 40.0026 33.6723 41.0327 31.2824 41.8946C30.5053 42.1748 27.9016 43.0591 27.4457 41.8139C27.3956 41.6769 27.4906 41.5721 27.5595 41.4347C28.4363 40.7894 32.1311 40.4938 32.7201 39.8964C32.6959 39.7118 32.7015 39.6645 32.5973 39.5034C31.9199 39.2346 31.8639 38.7013 31.0738 38.3698C30.8072 38.5382 29.1185 39.3588 28.8242 39.4797L28.588 39.3828C28.1517 38.4362 27.9655 38.9734 27.8606 38.3848C29.0561 37.7884 32.0092 36.389 33.0043 35.6409L33.8692 34.7308ZM34.4534 38.8072C35.1322 38.2963 35.5236 37.7599 36.3979 37.1436C34.4881 37.2676 33.742 37.0753 32.1062 37.9927L32.8137 38.1153C33.4091 38.3312 33.8815 38.5455 34.4534 38.8072Z" fill="#AE7A3F"/>
<path d="M31.0732 38.3675C31.2093 38.0785 31.2878 38.0494 31.566 37.8769C31.9651 37.8346 31.8286 37.7935 32.1056 37.9904L32.8132 38.113C32.5455 38.5319 32.62 38.9517 32.5968 39.5011C31.9194 39.2323 31.8634 38.6991 31.0732 38.3675Z" fill="#AE7A3F"/>
<path d="M78.8182 30.4294C80.6109 30.3044 82.7043 30.347 84.5164 30.3821C86.1112 30.4129 84.9175 31.8325 85.5642 32.5868C85.6322 32.8027 85.8161 33.2315 85.7531 33.3949C85.528 34.6348 85.1224 34.3064 83.9941 34.3849C83.7357 34.4029 83.4491 34.4472 83.1915 34.4917L83.2822 34.5272C84.4719 34.9807 85.0889 34.2377 85.8208 34.9793C85.9425 35.3689 85.8954 35.6135 85.8605 36.0183L85.6883 36.1117C85.1259 35.9861 81.2121 36.0228 80.5745 36.0996L79.4587 36.1469L79.3237 36.1433C78.965 36.1373 78.5217 36.1775 78.2404 35.9826C78.0873 35.595 78.134 35.7034 78.233 35.2426L78.2476 34.9876C78.4258 34.7355 78.4559 34.8004 78.8356 34.7221C79.5047 34.7362 80.5169 34.86 80.98 34.4605C80.3146 34.3648 79.7822 34.3754 79.1183 34.4209C79.0982 34.4091 79.0782 34.3974 79.0581 34.3857C79.019 34.4124 78.844 34.1257 78.8439 34.1196C78.8118 32.8376 79.0184 31.7021 78.8182 30.4294ZM84.0517 32.5168C83.622 32.4493 82.1752 32.4392 81.6689 32.4242C81.2546 32.456 80.8843 32.4299 80.5944 32.708L80.5371 32.9307C81.0201 33.5536 83.1816 33.5246 83.8505 33.1563C83.9844 33.0826 84.0294 32.6703 84.0517 32.5168ZM83.9226 31.7518C83.5314 31.4189 80.9949 31.4825 80.7039 31.7825C81.0135 31.9472 81.3325 31.9031 81.6882 31.8944C82.3408 31.8567 83.2808 32.0968 83.9226 31.7518Z" fill="#AE7A3F"/>
<path d="M85.8599 36.0184L85.7398 35.513C85.0472 34.9953 84.1513 35.8033 83.3705 35.5478C82.9471 35.4093 82.6542 34.7624 82.81 34.3556L82.9852 34.3223L83.1908 34.4918L83.2816 34.5273C84.4712 34.9808 85.0883 34.2377 85.8201 34.9794C85.9419 35.3689 85.8947 35.6136 85.8599 36.0184Z" fill="#AE7A3F"/>
<path d="M80.9793 34.4595C81.3281 34.2756 81.1893 34.2859 81.5092 34.3725C81.899 35.6495 79.1852 35.7484 78.2324 35.2416L78.247 34.9867C78.4252 34.7345 78.4553 34.7994 78.835 34.7211C79.5041 34.7353 80.5163 34.859 80.9793 34.4595Z" fill="#AE7A3F"/>
<path d="M66.1507 30.4644C68.9549 30.0304 73.0617 30.4856 75.9764 30.3891C76.6023 30.3685 76.6487 31.0942 76.5366 31.5674C75.6361 31.5285 74.9594 31.5001 74.0712 31.742L74.0679 31.83C74.6035 31.9416 74.797 31.9671 75.3435 31.9773L75.9621 31.9472C77.8792 32.1786 77.3197 33.1637 77.3032 34.7422C76.9116 34.8273 76.3774 35.0023 76.0361 34.8482C75.868 34.6253 75.835 34.6021 75.7649 34.3398C75.8332 34.0178 75.8673 33.5738 75.7147 33.2717L75.4252 33.2216C74.1102 32.9323 73.2417 33.0711 71.9134 33.1641C71.9152 33.581 71.8981 34.6289 71.9515 34.9868C71.8693 35.3315 71.9336 35.3211 71.6905 35.5115C71.3067 35.5282 71.0055 35.482 70.6262 35.4365C70.6736 34.5722 70.6716 34.1172 70.6044 33.2549C69.7548 33.1393 68.7003 33.0942 67.8405 33.1655C67.6556 33.1808 67.7326 33.2143 67.5042 33.1732C67.0595 33.3262 67.0936 33.2365 66.8825 33.5575C66.866 33.9072 67.0099 34.1259 67.167 34.436C66.7244 34.9432 66.0867 34.8474 65.4326 34.8849C65.5234 34.0967 65.5328 32.9457 65.5907 32.1002L67.0868 32.0549C67.2516 32.0553 67.7529 31.9966 67.9406 31.979C68.6028 31.9739 69.2114 32.0039 69.8493 31.8247L69.8454 31.7264C69.2961 31.5817 68.4754 31.6347 67.8863 31.6438L67.7593 31.6536C67.2115 31.6422 66.66 31.5889 66.1136 31.5438C66.1029 31.255 66.1382 30.769 66.1507 30.4644Z" fill="#AE7A3F"/>
<path d="M5.53653 29.7051C5.72686 29.7935 5.91352 29.8893 6.09595 29.9925C6.49833 30.2249 6.54174 30.5225 6.6615 30.9617C7.59547 30.9958 9.97241 30.8469 10.2833 31.7796C10.0876 32.6378 8.11839 34.0699 7.39334 34.6237C6.86864 34.8839 6.82022 34.9346 6.48575 35.4108C5.32415 36.1898 3.1536 37.2112 1.74491 37.5209C0.919541 37.7022 0.538507 37.1713 0.549515 36.3713C0.796982 36.1424 1.79101 36.0902 2.17852 35.9072C3.03385 35.5033 3.8477 35.0499 4.65589 34.5616C4.15218 34.1751 3.95542 33.9235 3.37757 33.6153C2.58134 33.5955 1.77344 34.7603 0.740638 34.257C0.0898648 33.2986 0.969528 32.8626 1.79845 32.6661C3.55925 32.2489 4.27449 30.4797 5.53653 29.7051ZM6.33949 33.7755C6.84983 33.0366 7.51967 32.6307 8.25963 32.1315C7.41048 32.1727 6.56088 32.2027 5.71095 32.2219C5.2168 32.2883 4.82912 32.3014 4.41963 32.5867L4.29163 32.7856C4.80556 33.337 5.44898 32.911 6.0413 33.9449C6.28139 33.8992 6.18634 33.9561 6.33949 33.7755Z" fill="#AE7A3F"/>
<path d="M63.4361 45.7676C63.5973 45.7919 64.0908 45.8609 64.1792 45.9382C64.981 46.6385 64.5086 48.4513 64.6078 49.404C64.6308 49.6246 64.7151 49.6414 64.8594 49.7274C65.5977 48.9801 66.2641 49.0303 67.3069 48.9679C68.2605 49.3928 68.4941 49.7096 69.1544 50.477C69.168 50.5525 69.1803 50.6283 69.1914 50.7042C69.2983 51.4302 69.493 54.8542 69.1067 55.5452C68.96 55.8076 67.8833 55.7912 67.4973 55.804C67.3962 54.9496 67.4213 53.3344 67.4083 52.423C67.3411 50.5675 66.5601 50.4671 64.9953 50.9328C64.6741 52.7789 64.742 53.9068 64.6694 55.7595C64.0949 55.728 63.5173 55.7101 62.9518 55.598C62.8288 55.5737 62.8628 55.603 62.7981 55.4993C62.6555 55.2709 62.6066 46.8832 62.7784 46.3003C62.8749 45.9729 63.1567 45.9061 63.4361 45.7676Z" fill="#AE7A3F"/>
<path d="M29.6231 33.2769C29.0004 33.7568 27.7309 34.8565 26.9839 34.1065C26.475 32.8808 28.1679 32.6284 28.9437 32.2941C30.1247 31.7853 30.8696 29.4942 32.2295 29.8547C32.6354 30.0976 32.5564 30.2971 32.7633 30.6536C33.3878 31.7298 35.8469 30.1821 36.327 31.6919C36.2034 32.4299 34.3623 34.0358 33.7541 34.5498C33.2988 34.7718 32.9595 34.9903 32.6606 35.413C31.6031 36.2694 30.1185 36.5692 28.9415 37.216C28.1737 37.6378 27.0388 38.0053 26.7598 36.8443C27.0768 35.9053 30.0739 35.4855 30.6669 34.5677C30.5836 34.1156 30.1041 34.3662 29.9224 33.8935C29.8581 33.726 29.7056 33.4468 29.6231 33.2769ZM32.4719 33.8665C33.1968 32.9407 33.4824 32.7403 34.5127 32.1445L31.9648 32.2198C31.4929 32.2761 30.6851 32.3461 30.3468 32.6848C30.5426 33.1063 31.8472 33.4556 32.4719 33.8665Z" fill="#AE7A3F"/>
<path d="M96.4972 55.3939C95.871 54.4551 95.3801 53.5637 95.3908 52.3879C95.3956 51.4135 95.8013 50.4826 96.5154 49.8083C97.1232 49.2306 97.942 48.9192 98.7863 48.9448C100.195 49.0009 100.975 49.9118 101.839 50.8441C101.925 51.4036 101.983 52.1716 102.043 52.7492C101.092 52.8595 100.654 52.8708 99.6948 52.8408L99.1567 52.8738C98.5556 52.9388 97.9735 52.7722 97.5632 52.9718C97.4695 53.2608 97.6203 53.7656 97.7894 54.0107C99.0542 54.6057 100.967 53.7584 101.799 54.5236L101.791 54.8068C101.149 56.1956 97.7583 55.7485 96.4972 55.3939ZM97.41 51.9946C98.3346 51.7631 98.6943 51.6395 99.6568 51.7716L99.9313 51.8684C100.218 51.6202 100.024 50.9592 99.9647 50.5985C99.1789 50.5269 98.7629 50.4816 97.9772 50.543C97.6696 50.9035 97.5439 51.525 97.41 51.9946Z" fill="#AE7A3F"/>
<path d="M99.1569 52.8747C98.5526 52.745 98.3533 52.7109 97.8069 52.442L97.7725 52.3151C98.1477 52.0668 99.6767 52.1446 100.17 52.1527L100.337 51.9796L100.225 51.2324L100.339 51.2285C100.782 51.8861 99.962 52.1943 100.842 52.6319C100.443 52.646 100.083 52.6752 99.6855 52.7112L99.6949 52.8417L99.1569 52.8747Z" fill="#AE7A3F"/>
<path d="M83.9376 49.0974C84.5174 49.0189 85.3018 49.0103 85.8615 49.173C86.2511 49.2863 87.555 50.23 87.6874 50.5801C89.2087 54.6062 84.9861 52.2312 83.5903 52.8695C83.3497 53.1911 83.7074 52.9395 83.7625 53.8456C84.1896 54.7268 86.186 54.2376 86.9432 54.0713L87.5672 54.2509C87.8431 54.5365 87.779 54.3958 87.8175 54.7767C87.0953 56.337 79.5049 57.363 81.9838 50.2753C82.7066 49.6833 83.0666 49.4037 83.9376 49.0974ZM83.2746 51.9233C83.9659 51.8735 84.6574 51.8272 85.3492 51.7845L85.7666 51.96C86.2145 51.7471 85.9365 50.9778 85.8583 50.5268C85.3461 50.5249 84.7085 50.5043 84.2072 50.5298C83.7947 50.9938 83.5825 51.3948 83.2746 51.9233Z" fill="#AE7A3F"/>
<path d="M73.9692 48.8184C75.4168 49.0051 75.4027 48.897 75.8236 50.2842L76.7017 49.201C81.2196 48.0526 80.7329 52.8548 80.4734 55.648L78.5805 55.7586C78.488 55.0663 78.4644 54.4776 78.4339 53.7817C78.4354 53.0977 78.4715 50.9069 77.6838 50.6937C75.3232 50.0551 76.012 54.1165 75.7884 55.3575C75.7394 55.6293 75.645 55.6245 75.4187 55.7489C75.0627 55.7506 74.3398 55.8174 74.0661 55.7153C73.7327 55.0801 73.8442 49.7114 73.9692 48.8184Z" fill="#AE7A3F"/>
<path d="M30.0161 48.8457L30.6291 48.891C31.0094 49.0553 31.3762 49.7418 31.6215 50.1181C31.9249 50.0269 32.6039 49.2851 33.3597 48.9314L33.4076 48.9094C34.0296 49.0173 34.4728 49.1466 35.075 49.3193C35.4581 49.7917 35.7012 49.9881 36.1571 50.3766C36.3121 51.6352 36.2666 54.3156 36.2761 55.6417C35.9661 55.6649 35.6558 55.6831 35.3451 55.6963C33.9083 55.7504 34.2735 54.2623 34.2622 53.2139C34.2263 52.0634 34.2347 49.5959 32.3709 51.0215C30.9224 52.1295 32.0047 54.8182 31.2837 55.742C30.8146 55.9487 30.5513 55.8552 30.0348 55.7337C29.5085 55.2222 29.8034 53.101 29.7552 52.2813C29.7035 51.4006 29.4721 49.5225 30.0161 48.8457Z" fill="#AE7A3F"/>
<path d="M2.57765 46.3558C3.84607 46.2483 8.6228 46.245 9.60185 46.6673C9.84438 47.0946 9.6772 47.2286 9.70547 47.7965L9.71182 47.9071C9.26982 48.3277 7.46187 48.0609 6.85759 47.9486L6.84802 53.5971C6.84379 54.3828 7.03424 55.1683 6.41482 55.6819C5.97026 55.8242 5.3924 55.684 4.91594 55.6105C4.75737 53.4532 4.89371 50.4061 4.81873 48.0956C3.92931 48.1052 2.64181 48.1992 1.94536 47.6396C1.59517 46.9893 2.02258 46.6974 2.57765 46.3558Z" fill="#AE7A3F"/>
<path d="M98.5215 33.6C99.0756 33.6289 99.3277 33.4514 99.8341 33.6288L100.083 33.9223L99.9403 34.049L100.014 34.2542C100.427 34.2639 100.839 34.27 101.251 34.2721C101.883 34.274 102.348 34.3401 102.784 33.9131C103.236 34.2613 103.304 34.6752 103.294 35.3034C103.267 37.0346 103.7 39.5926 102.637 41.0525C102.389 41.3926 101.051 41.3028 100.628 41.2851C100.535 40.9076 100.407 40.479 100.417 40.0958C100.838 39.6377 100.766 40.1748 101.48 39.7791C102.045 38.8683 101.905 35.9639 101.901 34.8167C101.115 34.8713 100.784 34.8331 100.002 34.7469C99.9991 36.0466 100.177 41.3964 99.8463 42.242C99.4522 42.4402 98.7157 42.457 98.2487 42.4967C98.3034 39.57 98.2374 36.7328 98.27 33.8332L98.2129 33.7499L98.5215 33.6Z" fill="#AE7A3F"/>
<path d="M98.5215 33.6C99.0756 33.6289 99.3277 33.4514 99.8341 33.6288L100.083 33.9223L99.9403 34.049L100.014 34.2542C99.6021 34.1963 98.7723 34.0928 98.3775 34.1472L98.27 33.8332L98.2129 33.7499L98.5215 33.6Z" fill="#AE7A3F"/>
<path d="M28.2416 60.7918C29.2783 60.5589 28.2005 58.378 29.0177 57.748C30.1885 57.9739 29.6646 64.1515 29.6421 65.3372C29.6356 65.3647 29.6292 65.3922 29.6227 65.4198C28.9146 65.5868 28.7614 65.0267 27.6624 65.3497C26.8472 65.7769 26.0269 65.5743 25.1844 65.3929C24.3946 63.9943 23.8476 61.2056 25.9101 60.4613C26.3974 60.2855 27.7816 60.5402 28.2416 60.7918ZM28.0314 64.3465L28.3833 64.1993C28.8611 63.7498 28.6209 61.8364 28.2309 61.3796C27.4933 61.5168 26.7814 61.1209 26.059 61.4078C25.1945 61.7511 24.9872 62.6377 25.236 63.4563C25.5292 64.4204 25.9484 64.5667 26.8595 64.7996L28.0314 64.3465Z" fill="#AE7A3F"/>
<path d="M25.1844 65.3922C24.3946 63.9936 23.8476 61.2049 25.9101 60.4606C26.3974 60.2848 27.7816 60.5395 28.2416 60.7911C28.2367 60.9701 28.2227 61.2055 28.2309 61.3789C27.4933 61.5161 26.7814 61.1202 26.059 61.4071C25.1945 61.7504 24.9872 62.637 25.236 63.4556C25.5292 64.4197 25.9484 64.566 26.8595 64.7989L28.0314 64.3458L28.2857 64.4775C28.2882 64.8259 27.9544 65.0524 27.6624 65.349C26.8472 65.7762 26.0269 65.5735 25.1844 65.3922Z" fill="#AE7A3F"/>
<path d="M91.0147 48.9985C93.1627 48.8675 93.6612 49.5389 95.0006 50.9968C94.4997 51.2285 93.9608 51.4908 93.411 51.5206C92.186 51.5872 92.895 50.9581 92.3845 50.5274C91.8649 50.4356 90.9854 50.3255 90.7042 50.8521C90.9622 51.6989 93.3239 52.229 94.2026 52.5673C94.4716 52.9226 94.8037 53.5187 95.041 53.9161C94.5832 54.5256 94.1847 55.2019 93.5373 55.5581C92.5093 55.9072 88.6392 56.0355 88.5576 54.655C88.7284 54.3118 89.1403 54.2051 89.516 54.0509C90.2208 54.251 91.9884 54.7357 92.5288 54.1696C92.4069 53.2808 90.4431 53.0282 89.7639 52.6531C87.7661 51.5495 89.3468 49.447 91.0147 48.9985Z" fill="#AE7A3F"/>
<path d="M38.3952 47.2152C40.112 47.2031 39.9725 47.519 40.0376 49.0436C40.9579 49.0397 41.6248 49.0101 42.3322 49.6972C42.4041 49.9904 42.4213 49.8735 42.2677 50.1345C41.5308 50.6598 40.7215 50.5203 39.7975 50.5028C39.9908 51.2402 40.0302 53.3457 40.0686 54.2029C41.3016 54.3062 41.9384 53.8004 42.7171 54.8548C42.3789 56.0559 40.5769 55.9699 39.5807 55.7575C39.0444 55.6431 38.6993 55.3705 38.2719 55.0527C37.9198 53.6696 38.0343 52.2201 37.9997 50.7736C37.7057 50.3912 37.1934 50.7949 36.8809 50.1923C36.9077 49.3135 37.559 49.1529 37.8729 48.6196C38.1248 48.1916 37.9584 47.8715 38.3952 47.2152Z" fill="#AE7A3F"/>
<path d="M79.3235 36.1426L79.4585 36.1462C79.8796 36.5005 80.0896 36.4613 80.6649 36.4598C81.6257 36.4801 83.1371 36.5139 84.0669 36.4104C84.3995 36.4029 85.0929 36.3232 85.3016 36.4811C85.1712 37.344 85.0955 38.1367 85.0165 39.0064C84.2958 38.5044 84.0546 38.5678 83.1832 38.7144C83.0688 38.7338 82.9546 38.7542 82.8405 38.7758C82.8499 39.2548 82.8152 40.2852 83.0287 40.6489C83.0418 40.8214 82.9321 41.8716 82.9092 42.1091C82.0917 42.3301 80.7289 42.7839 80.3396 41.7806C80.3697 41.326 80.4178 41.2522 80.6227 40.8426C80.8681 40.8329 80.9628 40.9942 81.2027 41.1925L81.3671 41.1515C81.5772 40.6953 81.5071 39.9898 81.5491 39.416C81.0251 39.3196 80.8036 39.479 80.2781 39.6869L80.2018 39.8552L79.2016 39.989L79.037 38.8163C78.9457 38.3238 79.045 37.0734 79.1924 36.5729C79.2336 36.4288 79.2773 36.2853 79.3235 36.1426ZM83.4434 37.9528C82.9573 37.634 81.2522 37.7111 80.6295 37.7196L80.6979 37.939C81.2635 38.1163 82.8249 38.016 83.4434 37.9528Z" fill="#AE7A3F"/>
<path d="M79.0371 38.8172C79.7052 38.6822 81.1317 38.3694 81.6214 38.9395C81.6165 39.136 81.629 39.2336 81.5492 39.4168C81.0251 39.3204 80.8036 39.4799 80.2782 39.6877L80.2019 39.8561L79.2017 39.9898L79.0371 38.8172Z" fill="#AE7A3F"/>
<path d="M80.6289 37.7193C81.2517 37.7108 82.9568 37.6337 83.4428 37.9525C82.8243 38.0157 81.2629 38.116 80.6974 37.9387L80.6289 37.7193Z" fill="white"/>
<path d="M16.995 48.8008L18.3366 48.9953C18.4513 49.384 18.6263 49.8521 18.7598 50.2435L18.787 50.2028C19.2738 49.4863 20.0437 48.594 21.069 49.0049C21.2319 49.4766 21.2773 50.8172 20.9232 51.1916L20.7622 51.1742C20.6698 50.9195 20.6679 50.865 20.4822 50.6769C19.9083 50.7345 19.0834 51.5237 18.8928 52.0908C18.7852 53.3145 18.9299 54.4201 18.7408 55.7791C18.1029 55.7661 17.5548 55.7968 16.9205 55.8314C16.8222 54.7772 16.7937 49.6565 16.995 48.8008Z" fill="#AE7A3F"/>
<path d="M19.0059 62.9678C20.2516 62.6721 20.9134 62.7802 22.0205 62.6086L22.1307 62.3886C22.1155 61.4884 21.5065 61.2079 20.6431 61.2428C19.3191 61.2964 19.8999 61.8268 19.4392 62.3349C19.0815 62.4047 19.2257 62.4214 18.8952 62.2735C17.9823 60.1221 21.9555 59.9692 22.7283 61.1061L22.7665 61.2206C23.2694 62.1923 22.8329 63.5139 23.1542 64.4437C23.4241 64.6694 23.4895 64.7269 23.7127 65.0138C23.7099 65.3514 23.7371 65.22 23.4982 65.5542C22.5786 65.9814 22.3494 65.0001 21.3021 65.3812C20.5725 65.6466 19.7217 65.5653 18.9573 65.4427L18.6289 64.2471C18.7405 63.8168 18.875 63.3929 19.0059 62.9678ZM20.8223 64.8145C21.4714 64.5513 21.9226 64.4723 22.1251 63.7441C21.8762 63.2668 21.2748 63.381 20.7749 63.4832C20.1885 63.573 19.8482 63.515 19.6209 64.1639C19.768 64.7029 20.2758 64.8118 20.8223 64.8145Z" fill="#AE7A3F"/>
<path d="M22.7657 61.2199C22.717 61.6477 22.8826 62.8109 22.5825 63.05C22.2009 62.6191 22.1213 61.3836 22.7275 61.1055L22.7657 61.2199Z" fill="#AE7A3F"/>
<path d="M34.9086 60.5078C37.205 60.6433 37.3866 60.7562 37.3219 63.3962C37.2851 64.8975 38.3545 64.4913 37.9994 65.5542C37.4815 65.7674 37.1652 65.3873 36.5648 65.3684C35.6295 65.3393 34.5533 65.8523 33.6918 65.4942C33.2849 65.3251 33.2669 65.1264 33.1213 64.7759L33.1172 64.4001C33.1136 62.3529 34.9335 62.7639 36.4775 62.7927C36.4035 62.287 36.4055 61.7933 36.3955 61.2835C35.7678 61.2749 35.1446 61.2585 34.5172 61.3054C33.6164 61.3728 34.2625 61.8619 33.5156 62.3651L33.2877 62.2989C33.0883 61.8524 33.2265 61.5239 33.2991 60.9844C33.9872 60.6982 34.1829 60.6462 34.9086 60.5078ZM34.7203 64.8258C35.4917 64.8282 36.8933 64.3963 36.3715 63.4022C36.0937 63.318 36.2086 63.3174 35.9247 63.3759C35.084 63.4116 34.5359 63.3509 33.9001 63.9165L33.8091 64.1589C33.9967 64.5547 34.1043 64.613 34.5193 64.7589C34.586 64.7821 34.653 64.8044 34.7203 64.8258Z" fill="#AE7A3F"/>
<path d="M9.58531 60.459L10.6931 60.6667C11.3853 62.121 11.6382 63.7713 11.8224 65.3765C11.6931 65.6147 11.7183 65.542 11.38 65.6677C10.9132 65.6744 10.6363 65.2758 10.4854 65.2897C8.63876 65.459 9.00585 65.8261 7.17653 65.4223C6.8671 64.4163 6.82792 64.0966 7.07135 63.0404C8.26355 62.7448 9.98868 62.9686 10.4613 62.3732C10.4808 61.9789 10.3179 61.5777 9.99625 61.3266C9.69594 61.3581 9.62693 61.3402 9.32841 61.2844L8.34981 61.3023C8.6175 60.9135 9.15711 60.6409 9.58531 60.459ZM8.14823 63.4484C7.94933 63.8536 7.75054 64.0822 7.79573 64.4781C8.00331 64.6339 8.02301 64.6578 8.26611 64.7397C9.23124 64.79 10.3457 64.7695 10.4771 63.6046L10.3426 63.4274L10.0801 63.4002L8.14823 63.4484Z" fill="#AE7A3F"/>
<path d="M71.2281 48.9863L72.5159 49.0451C72.6471 50.993 72.7528 53.4057 72.5471 55.3715C72.5079 55.7455 72.2955 55.7437 71.9947 55.774C71.5696 55.7677 70.8746 55.8341 70.6173 55.6005C70.3837 54.5304 70.2825 50.391 70.7358 49.2152C70.7924 49.0681 71.0393 49.0407 71.2281 48.9863Z" fill="#AE7A3F"/>
<path d="M74.6114 61.3982C76.2919 60.0812 79.0206 59.6798 79.2983 62.6726C79.4195 63.9787 76.3331 62.929 75.4777 63.6136L75.481 64.0419L75.2386 63.9554C75.0319 64.2277 75.2861 64.7636 75.3997 65.0758C73.8579 63.8321 74.1589 63.1724 74.6114 61.3982ZM76.7265 62.5646C77.404 62.5984 78.211 62.7726 78.2175 61.8572C77.8895 61.3226 77.5507 61.2761 76.9509 61.2881C76.2749 61.3309 75.6432 61.3725 75.5333 62.1718C75.8514 62.6983 76.1178 62.5797 76.7265 62.5646Z" fill="#AE7A3F"/>
<path d="M101.265 61.4414C101.477 62.2332 101.601 63.7859 101.329 64.5422C101.479 64.5528 101.553 64.5856 101.696 64.628C101.95 64.903 102.174 65.1552 102.038 65.5339C101.282 65.9621 100.639 65.2058 100.299 65.2606C98.6759 65.5221 97.6362 66.5405 96.9141 64.3242C97.0821 63.8402 97.1294 63.4801 97.2099 62.9809C97.8898 62.8519 98.2063 62.7671 98.9043 62.8248C99.3041 62.8175 99.9216 62.8588 100.232 62.6586C100.466 62.3757 100.421 62.0373 100.426 61.6625C100.508 61.9292 100.541 62.0388 100.671 62.285C100.807 61.8694 100.847 61.8002 101.184 61.5097L101.265 61.4414ZM98.2842 63.4034C98.1172 63.7784 97.9183 64.089 98.0296 64.4721C98.6245 65.2811 99.8539 64.8981 100.381 64.2645C100.381 63.833 100.515 63.6523 100.313 63.3752L100.048 63.3604C99.3619 63.4591 98.969 63.4313 98.2842 63.4034Z" fill="#AE7A3F"/>
<path d="M101.265 61.4414C101.477 62.2332 101.601 63.7859 101.329 64.5422C100.956 64.4792 100.846 64.2435 100.381 64.2645C100.38 63.833 100.514 63.6523 100.313 63.3752L100.048 63.3604C99.3613 63.4591 98.9684 63.4313 98.2836 63.4034L98.1885 63.1664C98.3768 62.9154 98.5194 62.9599 98.9036 62.8712L98.9037 62.8248C99.3035 62.8175 99.921 62.8588 100.232 62.6586C100.466 62.3757 100.42 62.0373 100.426 61.6625C100.508 61.9292 100.54 62.0388 100.671 62.285C100.806 61.8694 100.846 61.8002 101.184 61.5097L101.265 61.4414Z" fill="#AE7A3F"/>
<path d="M98.9036 62.8721C99.2868 62.8644 99.7249 62.8016 100.014 63.0121L100.048 63.3613C99.3613 63.46 98.9684 63.4322 98.2836 63.4043L98.1885 63.1673C98.3768 62.9163 98.5194 62.9608 98.9036 62.8721Z" fill="#AE7A3F"/>
<path d="M85.6 40.8146C87.5345 39.7353 88.284 38.9112 89.9466 37.5078C90.3287 37.7008 89.9164 37.7835 90.698 38.4073C90.3883 39.3869 87.2247 41.9401 85.9752 42.1697C85.8423 42.1941 85.5754 41.8995 85.4603 41.7709C84.8966 41.7109 84.4591 42.0501 84.1576 41.6509C83.763 41.1284 83.9958 40.5039 83.3417 40.1197C83.1237 39.8306 83.1598 39.9525 83.1348 39.6395L83.2366 39.5563C83.7475 39.5962 83.7698 39.8164 84.2902 39.7645C84.7258 40.2912 85.1352 40.3336 85.6 40.8146Z" fill="#AE7A3F"/>
<path d="M69.677 58.4031C70.5048 58.3808 73.686 58.0878 73.9195 58.8812C73.5803 59.5627 71.2363 59.2775 70.3975 59.3125C70.6142 60.3463 70.6092 60.4788 70.517 61.5088C71.3016 61.4965 73.1226 61.3544 73.6798 61.924L73.6538 62.1895C72.9207 62.2969 71.0603 62.3016 70.5975 62.5025C70.2337 63.3085 70.8415 65.3676 69.9084 65.7523L69.7532 65.6315C69.5242 64.9906 69.6192 59.3538 69.677 58.4031Z" fill="#AE7A3F"/>
<path d="M82.0078 60.3926C82.5049 60.396 83.4142 60.6632 83.9142 60.8013C83.9879 61.4711 84.3164 62.0367 83.6633 62.3527C82.9633 62.2591 83.4415 61.6606 83.0413 61.2851C82.4364 61.2832 81.2742 61.2096 81.0095 61.8217C81.3129 62.6753 83.109 62.8414 83.943 63.0024C84.1499 64.0178 84.4848 65.133 83.1418 65.4825C82.1483 65.6431 80.5548 65.7369 79.9404 64.778L79.9891 64.593C80.7199 64.295 82.5575 65.3015 83.2026 64.4418C83.0416 62.5299 79.0501 64.1866 80.6256 60.726C81.0584 60.5919 81.561 60.4922 82.0078 60.3926Z" fill="#AE7A3F"/>
<path d="M47.4482 58.4552C49.046 58.2906 50.5406 58.3909 52.1292 58.556C52.5477 58.5995 52.8014 58.6362 53.2023 58.4759L53.077 58.8592C51.9119 59.1599 49.6943 59.319 48.4816 59.2473C48.4758 59.8733 48.4362 60.8664 48.5409 61.4517C48.6679 61.5374 48.6763 61.5623 48.8163 61.6001L48.7019 61.9564L49.0239 62.187C47.7662 62.5087 49.0221 64.8024 48.0728 65.6207C47.7225 65.6121 47.8486 65.6532 47.5682 65.491C47.3176 64.92 47.4532 59.4925 47.4482 58.4552Z" fill="#AE7A3F"/>
<path d="M98.3036 30.9753C98.88 29.6942 100.227 29.8903 100.074 30.988L100.125 31.1958C101.155 31.53 103.324 30.6756 104 31.7553C103.894 32.8381 102.024 31.9253 101.557 32.7893C101.453 33.2145 101.543 33.0616 101.212 33.3636C100.859 33.464 100.704 33.5325 100.334 33.4633C100.297 33.153 100.294 33.0066 100.159 32.7149C99.8865 32.4883 99.8502 32.4679 99.4952 32.4515C99.1087 32.5774 98.892 32.6116 98.646 32.9287L97.9502 32.0129C98.0507 31.8365 98.2322 31.2046 98.3036 30.9753Z" fill="#AE7A3F"/>
<path d="M98.3037 30.9753C98.8802 29.6942 100.227 29.8903 100.074 30.988L99.9292 30.9412C99.1341 30.6882 99.0235 30.6114 98.3037 30.9753Z" fill="#AE7A3F"/>
<path d="M39.0186 60.5215C40.2946 60.9853 42.2942 60.1325 43.1468 60.8813C43.6816 61.3511 43.7476 65.2478 43.2117 65.733C42.9108 65.2371 42.9114 62.9122 42.8935 62.2053C42.8575 61.7854 42.8697 61.5843 42.5382 61.3363C38.314 60.6996 40.9519 64.7092 39.6363 65.847L39.4897 65.7841C39.0007 65.1397 39.0614 61.619 39.0186 60.5215Z" fill="#AE7A3F"/>
<path d="M86.0165 65.4691C86.0019 65.1759 85.8661 64.5981 85.831 64.2528C85.7309 63.2669 85.6609 62.2998 85.6176 61.3097C85.3763 61.089 84.9756 61.1227 84.5823 61.0743L84.5088 60.917C84.8204 60.5686 85.4604 60.7495 85.5747 60.4569C85.7251 60.0714 85.5922 59.2724 85.9155 58.8613C86.6562 58.8956 86.596 59.8825 86.6116 60.4502C87.4616 60.493 87.9367 60.6395 88.7567 60.773L88.9387 60.9802C88.8062 61.0325 88.66 61.0946 88.5267 61.1402L87.7908 61.2671C87.4022 61.2435 86.8976 61.17 86.5589 61.3251C86.49 61.4803 86.4444 61.4882 86.5048 61.6065C86.8872 62.355 86.213 64.0868 86.9117 64.5642C87.3975 64.8961 88.6685 64.6798 88.9786 64.9479C88.8006 65.1709 88.4976 65.1096 88.1323 65.5362C87.4641 65.8007 86.7399 65.539 86.0165 65.4691Z" fill="#AE7A3F"/>
<path d="M91.8198 60.3164C92.9326 60.8828 93.302 63.9447 93.9593 64.3359C94.2387 64.0555 95.2085 61.4423 95.3468 60.9857C95.6852 60.731 95.8386 60.5289 96.2123 60.4802C96.3522 60.8576 96.2575 60.9171 96.1575 61.381C95.9228 62.1039 94.8467 65.0894 94.4834 65.4111C93.0081 66.7174 91.5489 61.1666 91.8198 60.3164Z" fill="#AE7A3F"/>
<path d="M0.731318 59.3487C2.17483 58.2588 2.96166 58.3231 4.68578 58.4865C4.52413 58.9771 4.60827 58.9817 4.26411 59.2617C1.47016 59.1216 0.96239 60.2329 1.27702 62.9665C1.30207 63.1841 1.44308 63.7239 1.42187 63.9109C0.916064 64.2755 1.50986 64.8711 1.80462 65.3034C1.17635 64.9346 0.887147 64.5837 0.441499 64.0436C0.136454 62.2717 -0.0427493 61.0449 0.731318 59.3487Z" fill="#AE7A3F"/>
<path d="M89.5265 33.7441C89.977 34.1402 90.1186 34.1051 90.2211 34.5897C90.0511 35.0452 89.8512 35.3979 89.6502 35.836C88.4786 36.4551 86.8649 38.0452 85.9845 37.7973C85.6564 37.4889 85.5883 37.2819 85.5635 36.7971L85.7202 36.4376C86.9998 35.9206 88.3695 34.6259 89.5265 33.7441Z" fill="#AE7A3F"/>
<path d="M103.441 65.6989C103.166 65.5315 103.006 65.4529 102.792 65.2046C102.911 63.1767 103.043 61.2063 102.878 59.1796C102.854 58.8763 102.794 58.4255 102.917 58.1613C103.24 57.9348 103.313 57.7947 103.643 57.801C104.065 58.3217 103.95 64.7512 103.836 65.6366C103.593 65.7288 103.649 65.7501 103.441 65.6989Z" fill="#AE7A3F"/>
<path d="M103.654 61.6816C103.827 62.8689 103.793 64.4006 103.836 65.6368C103.593 65.729 103.649 65.7503 103.441 65.6991C103.103 64.62 103.29 62.7651 103.654 61.6816Z" fill="#AE7A3F"/>
<path d="M58.5033 64.4572C58.5178 64.965 58.5495 65.505 58.0256 65.7735L57.8142 65.6564C57.7236 65.4768 57.57 65.1135 57.5568 64.8651C57.4857 63.5299 57.3167 61.9069 57.6483 60.6224C57.7815 60.5143 58.6476 60.6313 58.8013 60.6315C59.9831 60.6325 60.8485 60.212 61.8632 61.0232C61.3879 61.2792 61.4351 61.1503 61.046 61.294C60.25 61.3233 59.5278 61.2612 58.7545 61.4015C58.4993 62.6948 58.4869 63.1458 58.5033 64.4572Z" fill="#AE7A3F"/>
<path d="M85.5635 32.5868C86.0079 32.4756 86.4314 32.3838 86.8354 32.1592C87.6681 31.6961 88.8434 30.0527 89.8225 30.4694C90.6037 31.7507 88.1512 32.9253 87.2721 33.5144C86.8892 33.752 86.7392 34.1183 86.3484 34.155C86.0654 33.9297 85.9444 33.6978 85.7524 33.3948C85.8154 33.2315 85.6315 32.8026 85.5635 32.5868Z" fill="#AE7A3F"/>
<path d="M55.488 57.7109L55.7437 57.8467C55.7789 57.9786 55.8256 58.1257 55.8416 58.2586C56.1136 59.2253 56.1319 64.8253 55.7052 65.6624L55.5623 65.6286C54.9382 64.3712 54.9879 58.9878 55.488 57.7109Z" fill="#AE7A3F"/>
<path d="M55.4873 57.7109L55.743 57.8467C55.7781 57.9786 55.8249 58.1257 55.8409 58.2586C55.8017 58.6417 55.8515 59.7786 55.6353 60.0115C55.4981 59.2835 55.5145 58.4657 55.4873 57.7109Z" fill="#AE7A3F"/>
<path d="M52.6921 39.3937C53.2245 39.4578 56.7552 39.3005 57.5645 39.293C57.5347 39.4978 57.5115 39.7522 57.4464 39.942C57.4153 40.0609 57.3162 40.4065 57.3048 40.5076C56.5422 40.6246 53.1856 40.743 52.4288 40.2892C52.3049 40.2149 52.3203 40.069 52.2959 39.9101C52.4351 39.6357 52.4647 39.6041 52.6921 39.3937Z" fill="#AE7A3F"/>
<path d="M57.3048 40.5084C56.5422 40.6254 53.1856 40.7438 52.4288 40.29C52.3049 40.2157 52.3203 40.0698 52.2959 39.9109C52.4351 39.6365 52.4647 39.6049 52.6921 39.3945C53.0303 39.8102 53.107 39.9135 53.6417 40.0135C54.8672 40.2428 56.223 40.1299 57.4464 39.9428C57.4153 40.0617 57.3162 40.4073 57.3048 40.5084Z" fill="#AE7A3F"/>
<path d="M85.753 33.3945C85.945 33.6975 86.066 33.9294 86.3491 34.1547C86.7398 34.118 86.8899 33.7516 87.2728 33.514C87.2324 33.6938 87.1625 33.878 87.2229 34.0409L87.4456 34.1607C87.7934 33.9021 87.8963 33.7352 88.2701 33.6873C88.4766 33.9557 88.417 33.8334 88.4484 34.2238C88.9492 34.0009 89.2055 33.6729 89.6153 33.6635L89.5272 33.7441C88.3701 34.6259 87.0004 35.9206 85.7208 36.4375L85.6298 36.2613L85.6882 36.1113L85.8604 36.0179C85.8953 35.6131 85.9424 35.3685 85.8207 34.9789C85.0888 34.2373 84.4718 34.9803 83.2821 34.5268L83.1914 34.4913C83.449 34.4468 83.7356 34.4025 83.994 34.3845C85.1223 34.306 85.5279 34.6344 85.753 33.3945ZM86.689 35.9224L86.8631 35.6256C86.7341 35.3674 86.8059 35.4559 86.5311 35.3017L86.2589 35.5801C86.3475 35.7786 86.4894 35.8185 86.689 35.9224Z" fill="#AE7A3F"/>
<path d="M14.2822 60.7512C18.2524 58.7288 17.9404 65.1713 17.0002 65.6268C16.5489 65.1385 16.7222 62.3445 16.5459 61.3431C15.9921 61.3053 15.5916 61.2909 15.0468 61.157C14.491 61.0228 14.6249 61.1357 14.2822 60.7512Z" fill="#AE7A3F"/>
<path d="M62.4131 60.7836C63.1584 60.5897 65.271 60.2168 65.4464 61.2217C65.6058 62.135 65.8521 64.8375 65.4556 65.6064L65.1821 65.7034C64.2928 65.0848 65.4654 62.1685 64.3819 61.4483C64.093 61.2563 63.4221 61.1996 63.0718 61.1547C62.6342 60.9734 62.8122 61.2882 62.4131 60.7836Z" fill="#AE7A3F"/>
<path d="M31.0704 60.3555C31.9987 60.5866 31.9568 60.9458 31.9973 61.8459C32.0493 63.0032 31.8593 64.1874 31.978 65.3458C31.549 65.5691 31.5894 65.6296 31.1674 65.6133C30.7911 65.1327 30.8823 61.0319 31.0704 60.3555Z" fill="#AE7A3F"/>
<path d="M62.4139 60.7852C62.8131 61.2897 62.6351 60.975 63.0726 61.1562C61.4716 61.9401 62.7208 64.5988 61.9174 65.5581C61.6225 65.6927 61.517 65.6589 61.1988 65.6164C61.3296 64.8188 61.3421 62.0692 61.0469 61.295C61.436 61.1513 61.3888 61.2802 61.8641 61.0242L61.8947 61.1999C62.0891 61.0126 62.1911 60.9398 62.4139 60.7852Z" fill="#AE7A3F"/>
<path d="M71.5155 45.9004C73.3432 46.3649 73.0734 47.8099 71.5983 48.2544C70.9396 48.0185 69.804 47.502 70.2203 46.621C70.4153 46.2084 71.096 46.047 71.5155 45.9004Z" fill="#AE7A3F"/>
<path d="M1.80431 65.3046C1.50955 64.8723 0.915756 64.2767 1.42156 63.9121L1.50624 63.985C3.58164 65.7518 4.56945 63.9129 5.99503 64.0414L6.12816 64.1744C5.91556 65.3155 3.73167 65.7497 2.76396 65.5754C2.43575 65.5168 2.11429 65.426 1.80431 65.3046Z" fill="#AE7A3F"/>
<path d="M13.0805 65.6512C12.7679 65.1737 12.652 60.9784 12.9602 60.5644C13.35 60.4954 13.6735 60.7028 14.089 60.8652L14.282 60.7516C14.6247 61.1361 14.4908 61.0232 15.0466 61.1574C13.8476 61.4976 13.8765 62.987 13.8242 64.0095C13.7719 63.5618 13.7794 63.1993 13.4827 62.8624L13.3221 62.87C13.0007 63.5442 13.0677 64.902 13.0805 65.6512Z" fill="#AE7A3F"/>
<path d="M100.425 61.6646C100.142 61.1798 99.4899 61.2541 98.9978 61.2245C97.7608 61.15 98.2519 61.9344 97.7644 62.2886C97.4607 62.2756 97.2955 62.3004 97.0478 62.1326C96.6468 60.1457 100.631 59.8917 101.264 61.4436L101.183 61.5119C100.846 61.8024 100.806 61.8715 100.67 62.2872C100.54 62.0409 100.507 61.9314 100.425 61.6646Z" fill="#AE7A3F"/>
<path d="M53.2297 60.3105C53.3639 60.3417 53.5573 60.4329 53.565 60.5782C53.6179 61.5852 53.8649 65.2005 53.3298 65.9302C52.6456 65.3255 52.8148 61.1035 53.2297 60.3105Z" fill="#AE7A3F"/>
<path d="M89.7657 60.3574C90.1922 60.4961 90.2173 60.4263 90.4307 60.7202C90.4257 61.8994 90.4795 65.06 90.0868 66.0006C89.5385 65.3969 89.5982 61.3108 89.7657 60.3574Z" fill="#AE7A3F"/>
<path d="M75.3997 65.0775C75.2861 64.7652 75.0319 64.2294 75.2386 63.957L75.481 64.0435C76.9278 65.436 78.2407 64.2873 79.0108 64.708C79.0621 65.6888 75.9379 65.9355 75.3997 65.0775Z" fill="#AE7A3F"/>
<path d="M44.4767 32.3783C44.3364 31.6301 44.22 30.3296 45.0394 29.9277C46.0991 30.0631 45.8596 31.4166 45.7814 32.1592C45.3516 32.1131 44.8719 32.2167 44.4767 32.3783Z" fill="#AE7A3F"/>
<path d="M79.202 39.9896L80.2022 39.8558L80.2784 39.6875C80.5284 39.8098 80.7387 39.9131 80.9804 40.0554C80.8947 40.3816 79.6574 41.7177 79.3402 41.9853C79.2545 42.0577 78.8942 42.0852 78.7609 42.0936C79.0821 41.8015 79.0085 41.9389 79.1123 41.5715C79.0625 41.2118 78.8388 40.949 78.6299 40.6453L79.202 39.9896Z" fill="#AE7A3F"/>
<path d="M71.9134 33.165C73.2417 33.072 74.1101 32.9332 75.4252 33.2224L75.4611 33.5599C74.4199 33.8762 72.8726 33.4539 72.5239 34.0463L72.3694 34.3032L72.2949 33.7227L72.2803 33.4297L72.1821 33.3712C72.0538 33.9073 72.0504 34.0101 72.0902 34.5628L72.072 35.0339L71.9514 34.9876C71.898 34.6298 71.9152 33.5819 71.9134 33.165Z" fill="#AE7A3F"/>
<path d="M7.07195 61.0242C7.98978 60.562 8.56178 60.2982 9.58435 60.4598C9.15615 60.6417 8.61654 60.9143 8.34885 61.3031L8.03508 61.4781C7.74802 61.9913 7.61401 62.0974 7.12849 62.3768L6.95986 62.2953C6.84043 61.8936 6.98212 61.4417 7.07195 61.0242Z" fill="#AE7A3F"/>
<path d="M82.8398 38.7759C82.9539 38.7543 83.0681 38.734 83.1826 38.7145C84.054 38.5679 84.2952 38.5045 85.0159 39.0065C84.7726 39.4427 84.557 39.4086 84.2904 39.7642C83.7699 39.816 83.7477 39.5959 83.2368 39.556L83.1349 39.6392C83.16 39.9521 83.1239 39.8302 83.3418 40.1193L83.0281 40.649C82.8146 40.2853 82.8493 39.2549 82.8398 38.7759Z" fill="#AE7A3F"/>
<path d="M101.556 32.7891C101.88 33.483 102.085 33.5371 102.785 33.9132C102.348 34.3402 101.883 34.2741 101.252 34.2721C100.839 34.2701 100.427 34.264 100.014 34.2543L99.9404 34.0491L100.083 33.9224L100.334 33.4631C100.704 33.5322 100.858 33.4637 101.212 33.3634C101.542 33.0613 101.453 33.2143 101.556 32.7891Z" fill="#AE7A3F"/>
<path d="M74.8397 34.7435L75.3758 34.7363L75.5131 34.7748L75.5928 35.6094C74.9797 35.5171 74.3185 35.3349 73.8178 35.6783L73.7963 35.7536C73.7227 35.708 73.6911 35.6429 73.6457 35.5711C73.3163 35.3417 72.361 35.2304 71.9131 35.144C73.4419 34.4583 73.7248 35.0182 74.8397 34.7435Z" fill="#AE7A3F"/>
<path d="M72.5234 34.045C72.8722 33.4526 74.4194 33.8748 75.4607 33.5586C75.5533 34.0702 75.4972 34.2232 75.3755 34.7369L74.8394 34.744C74.2636 34.5062 74.6909 34.3312 74.2985 34.2575C73.7033 34.1458 73.052 34.4351 72.5234 34.045Z" fill="#AE7A3F"/>
<path d="M4.68534 58.4883C5.2642 58.7762 5.9821 59.6773 5.99424 60.3471L5.85655 60.5846C5.11062 60.6973 4.58453 59.8245 4.26367 59.2635C4.60783 58.9834 4.52369 58.9788 4.68534 58.4883Z" fill="#AE7A3F"/>
<path d="M48.8156 61.6005C49.7252 61.525 50.3154 61.3792 51.1457 61.7193L51.318 61.9177C51.0496 62.576 49.528 62.4104 49.0232 62.1874L48.7012 61.9568L48.8156 61.6005Z" fill="#AE7A3F"/>
<path d="M13.0809 65.6521C13.0681 64.9029 13.0011 63.5452 13.3225 62.871L13.4831 62.8633C13.7798 63.2002 13.7723 63.5627 13.8246 64.0104C13.8128 64.4924 13.8509 65.2265 13.637 65.6299C13.3488 65.7847 13.4851 65.7601 13.0809 65.6521Z" fill="#AE7A3F"/>
<path d="M67.4586 35.592C67.268 35.2381 67.319 35.0357 67.4578 34.6953C68.3079 34.7845 69.4453 34.6169 69.8865 35.0404C69.8663 35.1969 69.8529 35.3497 69.8087 35.5012C69.1668 35.4806 68.0486 35.4076 67.4586 35.592Z" fill="#AE7A3F"/>
<path d="M67.3975 33.7045C67.9168 33.5119 69.3525 33.688 69.8922 33.877L69.9226 34.0163C68.9879 34.5217 68.2947 34.0682 67.4096 34.4647L67.2715 34.3735L67.3975 33.7045Z" fill="#AE7A3F"/>
<path d="M89.623 59.1799C89.651 58.6702 89.5629 58.659 89.834 58.3473C90.2097 58.2488 90.0551 58.2422 90.4181 58.368C90.6384 58.7425 90.6047 58.5812 90.5825 58.9811C90.3946 59.2374 90.2677 59.4025 90.0531 59.6424L89.623 59.1799Z" fill="#AE7A3F"/>
<path d="M30.8633 58.3477C31.2764 58.365 31.8339 58.4257 32.1451 58.7147L32.118 58.8715L31.7774 59.0382C31.5909 59.2555 31.5775 59.295 31.3201 59.4014L31.0985 59.3037C30.9015 58.9529 30.9045 58.7452 30.8633 58.3477Z" fill="#AE7A3F"/>
<path d="M78.76 42.0928C78.4963 41.8312 78.4662 41.7953 78.3164 41.4499C78.3037 41.0632 78.4129 40.9565 78.629 40.6445C78.8379 40.9483 79.0616 41.2111 79.1114 41.5708C79.0076 41.9381 79.0812 41.8007 78.76 42.0928Z" fill="#AE7A3F"/>
<path d="M79.1181 34.4204C79.7821 34.3749 80.3144 34.3644 80.9798 34.46C80.5168 34.8595 79.5046 34.7358 78.8355 34.7216L78.6924 34.5342L79.1181 34.4204Z" fill="white"/>
<path d="M53.2025 58.4765C53.5001 58.3502 53.3722 58.3577 53.683 58.4481C53.8516 58.762 53.7556 59.207 53.5245 59.4668L53.3346 59.4644C53.168 59.2018 53.1493 59.161 53.0771 58.8598L53.2025 58.4765Z" fill="#AE7A3F"/>
<path d="M67.8857 31.6439C68.4749 31.6348 69.2955 31.5818 69.8448 31.7265L69.8487 31.8248C69.2108 32.0041 68.6023 31.974 67.9401 31.9791L68.4365 31.8053L67.8857 31.6439Z" fill="white"/>
<path d="M32.6611 35.412C32.9601 34.9893 33.2994 34.7708 33.7547 34.5488L33.8689 34.7286L33.004 35.6387L32.6611 35.412Z" fill="white"/>
<path d="M75.3431 31.9767C74.7965 31.9665 74.603 31.941 74.0674 31.8295L74.0707 31.7414C74.9589 31.4996 75.6356 31.528 76.5362 31.5669L75.843 31.6712C75.4615 31.6633 75.3958 31.5993 75.1075 31.7681L75.3431 31.9767Z" fill="white"/>
<path d="M67.7591 31.6544L67.8861 31.6445L68.4368 31.8059L67.9404 31.9797C67.7527 31.9974 67.2514 32.056 67.0867 32.0557C66.8084 32.0081 66.6348 31.9697 66.3633 31.8931L66.3769 31.8327C66.8668 31.8213 67.2965 31.8417 67.7591 31.6544Z" fill="white"/>
<path d="M84.0671 36.4109C84.0319 36.2659 84.0408 36.3402 84.108 36.1686C84.5816 36.0358 85.115 36.2476 85.6298 36.2614L85.7209 36.4376L85.5642 36.7972L85.3017 36.4815C85.093 36.3236 84.3997 36.4033 84.0671 36.4109Z" fill="white"/>
<path d="M6.48633 35.4122C6.8208 34.936 6.86922 34.8852 7.39392 34.625L7.5611 34.8173C7.43276 34.9322 6.9271 35.4217 6.81524 35.4302L6.48633 35.4122Z" fill="white"/>
<path d="M75.3429 31.9783L75.1074 31.7696C75.3957 31.6009 75.4614 31.6648 75.8429 31.6727L75.9615 31.9481L75.3429 31.9783Z" fill="white"/>
<path d="M72.0908 34.5626C72.0509 34.01 72.0544 33.9072 72.1826 33.3711L72.2809 33.4295L72.2955 33.7225C72.2381 34.0255 72.2032 34.2726 72.0908 34.5626Z" fill="white"/>
</svg>
