<svg width="146" height="61" viewBox="0 0 146 61" fill="none" xmlns="http://www.w3.org/2000/svg">
<path d="M21.1561 2.15789C23.7494 4.15676 25.2294 6.81884 25.7394 10.0413C26.0375 12.9442 25.0709 15.7289 23.3561 18.0264C22.9894 18.4747 22.9894 18.4747 22.2561 19.2081C24.8576 19.2081 27.4591 19.2081 30.1395 19.2081C29.6555 18.6636 29.1715 18.1191 28.6728 17.5581C28.374 17.0605 28.1145 16.5999 27.8707 16.0799C27.8104 15.9597 27.7502 15.8396 27.6881 15.7157C26.5397 13.3515 26.4144 10.3377 27.1259 7.81837C28.3413 4.55888 30.5116 2.28757 33.6128 0.798632C34.9906 0.226973 36.2223 0.107866 37.7021 0.106828C37.9506 0.10346 37.9506 0.10346 38.2041 0.100024C41.192 0.0935758 43.7927 1.34717 45.9063 3.44124C48.376 6.2577 49.034 9.05353 48.8747 12.7035C48.6708 15.3504 47.1434 17.5033 45.3635 19.3585C44.9837 19.7264 44.9837 19.7264 44.8063 20.1247C44.9765 20.155 45.1466 20.1852 45.3219 20.2164C47.1755 20.7556 48.9798 22.477 49.9457 24.1119C50.3438 24.8454 50.6943 25.5985 51.0397 26.3581C51.1607 26.6032 51.2822 26.848 51.4064 27.0915C51.5624 27.027 51.7183 26.9624 51.879 26.896C53.1813 26.3654 54.4886 25.8659 55.8179 25.4071C57.9646 24.6657 60.0948 23.8801 62.2258 23.095C63.1011 22.7727 63.9772 22.4524 64.8536 22.1328C65.2274 21.9964 65.6012 21.8599 65.975 21.7234C66.2134 21.6364 66.4518 21.5496 66.6902 21.4629C68.1497 20.9396 68.1497 20.9396 69.5745 20.331C70.1455 20.1096 70.283 20.1334 70.8399 20.3081C70.8456 23.4821 70.8493 26.6561 70.8514 29.8301C70.8515 30.0674 70.8517 30.3048 70.8518 30.5494C70.856 37.632 70.8281 44.7136 70.7482 51.7959C70.745 52.0876 70.745 52.0876 70.7416 52.3851C70.7152 54.7096 70.687 57.0341 70.6566 59.3585C69.9467 59.5951 69.7099 59.4378 69.0187 59.1701C68.7995 59.0861 68.5803 59.0021 68.3544 58.9155C68.1173 58.8226 67.8801 58.7296 67.643 58.6366C67.3992 58.5424 67.1554 58.4484 66.9115 58.3545C65.4367 57.7849 63.9683 57.1995 62.5029 56.6059C61.044 56.0186 59.5685 55.4777 58.0924 54.9352C55.8544 54.1115 53.6299 53.2539 51.4064 52.3918C51.3064 52.6211 51.3064 52.6211 51.2044 52.8551C49.8074 55.9824 48.0537 58.24 44.8192 59.5812C43.4903 60.0872 42.3092 60.2978 40.882 60.2997C40.6828 60.3003 40.6828 60.3003 40.4796 60.3009C40.0368 60.3021 39.5939 60.3019 39.1511 60.3018C38.8327 60.3023 38.5143 60.303 38.1959 60.3037C37.3322 60.3053 36.4685 60.3057 35.6048 60.3058C35.0646 60.306 34.5244 60.3064 33.9841 60.3068C32.0977 60.3085 30.2112 60.3093 28.3248 60.3091C26.5694 60.309 24.814 60.311 23.0586 60.3139C21.5492 60.3163 20.0399 60.3172 18.5305 60.3171C17.63 60.3171 16.7296 60.3176 15.8292 60.3195C14.9815 60.3213 14.1339 60.3213 13.2862 60.32C12.9763 60.3198 12.6664 60.3202 12.3566 60.3213C9.20792 60.3319 6.40765 60.0018 3.92254 57.8918C3.80036 57.798 3.67818 57.7042 3.55229 57.6075C1.56272 56.0136 0.428645 53.5959 0.0725049 51.1084C0.023325 50.3612 0.0204546 49.6167 0.0221504 48.8681C0.0212134 48.6517 0.0202764 48.4353 0.019311 48.2123C0.0167762 47.5016 0.0169378 46.791 0.0173611 46.0803C0.0169369 45.7089 0.0162944 45.3375 0.0156365 44.9661C0.0136094 43.7996 0.0135181 42.633 0.0146308 41.4665C0.0157369 40.2693 0.0134819 39.0721 0.00957575 37.8749C0.00632985 36.8415 0.00524831 35.8081 0.00584252 34.7746C0.00617241 34.1598 0.00547101 33.5451 0.00314576 32.9303C0.000866451 32.2434 0.00213131 31.5566 0.00424657 30.8697C0.00214451 30.5706 0.00214451 30.5706 0 30.2654C0.0208309 27.1817 1.01212 24.3672 3.1892 22.1414C4.26673 21.2322 5.39745 20.5334 6.67257 19.9414C6.85408 19.8204 7.03558 19.6994 7.22258 19.5747C7.14483 19.4901 7.06707 19.4055 6.98697 19.3184C4.37647 16.4153 3.34434 13.6317 3.51926 9.74903C3.60267 8.74426 3.89883 7.84745 4.28922 6.92461C4.35562 6.76367 4.42203 6.60273 4.49045 6.43691C5.80998 3.5429 8.18761 1.70189 11.0726 0.507874C14.5403 -0.572402 18.2067 0.113558 21.1561 2.15789ZM6.12257 23.9748C5.94107 24.1033 5.75956 24.2319 5.57256 24.3644C4.16388 25.5771 3.4932 27.464 3.32228 29.2736C3.30425 29.8407 3.30232 30.4053 3.30719 30.9725C3.30682 31.1856 3.30644 31.3988 3.30605 31.6183C3.30551 32.3164 3.30888 33.0143 3.31238 33.7123C3.31294 34.2001 3.31331 34.6878 3.31342 35.1755C3.3141 36.1946 3.31683 37.2137 3.32098 38.2327C3.32628 39.5386 3.32817 40.8445 3.32899 42.1505C3.32964 43.1562 3.33151 44.162 3.33373 45.1678C3.33477 45.6495 3.33565 46.1311 3.33634 46.6127C3.3376 47.2849 3.34011 47.9571 3.343 48.6293C3.3432 48.8279 3.34341 49.0265 3.34362 49.2311C3.34467 49.4148 3.34571 49.5985 3.34679 49.7878C3.34734 49.9464 3.34788 50.105 3.34844 50.2684C3.37534 50.7967 3.46891 51.32 3.55587 51.8417C4.70539 51.9022 5.8549 51.9627 7.03924 52.0251C7.09974 52.2066 7.16025 52.3881 7.22258 52.5751C7.79495 52.3351 7.79495 52.3351 8.13926 51.8417C8.16787 51.4007 8.18656 50.9641 8.19726 50.5226C8.20107 50.3929 8.20488 50.2632 8.20881 50.1296C8.22081 49.7149 8.23161 49.3002 8.24238 48.8855C8.2503 48.6045 8.2583 48.3235 8.26637 48.0425C8.28601 47.3534 8.30458 46.6642 8.32259 45.975C8.44359 45.975 8.56459 45.975 8.68926 45.975C8.68926 45.7935 8.68926 45.612 8.68926 45.425C8.99177 45.4855 9.29427 45.546 9.60594 45.6083C9.66644 47.1814 9.72694 48.7544 9.78927 50.3751C10.5153 50.1936 10.5153 50.1936 11.256 50.0084C11.3467 49.2824 11.3467 49.2824 11.4393 48.5417C11.9233 48.4812 12.4073 48.4207 12.906 48.3584C12.906 48.9029 12.906 49.4474 12.906 50.0084C13.0256 50.055 13.1451 50.1015 13.2683 50.1495C13.9879 50.4328 14.6847 50.7129 15.3695 51.074C15.8451 51.3597 15.8451 51.3597 16.3893 51.1084C16.3893 50.9269 16.3893 50.7454 16.3893 50.5584C16.1473 50.4979 15.9053 50.4374 15.656 50.3751C15.6305 48.7395 15.7125 47.1247 15.8279 45.4938C16.0411 42.3564 16.1338 39.2183 16.206 36.0749C16.0562 35.9986 15.9063 35.9222 15.752 35.8436C15.5993 35.7384 15.4466 35.6333 15.2893 35.5249C15.2015 34.6323 15.2966 33.8387 15.4727 32.9582C15.6542 32.9582 15.8357 32.9582 16.0227 32.9582C16.2271 32.2911 16.2434 31.6502 16.264 30.9551C16.2697 30.772 16.2697 30.772 16.2756 30.5852C16.2875 30.196 16.2983 29.8068 16.3091 29.4175C16.3171 29.1579 16.3251 28.8983 16.3331 28.6387C16.3542 27.9397 16.3745 27.2407 16.3893 26.5415C16.3976 26.3134 16.4059 26.0853 16.4144 25.8503C16.4395 25.2302 16.4395 25.2302 16.0227 24.7081C16.1437 24.7081 16.2647 24.7081 16.3893 24.7081C16.3893 24.1636 16.3893 23.6191 16.3893 23.0581C16.5708 23.0581 16.7523 23.0581 16.9393 23.0581C16.9456 23.2279 16.9456 23.2279 16.952 23.4012C16.9957 24.5789 17.0405 25.7566 17.0859 26.9343C17.1027 27.3739 17.1193 27.8135 17.1355 28.2531C17.1589 28.8848 17.1833 29.5164 17.2079 30.148C17.215 30.3448 17.2221 30.5415 17.2293 30.7442C17.2403 31.0194 17.2403 31.0194 17.2515 31.3001C17.2577 31.4614 17.2638 31.6226 17.2701 31.7887C17.3042 32.2034 17.3529 32.565 17.4894 32.9582C17.6104 33.0187 17.7314 33.0792 17.856 33.1415C18.1801 33.6663 18.2853 34.0979 18.3029 34.7114C18.3139 34.9216 18.3139 34.9216 18.3251 35.136C18.2227 35.5249 18.2227 35.5249 17.306 36.0749C17.427 39.2814 17.548 42.488 17.6727 45.7917C17.8542 45.7917 18.0357 45.7917 18.2227 45.7917C18.2274 45.6149 18.2321 45.4381 18.237 45.256C18.2526 44.9086 18.2526 44.9086 18.2685 44.5542C18.277 44.3245 18.2855 44.0947 18.2943 43.8581C18.4205 43.1431 18.5635 42.9186 19.1394 42.4916C19.7008 42.3656 19.7008 42.3656 20.4227 42.3083C20.5896 42.2918 20.7564 42.2752 20.9283 42.2582C21.6815 42.1839 22.4152 42.125 23.1727 42.125C23.2332 40.431 23.2937 38.7369 23.3561 36.9916C23.5981 36.8706 23.8401 36.7496 24.0894 36.6249C24.5832 35.9687 24.5372 35.169 24.5707 34.3791C24.5778 34.2425 24.5849 34.1059 24.5922 33.9651C24.6094 33.6296 24.6246 33.2939 24.6394 32.9582C24.7604 32.9582 24.8814 32.9582 25.0061 32.9582C25.0968 34.2287 25.0968 34.2287 25.1894 35.5249C25.3104 35.4644 25.4314 35.4039 25.5561 35.3416C25.5561 34.3736 25.5561 33.4056 25.5561 32.4082C25.7981 32.4082 26.0401 32.4082 26.2894 32.4082C26.2894 33.5577 26.2894 34.7072 26.2894 35.8916C26.7734 36.1336 27.2575 36.3756 27.7561 36.6249C27.8166 38.3189 27.8771 40.013 27.9395 41.7583C28.4227 41.275 28.5036 40.8303 28.6957 40.177C28.7929 39.8502 28.7929 39.8502 28.8919 39.5167C28.9406 39.3489 28.9893 39.1812 29.0395 39.0083C29.4061 39.0005 29.7729 39.0008 30.1395 39.0083C30.3228 39.1916 30.3228 39.1916 30.3407 39.5303C30.3348 39.9063 30.3288 40.2823 30.3228 40.6583C30.8673 40.749 30.8673 40.749 31.4228 40.8416C31.4115 40.9853 31.4001 41.129 31.3885 41.277C31.3998 41.4359 31.4111 41.5947 31.4228 41.7583C31.6043 41.8793 31.7858 42.0003 31.9728 42.125C32.0333 42.004 32.0938 41.883 32.1562 41.7583C33.2616 41.3832 34.1292 41.3791 35.2729 41.575C35.4334 42.1771 35.464 42.7326 35.4562 43.351C35.4448 44.2971 35.5277 45.2196 35.6395 46.1583C36.1235 46.2188 36.6076 46.2794 37.1062 46.3417C37.1131 46.0447 37.1131 46.0447 37.1201 45.7416C37.1374 45.0084 37.1558 44.2752 37.1745 43.542C37.1824 43.2244 37.1901 42.9068 37.1974 42.5891C37.208 42.1331 37.2197 41.6772 37.2316 41.2212C37.2346 41.0787 37.2377 40.9362 37.2408 40.7894C37.2687 39.7834 37.2687 39.7834 37.4729 39.3749C38.3199 39.3144 39.1669 39.2539 40.0396 39.1916C40.1001 43.1241 40.1606 47.0567 40.2229 51.1084C40.7219 51.3579 40.9898 51.2374 41.5292 51.1199C41.8241 51.0556 42.1191 50.9913 42.4229 50.9251C42.4834 50.0176 42.5439 49.1101 42.6063 48.175C43.2113 48.175 43.8163 48.175 44.4396 48.175C44.5001 49.8086 44.5606 51.4421 44.623 53.1251C44.8045 53.1251 44.986 53.1251 45.173 53.1251C45.294 52.7016 45.415 52.2781 45.5396 51.8417C45.6788 51.846 45.818 51.8503 45.9615 51.8546C46.1437 51.8579 46.3259 51.8613 46.5136 51.8647C46.6944 51.8689 46.8752 51.8732 47.0615 51.8776C47.5974 51.8797 47.5974 51.8797 48.1063 51.4751C48.3453 50.2849 48.3129 49.084 48.3053 47.8741C48.3047 47.6646 48.3041 47.4551 48.3035 47.2393C48.3012 46.5495 48.2974 45.8598 48.2933 45.1701C48.292 44.9335 48.2907 44.6968 48.2894 44.4531C48.2832 43.3299 48.2763 42.2067 48.2682 41.0835C48.259 39.7934 48.2527 38.5034 48.249 37.2133C48.2455 36.0905 48.2381 34.9677 48.2293 33.8449C48.2261 33.3699 48.2242 32.8948 48.2234 32.4197C48.2221 31.7533 48.2163 31.0871 48.2093 30.4207C48.21 30.2269 48.2106 30.0331 48.2113 29.8335C48.1844 28.0725 47.8358 26.275 46.5594 24.9831C46.4236 24.8413 46.2877 24.6995 46.1477 24.5534C46.0075 24.423 45.8674 24.2925 45.723 24.1581C45.5326 23.9738 45.5326 23.9738 45.3384 23.7857C43.529 22.5584 41.5933 22.5868 39.4931 22.5995C39.1634 22.5988 38.8338 22.5978 38.5041 22.5965C37.6139 22.5939 36.7239 22.5959 35.8337 22.599C34.8994 22.6015 33.9651 22.6003 33.0308 22.5997C31.4624 22.5992 29.894 22.6016 28.3256 22.6059C26.5155 22.6108 24.7055 22.6111 22.8953 22.6089C21.1497 22.607 19.404 22.6081 17.6584 22.6107C16.9174 22.6118 16.1764 22.6117 15.4355 22.6109C14.5622 22.61 13.689 22.6119 12.8157 22.6158C12.4963 22.6168 12.1769 22.6169 11.8575 22.616C9.75508 22.6107 7.85657 22.6349 6.12257 23.9748ZM66.4513 25.0333C66.2498 25.1073 66.0482 25.1814 65.8405 25.2578C65.6148 25.3411 65.3891 25.4244 65.1565 25.5102C64.9187 25.5977 64.6809 25.6852 64.4431 25.7727C63.8995 25.9727 63.3559 26.1728 62.8124 26.373C61.7229 26.7741 60.6331 27.1741 59.5433 27.5742C58.7331 27.8716 57.9229 28.1691 57.1127 28.4665C56.8144 28.576 56.8144 28.576 56.51 28.6877C55.936 28.8985 55.362 29.1093 54.788 29.3202C54.6165 29.3831 54.445 29.4461 54.2684 29.5109C54.1062 29.5705 53.944 29.6301 53.7769 29.6915C53.6372 29.7428 53.4974 29.7941 53.3535 29.847C52.7037 30.0876 52.0551 30.3316 51.4064 30.5749C51.4064 36.5644 51.4064 42.554 51.4064 48.725C52.3038 49.1738 53.096 49.5641 54.0218 49.8988C54.2304 49.975 54.4391 50.0513 54.6541 50.1298C54.868 50.2069 55.0819 50.2841 55.3022 50.3636C56.6898 50.8663 58.0629 51.3854 59.4223 51.96C60.5368 52.4207 61.6649 52.8465 62.7919 53.2757C63.2119 53.4357 63.6317 53.5964 64.0515 53.7571C64.3219 53.8604 64.5924 53.9636 64.8629 54.0668C64.9867 54.1142 65.1104 54.1616 65.238 54.2104C65.9391 54.477 66.6443 54.7232 67.3565 54.9584C67.3809 52.2595 67.4048 49.5606 67.4283 46.8617C67.4392 45.6074 67.4502 44.3532 67.4615 43.0989C67.517 36.9685 67.5549 30.8388 67.5399 24.7081C67.1677 24.7081 66.7942 24.9069 66.4513 25.0333ZM21.8894 47.075C21.8894 48.8295 21.8894 50.5841 21.8894 52.3918C22.1919 52.3918 22.4944 52.3918 22.8061 52.3918C22.8061 50.6372 22.8061 48.8827 22.8061 47.075C22.5641 47.075 22.3221 47.075 22.0727 47.075C22.0122 47.075 21.9517 47.075 21.8894 47.075ZM29.4061 48.725C29.4061 50.0561 29.4061 51.3871 29.4061 52.7584C29.7691 52.7584 30.1322 52.7584 30.5062 52.7584C30.5062 51.4879 30.5062 50.2174 30.5062 48.9084C29.9616 48.8176 29.9616 48.8176 29.4061 48.725ZM37.8396 48.9084C37.8396 50.1789 37.8396 51.4494 37.8396 52.7584C38.0816 52.6979 38.3236 52.6374 38.5729 52.5751C38.5828 52.0327 38.5901 51.4904 38.5958 50.948C38.5989 50.7937 38.602 50.6393 38.6051 50.4803C38.6063 50.3326 38.6075 50.1849 38.6087 50.0327C38.6106 49.8964 38.6126 49.7601 38.6145 49.6196C38.6034 49.2302 38.6034 49.2301 38.2062 48.9084C38.0852 48.9084 37.9642 48.9084 37.8396 48.9084ZM19.3227 51.1084C19.2574 52.0188 19.2574 52.0188 19.5977 52.8386C19.6885 52.9332 19.7792 53.0277 19.8727 53.1251C19.9937 53.0646 20.1147 53.0041 20.2394 52.9418C20.3251 52.5098 20.3251 52.5098 20.354 52.0136C20.3745 51.7609 20.3745 51.7609 20.3955 51.503C20.4045 51.3728 20.4135 51.2426 20.4227 51.1084C20.0597 51.1084 19.6967 51.1084 19.3227 51.1084ZM40.2229 51.2917C40.4063 51.8417 40.4063 51.8417 40.4063 51.8417L40.2229 51.2917ZM40.2229 52.5751C40.2229 52.6961 40.2229 52.8171 40.2229 52.9418C40.4649 52.8813 40.7069 52.8208 40.9563 52.7584C40.7143 52.6979 40.4723 52.6374 40.2229 52.5751ZM5.57256 54.9584C7.49165 56.8775 9.59098 57.0209 12.216 57.0248C12.5053 57.0241 12.7946 57.0234 13.084 57.0226C13.3938 57.0231 13.7036 57.0237 14.0134 57.0245C14.8494 57.0262 15.6853 57.0256 16.5213 57.0244C17.3991 57.0234 18.2769 57.0243 19.1547 57.0249C20.6281 57.0256 22.1016 57.0247 23.575 57.0229C25.2751 57.0209 26.9752 57.0216 28.6753 57.0236C30.139 57.0253 31.6026 57.0255 33.0662 57.0245C33.9387 57.024 34.8111 57.0239 35.6835 57.0251C36.5038 57.0262 37.3241 57.0254 38.1444 57.0233C38.4443 57.0228 38.7442 57.023 39.0441 57.0238C41.0381 57.0287 42.9031 57.0067 44.7146 56.0699C44.9897 55.9313 44.9897 55.9313 45.2704 55.7899C45.7673 55.5242 45.7673 55.5242 46.0897 54.9584C32.719 54.9584 19.3484 54.9584 5.57256 54.9584Z" fill="#AE7A3F"/>
<path d="M19.0755 4.76327C20.5561 5.89223 21.8208 7.57596 22.205 9.42686C22.5088 11.9708 22.1011 14.0082 20.6066 16.0921C19.4789 17.4528 17.9666 18.5239 16.2065 18.8421C13.7052 19.0442 11.7316 18.7385 9.67164 17.1993C8.0632 15.8069 7.20581 14.145 6.85644 12.0587C6.69266 9.75813 7.25776 7.84997 8.7385 6.05521C9.71117 5.02595 10.6713 4.32392 11.9898 3.80864C12.2904 3.68953 12.2904 3.68953 12.5971 3.56801C14.9112 3.13658 17.0921 3.48826 19.0755 4.76327Z" fill="white"/>
<path d="M99.075 11.0007C99.2603 11.0005 99.4456 11.0002 99.6365 11C101.078 11.0203 102.29 11.2294 103.624 11.8028C103.513 12.9793 103.343 14.1875 102.891 15.2862C102.341 15.4695 102.341 15.4695 101.756 15.2976C100.083 14.8491 98.0462 14.8546 96.4718 15.6034C95.6096 16.154 95.1437 16.8868 94.8239 17.8529C94.6593 19.272 94.6777 20.6267 95.4298 21.8741C96.0473 22.6267 96.6218 22.9566 97.574 23.1696C99.0533 23.2976 100.606 23.3205 102.069 23.0507C102.294 23.0188 102.294 23.0188 102.524 22.9863C103.024 23.4865 103.053 23.9251 103.2 24.6134C103.25 24.8398 103.3 25.0662 103.351 25.2994C103.481 26.1983 103.481 26.1983 103.257 26.653C102.951 26.8384 102.951 26.8384 102.57 26.9623C102.446 27.0046 102.322 27.0469 102.195 27.0905C99.4897 27.8435 96.2555 27.6059 93.7304 26.3916C92.8804 25.9086 92.1635 25.3824 91.5239 24.6363C91.4339 24.5332 91.3438 24.4302 91.2511 24.324C89.9211 22.7003 89.3637 20.7103 89.5538 18.6256C89.9451 16.1192 91.0309 14.152 93.0901 12.64C94.9832 11.4331 96.8593 10.9978 99.075 11.0007Z" fill="#AE7A3F"/>
<path d="M113.478 11.0342C113.653 11.032 113.827 11.0297 114.007 11.0274C115.402 11.0245 116.679 11.1386 117.924 11.8019C117.829 12.9851 117.696 14.1968 117.191 15.2853C116.641 15.4686 116.641 15.4686 116.057 15.2967C114.451 14.8655 112.396 14.8065 110.914 15.6169C109.904 16.3001 109.384 17.0413 109.124 18.2186C108.96 19.5733 109.104 20.7292 109.858 21.8854C110.556 22.6881 111.407 23.1189 112.472 23.2004C112.946 23.2114 113.417 23.2097 113.891 23.2031C114.132 23.2029 114.132 23.2029 114.378 23.2027C115.217 23.197 115.996 23.1265 116.824 22.9854C116.945 23.0459 117.066 23.1064 117.191 23.1687C117.347 23.6693 117.347 23.6693 117.489 24.3031C117.561 24.6133 117.561 24.6133 117.634 24.9297C117.735 25.5189 117.761 26.0558 117.741 26.6521C117.485 26.7406 117.229 26.8283 116.973 26.9156C116.831 26.9645 116.688 27.0135 116.541 27.0639C113.633 27.9564 110.382 27.477 107.692 26.1708C105.902 25.1251 104.66 23.4751 104.128 21.4843C103.695 19.1852 103.976 16.9149 105.263 14.9301C105.447 14.6794 105.634 14.4309 105.824 14.1853C105.964 13.9924 106.104 13.7996 106.248 13.6009C108.185 11.5743 110.777 11.036 113.478 11.0342Z" fill="#AE7A3F"/>
<path d="M119.941 11.2525C121.372 11.2483 122.803 11.245 124.234 11.243C124.899 11.2421 125.563 11.2408 126.228 11.2387C126.868 11.2367 127.509 11.2356 128.15 11.2351C128.514 11.2346 128.879 11.2332 129.243 11.2317C129.464 11.2317 129.684 11.2317 129.911 11.2317C130.203 11.2311 130.203 11.2311 130.502 11.2305C130.941 11.2525 130.941 11.2525 131.125 11.4359C131.17 12.0112 131.159 12.5891 131.159 13.1661C131.161 13.3283 131.163 13.4906 131.166 13.6577C131.166 13.8129 131.167 13.968 131.167 14.1279C131.168 14.2707 131.168 14.4136 131.169 14.5607C131.125 14.9192 131.125 14.9192 130.758 15.2859C128.734 15.5138 126.553 15.2036 124.525 15.1026C124.525 15.8891 124.525 16.6756 124.525 17.4859C124.707 17.485 124.889 17.484 125.077 17.483C125.751 17.4797 126.425 17.4776 127.099 17.4758C127.392 17.4749 127.684 17.4737 127.976 17.4721C128.395 17.4699 128.814 17.4688 129.233 17.468C129.365 17.4671 129.496 17.4661 129.631 17.4651C129.946 17.4651 130.26 17.4746 130.575 17.4859C130.93 17.8415 130.782 18.3681 130.783 18.8405C130.782 18.9947 130.782 19.1489 130.781 19.3078C130.782 19.5381 130.782 19.5381 130.783 19.773C130.783 19.9198 130.783 20.0667 130.782 20.218C130.782 20.3532 130.782 20.4884 130.782 20.6276C130.758 20.9693 130.758 20.9693 130.575 21.336C128.578 21.336 126.582 21.336 124.525 21.336C124.532 23.1981 124.532 23.1981 124.541 25.0603C124.542 25.2906 124.542 25.5209 124.542 25.7582C124.544 26.1139 124.544 26.1139 124.545 26.4768C124.525 27.0193 124.525 27.0193 124.341 27.2027C124.015 27.2187 123.688 27.2223 123.361 27.2206C123.163 27.22 122.965 27.2194 122.761 27.2188C122.553 27.2173 122.344 27.2157 122.13 27.2141C121.921 27.2133 121.712 27.2125 121.496 27.2116C120.978 27.2095 120.46 27.2064 119.941 27.2027C119.656 26.6327 119.732 26.0289 119.734 25.4033C119.734 25.2555 119.733 25.1076 119.733 24.9552C119.732 24.4649 119.733 23.9747 119.733 23.4844C119.733 23.1447 119.733 22.8049 119.733 22.4651C119.733 21.7525 119.733 21.0398 119.734 20.3272C119.735 19.4122 119.734 18.4973 119.733 17.5824C119.733 16.8806 119.733 16.1789 119.733 15.4771C119.733 15.1397 119.733 14.8023 119.733 14.4648C119.732 13.9938 119.733 13.5229 119.734 13.0519C119.734 12.9115 119.733 12.7711 119.733 12.6264C119.737 11.6611 119.737 11.6611 119.941 11.2525Z" fill="#AE7A3F"/>
<path d="M134.499 11.2283C134.711 11.2277 134.922 11.2272 135.141 11.2266C135.371 11.2269 135.602 11.2273 135.839 11.2277C136.074 11.2275 136.309 11.2273 136.551 11.2272C137.049 11.2269 137.547 11.2273 138.045 11.2281C138.684 11.2292 139.323 11.2286 139.961 11.2275C140.57 11.2267 141.178 11.2272 141.786 11.2277C142.016 11.2273 142.246 11.2269 142.483 11.2266C142.696 11.2271 142.908 11.2277 143.127 11.2283C143.408 11.2285 143.408 11.2285 143.695 11.2288C144.141 11.252 144.141 11.252 144.508 11.4354C144.508 12.6454 144.508 13.8554 144.508 15.1021C142.344 15.2968 140.258 15.2451 138.091 15.1021C138.091 15.8886 138.091 16.6751 138.091 17.4854C138.356 17.484 138.356 17.484 138.627 17.4825C139.281 17.4792 139.934 17.4771 140.588 17.4754C140.871 17.4744 141.154 17.4732 141.438 17.4716C141.844 17.4694 142.25 17.4683 142.657 17.4675C142.784 17.4666 142.912 17.4656 143.043 17.4647C143.348 17.4646 143.653 17.4741 143.958 17.4854C144.243 17.7707 144.165 18.0464 144.166 18.4422C144.166 18.6758 144.166 18.6758 144.166 18.9142C144.166 19.0779 144.165 19.2417 144.164 19.4105C144.165 19.6561 144.165 19.6561 144.166 19.9067C144.166 20.0625 144.166 20.2182 144.166 20.3787C144.165 20.5225 144.165 20.6663 144.165 20.8145C144.141 21.1521 144.141 21.1521 143.958 21.3355C143.522 21.3517 143.092 21.3566 142.657 21.3534C142.462 21.353 142.462 21.353 142.263 21.3526C141.846 21.3516 141.43 21.3493 141.013 21.3469C140.731 21.346 140.45 21.3452 140.168 21.3444C139.476 21.3424 138.783 21.3392 138.091 21.3355C138.093 21.5002 138.095 21.6649 138.097 21.8345C138.103 22.4448 138.108 23.055 138.111 23.6652C138.113 23.9295 138.116 24.1937 138.119 24.458C138.123 24.8375 138.125 25.217 138.127 25.5966C138.129 25.8251 138.131 26.0536 138.133 26.289C138.091 26.8355 138.091 26.8355 137.725 27.2022C137.319 27.2467 137.319 27.2467 136.819 27.2445C136.551 27.2439 136.551 27.2439 136.277 27.2434C136.089 27.2411 135.901 27.2389 135.708 27.2366C135.52 27.2365 135.333 27.2363 135.139 27.2362C133.743 27.2279 133.743 27.2279 133.325 27.0189C133.32 24.9902 133.317 22.9615 133.315 20.9329C133.314 19.991 133.313 19.0491 133.311 18.1072C133.309 17.199 133.308 16.2908 133.307 15.3826C133.307 15.0353 133.306 14.6881 133.305 14.3408C133.304 13.8561 133.304 13.3714 133.304 12.8867C133.303 12.7416 133.302 12.5966 133.302 12.4471C133.304 11.2799 133.348 11.2292 134.499 11.2283Z" fill="#AE7A3F"/>
<path d="M76.6403 11.2305C76.8711 11.2309 77.102 11.2313 77.3398 11.2317C77.4668 11.2317 77.5938 11.2316 77.7246 11.2316C78.1462 11.2317 78.5678 11.2332 78.9894 11.2346C79.281 11.235 79.5726 11.2352 79.8641 11.2354C80.633 11.2361 81.4019 11.2379 82.1708 11.2399C82.9548 11.2418 83.7388 11.2426 84.5228 11.2436C86.0621 11.2455 87.6015 11.2487 89.1409 11.2525C89.4407 12.099 89.5572 12.7802 89.5534 13.6817C89.5548 14.0178 89.5548 14.0178 89.5562 14.3606C89.5075 14.9192 89.5075 14.9192 89.1409 15.2859C88.7122 15.3275 88.7122 15.3275 88.1827 15.3217C87.8991 15.3199 87.8991 15.3199 87.6097 15.3181C87.4117 15.315 87.2136 15.312 87.0096 15.3088C86.8101 15.3072 86.6107 15.3055 86.4052 15.3038C85.9115 15.2995 85.4178 15.2934 84.9242 15.2859C84.9543 15.4146 84.9844 15.5433 85.0154 15.6758C85.1124 16.2307 85.1236 16.7337 85.1144 17.2967C85.1113 17.5126 85.1082 17.7285 85.105 17.9509C85.1006 18.1822 85.0963 18.4135 85.0917 18.6518C85.0878 18.8902 85.084 19.1285 85.0799 19.3741C85.0716 19.8771 85.0626 20.3801 85.0531 20.8831C85.0409 21.529 85.0304 22.1749 85.0204 22.8208C85.0107 23.4364 84.9996 24.0519 84.9886 24.6675C84.985 24.9003 84.9813 25.1331 84.9776 25.3729C84.9733 25.5865 84.9691 25.8001 84.9647 26.0201C84.9613 26.2091 84.9579 26.3981 84.9544 26.5928C84.9242 27.0193 84.9242 27.0193 84.7408 27.2027C84.43 27.2209 84.1184 27.2267 83.807 27.227C83.6181 27.2273 83.4293 27.2275 83.2348 27.2277C82.9366 27.2267 82.9366 27.2267 82.6325 27.2256C82.4337 27.2263 82.235 27.227 82.0302 27.2277C81.8414 27.2275 81.6525 27.2273 81.458 27.227C81.2835 27.2268 81.1089 27.2266 80.9291 27.2264C80.5241 27.2027 80.5241 27.2027 80.3408 27.0193C80.3235 26.6537 80.3193 26.2875 80.32 25.9214C80.32 25.6865 80.32 25.4516 80.32 25.2096C80.3209 24.9513 80.3219 24.693 80.3229 24.4347C80.3232 24.1719 80.3235 23.9091 80.3237 23.6463C80.3244 22.9534 80.3262 22.2605 80.3282 21.5676C80.3301 20.861 80.3309 20.1544 80.3318 19.4478C80.3338 18.0605 80.3369 16.6732 80.3408 15.2859C80.2205 15.2869 80.1003 15.2878 79.9763 15.2888C79.4332 15.2926 78.8901 15.295 78.347 15.2973C78.0631 15.2997 78.0631 15.2997 77.7734 15.302C77.5926 15.3026 77.4118 15.3032 77.2255 15.3038C76.9749 15.3052 76.9749 15.3052 76.7193 15.3067C76.3074 15.2859 76.3074 15.2859 75.9407 15.1026C75.9354 14.4953 75.9322 13.888 75.9293 13.2807C75.9277 13.1073 75.9262 12.934 75.9246 12.7554C75.924 12.5905 75.9234 12.4257 75.9228 12.2558C75.9219 12.1032 75.9209 11.9505 75.9199 11.7933C75.9535 11.2163 76.0558 11.2554 76.6403 11.2305Z" fill="#AE7A3F"/>
<path d="M41.7456 4.42689C42.0421 4.63548 42.3265 4.86119 42.6071 5.09077C42.0212 5.09077 41.7973 4.99053 41.2894 4.7241C41.0927 4.622 41.0927 4.622 40.8919 4.51784C40.7427 4.43844 40.7427 4.43844 40.5904 4.35743C40.7114 4.53893 40.8324 4.72043 40.9571 4.90743C41.6455 5.99534 41.8628 6.92357 41.6905 8.20747C41.3081 9.41501 40.6744 10.3808 39.5592 11.0148C38.9467 11.2991 38.4205 11.369 37.7488 11.4044C36.55 11.4807 35.8035 11.8659 34.9801 12.7336C34.3195 13.6192 34.2188 14.4695 34.2682 15.5581C34.4521 16.6614 34.9711 17.3117 35.8237 18.0044C37.1776 18.7096 38.5081 18.5782 39.9373 18.1763C41.8891 17.5325 43.3384 16.4544 44.303 14.6242C45.1618 12.8764 45.3448 10.7038 44.7978 8.83123C44.5765 8.30428 44.3343 7.79922 44.0738 7.29079C43.9486 6.98646 43.8254 6.68125 43.7071 6.37411C44.8815 7.38068 45.463 8.91686 45.5878 10.4311C45.672 12.9884 44.9167 14.9466 43.1858 16.8242C41.42 18.5032 39.3534 18.9494 36.9982 18.9032C35.0043 18.8 33.3054 17.6863 31.9794 16.2499C30.3739 14.2974 29.9581 12.3555 30.1403 9.85748C30.5378 7.78639 31.6492 6.11816 33.3029 4.82722C35.8608 3.11374 39.0436 2.80754 41.7456 4.42689Z" fill="white"/>
<path d="M16.7559 3.99219C18.4677 4.3976 19.9953 5.67514 20.9726 7.10889C22.1397 9.01056 22.2048 11.2662 21.7611 13.4125C21.1138 15.3736 19.6835 17.0045 17.8674 17.983C16.4192 18.6433 14.7724 18.9556 13.2382 18.4298C12.172 17.9771 11.5045 17.3959 11.0238 16.338C10.7235 15.381 10.6822 14.4006 11.0639 13.4633C11.6417 12.4815 12.3985 11.7681 13.4559 11.3256C13.8746 11.262 14.2951 11.2096 14.7163 11.1652C16.0407 10.988 16.6279 10.7615 17.5351 9.77871C18.3073 8.64797 18.3963 7.53166 18.2226 6.19221C17.9891 5.6362 17.6835 5.19298 17.3059 4.72553C17.1963 4.57428 17.0866 4.42303 16.9736 4.26719C16.8659 4.13106 16.8659 4.13106 16.7559 3.99219Z" fill="#AE7A3F"/>
<path d="M40.2231 4.17383C41.7895 4.57547 43.1893 5.56867 44.0732 6.92386C45.2101 9.12073 45.6154 11.3856 44.8867 13.7989C44.4836 14.8352 43.9135 15.6488 43.1565 16.4573C43.0605 16.5608 42.9646 16.6643 42.8657 16.771C41.5958 17.9914 39.7813 18.6077 38.046 18.6917C36.7988 18.6659 35.9074 18.3393 35.0002 17.4871C34.1416 16.5686 34.0648 15.6505 34.0964 14.4363C34.2468 13.3657 34.7848 12.7065 35.5595 11.9885C36.3027 11.4931 36.8028 11.2886 37.7023 11.2552C38.8635 11.1608 39.7369 10.9242 40.5511 10.0585C41.4693 8.89003 41.6707 7.85168 41.5065 6.37385C41.2244 5.55559 40.7766 4.83803 40.2231 4.17383Z" fill="#AE7A3F"/>
<path d="M120.308 31.2363C122.546 31.2363 124.785 31.2363 127.091 31.2363C127.182 31.6901 127.182 31.6901 127.274 32.153C127.395 32.2135 127.516 32.274 127.641 32.3363C127.641 33.1228 127.641 33.9094 127.641 34.7197C127.399 34.7802 127.157 34.8407 126.908 34.903C126.999 36.0828 126.999 36.0828 127.091 37.2864C127.333 37.3469 127.575 37.4074 127.824 37.4697C127.913 38.6162 127.913 38.6162 127.564 39.1577C126.851 39.6537 126.197 39.5864 125.349 39.5666C125.193 39.5679 125.036 39.5692 124.875 39.5706C124.212 39.5638 123.732 39.5474 123.132 39.2522C122.874 38.9364 122.874 38.9364 122.874 38.2031C122.451 38.2031 122.027 38.2031 121.591 38.2031C121.591 38.3241 121.591 38.4451 121.591 38.5697C121.168 38.5697 120.744 38.5697 120.308 38.5697C120.308 37.3597 120.308 36.1497 120.308 34.903C120.066 34.782 119.824 34.661 119.574 34.5364C119.548 32.9649 119.548 32.9649 119.758 32.3363C119.879 32.3363 120 32.3363 120.124 32.3363C120.185 31.9733 120.245 31.6103 120.308 31.2363ZM124.158 38.2031C124.158 38.2636 124.158 38.3241 124.158 38.3864C124.944 38.3864 125.731 38.3864 126.541 38.3864C126.541 38.3259 126.541 38.2654 126.541 38.2031C125.755 38.2031 124.968 38.2031 124.158 38.2031Z" fill="#AE7A3F"/>
<path d="M138.275 31.0527C138.813 31.1215 138.813 31.1215 139.375 31.2361C139.435 31.3571 139.496 31.4781 139.558 31.6027C139.97 31.7168 139.97 31.7168 140.452 31.7632C140.614 31.7854 140.776 31.8076 140.943 31.8305C141.423 31.8334 141.423 31.8334 141.725 31.4208C141.796 31.2994 141.868 31.1779 141.941 31.0527C142.486 31.1435 142.486 31.1435 143.041 31.2361C143.041 31.4176 143.041 31.5991 143.041 31.7861C143.767 31.7861 144.493 31.7861 145.241 31.7861C145.425 32.7028 145.425 32.7028 145.241 33.0694C144.878 33.0694 144.515 33.0694 144.141 33.0694C144.141 33.2509 144.141 33.4324 144.141 33.6194C144.444 33.6194 144.746 33.6194 145.058 33.6194C145.074 34.3718 145.084 35.1242 145.092 35.8767C145.097 36.0907 145.102 36.3047 145.106 36.5252C145.108 36.7302 145.11 36.9353 145.112 37.1465C145.115 37.3356 145.117 37.5248 145.12 37.7196C145.058 38.2028 145.058 38.2028 144.802 38.5396C144.438 38.8035 144.209 38.8189 143.763 38.833C143.525 38.8671 143.287 38.9011 143.041 38.9362C142.75 39.2883 142.75 39.2883 142.675 39.6695C142.501 39.609 142.327 39.5485 142.148 39.4862C141.617 39.2842 141.617 39.2842 141.208 39.3028C140.966 39.3028 140.724 39.3028 140.475 39.3028C140.414 39.1818 140.354 39.0608 140.291 38.9362C140.046 38.9989 140.046 38.9989 139.796 39.0629C139.581 39.1156 139.366 39.1683 139.145 39.2226C138.933 39.2758 138.72 39.329 138.501 39.3837C137.959 39.4773 137.68 39.4916 137.175 39.3028C137.114 39.0003 137.054 38.6978 136.991 38.3861C137.263 38.2954 137.263 38.2954 137.541 38.2028C137.541 36.7508 137.541 35.2988 137.541 33.8028C137.36 33.7423 137.178 33.6818 136.991 33.6194C137.315 32.7079 137.797 31.8898 138.275 31.0527ZM138.825 32.8861C138.704 33.1281 138.583 33.3701 138.458 33.6194C138.7 33.6194 138.942 33.6194 139.191 33.6194C139.131 33.3774 139.07 33.1354 139.008 32.8861C138.947 32.8861 138.887 32.8861 138.825 32.8861ZM142.308 32.8861C142.247 33.1281 142.187 33.3701 142.125 33.6194C142.367 33.6194 142.609 33.6194 142.858 33.6194C142.797 33.3774 142.737 33.1354 142.675 32.8861C142.554 32.8861 142.433 32.8861 142.308 32.8861ZM140.475 33.0694C140.414 33.2509 140.354 33.4324 140.291 33.6194C140.533 33.5589 140.775 33.4984 141.025 33.4361C140.964 33.3151 140.904 33.1941 140.841 33.0694C140.72 33.0694 140.599 33.0694 140.475 33.0694ZM141.391 33.8028C141.119 34.6527 141.222 35.5075 141.255 36.3881C141.24 36.5634 141.224 36.7388 141.208 36.9195C141.026 37.0405 140.845 37.1615 140.658 37.2861C140.897 37.6563 141.142 38.023 141.391 38.3861C141.452 38.3861 141.512 38.3861 141.575 38.3861C141.575 36.8736 141.575 35.3611 141.575 33.8028C141.514 33.8028 141.454 33.8028 141.391 33.8028ZM142.858 34.7194C142.858 35.6269 142.858 36.5345 142.858 37.4695C143.16 37.4695 143.463 37.4695 143.775 37.4695C143.775 36.562 143.775 35.6544 143.775 34.7194C143.472 34.7194 143.17 34.7194 142.858 34.7194ZM138.825 37.1028C138.825 37.3448 138.825 37.5868 138.825 37.8361C139.127 37.7756 139.43 37.7151 139.741 37.6528C139.681 37.4713 139.62 37.2898 139.558 37.1028C139.316 37.1028 139.074 37.1028 138.825 37.1028Z" fill="#AE7A3F"/>
<path d="M86.2074 31.0527C86.5704 31.1737 86.9334 31.2947 87.3074 31.4194C87.2052 32.0324 87.0596 32.5255 86.7574 33.0694C86.9313 32.9484 87.1053 32.8274 87.2845 32.7028C87.8574 32.3361 87.8574 32.3361 88.2241 32.3361C88.3035 32.1659 88.3035 32.1659 88.3845 31.9923C88.5907 31.6027 88.5907 31.6027 88.9574 31.2361C89.622 31.2132 89.622 31.2132 90.2408 31.2361C90.2861 31.3495 90.3315 31.4629 90.3783 31.5798C90.6558 32.0517 90.8509 32.1084 91.3408 32.3361C91.6318 32.4951 91.9221 32.6555 92.2116 32.8173C92.3581 32.8991 92.5047 32.9809 92.6556 33.0651C92.7662 33.127 92.8768 33.189 92.9908 33.2528C92.8074 34.1694 92.8074 34.1694 92.7122 34.6001C92.6236 35.0889 92.5924 35.5488 92.579 36.045C92.573 36.2224 92.5669 36.3998 92.5607 36.5825C92.5494 36.9544 92.539 37.3263 92.5292 37.6983C92.523 37.8749 92.5167 38.0516 92.5102 38.2336C92.5034 38.4754 92.5034 38.4754 92.4963 38.7222C92.4408 39.1195 92.4408 39.1195 92.0741 39.4862C91.7031 39.5349 91.7031 39.5349 91.272 39.532C91.06 39.5334 91.06 39.5334 90.8438 39.5349C90.3876 39.4819 90.0863 39.3471 89.6907 39.1195C89.6907 38.6355 89.6907 38.1515 89.6907 37.6528C89.6681 37.8872 89.6454 38.1217 89.622 38.3632C89.5532 39.0737 89.5532 39.0737 89.1407 39.4862C88.8987 39.4257 88.6567 39.3652 88.4074 39.3028C88.4074 38.6978 88.4074 38.0928 88.4074 37.4695C88.2864 37.4695 88.1654 37.4695 88.0407 37.4695C88.0407 38.135 88.0407 38.8005 88.0407 39.4862C87.1241 39.6695 87.1241 39.6695 86.574 39.4862C86.4833 39.5769 86.4833 39.5769 86.3907 39.6695C85.9324 39.6924 85.9324 39.6924 85.474 39.6695C85.1836 39.3791 85.2504 39.0687 85.2327 38.6662C85.2212 38.4189 85.2212 38.4189 85.2094 38.1666C85.2022 37.9933 85.195 37.8199 85.1876 37.6413C85.1797 37.4673 85.1717 37.2932 85.1636 37.1139C85.1441 36.6824 85.1254 36.251 85.1074 35.8195C84.9259 35.759 84.7444 35.6984 84.5574 35.6361C84.3969 35.2007 84.3969 35.2007 84.374 34.5361C84.6128 34.0553 84.8937 33.6186 85.1869 33.169C85.5694 32.5479 85.7865 31.9238 86.024 31.2361C86.0845 31.1756 86.145 31.1151 86.2074 31.0527ZM89.3241 32.5194C89.2636 32.7009 89.2031 32.8824 89.1407 33.0694C89.4432 33.0694 89.7457 33.0694 90.0574 33.0694C89.9969 32.8879 89.9364 32.7064 89.8741 32.5194C89.6926 32.5194 89.5111 32.5194 89.3241 32.5194ZM87.6741 33.9861C87.4926 34.2584 87.4926 34.2584 87.3074 34.5361C88.8804 34.5361 90.4534 34.5361 92.0741 34.5361C92.0136 34.4151 91.9531 34.2941 91.8908 34.1694C89.8942 34.2602 89.8942 34.2602 87.8574 34.3528C87.7969 34.2318 87.7364 34.1108 87.6741 33.9861ZM87.8574 35.8195C87.8574 36.001 87.8574 36.1825 87.8574 36.3695C88.0389 36.3695 88.2204 36.3695 88.4074 36.3695C88.4074 36.188 88.4074 36.0065 88.4074 35.8195C88.2259 35.8195 88.0444 35.8195 87.8574 35.8195ZM89.5074 35.8195C89.5074 36.001 89.5074 36.1825 89.5074 36.3695C89.6284 36.3695 89.7494 36.3695 89.8741 36.3695C89.8741 36.188 89.8741 36.0065 89.8741 35.8195C89.7531 35.8195 89.6321 35.8195 89.5074 35.8195ZM90.9741 35.8195C90.9741 36.001 90.9741 36.1825 90.9741 36.3695C91.0951 36.3695 91.2161 36.3695 91.3408 36.3695C91.3408 36.188 91.3408 36.0065 91.3408 35.8195C91.2198 35.8195 91.0988 35.8195 90.9741 35.8195ZM90.9741 37.4695C90.9741 37.772 90.9741 38.0745 90.9741 38.3861C91.0951 38.3861 91.2161 38.3861 91.3408 38.3861C91.3408 38.0836 91.3408 37.7811 91.3408 37.4695C91.2198 37.4695 91.0988 37.4695 90.9741 37.4695Z" fill="#AE7A3F"/>
<path d="M112.974 31.0527C113.277 31.0527 113.579 31.0527 113.891 31.0527C113.951 31.2947 114.012 31.5367 114.074 31.7861C114.558 31.7861 115.042 31.7861 115.541 31.7861C115.601 31.5441 115.662 31.3021 115.724 31.0527C116.027 31.0527 116.329 31.0527 116.641 31.0527C116.732 31.4157 116.732 31.4157 116.824 31.7861C117.49 31.7861 118.155 31.7861 118.841 31.7861C118.932 32.2398 118.932 32.2398 119.024 32.7028C118.843 32.8238 118.661 32.9448 118.474 33.0694C118.565 33.1602 118.565 33.1602 118.658 33.2528C118.665 33.5582 118.665 33.864 118.658 34.1694C118.355 34.2299 118.053 34.2904 117.741 34.3528C118.104 34.3528 118.467 34.3528 118.841 34.3528C119.036 34.7882 119.036 34.7882 119.208 35.2694C119.147 35.3904 119.087 35.5114 119.024 35.6361C118.54 35.6361 118.056 35.6361 117.558 35.6361C117.921 35.7571 118.284 35.8781 118.658 36.0028C118.665 36.3082 118.665 36.614 118.658 36.9195C118.474 37.1028 118.474 37.1028 117.815 37.1207C117.542 37.1196 117.269 37.1173 116.996 37.1143C116.516 37.1105 116.036 37.1067 115.541 37.1028C116.63 37.1633 117.719 37.2238 118.841 37.2861C119.024 38.0195 119.024 38.0195 118.841 38.3861C117.691 38.3861 116.542 38.3861 115.358 38.3861C115.418 38.6886 115.479 38.9912 115.541 39.3028C115.48 39.4238 115.42 39.5448 115.358 39.6695C114.991 39.6773 114.624 39.677 114.258 39.6695C114.074 39.4862 114.074 39.4862 114.063 38.9247C114.067 38.747 114.07 38.5693 114.074 38.3861C113.851 38.3883 113.628 38.3904 113.399 38.3926C113.108 38.3943 112.818 38.396 112.527 38.3976C112.38 38.3991 112.233 38.4007 112.081 38.4023C111.707 38.4038 111.332 38.3957 110.957 38.3861C110.774 38.2028 110.774 38.2028 110.763 37.733C110.766 37.5855 110.77 37.4381 110.774 37.2861C110.895 37.2861 111.016 37.2861 111.141 37.2861C111.099 37.1462 111.058 37.0063 111.015 36.8622C110.996 36.6996 110.977 36.537 110.957 36.3695C111.221 36.0372 111.221 36.0372 111.507 35.8195C111.689 35.88 111.871 35.9405 112.058 36.0028C112.058 35.8818 112.058 35.7608 112.058 35.6361C111.573 35.6361 111.089 35.6361 110.591 35.6361C110.591 35.2731 110.591 34.9101 110.591 34.5361C111.193 34.3895 111.454 34.3351 112.058 34.5361C112.058 34.4151 112.058 34.2941 112.058 34.1694C111.755 34.1694 111.452 34.1694 111.141 34.1694C111.133 33.864 111.133 33.5582 111.141 33.2528C111.201 33.1923 111.262 33.1318 111.324 33.0694C111.752 33.0694 112.18 33.0694 112.608 33.0694C112.668 33.0089 112.729 32.9484 112.791 32.8861C112.125 32.8861 111.46 32.8861 110.774 32.8861C110.774 32.5231 110.774 32.1601 110.774 31.7861C111.44 31.7861 112.105 31.7861 112.791 31.7861C112.851 31.5441 112.912 31.3021 112.974 31.0527ZM114.074 32.8861C114.074 33.0071 114.074 33.1281 114.074 33.2528C114.558 33.1923 115.042 33.1318 115.541 33.0694C115.541 33.0089 115.541 32.9484 115.541 32.8861C115.057 32.8861 114.573 32.8861 114.074 32.8861ZM113.341 34.1694C113.341 34.2904 113.341 34.4114 113.341 34.5361C113.643 34.5361 113.946 34.5361 114.258 34.5361C114.258 34.4151 114.258 34.2941 114.258 34.1694C113.955 34.1694 113.653 34.1694 113.341 34.1694ZM115.358 34.1694C115.358 34.2904 115.358 34.4114 115.358 34.5361C115.721 34.5361 116.084 34.5361 116.458 34.5361C116.458 34.4151 116.458 34.2941 116.458 34.1694C116.095 34.1694 115.732 34.1694 115.358 34.1694ZM113.341 35.6361C113.341 35.7571 113.341 35.8781 113.341 36.0028C113.643 35.9423 113.946 35.8818 114.258 35.8195C114.258 35.759 114.258 35.6984 114.258 35.6361C113.955 35.6361 113.653 35.6361 113.341 35.6361ZM115.358 35.6361C115.418 35.7571 115.479 35.8781 115.541 36.0028C115.843 36.0028 116.146 36.0028 116.458 36.0028C116.458 35.8818 116.458 35.7608 116.458 35.6361C116.095 35.6361 115.732 35.6361 115.358 35.6361ZM111.874 36.9195C111.874 37.0405 111.874 37.1615 111.874 37.2861C112.661 37.2861 113.447 37.2861 114.258 37.2861C113.571 36.943 113.37 36.8755 112.653 36.8965C112.434 36.9015 112.434 36.9015 112.209 36.9066C112.043 36.913 112.043 36.913 111.874 36.9195Z" fill="#AE7A3F"/>
<path d="M135.158 31.2363C135.513 31.2707 135.513 31.2707 135.891 31.4197C136.098 31.7956 136.098 31.7956 136.258 32.153C135.908 32.4563 135.556 32.7577 135.204 33.0582C135.105 33.1441 135.006 33.23 134.904 33.3185C133.99 34.0938 133.99 34.0938 133.324 34.1697C133.385 34.4722 133.445 34.7747 133.508 35.0864C133.636 34.9826 133.764 34.8789 133.896 34.772C134.063 34.6375 134.23 34.503 134.401 34.3645C134.567 34.2305 134.733 34.0965 134.904 33.9584C135.341 33.6197 135.341 33.6197 135.708 33.4364C136.162 33.7994 136.162 33.7994 136.624 34.1697C136.09 34.7211 135.54 35.2543 134.974 35.7739C134.799 35.9369 134.799 35.9369 134.619 36.1033C134.183 36.4107 133.852 36.4995 133.324 36.5531C133.264 36.4925 133.203 36.432 133.141 36.3697C133.081 36.6722 133.02 36.9747 132.958 37.2864C132.837 37.2864 132.716 37.2864 132.591 37.2864C132.652 37.4679 132.712 37.6494 132.774 37.8364C133.757 37.775 134.446 37.1845 135.158 36.5531C135.279 36.3715 135.4 36.19 135.524 36.003C136.05 36.1082 136.232 36.161 136.624 36.5531C136.624 37.1031 136.624 37.1031 136.362 37.3988C135.965 37.7349 135.565 38.0638 135.158 38.3864C135.021 38.4989 134.885 38.6114 134.745 38.7273C133.753 39.4793 133.753 39.4793 133.09 39.4986C132.494 39.3768 132.121 39.2329 131.766 38.7302C131.736 38.6167 131.706 38.5033 131.674 38.3864C131.618 38.5339 131.561 38.6813 131.503 38.8333C131.308 39.3031 131.308 39.3031 131.124 39.4864C130.494 39.5322 130.494 39.5322 129.841 39.4864C129.72 39.3049 129.599 39.1234 129.474 38.9364C129.172 39.1179 128.869 39.2994 128.558 39.4864C128.34 39.0854 128.34 39.0854 128.191 38.5697C128.278 38.4317 128.365 38.2937 128.455 38.1515C128.8 37.5505 128.798 37.1825 128.775 36.4958C128.768 36.2019 128.768 36.2019 128.76 35.9021C128.754 35.7539 128.748 35.6057 128.741 35.453C128.56 35.453 128.378 35.453 128.191 35.453C128.168 34.926 128.168 34.926 128.191 34.353C128.312 34.232 128.433 34.111 128.558 33.9864C128.595 33.4671 128.595 33.4671 128.569 32.8863C128.54 31.8222 128.54 31.8222 128.741 31.4197C130.193 31.4197 131.645 31.4197 133.141 31.4197C133.202 31.8432 133.262 32.2667 133.324 32.703C133.596 32.4931 133.867 32.283 134.138 32.0728C134.289 31.9558 134.44 31.8388 134.596 31.7183C134.952 31.4498 134.952 31.4498 135.158 31.2363ZM131.491 34.1697C131.491 34.2302 131.491 34.2907 131.491 34.353C132.036 34.353 132.58 34.353 133.141 34.353C133.141 34.2925 133.141 34.232 133.141 34.1697C132.597 34.1697 132.052 34.1697 131.491 34.1697ZM130.024 37.8364C129.964 38.0179 129.903 38.1994 129.841 38.3864C129.962 38.3864 130.083 38.3864 130.208 38.3864C130.147 38.2049 130.087 38.0234 130.024 37.8364Z" fill="#AE7A3F"/>
<path d="M79.9623 30.8916C80.1495 30.971 80.1495 30.971 80.3405 31.052C80.3405 31.2335 80.3405 31.415 80.3405 31.602C80.5294 31.5956 80.5294 31.5956 80.7222 31.5891C80.97 31.5842 80.97 31.5842 81.2228 31.5791C81.3866 31.5749 81.5503 31.5706 81.7191 31.5662C82.1738 31.602 82.1738 31.602 82.7238 31.9687C82.6194 32.6335 82.3711 32.9322 81.8874 33.3895C81.7112 33.5583 81.7112 33.5583 81.5314 33.7304C81.4409 33.8146 81.3504 33.8987 81.2572 33.9854C81.4213 34.3743 81.4213 34.3743 81.8072 34.7187C82.2343 34.8024 82.6451 34.8334 83.0798 34.8519C83.4572 34.9021 83.4572 34.9021 83.8238 35.2687C83.7411 36.3394 83.102 36.9392 82.3572 37.6521C81.0394 38.7219 78.9378 39.7052 77.2238 39.6688C76.7769 39.3479 76.7769 39.3479 76.4904 38.9354C76.4904 38.7539 76.4904 38.5724 76.4904 38.3854C76.6058 38.3653 76.7211 38.3453 76.8399 38.3246C77.8776 38.1323 78.8132 37.8669 79.7905 37.4688C79.3928 37.2267 79.3928 37.2267 78.8738 37.1021C78.5027 37.2763 78.1357 37.4596 77.7738 37.6521C77.3384 37.5948 77.3384 37.5948 77.0404 37.4688C77.0253 37.2948 77.0102 37.1209 76.9946 36.9417C76.9492 36.7526 76.9039 36.5635 76.8571 36.3687C76.4965 36.1579 76.4965 36.1579 76.1238 36.0021C76.0092 35.6254 76.0092 35.6254 75.9404 35.2687C76.1597 35.1893 76.3791 35.1099 76.605 35.0281C77.2627 34.7824 77.8849 34.4954 78.5071 34.1687C77.7638 33.9563 77.3671 34.0153 76.6738 34.3521C76.4318 34.1101 76.1898 33.8681 75.9404 33.6187C76.4816 33.0099 77.0665 32.6321 77.758 32.2208C78.1518 31.9612 78.4739 31.6731 78.8165 31.3499C79.355 30.8658 79.355 30.8658 79.9623 30.8916ZM78.8738 33.0687C79.3792 33.487 79.3792 33.487 79.8936 33.401C80.4014 33.2825 80.4014 33.2825 80.7071 32.702C79.6829 32.5913 79.6829 32.5913 78.8738 33.0687ZM80.3405 36.0021C80.3405 36.1836 80.3405 36.3651 80.3405 36.5521C80.5327 36.7815 80.5327 36.7815 80.9592 36.7927C81.4681 36.7855 81.4681 36.7855 81.7728 36.3687C81.8446 36.2477 81.9165 36.1267 81.9905 36.0021C81.446 36.0021 80.9015 36.0021 80.3405 36.0021Z" fill="#AE7A3F"/>
<path d="M97.5629 30.8924C97.7501 30.9718 97.7501 30.9718 97.9411 31.0528C97.9411 31.2343 97.9411 31.4158 97.9411 31.6028C98.13 31.5964 98.13 31.5964 98.3228 31.5899C98.5706 31.5849 98.5706 31.5849 98.8234 31.5799C98.9871 31.5756 99.1509 31.5714 99.3197 31.567C99.7744 31.6028 99.7744 31.6028 100.324 31.9695C100.22 32.6343 99.9717 32.9329 99.488 33.3903C99.3118 33.5591 99.3118 33.5591 99.132 33.7312C99.0415 33.8153 98.951 33.8995 98.8577 33.9862C99.0219 34.3751 99.0219 34.3751 99.4077 34.7195C99.8299 34.7895 100.235 34.8112 100.662 34.8169C101.058 34.9028 101.058 34.9028 101.384 35.2752C101.458 35.3943 101.532 35.5135 101.608 35.6362C99.8601 37.7291 97.9734 39.234 95.191 39.6696C94.7886 39.6251 94.7886 39.6251 94.4577 39.4862C94.091 38.9362 94.091 38.9362 94.091 38.3862C94.2985 38.3354 94.506 38.2846 94.7198 38.2322C94.9915 38.1652 95.2631 38.0981 95.5348 38.031C95.6716 37.9976 95.8085 37.9641 95.9494 37.9297C96.689 37.7533 96.689 37.7533 97.3911 37.4695C96.9934 37.2275 96.9934 37.2275 96.4744 37.1029C96.1033 37.277 95.7363 37.4603 95.3744 37.6529C94.9389 37.5956 94.9389 37.5956 94.641 37.4695C94.6297 37.3372 94.6183 37.2048 94.6067 37.0685C94.4129 36.3976 94.0533 36.096 93.541 35.6362C93.6318 35.3639 93.6318 35.3639 93.7244 35.0862C94.2171 34.8785 94.2171 34.8785 94.8244 34.6966C95.5203 34.5322 95.5203 34.5322 96.1077 34.1695C95.8061 33.9264 95.8061 33.9264 95.3744 33.8028C94.7815 34.0381 94.7815 34.0381 94.2744 34.3528C94.0222 34.1164 93.7779 33.8712 93.541 33.6195C93.541 33.4985 93.541 33.3775 93.541 33.2528C93.8731 33.0413 94.2151 32.8453 94.5608 32.657C95.2649 32.2627 95.8781 31.8841 96.4629 31.3278C97.0244 30.8695 97.0244 30.8695 97.5629 30.8924ZM96.6577 32.7028C96.6577 32.8843 96.6577 33.0658 96.6577 33.2528C96.85 33.4823 96.85 33.4823 97.2765 33.4934C97.7854 33.4863 97.7854 33.4863 98.09 33.0695C98.1619 32.9485 98.2337 32.8275 98.3077 32.7028C97.7632 32.7028 97.2187 32.7028 96.6577 32.7028ZM97.9411 36.0028C97.9411 36.1843 97.9411 36.3658 97.9411 36.5529C98.1831 36.6739 98.4251 36.7949 98.6744 36.9195C98.9769 36.617 99.2794 36.3145 99.5911 36.0028C99.0466 36.0028 98.5021 36.0028 97.9411 36.0028Z" fill="#AE7A3F"/>
<path d="M106.203 31.041C106.469 31.0467 106.469 31.0467 106.741 31.0525C106.942 31.6556 106.888 31.9165 106.741 32.5192C106.964 32.517 107.187 32.5149 107.417 32.5127C107.707 32.511 107.998 32.5093 108.288 32.5077C108.435 32.5062 108.582 32.5046 108.734 32.503C109.109 32.5015 109.483 32.5096 109.858 32.5192C110.312 32.9731 110.075 34.1891 110.076 34.7994C110.078 34.9966 110.08 35.1938 110.082 35.397C110.083 35.5853 110.083 35.7735 110.083 35.9674C110.084 36.141 110.085 36.3146 110.086 36.4934C110.041 36.9192 110.041 36.9192 109.675 37.2859C109.102 37.2171 109.102 37.2171 108.575 37.1025C108.575 36.9815 108.575 36.8605 108.575 36.7359C107.97 36.7359 107.365 36.7359 106.741 36.7359C106.743 36.9323 106.745 37.1286 106.748 37.331C106.749 37.5871 106.751 37.8433 106.753 38.0994C106.754 38.2291 106.756 38.3587 106.757 38.4922C106.759 38.8235 106.751 39.1548 106.741 39.4859C106.558 39.6692 106.558 39.6692 106.099 39.6921C105.641 39.6692 105.641 39.6692 105.458 39.4859C105.444 39.022 105.441 38.5632 105.446 38.0994C105.447 37.9691 105.448 37.8388 105.449 37.7045C105.451 37.3816 105.454 37.0587 105.458 36.7359C104.853 36.7359 104.248 36.7359 103.624 36.7359C103.624 36.9174 103.624 37.0989 103.624 37.2859C103.201 37.2254 102.777 37.1649 102.341 37.1025C102.336 36.373 102.333 35.6435 102.33 34.914C102.328 34.7056 102.327 34.4973 102.325 34.2827C102.324 34.0848 102.324 33.8868 102.323 33.6829C102.322 33.4995 102.321 33.3161 102.32 33.1272C102.341 32.7025 102.341 32.7025 102.524 32.5192C103.019 32.5057 103.508 32.5022 104.003 32.5077C104.142 32.5085 104.281 32.5094 104.424 32.5102C104.769 32.5124 105.113 32.5157 105.458 32.5192C105.452 32.2072 105.452 32.2072 105.446 31.8889C105.461 31.0562 105.461 31.0562 106.203 31.041ZM103.624 33.8025C103.685 34.347 103.745 34.8915 103.808 35.4525C104.352 35.4525 104.897 35.4525 105.458 35.4525C105.458 34.908 105.458 34.3635 105.458 33.8025C104.853 33.8025 104.248 33.8025 103.624 33.8025ZM106.741 33.8025C106.741 34.347 106.741 34.8915 106.741 35.4525C107.346 35.4525 107.951 35.4525 108.575 35.4525C108.575 34.908 108.575 34.3635 108.575 33.8025C107.97 33.8025 107.365 33.8025 106.741 33.8025Z" fill="#AE7A3F"/>
<path d="M117.523 40.9297C117.655 40.9302 117.788 40.9306 117.924 40.9311C118.056 40.9306 118.189 40.9302 118.325 40.9297C118.657 40.954 118.657 40.954 118.841 41.1374C118.854 41.6013 118.858 42.0601 118.852 42.5238C118.851 42.6542 118.851 42.7845 118.85 42.9188C118.848 43.2417 118.844 43.5645 118.841 43.8874C119.022 43.7664 119.204 43.6454 119.391 43.5207C120.01 43.4405 120.01 43.4405 120.674 43.5207C121.201 43.9676 121.201 43.9676 121.591 44.4374C121.651 44.4979 121.712 44.5584 121.774 44.6207C121.85 45.4358 121.869 46.255 121.9 47.0729C121.911 47.3035 121.922 47.5342 121.933 47.7718C121.942 47.9925 121.951 48.2133 121.96 48.4407C121.968 48.644 121.976 48.8474 121.985 49.0569C121.957 49.5708 121.957 49.5708 121.591 50.1208C121.234 50.1745 121.234 50.1745 120.835 50.1552C120.6 50.1438 120.366 50.1325 120.124 50.1208C119.824 49.4618 119.713 48.9548 119.722 48.2323C119.723 47.9638 119.723 47.9638 119.725 47.6898C119.728 47.5051 119.731 47.3204 119.735 47.1301C119.736 46.9419 119.738 46.7537 119.74 46.5597C119.744 46.0967 119.75 45.6337 119.757 45.1707C119.576 45.2312 119.394 45.2917 119.207 45.3541C119.008 45.8713 119.008 46.3529 119.026 46.9017C119.029 47.054 119.032 47.2063 119.035 47.3633C119.043 47.6822 119.053 48.0012 119.063 48.32C119.066 48.4721 119.069 48.6242 119.071 48.7809C119.077 48.9885 119.077 48.9885 119.084 49.2002C119.024 49.5708 119.024 49.5708 118.838 49.9066C118.232 50.2633 117.684 50.0594 117.007 49.9375C117.003 48.6876 117 47.4376 116.997 46.1877C116.996 45.7622 116.995 45.3366 116.994 44.911C116.991 44.3008 116.99 43.6905 116.989 43.0803C116.989 42.8888 116.988 42.6972 116.987 42.4999C116.987 42.3237 116.987 42.1475 116.987 41.966C116.986 41.8101 116.986 41.6542 116.985 41.4935C117.014 41.0259 117.055 40.964 117.523 40.9297Z" fill="#AE7A3F"/>
<path d="M78.8738 51.5861C79.0571 51.7694 79.0571 51.7694 79.0686 52.3309C79.0648 52.5086 79.061 52.6863 79.0571 52.8694C78.5731 52.9904 78.0891 53.1114 77.5905 53.2361C77.2366 54.412 77.2072 55.1818 77.5905 56.3528C78.014 56.4133 78.4375 56.4738 78.8738 56.5361C78.9532 56.366 79.0326 56.1958 79.1144 56.0205C79.5093 55.2747 79.7234 54.9696 80.5238 54.7028C80.1608 54.5818 79.7978 54.4608 79.4238 54.3361C79.4843 54.0336 79.5448 53.7311 79.6072 53.4194C80.4189 53.0908 80.9602 52.9783 81.8072 53.2361C82.1975 53.4903 82.1975 53.4903 82.5405 53.9694C82.663 54.6208 82.6766 55.2673 82.6895 55.9288C82.6965 56.1076 82.7034 56.2864 82.7106 56.4706C82.7414 57.4122 82.7414 57.4122 82.7239 57.8195C82.3609 58.1824 81.683 58.045 81.1884 58.0486C81.0627 58.0524 80.937 58.0562 80.8074 58.0601C79.8747 58.0674 79.8747 58.0674 79.4281 57.7249C79.3662 57.6351 79.3043 57.5453 79.2405 57.4528C79.1195 57.6343 78.9985 57.8158 78.8738 58.0028C78.0535 58.1849 77.3585 58.0652 76.605 57.7163C75.836 57.0022 75.6137 56.4302 75.5222 55.4118C75.4666 53.3789 75.4666 53.3789 76.1238 52.5027C77.0015 51.6054 77.6441 51.2537 78.8738 51.5861ZM80.5238 55.9861C80.5843 56.2886 80.6448 56.5911 80.7072 56.9028C80.8282 56.8423 80.9492 56.7818 81.0738 56.7195C81.0738 56.417 81.0738 56.1145 81.0738 55.8028C80.8495 55.7891 80.8495 55.7891 80.5238 55.9861Z" fill="#AE7A3F"/>
<path d="M126.741 43.4949C127.091 43.5192 127.091 43.5192 127.457 43.7025C127.578 43.642 127.699 43.5815 127.824 43.5192C129.124 43.3914 129.124 43.3914 129.829 43.9317C130.618 44.9833 130.424 46.2192 130.425 47.4838C130.427 47.6961 130.43 47.9083 130.432 48.1269C130.432 48.4304 130.432 48.4304 130.433 48.74C130.434 48.9254 130.435 49.1108 130.435 49.3019C130.391 49.7526 130.391 49.7526 130.024 50.1193C129.48 50.0588 128.935 49.9983 128.374 49.9359C128.314 48.4234 128.253 46.9109 128.191 45.3526C128.009 45.4131 127.828 45.4736 127.641 45.5359C127.58 46.9879 127.52 48.4399 127.457 49.9359C125.991 50.1193 125.991 50.1193 125.441 49.9359C125.436 49.0516 125.433 48.1672 125.431 47.2828C125.43 46.9817 125.428 46.6806 125.427 46.3796C125.425 45.9477 125.424 45.5159 125.423 45.084C125.422 44.9486 125.421 44.8132 125.42 44.6737C125.42 44.3499 125.429 44.0261 125.441 43.7025C125.789 43.3544 126.279 43.4965 126.741 43.4949Z" fill="#AE7A3F"/>
<path d="M98.5138 43.429C99.1286 43.7498 99.4065 44.0351 99.7742 44.6207C100.032 45.6304 99.9913 46.6448 99.9919 47.6801C99.9942 47.874 99.9964 48.0679 99.9987 48.2677C99.9993 48.5451 99.9993 48.5451 99.9998 48.8281C100.001 48.997 100.001 49.1659 100.002 49.3399C99.9575 49.7541 99.9575 49.7541 99.5909 50.1208C99.0464 50.0603 98.5019 49.9998 97.9409 49.9374C97.8501 47.5779 97.8501 47.5779 97.7575 45.1707C97.576 45.2312 97.3945 45.2917 97.2075 45.3541C97.147 46.8061 97.0865 48.2581 97.0242 49.7541C95.7867 50.1666 95.7867 50.1666 95.0075 49.9374C94.9723 49.0826 94.9395 48.2277 94.909 47.3727C94.8983 47.0818 94.8869 46.7908 94.8748 46.4999C94.8576 46.0822 94.8428 45.6645 94.8285 45.2466C94.8226 45.1162 94.8167 44.9857 94.8106 44.8514C94.8008 44.5301 94.8108 44.2085 94.8242 43.8874C95.1908 43.5207 95.1908 43.5207 95.8325 43.4749C96.4742 43.5207 96.4742 43.5207 96.8408 43.8874C96.9997 43.7891 97.1585 43.6908 97.3221 43.5895C97.9409 43.3374 97.9409 43.3374 98.5138 43.429Z" fill="#AE7A3F"/>
<path d="M93.4837 44.0019C94.245 44.7838 94.4855 45.6615 94.515 46.7404C94.4726 47.7657 94.3319 48.5594 93.6441 49.353C92.9225 49.969 92.5004 50.2053 91.5358 50.1787C90.7136 50.0526 90.2065 49.5876 89.7253 48.9405C89.1441 47.6863 89.1661 46.4098 89.6222 45.1248C90.0396 44.1612 90.5704 43.7775 91.5243 43.3602C92.2749 43.3133 92.855 43.6218 93.4837 44.0019ZM91.5243 45.1706C91.3177 45.7485 91.3107 46.3144 91.3066 46.9238C91.304 47.098 91.3014 47.2721 91.2987 47.4516C91.3073 47.9651 91.3073 47.9651 91.7076 48.4707C91.8891 48.4707 92.0706 48.4707 92.2576 48.4707C92.4313 47.8815 92.4711 47.3423 92.4754 46.729C92.478 46.5569 92.4806 46.3849 92.4832 46.2076C92.44 45.7097 92.3282 45.4128 92.0743 44.9873C91.85 44.9736 91.85 44.9736 91.5243 45.1706Z" fill="#AE7A3F"/>
<path d="M84.3742 43.8868C85.4141 45.1346 85.3927 46.3589 85.2909 47.9202C85.1319 48.691 84.7818 49.1588 84.2482 49.7421C83.4466 50.2412 83.1053 50.2385 82.1742 50.1202C81.415 49.7924 80.995 49.3262 80.5242 48.6535C80.1337 47.4821 80.1216 46.0135 80.6502 44.8837C81.0636 44.1914 81.5596 43.6729 82.3346 43.3984C83.0693 43.2823 83.7247 43.5537 84.3742 43.8868ZM82.7242 44.9868C82.2821 45.3472 82.2821 45.3472 82.3217 46.031C82.3242 46.3017 82.3285 46.5724 82.3346 46.8431C82.3363 46.9814 82.3379 47.1196 82.3396 47.2621C82.344 47.6037 82.3505 47.9453 82.3575 48.2869C82.7143 48.3952 82.7143 48.3952 83.0909 48.4702C83.5364 48.0247 83.4435 47.0511 83.4576 46.4535C83.3889 45.9737 83.2747 45.625 83.0909 45.1702C82.9699 45.1097 82.8489 45.0492 82.7242 44.9868Z" fill="#AE7A3F"/>
<path d="M107.658 43.5204C108.411 43.9808 108.914 44.4836 109.221 45.3266C109.513 46.6526 109.457 47.8996 108.788 49.09C108.392 49.6402 108.128 49.9026 107.474 50.1205C106.247 50.2637 106.247 50.2637 105.64 49.9006C105.066 49.4242 104.617 48.998 104.358 48.2872C104.302 47.6526 104.302 47.6526 104.3 46.9351C104.297 46.6992 104.294 46.4633 104.291 46.2203C104.388 45.2245 104.721 44.6417 105.389 43.91C106.178 43.4133 106.749 43.3201 107.658 43.5204ZM106.741 44.9871C106.113 45.615 106.197 46.5136 106.191 47.3705C106.333 48.0162 106.333 48.0162 106.558 48.4705C106.739 48.4705 106.921 48.4705 107.108 48.4705C107.378 47.9289 107.329 47.4343 107.337 46.8319C107.342 46.6034 107.346 46.3749 107.351 46.1394C107.346 45.5418 107.346 45.5418 107.013 45.1812C106.923 45.1172 106.834 45.0531 106.741 44.9871Z" fill="#AE7A3F"/>
<path d="M77.7024 41.0782C77.9075 41.0788 78.1127 41.0794 78.324 41.08C78.6317 41.0755 78.6317 41.0755 78.9456 41.071C79.2392 41.0708 79.2392 41.0708 79.5386 41.0707C79.7187 41.0701 79.8988 41.0696 80.0843 41.069C80.302 41.1028 80.302 41.1028 80.524 41.1373C80.946 41.7702 80.9539 42.0443 80.8907 42.7873C80.7697 42.9083 80.6487 43.0293 80.524 43.1539C80.1005 43.1539 79.677 43.1539 79.2407 43.1539C79.2407 45.3925 79.2407 47.631 79.2407 49.9373C78.6883 50.2136 78.1988 50.1533 77.5907 50.1207C77.224 49.754 77.224 49.754 77.1824 49.1065C77.1824 48.8292 77.1845 48.5518 77.1882 48.2744C77.189 48.0555 77.189 48.0555 77.1898 47.8321C77.1918 47.365 77.1964 46.8981 77.2011 46.4311C77.2029 46.1148 77.2046 45.7985 77.2061 45.4822C77.2101 44.7061 77.2165 43.93 77.224 43.1539C77.0501 43.1577 76.8761 43.1615 76.6969 43.1654C76.124 43.1539 76.124 43.1539 75.7573 42.9706C75.7215 41.8606 75.7215 41.8606 75.7573 41.5039C76.3261 40.9352 76.9257 41.0833 77.7024 41.0782Z" fill="#AE7A3F"/>
<path d="M134.425 43.5206C135.183 43.9564 135.434 44.3589 135.708 45.1706C135.79 45.6884 135.79 45.6884 135.834 46.2133C135.85 46.3879 135.866 46.5626 135.882 46.7425C135.891 47.1873 135.891 47.1873 135.708 47.5539C134.8 47.5539 133.893 47.5539 132.958 47.5539C133.018 47.7959 133.079 48.0379 133.141 48.2873C133.353 48.2777 133.353 48.2777 133.57 48.2679C133.753 48.263 133.937 48.258 134.127 48.2529C134.401 48.2433 134.401 48.2433 134.681 48.2336C134.838 48.2513 134.996 48.269 135.158 48.2873C135.552 48.8791 135.561 49.0727 135.525 49.754C134.742 50.1453 134.002 50.2274 133.141 50.1206C132.176 49.78 131.705 49.2832 131.125 48.4706C130.703 47.1498 130.887 45.9022 131.445 44.6528C132.111 43.4967 133.194 43.2958 134.425 43.5206ZM133.325 44.9872C132.907 45.5033 132.907 45.5033 132.958 46.0872C133.321 46.0872 133.684 46.0872 134.058 46.0872C133.937 45.7242 133.816 45.3612 133.691 44.9872C133.57 44.9872 133.449 44.9872 133.325 44.9872Z" fill="#AE7A3F"/>
<path d="M115.278 41.1016C115.493 41.0977 115.493 41.0977 115.714 41.0938C116.091 41.136 116.091 41.136 116.458 41.5027C116.452 42.0029 116.354 42.4737 116.274 42.9694C116.148 42.9788 116.023 42.9883 115.893 42.998C114.942 43.0916 114.942 43.0916 114.197 43.6225C113.723 44.7804 113.698 46.1768 114.063 47.3694C114.374 47.9414 114.374 47.9414 114.832 48.0469C115.127 48.099 115.422 48.1473 115.718 48.1915C116.091 48.2861 116.091 48.2861 116.389 48.7215C116.459 49.2097 116.482 49.4889 116.274 49.9361C115.481 50.2006 114.703 50.2794 113.909 49.9941C112.952 49.4894 112.27 48.8025 111.854 47.7898C111.45 46.2927 111.423 44.3388 112.166 42.9515C112.983 41.8494 113.878 41.1132 115.278 41.1016Z" fill="#AE7A3F"/>
<path d="M143.591 43.5207C144.235 43.839 144.609 44.2813 144.943 44.9187C145.108 45.8066 145.08 46.6514 145.058 47.5541C144.09 47.5541 143.122 47.5541 142.125 47.5541C142.564 48.3195 142.564 48.3195 143.076 48.3462C143.22 48.3343 143.363 48.3225 143.511 48.3104C143.947 48.2774 143.947 48.2774 144.325 48.2874C144.76 48.7233 144.814 48.9663 144.875 49.5708C144.333 50.1122 143.923 50.1096 143.167 50.1666C142.264 50.1054 141.592 49.9399 140.924 49.2979C140.189 48.3319 140.158 47.336 140.201 46.1526C140.329 45.2822 140.623 44.718 141.208 44.0707C141.314 43.9497 141.42 43.8287 141.529 43.7041C142.212 43.4002 142.859 43.3862 143.591 43.5207ZM142.491 44.9874C142.37 45.3504 142.249 45.7134 142.125 46.0874C142.488 46.0874 142.851 46.0874 143.225 46.0874C143.164 45.7244 143.104 45.3614 143.041 44.9874C142.86 44.9874 142.678 44.9874 142.491 44.9874Z" fill="#AE7A3F"/>
<path d="M118.749 53.179C119.267 53.4513 119.454 53.6567 119.757 54.153C119.82 54.5897 119.82 54.5897 119.811 55.0668C119.809 55.2382 119.807 55.4095 119.806 55.586C119.801 55.7635 119.796 55.941 119.792 56.1239C119.788 56.3944 119.788 56.3944 119.784 56.6703C119.778 57.1147 119.769 57.5588 119.757 58.0031C119.273 58.0031 118.789 58.0031 118.291 58.0031C118.23 56.914 118.17 55.825 118.107 54.703C117.986 54.6425 117.865 54.582 117.741 54.5197C117.741 55.6692 117.741 56.8187 117.741 58.0031C117.257 58.0031 116.773 58.0031 116.274 58.0031C116.091 57.8197 116.091 57.8197 116.07 57.496C116.071 57.3587 116.072 57.2214 116.073 57.0799C116.073 56.9316 116.074 56.7833 116.074 56.6305C116.076 56.4747 116.078 56.3188 116.079 56.1582C116.08 56.0017 116.081 55.8451 116.082 55.6838C116.084 55.2958 116.087 54.9077 116.091 54.5197C115.97 54.5197 115.849 54.5197 115.724 54.5197C115.663 55.6692 115.603 56.8187 115.541 58.0031C115.117 58.0031 114.694 58.0031 114.257 58.0031C113.943 57.6885 114.05 57.2745 114.05 56.8458C114.049 56.6487 114.049 56.4516 114.049 56.2485C114.05 55.9372 114.05 55.9372 114.051 55.6197C114.05 55.4122 114.05 55.2047 114.049 54.9909C114.049 54.7938 114.049 54.5967 114.05 54.3936C114.05 54.2114 114.05 54.0292 114.05 53.8415C114.074 53.4197 114.074 53.4197 114.257 53.2363C114.706 53.2228 115.149 53.2194 115.598 53.2249C115.722 53.2257 115.846 53.2265 115.974 53.2274C116.319 53.2297 116.663 53.233 117.007 53.2363C117.656 53.2363 118.141 53.0119 118.749 53.179Z" fill="#AE7A3F"/>
<path d="M133.508 52.136C133.508 52.499 133.508 52.862 133.508 53.236C133.75 53.236 133.992 53.236 134.241 53.236C134.241 53.599 134.241 53.962 134.241 54.336C133.999 54.336 133.757 54.336 133.508 54.336C133.508 55.1225 133.508 55.909 133.508 56.7194C133.75 56.7799 133.992 56.8404 134.241 56.9027C134.249 57.2082 134.248 57.5139 134.241 57.8194C134.058 58.0027 134.058 58.0027 133.45 58.0486C132.774 58.0027 132.774 58.0027 132.339 57.8194C131.62 56.9343 131.841 55.4217 131.858 54.336C131.313 54.457 130.769 54.578 130.208 54.7027C130.35 54.8424 130.35 54.8424 130.495 54.9849C131.482 56.0167 131.482 56.0167 131.525 56.7652C131.263 57.3726 131.139 57.6447 130.574 58.0027C129.958 58.0627 129.358 58.0451 128.741 58.0027C128.535 57.1319 128.535 57.1319 128.741 56.7194C129.164 56.7194 129.588 56.7194 130.024 56.7194C129.884 56.587 129.744 56.4547 129.6 56.3183C129.151 55.8477 128.824 55.4775 128.558 54.886C128.572 54.2858 128.693 54.031 129.062 53.5569C129.534 53.1898 129.796 53.0817 130.391 53.0527C130.699 53.1698 131.004 53.2916 131.308 53.4194C131.489 53.3589 131.671 53.2984 131.858 53.236C131.88 53.0886 131.903 52.9411 131.926 52.7891C131.983 52.5566 131.983 52.5566 132.041 52.3193C132.538 52.071 132.959 52.1241 133.508 52.136Z" fill="#AE7A3F"/>
<path d="M102.89 42.0525C103.074 42.2358 103.074 42.2358 103.085 42.889C103.082 43.0969 103.078 43.3049 103.074 43.5192C103.618 43.6099 103.618 43.6099 104.174 43.7025C104.174 44.1865 104.174 44.6705 104.174 45.1692C103.75 45.1692 103.327 45.1692 102.89 45.1692C102.951 46.1977 103.011 47.2262 103.074 48.2859C103.376 48.3464 103.679 48.4069 103.991 48.4692C104.233 49.4592 104.233 49.4592 103.991 49.913C103.421 50.2334 102.982 50.1856 102.34 50.1192C101.841 49.8973 101.532 49.7278 101.223 49.2742C100.987 48.6506 100.964 48.0283 100.931 47.3692C100.922 47.2388 100.914 47.1083 100.905 46.9739C100.869 46.3401 100.848 45.7742 101.057 45.1692C100.815 45.1087 100.573 45.0482 100.324 44.9859C100.153 44.5081 100.113 44.3182 100.312 43.84C100.377 43.7341 100.441 43.6283 100.507 43.5192C100.689 43.5192 100.87 43.5192 101.057 43.5192C101.057 43.1562 101.057 42.7932 101.057 42.4192C101.68 42.036 102.167 42.0042 102.89 42.0525Z" fill="#AE7A3F"/>
<path d="M94.0101 51.3926C94.218 51.3964 94.426 51.4001 94.6403 51.404C94.6709 52.3145 94.7004 53.225 94.7287 54.1355C94.7385 54.4455 94.7486 54.7555 94.7591 55.0654C94.7741 55.51 94.7879 55.9546 94.8014 56.3992C94.8064 56.5386 94.8113 56.678 94.8164 56.8217C94.826 57.1546 94.8258 57.4877 94.8236 57.8208C94.4597 58.1846 93.7946 58.0627 93.2996 58.0729C93.1133 58.0831 93.1133 58.0831 92.9233 58.0936C92.557 58.1001 92.557 58.1001 91.8902 58.0041C91.1573 57.296 90.9461 56.6538 90.9277 55.6551C90.9365 54.6512 91.1692 53.9584 91.8902 53.2374C92.5548 53.2145 92.5548 53.2145 93.1736 53.2374C93.1715 53.1204 93.1693 53.0034 93.1671 52.8829C93.1655 52.7314 93.1638 52.5799 93.1621 52.4238C93.16 52.2728 93.1579 52.1218 93.1557 51.9662C93.1869 51.3062 93.325 51.4046 94.0101 51.3926ZM92.6236 54.5207C92.5877 54.7841 92.5537 55.0477 92.5205 55.3114C92.5013 55.4581 92.4822 55.6049 92.4625 55.7561C92.4132 56.2016 92.4132 56.2016 92.6236 56.7208C92.8051 56.6603 92.9866 56.5998 93.1736 56.5374C93.1736 55.9324 93.1736 55.3274 93.1736 54.7041C92.9921 54.6436 92.8106 54.5831 92.6236 54.5207Z" fill="#AE7A3F"/>
<path d="M138.48 43.4736C138.64 43.4726 138.799 43.4717 138.963 43.4707C139.374 43.5194 139.374 43.5194 139.741 43.8861C139.672 44.5507 139.672 44.5507 139.558 45.1694C139.074 45.1694 138.59 45.1694 138.091 45.1694C138.301 45.7994 138.507 45.9641 139.008 46.384C139.14 46.496 139.272 46.6081 139.409 46.7235C139.518 46.8156 139.628 46.9078 139.741 47.0028C140.027 47.2887 139.976 47.5691 139.993 47.9653C139.986 48.655 139.952 48.8002 139.512 49.3747C138.621 50.0428 138.13 50.1994 136.991 50.1195C136.452 49.9361 136.452 49.9361 136.074 49.7528C136.135 49.3293 136.195 48.9058 136.258 48.4695C136.935 48.2952 137.413 48.2952 138.091 48.4695C138.022 47.9751 137.948 47.7737 137.575 47.4303C137.443 47.3384 137.311 47.2464 137.174 47.1517C137.042 47.0584 136.91 46.965 136.773 46.8689C136.664 46.792 136.554 46.7152 136.441 46.6361C136.155 46.35 136.22 46.0697 136.212 45.6736C136.221 44.9294 136.312 44.4697 136.808 43.8861C137.375 43.5328 137.817 43.4696 138.48 43.4736Z" fill="#AE7A3F"/>
<path d="M88.5908 43.3359C88.8328 43.3964 89.0748 43.4569 89.3241 43.5193C89.3241 44.1848 89.3241 44.8503 89.3241 45.536C88.9006 45.5965 88.4771 45.657 88.0408 45.7193C88.0427 45.833 88.0446 45.9468 88.0466 46.064C88.0542 46.5793 88.059 47.0946 88.0637 47.6099C88.0683 47.8785 88.0683 47.8785 88.073 48.1524C88.0742 48.3244 88.0754 48.4963 88.0766 48.6734C88.0785 48.8318 88.0804 48.9903 88.0824 49.1535C88.0408 49.5693 88.0408 49.5693 87.6741 50.1193C87.1296 50.0588 86.5851 49.9983 86.0241 49.936C85.9889 49.0812 85.9561 48.2263 85.9256 47.3713C85.9149 47.0803 85.9035 46.7894 85.8914 46.4985C85.8742 46.0808 85.8594 45.663 85.8451 45.2452C85.8392 45.1148 85.8333 44.9843 85.8272 44.8499C85.8174 44.5287 85.8274 44.207 85.8408 43.8859C86.2074 43.5193 86.2074 43.5193 86.8491 43.4734C87.4908 43.5193 87.4908 43.5193 87.8575 43.8859C88.0163 43.7441 88.0163 43.7441 88.1783 43.5995C88.3144 43.5125 88.4505 43.4255 88.5908 43.3359Z" fill="#AE7A3F"/>
<path d="M104.174 53.4195C104.56 53.9996 104.593 54.1886 104.623 54.8589C104.631 55.03 104.639 55.2011 104.647 55.3774C104.656 55.6447 104.656 55.6447 104.666 55.9174C104.675 56.097 104.684 56.2766 104.693 56.4617C104.734 57.44 104.734 57.44 104.724 57.8195C104.54 58.0029 104.54 58.0029 103.899 58.0258C103.257 58.0029 103.257 58.0029 103.074 57.8195C103.058 57.5734 103.054 57.3264 103.056 57.0797C103.056 56.9314 103.057 56.7831 103.058 56.6303C103.059 56.4745 103.061 56.3186 103.062 56.158C103.063 56.0015 103.064 55.8449 103.065 55.6836C103.067 55.2955 103.07 54.9075 103.074 54.5195C102.892 54.5195 102.711 54.5195 102.524 54.5195C102.526 54.7402 102.528 54.9609 102.53 55.1884C102.532 55.4772 102.534 55.7661 102.535 56.0549C102.537 56.2005 102.538 56.3461 102.54 56.4961C102.544 57.5946 102.544 57.5946 102.34 58.0029C101.913 58.0106 101.485 58.0104 101.057 58.0029C100.742 57.6883 100.85 57.2743 100.849 56.8455C100.849 56.6484 100.849 56.4513 100.849 56.2483C100.85 55.937 100.85 55.937 100.851 55.6195C100.85 55.412 100.849 55.2045 100.849 54.9907C100.849 54.7936 100.849 54.5965 100.849 54.3934C100.85 54.2112 100.85 54.029 100.85 53.8413C100.874 53.4195 100.874 53.4195 101.057 53.2361C101.423 53.2361 101.79 53.2368 102.156 53.2476C103.66 53.2008 103.66 53.2008 104.174 53.4195Z" fill="#AE7A3F"/>
<path d="M85.7485 53.1793C86.2659 53.4509 86.4525 53.6595 86.7569 54.1533C86.8222 54.5702 86.8222 54.5702 86.817 55.0205C86.8161 55.1828 86.8151 55.345 86.8141 55.5122C86.8104 55.6801 86.8066 55.848 86.8027 56.021C86.8017 56.1911 86.8008 56.3611 86.7998 56.5363C86.7851 57.7917 86.7851 57.7917 86.5735 58.0033C86.0235 58.0262 86.0235 58.0262 85.4735 58.0033C85.2902 57.82 85.2902 57.82 85.2694 57.4962C85.2703 57.359 85.2713 57.2217 85.2723 57.0802C85.2729 56.9319 85.2734 56.7836 85.2741 56.6308C85.2756 56.475 85.2771 56.3191 85.2787 56.1585C85.2795 56.0019 85.2804 55.8454 85.2812 55.6841C85.2834 55.296 85.2867 54.908 85.2902 54.52C85.1087 54.52 84.9272 54.52 84.7402 54.52C84.7423 54.7407 84.7444 54.9614 84.7466 55.1888C84.7483 55.4777 84.75 55.7665 84.7516 56.0554C84.7532 56.201 84.7547 56.3465 84.7563 56.4965C84.7609 57.5951 84.7609 57.5951 84.5568 58.0033C84.1291 58.0111 83.7012 58.0108 83.2735 58.0033C83.0901 57.82 83.0901 57.82 83.0693 57.3784C83.0703 57.1874 83.0713 56.9963 83.0722 56.7995C83.0728 56.5933 83.0734 56.3871 83.074 56.1746C83.0756 55.9576 83.0771 55.7405 83.0787 55.5168C83.0795 55.2991 83.0803 55.0813 83.0812 54.8569C83.0834 54.3168 83.0864 53.7767 83.0901 53.2366C83.2592 53.2398 83.2592 53.2398 83.4318 53.2431C83.654 53.2455 83.654 53.2455 83.8808 53.2481C84.0275 53.2502 84.1743 53.2523 84.3255 53.2545C84.8836 53.2304 85.1933 53.0266 85.7485 53.1793Z" fill="#AE7A3F"/>
<path d="M126.174 34.9023C126.416 34.9023 126.658 34.9023 126.907 34.9023C126.968 35.6889 127.028 36.4754 127.091 37.2857C127.333 37.3462 127.575 37.4067 127.824 37.469C127.912 38.6155 127.912 38.6155 127.563 39.157C126.85 39.653 126.197 39.5858 125.349 39.5659C125.192 39.5672 125.036 39.5685 124.874 39.5699C124.205 39.5631 123.732 39.5503 123.132 39.2401C122.874 38.9357 122.874 38.9357 122.874 38.3857C122.995 38.3857 123.116 38.3857 123.241 38.3857C123.241 37.5992 123.241 36.8127 123.241 36.0024C123.785 36.0931 123.785 36.0931 124.341 36.1857C124.341 36.1252 124.341 36.0647 124.341 36.0024C124.825 35.9419 125.309 35.8814 125.807 35.819C125.928 35.5165 126.049 35.214 126.174 34.9023ZM124.157 38.2024C124.157 38.2629 124.157 38.3234 124.157 38.3857C124.944 38.3857 125.73 38.3857 126.541 38.3857C126.541 38.3252 126.541 38.2647 126.541 38.2024C125.754 38.2024 124.968 38.2024 124.157 38.2024Z" fill="#AE7A3F"/>
<path d="M142.491 53.2373C143.017 53.6526 143.195 53.8822 143.408 54.5207C143.425 54.7766 143.432 55.0333 143.432 55.2898C143.433 55.5092 143.433 55.5092 143.433 55.7331C143.432 55.8851 143.432 56.037 143.431 56.1936C143.432 56.4237 143.432 56.4237 143.433 56.6584C143.431 57.7975 143.431 57.7975 143.225 58.004C142.774 58.0421 142.335 58.0635 141.884 58.0728C141.76 58.0796 141.636 58.0865 141.508 58.0936C140.813 58.1058 140.535 58.062 140.026 57.5751C139.672 56.9681 139.614 56.6798 139.741 55.9873C140.187 55.3617 140.569 54.9466 141.208 54.5207C140.906 54.5207 140.603 54.5207 140.291 54.5207C140.177 54.0852 140.177 54.0852 140.108 53.604C140.822 52.8901 141.543 53.0172 142.491 53.2373ZM141.575 55.804C141.454 55.925 141.333 56.046 141.208 56.1707C141.266 56.5572 141.266 56.5572 141.391 56.904C141.512 56.8435 141.633 56.783 141.758 56.7207C141.758 56.4182 141.758 56.1157 141.758 55.804C141.698 55.804 141.637 55.804 141.575 55.804Z" fill="#AE7A3F"/>
<path d="M99.9575 53.4193C100.646 54.2255 100.613 55.1127 100.645 56.1235C100.653 56.2839 100.661 56.4444 100.669 56.6097C100.705 57.4676 100.705 57.4676 100.691 57.8193C100.328 58.1819 99.6604 58.053 99.1668 58.0599C98.9805 58.0679 98.9805 58.0679 98.7905 58.076C98.1667 58.084 97.8191 58.0473 97.3084 57.6775C96.9595 57.1766 96.9213 56.7687 96.9518 56.1636C97.0662 55.5926 97.341 55.2786 97.7574 54.8859C97.9389 54.8254 98.1204 54.7649 98.3074 54.7026C97.9444 54.5816 97.5814 54.4606 97.2074 54.3359C97.2679 54.0334 97.3284 53.7309 97.3908 53.4193C98.2841 53.0173 99.0839 52.9443 99.9575 53.4193ZM98.6741 55.8026C98.4709 56.1479 98.4709 56.1479 98.3074 56.536C98.3679 56.657 98.4284 56.778 98.4908 56.9026C98.6723 56.8421 98.8538 56.7816 99.0408 56.7193C99.0408 56.4168 99.0408 56.1143 99.0408 55.8026C98.9198 55.8026 98.7988 55.8026 98.6741 55.8026Z" fill="#AE7A3F"/>
<path d="M89.6905 53.2373C90.1155 53.584 90.3631 53.8493 90.6071 54.3373C90.6225 54.6163 90.6268 54.8959 90.625 55.1752C90.6244 55.3395 90.6239 55.5037 90.6232 55.673C90.6217 55.8448 90.6202 56.0166 90.6186 56.1936C90.6178 56.3668 90.6169 56.5401 90.6161 56.7185C90.6139 57.1471 90.6109 57.5755 90.6071 58.004C90.1639 58.0239 89.7215 58.0384 89.278 58.0499C89.0904 58.0591 89.0904 58.0591 88.8991 58.0685C88.2602 58.0809 87.9257 58.0571 87.4131 57.661C87.0604 57.1853 86.9404 56.95 86.9404 56.354C87.1966 55.6928 87.4836 55.1921 88.0863 54.8071C88.1922 54.7731 88.298 54.7391 88.4071 54.704C88.2596 54.6586 88.1122 54.6133 87.9602 54.5665C87.4904 54.3373 87.4904 54.3373 87.3186 53.9707C87.3148 53.8497 87.311 53.7287 87.3071 53.604C88.0209 52.8901 88.7424 53.0172 89.6905 53.2373ZM88.7738 55.804C88.5361 55.9995 88.5361 55.9995 88.579 56.4571C88.5828 56.6046 88.5866 56.7521 88.5904 56.904C88.7719 56.8435 88.9535 56.783 89.1405 56.7207C89.1405 56.4182 89.1405 56.1157 89.1405 55.804C89.0195 55.804 88.8985 55.804 88.7738 55.804Z" fill="#AE7A3F"/>
<path d="M123.551 51.483C123.767 51.5017 123.983 51.5204 124.206 51.5396C124.372 51.555 124.537 51.5703 124.708 51.5861C124.823 52.1132 124.823 52.1132 124.891 52.6862C124.525 53.0528 124.525 53.0528 123.86 53.0757C123.656 53.0682 123.452 53.0606 123.241 53.0528C123.241 53.4158 123.241 53.7788 123.241 54.1528C123.553 54.1472 123.553 54.1472 123.872 54.1414C124.525 54.1528 124.525 54.1528 124.708 54.3362C124.716 54.7028 124.716 55.0696 124.708 55.4362C124.224 55.4362 123.74 55.4362 123.241 55.4362C123.257 55.5907 123.272 55.7453 123.288 55.9046C123.307 56.1054 123.325 56.3063 123.345 56.5133C123.373 56.8132 123.373 56.8132 123.403 57.1192C123.425 57.6362 123.425 57.6362 123.241 58.0029C122.814 58.0107 122.386 58.0104 121.958 58.0029C121.775 57.8195 121.775 57.8195 121.754 57.2265C121.754 56.9637 121.755 56.7009 121.757 56.4381C121.757 56.3 121.757 56.1619 121.758 56.0196C121.759 55.5769 121.761 55.1341 121.763 54.6914C121.764 54.3919 121.765 54.0924 121.766 53.793C121.768 53.0574 121.771 52.3218 121.775 51.5861C122.425 51.3694 122.87 51.4224 123.551 51.483Z" fill="#AE7A3F"/>
<path d="M106.741 51.5866C107.196 51.5817 107.65 51.5781 108.105 51.5752C108.234 51.5736 108.364 51.5721 108.497 51.5705C108.829 51.5689 109.16 51.5771 109.491 51.5866C109.674 51.77 109.674 51.77 109.697 52.32C109.674 52.87 109.674 52.87 109.491 53.0533C109.063 53.0608 108.635 53.0611 108.208 53.0533C108.208 53.4163 108.208 53.7793 108.208 54.1533C108.631 54.1533 109.055 54.1533 109.491 54.1533C109.697 55.0242 109.697 55.0242 109.491 55.4367C109.068 55.4367 108.644 55.4367 108.208 55.4367C108.21 55.6066 108.212 55.7765 108.214 55.9516C108.216 56.1711 108.217 56.3907 108.219 56.6169C108.221 56.836 108.223 57.055 108.226 57.2808C108.208 57.82 108.208 57.82 108.024 58.0034C107.597 58.0109 107.169 58.0111 106.741 58.0034C106.71 57.2074 106.681 56.4115 106.653 55.6154C106.643 55.3448 106.633 55.0741 106.622 54.8035C106.607 54.414 106.593 54.0244 106.58 53.6348C106.571 53.4006 106.563 53.1663 106.554 52.9249C106.557 52.4288 106.588 52.0536 106.741 51.5866Z" fill="#AE7A3F"/>
<path d="M126.907 53.0312C127.622 53.2992 128.03 53.6676 128.374 54.3375C128.506 54.8877 128.574 55.4214 128.557 55.9875C128.374 56.1709 128.374 56.1709 127.915 56.1888C127.73 56.1866 127.545 56.1845 127.354 56.1823C127.169 56.1807 126.983 56.179 126.792 56.1773C126.577 56.1741 126.577 56.1741 126.357 56.1709C126.418 56.2919 126.478 56.4129 126.541 56.5375C126.882 56.616 126.882 56.616 127.274 56.6407C127.99 56.7033 127.99 56.7033 128.191 56.9042C128.198 57.2708 128.198 57.6376 128.191 58.0042C126.22 58.162 126.22 58.162 125.509 57.5803C124.824 56.8049 124.838 56.1418 124.851 55.1511C124.924 54.3216 125.302 53.9296 125.865 53.3521C126.357 53.0542 126.357 53.0542 126.907 53.0312ZM126.541 54.3375C126.48 54.5795 126.42 54.8215 126.357 55.0709C126.599 55.0104 126.841 54.9499 127.091 54.8875C127.03 54.706 126.97 54.5245 126.907 54.3375C126.786 54.3375 126.665 54.3375 126.541 54.3375Z" fill="#AE7A3F"/>
<path d="M122.691 43.5198C124.112 43.4969 124.112 43.4969 124.525 43.7031C124.754 44.936 124.742 46.1764 124.742 47.4271C124.745 47.6258 124.747 47.8244 124.749 48.0291C124.75 48.3142 124.75 48.3142 124.75 48.6052C124.751 48.7773 124.752 48.9494 124.752 49.1268C124.708 49.5699 124.708 49.5699 124.341 50.1199C123.218 50.2001 123.218 50.2001 122.691 49.9365C122.66 49.1701 122.631 48.4036 122.603 47.637C122.593 47.3765 122.583 47.116 122.572 46.8555C122.557 46.4801 122.544 46.1046 122.53 45.7291C122.521 45.5035 122.513 45.2779 122.504 45.0454C122.507 44.5045 122.562 44.0431 122.691 43.5198Z" fill="#AE7A3F"/>
<path d="M136.258 53.2359C136.876 53.213 136.876 53.213 137.541 53.2359C138.047 53.7424 138.014 54.1906 138.091 54.886C138.273 54.3414 138.454 53.7969 138.641 53.2359C139.065 53.2359 139.488 53.2359 139.924 53.2359C139.814 54.3476 139.583 55.3727 139.271 56.4443C139.228 56.5951 139.185 56.7459 139.141 56.9012C139.037 57.2686 138.931 57.6357 138.824 58.0027C138.401 58.0027 137.977 58.0027 137.541 58.0027C136.854 56.5606 136.169 54.8495 136.258 53.2359Z" fill="#AE7A3F"/>
<path d="M143.958 51.4042C144.386 51.3964 144.814 51.3967 145.241 51.4042C145.559 51.7219 145.448 52.1306 145.45 52.554C145.45 52.6888 145.449 52.8236 145.449 52.9625C145.449 53.1002 145.449 53.2378 145.45 53.3797C145.45 53.6713 145.449 53.9629 145.449 54.2545C145.448 54.7023 145.449 55.1501 145.45 55.598C145.45 55.8806 145.449 56.1632 145.449 56.4459C145.449 56.5807 145.45 56.7155 145.45 56.8545C145.446 57.7998 145.446 57.7998 145.241 58.0042C144.752 58.0301 144.265 58.012 143.775 58.0042C143.77 57.1232 143.767 56.2422 143.765 55.3612C143.764 55.0614 143.762 54.7615 143.761 54.4617C143.759 54.0312 143.758 53.6007 143.757 53.1702C143.756 53.0357 143.755 52.9013 143.754 52.7628C143.754 51.8126 143.754 51.8126 143.958 51.4042Z" fill="#AE7A3F"/>
<path d="M112.058 51.4023C112.542 51.4023 113.026 51.4023 113.525 51.4023C113.525 53.5804 113.525 55.7584 113.525 58.0024C113.101 58.0024 112.678 58.0024 112.241 58.0024C112.058 57.8191 112.058 57.8191 112.037 57.2092C112.037 56.9387 112.038 56.6681 112.04 56.3975C112.04 56.1843 112.04 56.1843 112.041 55.9667C112.042 55.5109 112.044 55.0551 112.046 54.5993C112.047 54.2909 112.048 53.9826 112.049 53.6743C112.051 52.917 112.054 52.1597 112.058 51.4023Z" fill="#AE7A3F"/>
<path d="M95.3739 51.4023C95.8322 51.3451 95.8322 51.3451 96.2906 51.4023C96.4116 51.5233 96.5326 51.6443 96.6572 51.769C96.6465 52.1192 96.6465 52.1192 96.577 52.5138C96.543 52.752 96.509 52.9903 96.4739 53.2357C96.5344 53.2962 96.5949 53.3567 96.6572 53.419C96.6755 53.7433 96.6812 54.0682 96.6816 54.393C96.6819 54.6887 96.6819 54.6887 96.6823 54.9903C96.6816 55.1978 96.6809 55.4053 96.6802 55.6191C96.6809 55.8266 96.6816 56.0341 96.6823 56.2478C96.6821 56.4449 96.6818 56.642 96.6816 56.8451C96.6814 57.0273 96.6812 57.2095 96.681 57.3973C96.6572 57.8191 96.6572 57.8191 96.4739 58.0024C96.0462 58.0099 95.6183 58.0102 95.1906 58.0024C95.1491 57.2845 95.1121 56.5664 95.076 55.8482C95.0642 55.6445 95.0523 55.4408 95.0402 55.2309C95.0307 55.0347 95.0213 54.8386 95.0115 54.6365C94.9971 54.3657 94.9971 54.3657 94.9824 54.0895C95.0085 53.5769 95.1416 53.3162 95.3739 52.869C95.2542 52.5624 95.1321 52.2568 95.0072 51.9523C95.1282 51.7708 95.2492 51.5893 95.3739 51.4023Z" fill="#AE7A3F"/>
<path d="M120.674 34.1699C121.339 34.2304 122.005 34.2909 122.691 34.3533C122.691 34.4743 122.691 34.5953 122.691 34.7199C122.57 34.8409 122.449 34.9619 122.324 35.0866C122.566 35.1471 122.808 35.2076 123.057 35.2699C123.057 35.3909 123.057 35.5119 123.057 35.6366C122.513 35.6366 121.968 35.6366 121.407 35.6366C121.587 35.8576 121.587 35.8576 121.929 35.8378C122.305 35.8319 122.681 35.8259 123.057 35.8199C123.057 36.6064 123.057 37.393 123.057 38.2033C122.573 38.2033 122.089 38.2033 121.591 38.2033C121.591 38.3243 121.591 38.4453 121.591 38.57C121.167 38.57 120.744 38.57 120.307 38.57C120.297 37.9665 120.29 37.3631 120.284 36.7595C120.281 36.5877 120.278 36.4159 120.275 36.2389C120.273 35.9925 120.273 35.9925 120.271 35.7412C120.27 35.5895 120.268 35.4378 120.266 35.2815C120.307 34.9033 120.307 34.9033 120.674 34.5366C120.674 34.4156 120.674 34.2946 120.674 34.1699Z" fill="#AE7A3F"/>
<path d="M135.249 53.2129C135.891 53.2358 135.891 53.2358 136.074 53.4191C136.093 53.7434 136.098 54.0684 136.099 54.3931C136.099 54.6888 136.099 54.6888 136.1 54.9904C136.099 55.1979 136.098 55.4054 136.097 55.6192C136.098 55.8267 136.099 56.0342 136.1 56.2479C136.099 56.445 136.099 56.6421 136.099 56.8452C136.099 57.0274 136.098 57.2096 136.098 57.3974C136.074 57.8192 136.074 57.8192 135.891 58.0025C135.463 58.01 135.036 58.0103 134.608 58.0025C134.438 56.9944 134.397 56.0218 134.402 55.0004C134.401 54.8503 134.4 54.7003 134.399 54.5457C134.402 53.2432 134.402 53.2432 135.249 53.2129Z" fill="#AE7A3F"/>
<path d="M110.041 53.2363C110.465 53.2363 110.888 53.2363 111.324 53.2363C111.639 53.5509 111.532 53.9649 111.532 54.3936C111.532 54.6893 111.532 54.6893 111.533 54.9909C111.532 55.1984 111.531 55.4059 111.531 55.6197C111.531 55.8272 111.532 56.0347 111.533 56.2485C111.533 56.4456 111.532 56.6427 111.532 56.8457C111.532 57.028 111.532 57.2102 111.531 57.3979C111.508 57.8197 111.508 57.8197 111.324 58.003C110.901 58.003 110.477 58.003 110.041 58.003C110.041 56.43 110.041 54.857 110.041 53.2363Z" fill="#AE7A3F"/>
<path d="M14.8425 6.22516C15.4727 6.37412 15.4727 6.37412 15.8394 6.92413C15.9319 7.52535 15.8899 7.76411 15.553 8.27623C15.1061 8.57415 15.1061 8.57415 14.4415 8.56269C13.8227 8.39081 13.8227 8.39081 13.4561 7.84081C13.4904 7.18767 13.4904 7.18767 13.6394 6.55746C14.1894 6.19079 14.1894 6.19079 14.8425 6.22516Z" fill="#AE7A3F"/>
<path d="M37.9313 6.09961C38.5499 6.22332 38.7677 6.40538 39.123 6.92462C39.123 7.56878 39.0554 7.89176 38.6303 8.37984C38.0525 8.64531 37.7096 8.56179 37.1063 8.3913C36.7396 8.02463 36.7396 8.02463 36.6709 7.49754C36.7396 6.92462 36.7396 6.92462 37.049 6.4892C37.473 6.19128 37.473 6.19128 37.9313 6.09961Z" fill="#AE7A3F"/>
<path d="M37.7372 13.834C38.3903 13.8913 38.3903 13.8913 38.757 14.0861C39.0533 14.6603 38.9012 15.1145 38.757 15.7246C38.3903 16.0913 38.3903 16.0913 37.8518 16.1486C37.2903 16.0913 37.2903 16.0913 36.9465 15.8965C36.6267 15.3456 36.6838 14.8798 36.7403 14.2579C37.107 13.8913 37.107 13.8913 37.7372 13.834Z" fill="white"/>
<path d="M15.1059 13.891C15.4496 14.0973 15.4496 14.0973 15.6559 14.4411C15.7281 15.0184 15.7528 15.3796 15.4496 15.8848C14.9444 16.188 14.5832 16.1632 14.0059 16.0911C13.6621 15.8963 13.6621 15.8963 13.4559 15.5411C13.3871 14.8879 13.3871 14.8879 13.4559 14.2577C14.0919 13.8337 14.3582 13.8132 15.1059 13.891Z" fill="white"/>
<path d="M79.4238 30.8691C79.5448 30.9296 79.6658 30.9901 79.7905 31.0525C79.6468 31.147 79.5031 31.2415 79.355 31.3389C78.7648 31.887 78.6868 32.2953 78.5071 33.0692C78.3925 33.4817 78.3925 33.4817 78.1405 33.8025C77.6642 34.0289 77.1775 34.1979 76.6738 34.3525C76.4318 34.1105 76.1898 33.8685 75.9404 33.6192C76.374 33.1314 76.8175 32.7835 77.3727 32.4504C78.1269 31.9962 78.7737 31.4603 79.4238 30.8691Z" fill="#AE7A3F"/>
<path d="M123.711 40.9865C124.158 41.1355 124.158 41.1355 124.525 41.5021C124.588 42.2451 124.58 42.5192 124.158 43.1521C123.539 43.0949 123.539 43.0949 122.875 42.9688C122.508 42.4188 122.508 42.4188 122.543 41.9605C122.768 41.2674 122.943 40.9303 123.711 40.9865Z" fill="#AE7A3F"/>
<path d="M130.724 31.4023C131.014 31.4036 131.304 31.4058 131.594 31.4088C131.742 31.4096 131.889 31.4104 132.042 31.4113C132.408 31.4135 132.774 31.4168 133.141 31.4202C133.141 31.8438 133.141 32.2673 133.141 32.7036C133.02 32.4616 132.899 32.2196 132.774 31.9703C132.411 32.0308 132.048 32.0913 131.674 32.1536C131.795 32.3956 131.916 32.6376 132.041 32.8869C131.315 32.8869 130.589 32.8869 129.841 32.8869C129.833 32.4592 129.833 32.0313 129.841 31.6036C130.024 31.4202 130.024 31.4202 130.724 31.4023Z" fill="#AE7A3F"/>
<path d="M128.925 37.1035C129.167 37.1035 129.409 37.1035 129.658 37.1035C129.658 37.2245 129.658 37.3455 129.658 37.4702C129.961 37.4097 130.263 37.3492 130.575 37.2869C130.47 37.8125 130.417 37.9948 130.025 38.3869C129.804 38.6194 129.804 38.6194 129.578 38.8567C129.108 39.3035 129.108 39.3035 128.558 39.4869C128.329 39.1202 128.329 39.1202 128.191 38.5702C128.379 38.0472 128.639 37.579 128.925 37.1035Z" fill="#AE7A3F"/>
<path d="M97.5323 30.9253C97.6672 30.9674 97.8022 31.0094 97.9412 31.0528C97.9412 31.2343 97.9412 31.4158 97.9412 31.6028C97.7597 31.6028 97.5782 31.6028 97.3912 31.6028C97.3912 31.7238 97.3912 31.8448 97.3912 31.9695C97.221 31.9921 97.221 31.9921 97.0475 32.0153C96.6242 32.1139 96.6242 32.1139 96.4745 32.5195C96.2912 32.8861 96.2912 32.8861 95.9016 33.0236C95.7314 33.0463 95.7314 33.0463 95.5579 33.0695C95.4996 32.4989 95.4911 32.2399 95.8465 31.7761C95.9743 31.666 96.1022 31.5558 96.2339 31.4424C96.3594 31.3294 96.4849 31.2164 96.6142 31.1C97.0245 30.8694 97.0245 30.8694 97.5323 30.9253Z" fill="#AE7A3F"/>
<path d="M123.057 35.8203C123.42 35.8203 123.783 35.8203 124.157 35.8203C124.157 35.9413 124.157 36.0623 124.157 36.187C124.762 36.187 125.367 36.187 125.991 36.187C125.991 36.2475 125.991 36.308 125.991 36.3703C125.666 36.3753 125.341 36.3788 125.017 36.3818C124.836 36.3839 124.655 36.386 124.469 36.3882C123.974 36.3703 123.974 36.3703 123.424 36.187C123.428 36.4139 123.431 36.6407 123.435 36.8745C123.436 37.4087 123.411 37.8754 123.241 38.387C123.12 38.3265 122.999 38.266 122.874 38.2037C122.934 37.9617 122.995 37.7197 123.057 37.4703C122.513 37.4703 121.968 37.4703 121.407 37.4703C121.407 37.4098 121.407 37.3493 121.407 37.287C121.952 37.287 122.496 37.287 123.057 37.287C123.057 37.166 123.057 37.045 123.057 36.9203C122.513 36.9203 121.968 36.9203 121.407 36.9203C121.407 36.8598 121.407 36.7993 121.407 36.737C121.952 36.737 122.496 36.737 123.057 36.737C123.057 36.616 123.057 36.495 123.057 36.3703C122.513 36.3703 121.968 36.3703 121.407 36.3703C121.407 36.3098 121.407 36.2493 121.407 36.187C121.952 36.187 122.496 36.187 123.057 36.187C123.057 36.066 123.057 35.945 123.057 35.8203Z" fill="#AE7A3F"/>
<path d="M134.791 51.4023C135.159 51.4549 135.526 51.5158 135.891 51.5857C136.018 52.0096 136.018 52.0096 136.075 52.5024C135.857 52.8461 135.857 52.8461 135.525 53.0524C134.98 53.0028 134.818 52.8957 134.425 52.5024C134.527 51.6672 134.527 51.6672 134.791 51.4023Z" fill="#AE7A3F"/>
<path d="M110.408 51.4023C111.243 51.5042 111.243 51.5042 111.508 51.769C111.515 52.0745 111.516 52.3802 111.508 52.6857C111.084 52.8919 111.084 52.8919 110.591 53.0524C110.41 52.9314 110.228 52.8104 110.041 52.6857C109.984 52.2274 109.984 52.2274 110.041 51.769C110.162 51.648 110.283 51.527 110.408 51.4023Z" fill="#AE7A3F"/>
<path d="M130.207 38.0195C130.631 38.1405 131.054 38.2615 131.491 38.3862C131.33 39.28 131.33 39.28 131.124 39.4862C130.696 39.4937 130.268 39.494 129.841 39.4862C129.715 39.0623 129.715 39.0623 129.657 38.5695C129.921 38.2372 129.921 38.2372 130.207 38.0195Z" fill="#AE7A3F"/>
<path d="M116.458 37.2871C117.245 37.2871 118.031 37.2871 118.841 37.2871C119.025 38.0205 119.025 38.0205 118.841 38.3871C118.599 38.3871 118.357 38.3871 118.108 38.3871C118.169 38.2056 118.229 38.0241 118.291 37.8371C117.686 37.7161 117.081 37.5951 116.458 37.4704C116.458 37.4099 116.458 37.3494 116.458 37.2871Z" fill="#AE7A3F"/>
<path d="M122.691 33.6191C122.873 33.6796 123.054 33.7401 123.241 33.8025C123.302 34.105 123.362 34.4075 123.424 34.7192C123.061 34.6677 122.698 34.6137 122.336 34.5587C122.033 34.5141 122.033 34.5141 121.724 34.4685C121.559 34.4302 121.394 34.3919 121.224 34.3525C121.164 34.2315 121.103 34.1105 121.041 33.9858C121.586 33.9858 122.13 33.9858 122.691 33.9858C122.691 33.8648 122.691 33.7438 122.691 33.6191Z" fill="#AE7A3F"/>
<path d="M124.891 34.1699C125.578 34.3189 125.578 34.3189 126.174 34.5366C126.174 34.5971 126.174 34.6576 126.174 34.7199C125.508 34.7199 124.843 34.7199 124.157 34.7199C124.399 34.5384 124.641 34.3569 124.891 34.1699Z" fill="#AE7A3F"/>
<path d="M133.874 57.0859C133.995 57.0859 134.116 57.0859 134.241 57.0859C134.181 57.3884 134.12 57.6909 134.058 58.0026C133.634 58.0026 133.211 58.0026 132.774 58.0026C133.324 57.6359 133.324 57.6359 133.874 57.6359C133.874 57.4544 133.874 57.2729 133.874 57.0859Z" fill="#AE7A3F"/>
<path d="M106.374 43.5195C106.19 44.0695 106.19 44.0695 105.858 44.2529C105.726 44.3134 105.593 44.3739 105.457 44.4362C105.209 44.6151 104.964 44.7974 104.724 44.9862C105.003 44.2739 105.549 43.5195 106.374 43.5195Z" fill="#AE7A3F"/>
<path d="M139.374 36.9199C139.804 36.9668 140.232 37.0286 140.657 37.1033C140.718 37.2243 140.778 37.3453 140.841 37.4699C140.478 37.5304 140.115 37.5909 139.741 37.6533C139.62 37.4113 139.499 37.1693 139.374 36.9199Z" fill="#AE7A3F"/>
<path d="M124.341 36.7363C124.885 36.7363 125.43 36.7363 125.991 36.7363C125.329 37.0669 124.875 37.1884 124.157 37.2863C124.218 37.1048 124.278 36.9233 124.341 36.7363Z" fill="#AE7A3F"/>
</svg>
