<svg width="248" height="45" viewBox="0 0 248 45" fill="none" xmlns="http://www.w3.org/2000/svg">
<path d="M0.0585434 8.72656C8.90019 8.86461 18.1995 8.73744 27.0721 8.73858L27.0799 34.828L0.0621535 34.8255C-0.0571567 31.5727 0.0321487 27.7959 0.0313761 24.5112C0.0125929 19.2497 0.0216484 13.988 0.0585434 8.72656ZM21.3665 30.7542C21.3511 30.4116 12.2776 17.7793 12.0395 17.6836L12.0465 30.8277C14.9251 30.8147 18.5632 30.9129 21.3665 30.7542ZM4.25187 30.8303C4.83098 30.8245 7.14321 30.8378 7.5817 30.7561C7.26632 28.4054 7.49633 23.7107 7.42958 21.1824C7.39121 19.7263 7.36132 14.135 7.60095 12.9373L4.23438 12.9324L4.25187 30.8303ZM23.0756 25.3572C23.074 21.3974 22.9602 16.8441 23.1005 12.9328L14.048 12.9379C15.2512 13.9699 16.0499 15.8893 16.8885 16.8001C17.8311 17.824 22.2756 24.8901 23.0756 25.3572Z" fill="#FF8800"/>
<path d="M183.464 0C183.811 0.484068 183.629 33.2532 183.631 37.485L219.73 37.4773C228.772 37.4764 238.125 37.3503 247.147 37.5078C246.51 38.6537 242.496 44.646 241.567 44.9209C234.695 45.092 227.076 44.9322 220.171 44.9319L178.135 44.9297C177.965 40.9122 178.097 36.0002 178.097 31.9297L178.095 7.44578C178.724 6.32031 182.608 1.07176 183.464 0Z" fill="#FF8800"/>
<path d="M133.188 16.0357C133.502 15.9787 133.863 15.9995 134.197 15.9948C140.329 15.9094 141.866 24.2569 137.849 27.7672C137.022 28.49 136.146 28.7052 135.046 28.9194C133.235 29.0372 131.602 28.9596 130.078 27.8063C127.335 25.7288 127.136 20.7966 129.126 18.1578C130.168 16.7757 131.507 16.2527 133.188 16.0357ZM134.514 26.6466C135.542 26.2576 136.488 25.6708 136.865 24.5914C137.887 21.6528 137.175 18.7186 133.749 18.2904C132.684 18.5675 131.66 18.9418 131.171 20.017C129.865 22.8855 130.713 26.8108 134.514 26.6466Z" fill="#FF8800"/>
<path d="M94.4829 16.1621L96.9577 16.1949L96.9636 28.604L96.8996 28.6947C96.4763 28.8346 94.8938 28.7757 94.3562 28.7708L89.5351 21.0072L89.5418 28.771L87.0495 28.7686C86.915 25.2694 86.9347 19.672 87.0602 16.1678L89.6626 16.2088C91.1897 18.7126 93.0913 21.6418 94.4767 24.177L94.4829 16.1621Z" fill="#FF8800"/>
<path d="M142.495 16.166C143.322 16.1707 144.17 16.1987 145 16.2163C146.552 18.7341 148.496 21.744 149.889 24.2996C149.878 21.6323 149.822 18.8268 149.913 16.1708L152.374 16.1994L152.378 28.7475C151.971 28.8014 150.237 28.7698 149.734 28.7713C148.079 26.3826 146.607 23.5786 144.947 21.1664C144.937 23.7016 144.942 26.2366 144.963 28.7717L142.483 28.7691C142.395 24.8283 142.405 20.1026 142.495 16.166Z" fill="#FF8800"/>
<path d="M103.774 16.1826C104.647 16.1784 105.519 16.1878 106.392 16.2108C107.052 17.5727 107.747 19.4646 108.319 20.8956L111.467 28.7548C110.517 28.7766 109.506 28.7604 108.55 28.7619C108.085 27.9459 107.916 26.8691 107.392 26.0828C107.254 25.8765 107.09 25.9219 106.801 25.8954L102.704 25.8994L101.658 28.7557C100.734 28.78 99.7241 28.7614 98.792 28.7636C99.0566 27.6895 103.381 16.6894 103.774 16.1826ZM103.598 23.5858L104.838 23.5971L106.501 23.5902L105.017 19.6106C104.507 20.9221 104.033 22.2477 103.598 23.5858Z" fill="#FF8800"/>
<path d="M81.3266 16.1695L83.9917 16.1994L84.0081 24.4521C84.0098 25.5278 84.0728 27.8183 83.9483 28.7697L81.3294 28.768C81.2881 27.0306 81.3222 25.1853 81.3261 23.4397L76.7598 23.4431L76.7669 28.7703L73.9371 28.7686C73.8986 28.0884 73.8752 27.3964 73.886 26.7152C73.9413 23.2207 73.7794 19.6553 73.9345 16.168L76.7617 16.1996L76.7706 21.1586L81.3216 21.1448C81.3054 19.4951 81.3233 17.8212 81.3266 16.1695Z" fill="#FF8800"/>
<path d="M48.7762 16.1602C51.6987 16.2718 55.1535 16.189 58.1163 16.1922L58.1234 18.4922C55.9128 18.4688 53.6435 18.4933 51.4288 18.4941L51.4405 21.159C53.5159 21.1274 55.655 21.1513 57.7359 21.1481L57.7436 23.4426L51.7693 23.4435C51.6532 23.432 51.5866 23.4879 51.4822 23.5475C51.3607 24.2806 51.4265 25.6907 51.441 26.4848L58.4974 26.4785L58.5035 28.7716L48.7637 28.7683C48.7353 24.5657 48.7395 20.3628 48.7762 16.1602Z" fill="#FF8800"/>
<path d="M65.7627 16.0384C68.3983 15.4525 70.643 17.3601 71.4674 19.7547C70.6366 20.0212 69.7206 20.2329 68.8687 20.4458L68.8468 20.4027C68.1446 19.0306 67.7598 18.7167 66.3335 18.2522C65.025 18.5307 63.9985 19.0596 63.4565 20.5607C62.5925 22.9538 63.7789 27.7123 67.1819 26.4961C67.94 26.2252 68.5273 25.0619 68.7894 24.249C68.8589 24.1246 68.8872 24.1358 69.0203 24.0579C69.8562 24.2938 70.6858 24.5516 71.5081 24.831C71.1924 25.7565 70.9616 26.3516 70.3856 27.1562C68.7745 29.4357 64.8618 29.4863 62.7454 27.9021C60.0216 25.8634 59.7874 20.7681 61.7878 18.1575C62.8488 16.7729 64.0492 16.2564 65.7627 16.0384Z" fill="#FF8800"/>
<path d="M238.093 26.4355L241.658 26.4481C242.08 27.9731 242.464 29.5085 242.807 31.0531C242.925 29.3748 243.361 28.0404 243.839 26.4447L246.851 26.4525L246.877 33.6873L244.772 33.685L244.764 30.6114C244.743 29.971 244.845 29.5514 244.874 28.9147L244.765 28.9526C244.786 29.419 243.78 32.626 243.58 33.3015L241.414 33.3072C241.168 32.0394 240.553 29.9446 240.218 28.6179C240.19 30.2834 240.213 32.0148 240.211 33.686L238.096 33.6851C238.02 31.374 238.072 28.756 238.093 26.4355Z" fill="#FF8800"/>
<path d="M36.7874 16.166C40.0436 16.2531 43.5879 16.1878 46.8665 16.1916L46.872 18.4895L43.2231 18.4938C43.3295 20.5113 43.2487 23.2238 43.2494 25.2934L43.2643 28.7701L40.5892 28.7681C40.44 25.997 40.5247 21.297 40.5793 18.4868L36.7779 18.4799C36.7426 17.6532 36.7557 16.9938 36.7874 16.166Z" fill="#FF8800"/>
<path d="M111.079 16.1602C114.227 16.2643 117.777 16.1882 120.955 16.1904L120.96 18.4902L117.307 18.4934C117.4 20.4734 117.327 23.0171 117.328 25.0402L117.333 28.77L114.666 28.768C114.528 25.6902 114.621 21.6287 114.659 18.4867L111.068 18.4803C111.041 17.7071 111.064 16.9337 111.079 16.1602Z" fill="#FF8800"/>
<path d="M213.146 14.0527C215.703 14.0578 220.216 13.4802 220.235 17.2263C220.243 18.748 220.212 19.4442 219.128 20.5721C217.637 21.8252 215.032 21.5301 213.146 21.5065C213.07 19.1271 213.122 16.4409 213.146 14.0527ZM215.648 19.7031C216.266 19.5903 216.986 19.5064 217.517 19.1855C218.095 18.3222 218.423 16.6524 216.974 16.1991C216.703 16.1143 215.953 16.1607 215.635 16.17L215.648 19.7031Z" fill="#FF8800"/>
<path d="M207.031 26.239C210.841 26.0475 212.296 29.1257 210.709 32.403C210.28 33.2915 209.134 33.6682 208.205 33.858C202.768 34.2437 202.288 27.1713 207.031 26.239ZM206.135 30.078C206.561 31.7147 206.592 31.8371 208.308 31.7748C209.12 30.9059 209.42 29.5826 208.481 28.6886C208.02 28.25 207.44 28.3366 206.854 28.3582C206.365 29.0588 206.328 29.2597 206.135 30.078Z" fill="#FF8800"/>
<path d="M205.521 1.86706C207.163 1.90813 210.133 1.44936 211.372 2.62627C212.491 3.70581 212.232 5.00508 211.308 6.09663C210.467 7.09229 212.314 7.9637 212.299 8.9288C212.027 9.19693 211.98 9.11038 211.498 9.12848L209.791 9.12924C209.474 8.59044 208.904 7.46147 208.403 7.18524L208.184 7.27306C207.93 7.74226 208.017 8.56539 208.031 9.12633L205.525 9.12506C205.481 6.75362 205.519 4.24881 205.521 1.86706ZM209.648 5.02636C209.676 4.3872 209.752 4.5302 209.492 4.01324C209.12 3.72494 208.504 3.78353 208.018 3.79455C208.032 4.36938 207.944 4.57781 208.226 5.02244C208.576 5.22078 209.224 5.07943 209.648 5.02636Z" fill="#FF8800"/>
<path d="M229.328 1.86622C230.906 1.90965 234.015 1.45193 235.182 2.63536C236.553 4.02586 235.698 5.30733 234.833 6.59938C234.647 6.87747 236.115 8.3072 236.103 8.92938C235.838 9.19537 235.784 9.10945 235.309 9.12855L233.597 9.12906C233.28 8.59026 232.71 7.46206 232.208 7.18608L231.991 7.27314C231.736 7.74208 231.822 8.56546 231.835 9.1264L229.331 9.12438C229.29 6.74924 229.326 4.24974 229.328 1.86622ZM233.457 5.02409C233.483 4.38848 233.559 4.52999 233.3 4.01585C232.905 3.72019 232.326 3.7839 231.82 3.79462C231.836 4.37388 231.749 4.57708 232.035 5.02352C232.362 5.20686 233.08 5.09499 233.457 5.02409Z" fill="#FF8800"/>
<path d="M188.828 14.0837C191.013 13.9235 193.795 13.6375 195.044 15.7179C195.092 16.4432 195.059 17.116 195.035 17.8409C194.784 18.2126 194.345 18.6677 194.035 19.01C194.731 19.9123 195.153 20.4773 195.746 21.47L194.313 21.5128L192.911 21.5057C192.72 21.1266 192.522 20.7499 192.321 20.3755C192.121 20.0065 191.845 19.4776 191.42 19.3513L191.206 19.5C190.963 20.0212 191.056 20.9055 191.073 21.5082C190.234 21.5154 189.638 21.5181 188.808 21.4288C188.747 19.2728 188.701 16.2137 188.828 14.0837ZM192.752 17.4511C192.764 17.0517 192.834 16.6107 192.578 16.3186C192.231 16.0818 191.513 16.1623 191.061 16.1709C191.051 16.5806 190.981 17.0775 191.228 17.3854C191.56 17.6013 192.317 17.4807 192.752 17.4511Z" fill="#FF8800"/>
<path d="M221.155 26.4352C222.8 26.485 225.828 26.0184 226.94 27.2229C228.204 28.5926 227.554 30.1032 226.435 31.1703C226.805 31.7008 227.994 33.0874 227.753 33.6441L227.204 33.6859L225.342 33.6845C224.947 33.1281 224.479 31.8105 223.804 31.6594L223.58 31.8346C223.348 32.3057 223.436 33.1334 223.452 33.6858L221.157 33.6841C221.038 31.7118 221.094 28.428 221.155 26.4352ZM223.461 29.6884L225.015 29.6528C225.224 29.1119 225.256 29.2542 225.137 28.7395C224.711 28.2495 224.006 28.347 223.403 28.3566C223.422 28.7798 223.457 29.2716 223.461 29.6884Z" fill="#FF8800"/>
<path d="M196.392 26.4356C197.715 26.435 199.16 26.3582 200.462 26.4983C202.873 26.7576 203.538 29.7962 201.545 31.1522C201.895 31.649 203.139 33.1198 202.873 33.6516L202.379 33.6871L200.466 33.6874C200.151 33.1602 199.553 32.0164 199.063 31.7392L198.836 31.8216C198.579 32.2887 198.668 33.1243 198.682 33.6862L196.394 33.6834C196.352 31.3062 196.388 28.8215 196.392 26.4356ZM200.315 29.585C200.346 28.9964 200.416 29.1258 200.166 28.6451C199.758 28.3097 199.202 28.3423 198.677 28.3533C198.683 28.9239 198.595 29.1247 198.861 29.5801C199.221 29.7865 199.875 29.6393 200.315 29.585Z" fill="#FF8800"/>
<path d="M219.648 33.6865C219.008 33.6932 218.181 33.7211 217.54 33.6679C217.226 33.6418 217.482 33.3187 217.235 32.897C216.243 33.0305 216.083 34.3884 214.434 33.7437C212.522 33.2739 212.015 29.9224 212.82 28.3327C214.417 25.1723 218.216 25.4437 219.531 28.6578C218.943 28.8508 217.768 29.2387 217.173 29.0452C216.501 27.7161 215.284 28.1811 214.894 29.4295C214.415 30.9611 215.605 32.8538 217.204 31.4291L217.216 31.2675C216.857 31.2311 216.498 31.2047 216.137 31.1885C215.938 30.8485 215.982 30.0238 216.062 29.6445C216.381 29.3928 216.613 29.4815 217.098 29.4798L219.596 29.495C219.616 30.5353 219.627 31.5759 219.634 32.6164L219.648 33.6865Z" fill="#FF8800"/>
<path d="M196.975 14.0527L202.866 14.0617L202.859 16.184C202.115 16.1669 199.929 16.0023 199.534 16.5975C200.048 17.0727 201.957 16.9312 202.705 16.9141L202.721 18.639L199.782 18.6405L199.51 18.6753L199.416 19.0367L199.568 19.269C200.279 19.5042 202.009 19.4029 202.852 19.3872L202.873 21.5116L196.978 21.5077C196.854 19.5226 196.898 16.0571 196.975 14.0527Z" fill="#FF8800"/>
<path d="M206.457 14.0625L209.535 14.0628C210.349 16.0513 211.296 19.3906 211.945 21.5018C210.337 21.4734 209.74 22.0936 209.127 20.4261L209.074 20.2223C208.6 20.0839 207.419 20.151 206.865 20.1635L206.551 21.5019C205.759 21.5224 204.896 21.4983 204.098 21.4914C204.433 19.9237 205.903 15.7991 206.457 14.0625ZM208.195 18.5668L208.489 18.3405C208.519 17.8134 208.184 16.6726 207.914 16.289C207.748 16.9269 207.44 17.7045 207.531 18.2945C207.793 18.5498 207.802 18.489 208.195 18.5668Z" fill="#FF8800"/>
<path d="M198.822 1.89325C199.768 1.84808 201.034 1.88606 202.004 1.88546C202.811 4.24296 203.568 6.74122 204.33 9.1214C202.855 9.09521 202.014 9.70423 201.497 8.15883C201.526 8.06153 201.464 7.94106 201.426 7.83983C200.94 7.69027 199.865 7.76378 199.305 7.77935L198.916 9.12064L196.52 9.11773C197.036 6.9565 198.099 4.04299 198.822 1.89325ZM200.636 6.18265L200.877 5.93716C200.851 5.45304 200.612 4.52448 200.328 4.14779C200.144 4.72756 199.789 5.44992 199.93 5.95124C200.101 6.14987 200.37 6.1477 200.636 6.18265Z" fill="#FF8800"/>
<path d="M213.902 1.86719L219.825 1.88361L219.822 3.80103C219.045 3.78401 216.653 3.62418 216.214 4.21464C216.738 4.68534 218.699 4.56012 219.449 4.54649L219.457 6.25874C218.469 6.23917 217.418 6.25947 216.423 6.26121L216.279 6.31138C216.118 6.60654 216.132 6.48342 216.214 6.8052C216.66 7.15123 219.116 7.00708 219.812 6.99573L219.831 9.12673L213.907 9.1242C213.876 6.70526 213.875 4.28611 213.902 1.86719Z" fill="#FF8800"/>
<path d="M231.317 26.4473L234.414 26.4536C235.27 28.737 236.038 31.3373 236.791 33.6786C236.104 33.6712 235.013 33.8703 234.427 33.6031C234.093 33.4512 234.088 33.0682 233.997 32.6953C233.963 32.6006 233.872 32.5035 233.805 32.4201C233.279 32.2933 232.315 32.3467 231.745 32.3555L231.403 33.6763L228.977 33.683C229.533 31.5619 230.605 28.6143 231.317 26.4473ZM233.076 30.7523C233.175 30.6553 233.288 30.5922 233.296 30.4594C233.313 30.1266 233.026 28.6448 232.822 28.471C232.666 29.082 232.308 30.0184 232.392 30.5382C232.613 30.728 232.76 30.699 233.076 30.7523Z" fill="#FF8800"/>
<path d="M232.822 28.4707C233.026 28.6446 233.313 30.1263 233.296 30.4591C233.288 30.592 233.175 30.655 233.077 30.752C232.76 30.6988 232.613 30.7277 232.393 30.5379C232.308 30.0181 232.666 29.0818 232.822 28.4707Z" fill="black" fill-opacity="0.0235294"/>
<path d="M221.724 1.86523C223.612 1.89555 225.545 1.87939 227.437 1.88408L227.43 3.80265C226.657 3.7875 224.481 3.63335 224.04 4.21661C224.609 4.69566 226.488 4.56309 227.274 4.54572L227.29 6.25558L224.269 6.26134L224.041 6.35659L223.988 6.70648L224.131 6.89211C224.761 7.1005 226.653 7.01344 227.423 7.00118L227.442 9.12739L221.725 9.1246C221.71 6.70484 221.708 4.28501 221.724 1.86523Z" fill="#FF8800"/>
<path d="M188.822 26.4694C190.726 26.4244 194.562 25.8833 195.003 28.353C195.286 29.9339 194.593 31.1723 193.174 31.8177C192.696 31.9143 191.6 31.9763 191.067 32.0193L191.073 33.6877L188.82 33.6762C188.72 31.6331 188.722 28.5065 188.822 26.4694ZM192.541 29.8531C192.72 29.4219 192.782 29.3065 192.658 28.8604C192.271 28.2857 191.691 28.35 191.068 28.3542C191.059 28.8221 190.978 29.5964 191.216 29.9603C191.677 30.172 192.041 30.0185 192.541 29.8531Z" fill="#FF8800"/>
<path d="M191.689 1.68502C194.204 1.5772 195.28 2.09498 195.855 4.64048L193.648 5.08358C191.989 0.878831 189.35 7.21935 192.36 7.28452C193.086 7.30021 193.286 6.47337 193.748 5.9831L194.161 6.0045C194.701 6.07349 195.367 6.20225 195.914 6.29315C195.012 9.07717 193.315 10.1302 190.291 8.81967C188.51 8.04766 188.314 4.575 189.307 3.1398C189.949 2.21276 190.578 1.92431 191.689 1.68502Z" fill="#FF8800"/>
<path d="M122.868 16.166L125.52 16.2007L125.528 28.7712L122.856 28.7693C122.826 24.5682 122.83 20.3669 122.868 16.166Z" fill="#FF8800"/>
<path d="M163.746 9.14453L165.422 9.14972C166.436 11.5071 167.436 14.1481 168.398 16.5478C167.808 16.5749 167.127 16.5692 166.528 16.5786C166.377 16.1247 166.118 15.1114 165.782 14.861L163.257 14.8653C163.099 15.4369 162.823 15.9992 162.577 16.5411C162.034 16.5835 161.365 16.5619 160.812 16.5587C161.85 14.1712 162.702 11.5737 163.746 9.14453ZM164.697 13.6048L165.138 13.4574C165.329 12.9651 164.857 11.8507 164.529 11.5137C164.244 12.1056 163.592 13.0197 164.112 13.5216L164.697 13.6048Z" fill="#FF8800"/>
<path d="M220.685 14.0681L223.311 14.0614C223.717 15.1361 224.113 16.2144 224.497 17.2967C224.698 16.4827 225.319 14.8951 225.623 14.0586L228.255 14.0676C227.771 15.0966 227.235 16.1568 226.734 17.1815C225.557 19.1555 225.487 19.2393 225.533 21.5092L223.247 21.5034C223.258 17.1643 221.792 17.3376 220.685 14.0681Z" fill="#FF8800"/>
<path d="M156.065 9.1708C156.857 9.11411 157.756 9.15169 158.559 9.16801C159.724 9.79893 159.957 10.195 160.428 11.3557L158.955 11.6513C158.487 11.1429 157.518 10.193 156.791 10.4565C154.293 11.3623 156.183 18.0642 158.74 14.0543C158.74 14.0054 158.81 13.8465 158.831 13.7919C159.244 13.7218 159.964 14.0459 160.389 14.201C159.814 16.0047 158.407 17.1807 156.455 16.62C155.537 16.3595 154.766 15.7363 154.319 14.8945C153.157 12.7484 153.903 10.3322 156.065 9.1708Z" fill="#FF8800"/>
<path d="M233.36 14.0527L238.898 14.0646C238.085 15.3632 236.822 17.0791 235.891 18.3108L233.398 21.7859C233.258 19.477 233.326 16.3837 233.36 14.0527Z" fill="#FF8800"/>
<path d="M219.531 28.6562C219.89 29.1448 219.841 32.0247 219.633 32.6148C219.627 31.5743 219.616 30.5338 219.595 29.4934L217.098 29.4782L217.172 29.0437C217.768 29.2372 218.943 28.8492 219.531 28.6562Z" fill="black" fill-opacity="0.0196078"/>
</svg>
