<svg width="114" height="41" viewBox="0 0 114 41" fill="none" xmlns="http://www.w3.org/2000/svg">
<path d="M0 0.730469C3.74964 0.730469 7.49928 0.730469 11.3625 0.730469C12.2742 5.81407 12.2742 5.81407 12.5583 7.39838C12.6445 7.87868 12.6445 7.87868 12.7306 8.35898C12.7698 8.57746 12.809 8.79594 12.8481 9.01442C13.1382 10.6328 13.1382 10.6328 13.4334 12.2503C13.4465 12.3215 13.4596 12.3927 13.4728 12.4639C13.479 12.498 13.4853 12.5322 13.4918 12.5674C13.7127 13.7668 13.9234 14.9653 14.0861 16.174C14.1014 16.2869 14.1169 16.3998 14.1325 16.5127C14.504 19.2069 14.504 19.2069 14.4847 20.5194C14.5522 20.5194 14.6198 20.5194 14.6894 20.5194C14.6885 20.4588 14.6885 20.4588 14.6875 20.397C14.6787 19.4013 14.8379 18.4191 15.0061 17.4401C15.0159 17.3825 15.0159 17.3825 15.0259 17.3237C15.3663 15.3419 15.7941 13.3742 16.2009 11.405C16.255 11.1434 16.309 10.8817 16.3629 10.6201C16.8311 8.35113 17.3015 6.08258 17.7735 3.81438C17.7956 3.70809 17.8177 3.60181 17.8398 3.49552C17.9233 3.09402 18.0069 2.69254 18.0906 2.29107C18.1158 2.16982 18.1411 2.04857 18.1663 1.92732C18.2006 1.76256 18.235 1.5978 18.2693 1.43305C18.2793 1.3849 18.2894 1.33675 18.2997 1.28715C18.3135 1.22113 18.3135 1.22113 18.3275 1.15378C18.3354 1.11585 18.3433 1.07792 18.3515 1.03884C18.3741 0.935563 18.3999 0.832991 18.4257 0.730469C21.0606 0.730469 23.6955 0.730469 26.4102 0.730469C26.4776 0.930809 26.5322 1.10666 26.5733 1.31033C26.5843 1.36393 26.5952 1.41753 26.6064 1.47275C26.6181 1.53099 26.6298 1.58922 26.6418 1.64922C26.6607 1.74254 26.6607 1.74254 26.68 1.83776C26.7076 1.97372 26.7351 2.10971 26.7625 2.24573C26.8067 2.46542 26.8512 2.68507 26.8957 2.9047C26.9597 3.22091 27.0236 3.53714 27.0875 3.85339C27.2388 4.6028 27.3907 5.35209 27.5425 6.10139C27.5768 6.27071 27.6111 6.44004 27.6454 6.60936C28.0108 8.41296 28.3804 10.2157 28.7516 12.0181C28.8928 12.7038 29.0337 13.3895 29.1741 14.0753C29.1854 14.1308 29.1968 14.1862 29.2085 14.2434C29.2788 14.5868 29.3488 14.9303 29.4185 15.2739C29.4403 15.3812 29.4622 15.4886 29.4842 15.5959C30.1803 19.0033 30.1803 19.0033 30.1466 20.5194C30.2141 20.5194 30.2817 20.5194 30.3513 20.5194C30.3526 20.4526 30.3539 20.3857 30.3553 20.3169C30.3727 19.6648 30.4165 19.0164 30.4767 18.367C30.4845 18.2832 30.4921 18.1993 30.4994 18.1154C30.6683 16.2097 31.0347 14.3238 31.3801 12.4439C31.4499 12.0641 31.5191 11.6842 31.5884 11.3044C31.6015 11.2324 31.6146 11.1604 31.6278 11.0885C31.6477 10.9789 31.6677 10.8693 31.6877 10.7598C31.7285 10.5357 31.7694 10.3117 31.8104 10.0876C32.0254 8.91044 32.2383 7.7329 32.4502 6.55517C32.4743 6.42137 32.4983 6.28758 32.5224 6.15378C32.6637 5.3686 32.805 4.5834 32.9461 3.79817C33.0125 3.4286 33.079 3.05905 33.1455 2.68951C33.1863 2.46301 33.227 2.23649 33.2677 2.00996C33.2982 1.84004 33.3288 1.67014 33.3594 1.50024C33.3703 1.43933 33.3812 1.37843 33.3924 1.31567C33.4024 1.2604 33.4124 1.20512 33.4227 1.14817C33.4356 1.07628 33.4356 1.07628 33.4488 1.00294C33.4734 0.882691 33.4734 0.882691 33.5246 0.730469C37.2742 0.730469 41.0239 0.730469 44.8871 0.730469C44.772 1.30123 44.772 1.30123 44.6979 1.5486C44.6811 1.60487 44.6644 1.66114 44.6472 1.71911C44.629 1.77923 44.6109 1.83934 44.5922 1.90128C44.5727 1.9668 44.5531 2.03233 44.5336 2.09786C44.4915 2.23899 44.4493 2.38007 44.407 2.52112C44.3026 2.8692 44.199 3.2175 44.0952 3.56578C44.0585 3.68912 44.0217 3.81246 43.9849 3.9358C43.7281 4.7976 43.4748 5.66044 43.2219 6.52337C43.1103 6.90391 42.9987 7.28442 42.887 7.66493C42.8684 7.72847 42.8684 7.72847 42.8494 7.79329C42.5701 8.74478 42.2893 9.6958 42.0083 10.6468C41.5901 12.062 41.173 13.4775 40.7573 14.8935C40.7327 14.9774 40.7081 15.0613 40.6835 15.1451C40.5982 15.4358 40.5129 15.7264 40.4276 16.0171C40.1667 16.9059 39.9055 17.7946 39.6441 18.6832C39.6332 18.7203 39.6223 18.7573 39.6111 18.7954C39.266 19.9687 38.9199 21.1418 38.5734 22.3147C38.1494 23.7501 37.7261 25.1857 37.3044 26.6217C37.2676 26.7471 37.2308 26.8724 37.1939 26.9977C36.9469 27.8388 36.7002 28.6801 36.4549 29.5217C36.4217 29.6357 36.3885 29.7496 36.3552 29.8635C36.3392 29.9184 36.3392 29.9184 36.3228 29.9745C36.3017 30.0471 36.2805 30.1197 36.2593 30.1923C36.1985 30.4005 36.1379 30.6087 36.0775 30.817C36.0324 30.9722 35.9871 31.1273 35.9418 31.2824C35.9256 31.3383 35.9095 31.3941 35.8929 31.4516C35.8782 31.5018 35.8635 31.552 35.8483 31.6037C35.8356 31.6474 35.8229 31.6911 35.8099 31.7361C35.7766 31.8346 35.7766 31.8346 35.7255 31.8854C35.5979 31.8903 35.4718 31.892 35.3443 31.8915C35.2837 31.8916 35.2837 31.8916 35.2219 31.8916C35.0856 31.8917 34.9492 31.8914 34.8129 31.8911C34.7155 31.8911 34.6182 31.8911 34.5209 31.8912C34.2558 31.8912 33.9907 31.8909 33.7256 31.8905C33.4488 31.8902 33.1721 31.8902 32.8954 31.8901C32.371 31.89 31.8466 31.8895 31.3222 31.889C30.7253 31.8885 30.1285 31.8882 29.5316 31.8879C28.3035 31.8874 27.0753 31.8865 25.8472 31.8854C25.6887 31.3178 25.5533 30.7471 25.4253 30.1721C25.4045 30.0789 25.3836 29.9856 25.3627 29.8924C25.3064 29.6409 25.2502 29.3894 25.1942 29.1379C25.1347 28.8715 25.0751 28.6051 25.0156 28.3388C24.9152 27.8899 24.815 27.4411 24.7149 26.9922C24.6006 26.4799 24.4861 25.9678 24.3716 25.4556C24.26 24.957 24.1486 24.4583 24.0372 23.9596C23.9906 23.7505 23.9438 23.5415 23.8971 23.3324C23.6602 22.2729 23.4253 21.2129 23.1962 20.1517C23.1742 20.05 23.1522 19.9484 23.1301 19.8467C22.8613 18.6079 22.6571 17.3708 22.5715 16.105C22.4533 16.105 22.3351 16.105 22.2133 16.105C22.2145 16.1432 22.2157 16.1814 22.217 16.2207C22.2251 16.6803 22.1762 17.1232 22.1077 17.5765C22.1021 17.6142 22.0966 17.6519 22.0908 17.6908C22.0001 18.3042 21.8938 18.9144 21.7782 19.5236C21.7712 19.5609 21.7642 19.5982 21.7569 19.6366C21.6774 20.0555 21.5878 20.4708 21.4861 20.885C21.3252 21.5484 21.179 22.215 21.0324 22.8816C20.9926 23.0628 20.9526 23.2439 20.9126 23.4251C20.8364 23.7705 20.7603 24.1158 20.6842 24.4612C20.5505 25.0687 20.4166 25.6761 20.2826 26.2835C20.2435 26.4608 20.2044 26.6381 20.1654 26.8154C19.7932 28.506 19.4159 30.1956 19.0399 31.8854C15.7632 31.8854 12.4865 31.8854 9.1105 31.8854C8.05084 28.3253 8.05084 28.3253 7.69209 27.103C7.63712 26.9157 7.58208 26.7285 7.52704 26.5412C7.4465 26.2672 7.36597 25.9932 7.28546 25.7191C7.13879 25.2198 6.99197 24.7206 6.84507 24.2213C6.83401 24.1837 6.82294 24.1461 6.81154 24.1074C6.75569 23.9176 6.69984 23.7277 6.64399 23.5379C6.54326 23.1956 6.44256 22.8533 6.34185 22.511C6.28587 22.3207 6.22989 22.1305 6.1739 21.9402C6.15151 21.8641 6.12912 21.7879 6.10672 21.7118C6.09564 21.6742 6.08456 21.6365 6.07314 21.5977C5.97237 21.2552 5.97237 21.2552 5.93878 21.141C5.91639 21.0649 5.894 20.9888 5.8716 20.9127C5.81563 20.7224 5.75966 20.5322 5.70368 20.3419C5.60283 19.9991 5.50198 19.6563 5.40112 19.3135C5.34502 19.1228 5.28892 18.9322 5.23282 18.7415C5.22172 18.7038 5.21062 18.666 5.19918 18.6272C5.04416 18.1003 4.8892 17.5734 4.73427 17.0464C4.63516 16.7094 4.53603 16.3723 4.43689 16.0352C4.42592 15.9979 4.41496 15.9606 4.40366 15.9222C4.04358 14.6979 3.68245 13.4739 3.3209 12.25C2.90054 10.8271 2.48118 9.40378 2.0633 7.98008C2.05123 7.93898 2.03917 7.89788 2.02674 7.85553C1.93016 7.52651 1.83359 7.19748 1.73702 6.86845C1.48106 5.99633 1.22484 5.12429 0.968401 4.25231C0.912167 4.06109 0.855963 3.86987 0.799767 3.67865C0.757763 3.53574 0.715727 3.39285 0.673688 3.24995C0.643612 3.14768 0.613583 3.04539 0.583556 2.94309C0.486655 2.6134 0.388489 2.28415 0.288077 1.95549C0.268873 1.89233 0.249669 1.82917 0.229884 1.76409C0.193778 1.64561 0.157387 1.52722 0.120654 1.40893C0.104718 1.35655 0.0887817 1.30418 0.0723629 1.25022C0.0513043 1.18198 0.0513043 1.18198 0.0298203 1.11237C0 0.984173 0 0.984173 0 0.730469Z" fill="#B07F46"/>
<path d="M102.867 0.00791625C102.907 0.00788201 102.946 0.00784777 102.987 0.0078125C106.147 0.0121027 109.196 0.797776 112.064 2.08829C112.099 2.10403 112.134 2.11976 112.17 2.13598C112.631 2.34383 113.08 2.56757 113.523 2.81135C113.493 3.12316 113.364 3.38957 113.24 3.67355C113.216 3.7284 113.192 3.78326 113.168 3.83977C113.09 4.01931 113.012 4.19864 112.934 4.37798C112.88 4.50302 112.826 4.6281 112.772 4.75319C112.663 5.00424 112.555 5.25522 112.446 5.50614C112.263 5.92808 112.082 6.35069 111.901 6.77347C111.815 6.97364 111.73 7.17376 111.644 7.37387C111.627 7.41402 111.609 7.45417 111.592 7.49554C111.445 7.83679 111.299 8.17796 111.152 8.51911C111.129 8.57302 111.106 8.62694 111.082 8.68249C110.969 8.94573 110.856 9.20896 110.743 9.47217C110.542 9.94044 110.341 10.4088 110.145 10.8792C109.927 10.7972 109.749 10.6878 109.559 10.5557C107.581 9.21607 105.047 8.20674 102.618 8.62614C102.092 8.73428 101.648 8.95455 101.345 9.40133C101.247 9.68476 101.207 9.91374 101.297 10.2037C101.856 11.1831 103.24 11.5011 104.259 11.7925C104.725 11.9152 105.196 12.0199 105.666 12.1255C106.37 12.2843 107.071 12.4455 107.767 12.6365C107.818 12.6503 107.868 12.6641 107.921 12.6784C109.886 13.229 111.711 14.4869 112.806 16.207C112.826 16.2371 112.845 16.2672 112.865 16.2982C113.572 17.4298 113.988 18.7789 113.994 20.1126C113.994 20.1613 113.995 20.2099 113.995 20.2601C113.995 20.3631 113.996 20.4662 113.996 20.5693C113.996 20.7229 113.998 20.8766 114 21.0302C114.015 23.7677 112.976 26.3131 111.066 28.2833C111.037 28.3135 111.008 28.3436 110.978 28.3747C110.568 28.799 110.146 29.1893 109.669 29.5387C109.584 29.6011 109.5 29.6646 109.415 29.7282C106.863 31.6267 103.612 32.2803 100.481 32.2601C100.416 32.2599 100.351 32.2597 100.284 32.2594C99.3315 32.2557 98.3948 32.2331 97.4516 32.0889C97.3906 32.0799 97.3296 32.0709 97.2668 32.0616C94.9218 31.7096 92.6521 31.0212 90.4907 30.0592C90.4447 30.0388 90.3988 30.0184 90.3514 29.9974C89.7182 29.7141 89.1099 29.3892 88.5034 29.0538C88.3992 28.9974 88.294 28.9441 88.1875 28.8922C88.2154 28.6246 88.2833 28.4005 88.3922 28.1537C88.408 28.1171 88.4237 28.0805 88.4399 28.0428C88.474 27.9635 88.5082 27.8844 88.5427 27.8053C88.6174 27.6339 88.6911 27.4621 88.7649 27.2903C88.8037 27.1999 88.8426 27.1095 88.8815 27.0191C89.0877 26.5402 89.2888 26.0593 89.4895 25.5782C89.5258 25.491 89.5622 25.4039 89.5986 25.3168C89.6718 25.1415 89.745 24.9662 89.8181 24.791C89.9814 24.3997 90.145 24.0087 90.3087 23.6176C90.3624 23.4892 90.416 23.3609 90.4697 23.2325C90.6403 22.8245 90.811 22.4165 90.982 22.0085C91.0631 21.8148 91.1443 21.6211 91.2254 21.4274C91.2642 21.3347 91.3031 21.2419 91.342 21.1492C91.3958 21.021 91.4495 20.8927 91.5032 20.7645C91.5192 20.7264 91.5352 20.6883 91.5517 20.649C91.6117 20.5055 91.6695 20.363 91.7191 20.2155C91.8643 20.2844 91.9977 20.3616 92.1318 20.4498C92.172 20.4761 92.2122 20.5024 92.2537 20.5295C92.2968 20.5577 92.34 20.586 92.3845 20.6151C94.7337 22.1372 97.6491 23.7781 100.573 23.2734C101.047 23.1696 101.48 22.966 101.802 22.6003C101.831 22.5689 101.859 22.5375 101.888 22.5052C102.062 22.226 102.106 21.9056 102.036 21.5869C101.881 21.0935 101.465 20.8482 101.026 20.6168C100.167 20.1835 99.2113 19.9973 98.2739 19.8064C96.2286 19.389 94.1901 18.8292 92.5892 17.4247C92.5641 17.403 92.5391 17.3812 92.5133 17.3587C90.857 15.9135 90.0171 14.0118 89.8765 11.8432C89.7714 8.98111 90.5352 6.22024 92.506 4.0767C92.6011 3.97542 92.6974 3.87531 92.7939 3.77543C92.8197 3.74855 92.8454 3.72166 92.8719 3.69397C95.4445 1.01721 99.235 0.0108101 102.867 0.00791625Z" fill="#B07F46"/>
<path d="M77.1389 0.00149953C77.1993 0.00109635 77.2598 0.000693168 77.3221 0.00027777C78.4157 -0.00531649 79.4982 0.0729853 80.5713 0.290088C80.6257 0.300864 80.6802 0.31164 80.7362 0.322743C81.5377 0.485278 82.318 0.693507 83.092 0.956063C83.1441 0.973674 83.1962 0.991285 83.2498 1.00943C83.6977 1.16567 84.1154 1.35253 84.5539 1.54275C84.5539 5.29352 84.5539 9.04429 84.5539 12.9087C84.3639 12.8145 84.2684 12.7384 84.1189 12.5948C83.4165 11.954 82.634 11.4204 81.7901 10.9806C81.7534 10.9614 81.7166 10.9423 81.6788 10.9225C80.0718 10.0994 78.0832 9.7778 76.3136 10.2194C76.262 10.2321 76.262 10.2321 76.2095 10.245C75.663 10.3847 75.1683 10.6087 74.6757 10.8791C74.6252 10.9067 74.5746 10.9343 74.5226 10.9627C73.3102 11.6769 72.5059 12.9043 72.1386 14.232C71.9907 14.8157 71.9523 15.3857 71.9507 15.9848C71.9502 16.1004 71.9487 16.2159 71.947 16.3314C71.9356 17.9065 72.4746 19.3321 73.5629 20.4848C74.681 21.5727 76.1642 22.0138 77.7051 22.0135C77.743 22.0136 77.7808 22.0137 77.8199 22.0138C78.5343 22.0127 79.2052 21.9226 79.8963 21.7376C79.9562 21.7218 79.9562 21.7218 80.0173 21.7056C80.2537 21.6413 80.4845 21.5663 80.7153 21.4839C80.8065 21.4514 80.8065 21.4514 80.8996 21.4181C82.1186 20.9575 83.2204 20.28 84.2778 19.5301C84.3178 19.5017 84.3578 19.4734 84.399 19.4442C84.434 19.4192 84.4689 19.3941 84.505 19.3683C84.6036 19.3031 84.7035 19.2522 84.8099 19.2006C84.7445 21.4854 84.6754 23.7701 84.6017 26.0547C84.5859 26.5429 84.5703 27.0311 84.5549 27.5194C84.5438 27.8709 84.5325 28.2224 84.5211 28.5739C84.5144 28.7812 84.5077 28.9884 84.5013 29.1956C84.4953 29.3873 84.4891 29.5791 84.4827 29.7708C84.4804 29.8409 84.4782 29.9109 84.4761 29.9809C84.4732 30.0763 84.47 30.1717 84.4668 30.2671C84.4651 30.3204 84.4634 30.3737 84.4616 30.4285C84.4527 30.5505 84.4422 30.6546 84.4004 30.7695C84.2905 30.8327 84.2905 30.8327 84.1435 30.8861C84.0887 30.9062 84.0339 30.9264 83.9775 30.9472C83.9175 30.9681 83.8576 30.989 83.7958 31.0105C83.7337 31.0326 83.6715 31.0547 83.6075 31.0775C82.0381 31.6293 80.4268 31.975 78.7703 32.1395C78.7269 32.1443 78.6834 32.1491 78.6387 32.154C78.1072 32.2065 77.5733 32.2026 77.0397 32.2029C76.9877 32.203 76.9356 32.203 76.882 32.2031C74.3113 32.2014 71.7237 31.7545 69.4039 30.6173C69.3636 30.5976 69.3233 30.578 69.2817 30.5577C67.8114 29.8329 66.4623 28.8801 65.2581 27.7758C65.2027 27.7261 65.1472 27.6764 65.0918 27.6268C64.82 27.3825 64.5545 27.1402 64.319 26.8605C64.2231 26.7476 64.1217 26.6407 64.0201 26.5327C61.4527 23.706 60.3295 19.8743 60.335 16.1308C60.335 16.0884 60.3351 16.046 60.3351 16.0024C60.341 13.5975 60.8141 11.1736 61.8801 9.00167C61.9154 8.92967 61.9154 8.92967 61.9514 8.85621C62.424 7.90363 62.9743 7.01708 63.6321 6.17921C63.7248 6.06094 63.7248 6.06094 63.7956 5.93184C63.8913 5.78122 64.0028 5.67514 64.1321 5.55129C64.1951 5.4858 64.2577 5.41996 64.32 5.35387C64.3538 5.31809 64.3876 5.2823 64.4224 5.24543C64.4575 5.20822 64.4926 5.17101 64.5288 5.13267C64.9433 4.69501 65.3568 4.26325 65.8211 3.87684C65.8468 3.8549 65.8726 3.83296 65.8991 3.81036C66.748 3.08826 67.6908 2.45382 68.6873 1.94868C68.7325 1.9257 68.7776 1.90272 68.824 1.87904C70.5455 1.0109 72.3594 0.466161 74.2662 0.17275C74.3168 0.164443 74.3673 0.156136 74.4194 0.147578C75.3215 0.00423307 76.2275 0.00468666 77.1389 0.00149953Z" fill="#B07F46"/>
<path d="M47.8047 10.625C50.7098 10.625 53.6149 10.625 56.6081 10.625C56.6081 17.6409 56.6081 24.6569 56.6081 31.8854C53.703 31.8854 50.7978 31.8854 47.8047 31.8854C47.8047 24.8695 47.8047 17.8536 47.8047 10.625Z" fill="#B07F46"/>
<path d="M0.000664904 0.729285C0.935419 0.722169 1.87017 0.716803 2.80494 0.713511C3.23899 0.711943 3.67302 0.709804 4.10706 0.706318C4.48542 0.703281 4.86378 0.701319 5.24216 0.700641C5.44246 0.700244 5.64273 0.699314 5.84302 0.697096C6.0317 0.695024 6.22033 0.694394 6.40902 0.69485C6.51097 0.694727 6.61291 0.693092 6.71485 0.691406C7.04952 0.693694 7.2695 0.707214 7.51204 0.948528C7.71108 1.21496 7.71201 1.47216 7.67806 1.79484C7.59808 1.94072 7.59808 1.94072 7.52451 2.04855C7.5417 2.28147 7.65716 2.4559 7.77942 2.64892C7.82159 2.71699 7.86373 2.78509 7.90585 2.85319C7.92753 2.88801 7.94922 2.92282 7.97155 2.95869C8.07372 3.12377 8.17307 3.29047 8.27245 3.4572C8.39508 3.66257 8.51793 3.86777 8.64187 4.07236C8.82965 4.38298 9.01472 4.69279 9.18314 5.01432C9.40884 5.48272 9.40884 5.48272 9.81053 5.7784C10.0003 5.80831 10.0003 5.80831 10.1794 5.79703C10.3835 5.80512 10.4521 5.86641 10.5955 6.00634C10.765 6.23801 10.8376 6.41482 10.8232 6.70284C10.7688 6.97568 10.6095 7.16102 10.4131 7.35097C10.1497 7.46491 9.90585 7.46483 9.623 7.42709C9.36985 7.31057 9.24897 7.15749 9.11117 6.91968C9.04807 6.73201 9.03637 6.55686 9.05999 6.36153C9.10999 6.27627 9.16101 6.19158 9.21353 6.10782C9.19372 5.89361 9.10709 5.74058 8.99761 5.5574C8.98072 5.52894 8.96383 5.50048 8.94643 5.47116C8.89082 5.37766 8.83466 5.28448 8.77848 5.19131C8.73945 5.126 8.70044 5.06067 8.66146 4.99532C8.31611 4.4177 7.96476 3.84362 7.61188 3.27049C7.57992 3.21847 7.54796 3.16645 7.51504 3.11284C7.4533 3.01251 7.3913 2.91233 7.32905 2.81231C7.30085 2.76663 7.27266 2.72095 7.2436 2.67389C7.21871 2.63384 7.19382 2.59379 7.16817 2.55253C7.11505 2.45448 7.11505 2.45448 7.11505 2.35299C6.92925 2.35299 6.74346 2.35299 6.55204 2.35299C6.51826 2.43672 6.48448 2.52044 6.44967 2.6067C6.39974 2.69952 6.34808 2.79144 6.29513 2.8826C6.26423 2.93584 6.23334 2.98908 6.20151 3.04393C6.16834 3.10058 6.13517 3.15723 6.10099 3.21559C6.08396 3.2448 6.06692 3.274 6.04937 3.30409C5.81812 3.70035 5.58103 4.0926 5.33645 4.48094C5.25646 4.60856 5.17652 4.73621 5.09661 4.86388C5.04176 4.95133 4.98672 5.03867 4.93151 5.12591C4.84897 5.25703 4.76788 5.38895 4.68707 5.52113C4.66192 5.56047 4.63676 5.59981 4.61085 5.64034C4.47092 5.86781 4.47092 5.86781 4.48694 6.12863C4.5097 6.172 4.53246 6.21536 4.55592 6.26004C4.65009 6.44676 4.63823 6.67164 4.57451 6.86775C4.53664 6.95381 4.49524 7.03833 4.45355 7.12264C4.38261 7.2752 4.38261 7.2752 4.46912 7.41514C4.50291 7.47115 4.5367 7.52715 4.57151 7.58486C4.59871 7.63042 4.59871 7.63042 4.62645 7.6769C4.68562 7.77575 4.74551 7.87415 4.80543 7.97255C4.84636 8.04059 4.88723 8.10866 4.92807 8.17675C5.0423 8.36696 5.15735 8.55667 5.27247 8.74635C5.31704 8.82032 5.36157 8.89431 5.40603 8.96834C5.47404 9.08124 5.54281 9.19371 5.61236 9.30569C5.71806 9.4783 5.81446 9.65537 5.91146 9.83292C5.97783 9.95066 6.0442 10.0684 6.11059 10.1861C6.14072 10.2433 6.17084 10.3004 6.20188 10.3593C6.36278 10.6577 6.36278 10.6577 6.64458 10.8217C6.78643 10.8337 6.9218 10.8309 7.06386 10.8267C7.35451 10.9281 7.53992 11.111 7.67806 11.3849C7.7048 11.7015 7.70753 11.9285 7.52451 12.1967C7.5417 12.4297 7.65716 12.6041 7.77942 12.7971C7.82159 12.8652 7.86373 12.9333 7.90585 13.0014C7.92753 13.0362 7.94922 13.071 7.97155 13.1069C8.07372 13.272 8.17307 13.4387 8.27245 13.6054C8.39508 13.8107 8.51793 14.016 8.64187 14.2205C8.82965 14.5312 9.01472 14.841 9.18314 15.1625C9.40884 15.6309 9.40884 15.6309 9.81053 15.9266C10.0003 15.9565 10.0003 15.9565 10.1794 15.9452C10.3835 15.9533 10.4521 16.0146 10.5955 16.1545C10.7677 16.3899 10.8327 16.5628 10.8212 16.8544C10.7984 16.9759 10.7596 17.055 10.6946 17.1598C10.5843 17.3035 10.5843 17.3035 10.6043 17.4146C10.6604 17.5602 10.735 17.6874 10.815 17.8216C10.8322 17.8506 10.8493 17.8795 10.867 17.9093C10.9234 18.0043 10.9801 18.099 11.0369 18.1937C11.0763 18.2597 11.1156 18.3258 11.155 18.3919C11.2751 18.5935 11.3959 18.7948 11.5168 18.996C11.5352 19.0267 11.5536 19.0573 11.5725 19.0889C11.7536 19.3902 11.9355 19.6909 12.1195 19.9904C12.2191 20.1533 12.3135 20.3162 12.3999 20.4863C12.4841 20.6484 12.5637 20.7928 12.694 20.9242C12.8658 20.9774 13.0191 20.9935 13.1986 21.0031C13.4559 21.0392 13.6058 21.1884 13.7688 21.3808C13.8863 21.6139 13.8595 21.9578 13.7868 22.2032C13.6908 22.3899 13.5549 22.5225 13.3657 22.6159C13.0732 22.7059 12.7917 22.6969 12.518 22.5637C12.3134 22.3807 12.1487 22.2186 12.1205 21.9364C12.1163 21.731 12.118 21.609 12.2141 21.4221C12.3002 21.2849 12.3002 21.2849 12.2555 21.147C12.1588 20.9202 12.0311 20.722 11.8974 20.5151C11.6329 20.0991 11.378 19.6786 11.1285 19.2537C11.0723 19.1581 11.0158 19.0627 10.9591 18.9674C10.801 18.7013 10.644 18.4351 10.4955 18.1635C10.4531 18.089 10.4107 18.0145 10.3683 17.94C10.3432 17.8904 10.3432 17.8904 10.3175 17.8398C10.2632 17.7375 10.2632 17.7375 10.1348 17.626C9.96107 17.6004 9.79721 17.6075 9.623 17.626C9.59293 17.678 9.59293 17.678 9.56227 17.731C8.88384 18.903 8.88384 18.903 8.54176 19.4685C8.50565 19.5284 8.50565 19.5284 8.4688 19.5894C8.33334 19.8124 8.19472 20.0331 8.05333 20.2524C8.02223 20.3011 7.99113 20.3497 7.95909 20.3997C7.89879 20.4937 7.83795 20.5874 7.7765 20.6806C7.73598 20.7439 7.73598 20.7439 7.69465 20.8084C7.67042 20.8455 7.64618 20.8827 7.62121 20.9209C7.5665 21.0232 7.5665 21.0232 7.58725 21.1324C7.62684 21.2411 7.62684 21.2411 7.73244 21.3618C7.86575 21.592 7.86927 21.7804 7.8316 22.0405C7.78278 22.1431 7.73204 22.2449 7.67806 22.3449C7.69767 22.5592 7.78447 22.7121 7.89398 22.8953C7.91087 22.9238 7.92776 22.9523 7.94516 22.9816C8.00077 23.0751 8.05693 23.1683 8.11311 23.2614C8.15214 23.3267 8.19115 23.3921 8.23013 23.4574C8.60716 24.088 8.98948 24.7157 9.37765 25.3397C9.43816 25.4393 9.49657 25.5403 9.55264 25.6424C9.5783 25.6886 9.60396 25.7348 9.63039 25.7824C9.66284 25.8435 9.66284 25.8435 9.69593 25.9058C9.77246 26.0114 9.77246 26.0114 9.91721 26.0339C10.0132 26.0399 10.1094 26.0429 10.2056 26.0433C10.4692 26.0546 10.609 26.2163 10.7906 26.3883C10.9312 26.5994 10.9688 26.7619 10.9537 27.0131C10.8643 27.3087 10.7173 27.5152 10.4508 27.6796C10.3153 27.733 10.2113 27.7268 10.066 27.7236C9.89061 27.7373 9.80608 27.7462 9.67758 27.8679C9.58928 28.0011 9.51568 28.1359 9.44386 28.2784C9.3883 28.38 9.33265 28.4816 9.27691 28.5831C9.24957 28.6344 9.22223 28.6856 9.19407 28.7385C9.06771 28.9702 8.92838 29.1934 8.78808 29.4169C8.74133 29.4924 8.69461 29.5678 8.64793 29.6433C8.615 29.6963 8.58208 29.7492 8.54816 29.8038C8.44594 29.6518 8.40577 29.5391 8.355 29.365C8.3374 29.3051 8.31981 29.2452 8.30168 29.1836C8.2824 29.117 8.26313 29.0504 8.24386 28.9838C8.22333 28.9137 8.20278 28.8435 8.1822 28.7733C8.13767 28.6213 8.0933 28.4692 8.04906 28.317C7.9777 28.0717 7.90597 27.8265 7.83418 27.5812C7.80932 27.4963 7.78447 27.4115 7.75962 27.3266C7.74715 27.2839 7.73467 27.2413 7.72182 27.1974C7.68323 27.0655 7.64467 26.9336 7.60613 26.8017C7.42766 26.1911 7.24816 25.5808 7.06786 24.9708C7.04911 24.9073 7.04911 24.9073 7.02999 24.8426C6.9666 24.6281 6.9032 24.4137 6.83979 24.1992C6.7105 23.762 6.58137 23.3247 6.45227 22.8874C6.43301 22.8221 6.43301 22.8221 6.41335 22.7556C6.12278 21.7712 5.83345 20.7864 5.54438 19.8015C5.5322 19.76 5.52001 19.7185 5.50746 19.6757C5.40984 19.3431 5.31222 19.0106 5.21461 18.678C4.95375 17.7892 4.69257 16.9005 4.43116 16.0118C4.42027 15.9748 4.40938 15.9378 4.39816 15.8996C4.01433 14.5948 3.62923 13.2904 3.24391 11.986C2.84945 10.6506 2.45611 9.31493 2.06396 7.97889C2.0519 7.93779 2.03984 7.89669 2.02741 7.85435C1.93083 7.52532 1.83426 7.1963 1.73769 6.86727C1.48172 5.99515 1.22551 5.1231 0.969066 4.25112C0.912832 4.05991 0.856628 3.86869 0.800432 3.67746C0.758428 3.53456 0.716392 3.39166 0.674353 3.24877C0.644277 3.14649 0.614248 3.0442 0.584221 2.94191C0.487319 2.61222 0.389154 2.28296 0.288742 1.9543C0.269538 1.89114 0.250334 1.82798 0.230549 1.76291C0.194443 1.64443 0.158051 1.52603 0.121318 1.40774C0.105383 1.35537 0.0894466 1.30299 0.0730278 1.24903C0.0519692 1.1808 0.0519692 1.1808 0.0304852 1.11118C-0.000216699 0.9792 -0.00145072 0.864185 0.000664904 0.729285Z" fill="#FFFBF6"/>
<path d="M64.0297 5.60156C64.1877 5.7896 64.3234 5.98613 64.452 6.1946C64.4706 6.22406 64.4892 6.25353 64.5084 6.28389C64.6439 6.50239 64.6439 6.50239 64.6439 6.61638C64.6841 6.61403 64.7243 6.61167 64.7657 6.60925C65.1164 6.5973 65.3375 6.60044 65.6164 6.81934C65.8468 7.05365 65.8437 7.27415 65.8433 7.58541C65.8211 7.73268 65.8211 7.73268 65.7397 7.86568C65.6572 7.97612 65.6572 7.97612 65.6778 8.07628C65.7326 8.22756 65.81 8.35698 65.8925 8.49538C65.9101 8.525 65.9276 8.55463 65.9457 8.58515C66.0031 8.6817 66.0609 8.77803 66.1186 8.87435C66.1585 8.94126 66.1984 9.00817 66.2382 9.0751C66.3547 9.27057 66.4717 9.46574 66.5889 9.66084C66.6193 9.71155 66.6497 9.76227 66.681 9.81452C66.9068 10.1903 67.1338 10.5651 67.3658 10.9371C67.3922 10.9795 67.4185 11.0218 67.4457 11.0655C67.496 11.1462 67.5465 11.2267 67.5972 11.3071C67.7661 11.5778 67.7661 11.5778 67.7661 11.6905C67.8252 11.679 67.8843 11.6674 67.9452 11.6556C68.1892 11.6269 68.3746 11.6646 68.585 11.792C68.8138 12.0006 68.9325 12.1732 68.9593 12.4865C68.9552 12.7281 68.8812 12.9161 68.7385 13.1112C68.4776 13.3171 68.2643 13.3837 67.9374 13.379C67.7329 13.355 67.6249 13.2845 67.459 13.162C67.247 12.8911 67.18 12.6921 67.203 12.3501C67.2294 12.2894 67.2558 12.2287 67.283 12.1662C67.3645 11.9766 67.3618 11.9321 67.3054 11.7412C67.2452 11.6188 67.2452 11.6188 67.1667 11.496C67.1372 11.4479 67.1077 11.3998 67.0773 11.3503C67.0449 11.2982 67.0125 11.2462 66.9791 11.1926C66.9276 11.1086 66.876 11.0247 66.8246 10.9407C66.7878 10.8809 66.7511 10.821 66.7143 10.7612C66.4804 10.3805 66.2517 9.99677 66.0226 9.61327C65.9815 9.5444 65.9403 9.47553 65.8991 9.40667C65.8794 9.37367 65.8597 9.34066 65.8393 9.30665C65.8009 9.24245 65.7623 9.17831 65.7236 9.11426C65.6392 8.97439 65.5571 8.83408 65.479 8.69061C65.3449 8.42984 65.3449 8.42984 65.105 8.28092C65.0319 8.28269 65.0319 8.28269 64.9574 8.28449C64.9079 8.28436 64.8584 8.28423 64.8075 8.28409C64.7704 8.28632 64.7333 8.28854 64.6951 8.29083C64.682 8.32609 64.6689 8.36136 64.6554 8.39769C64.5851 8.5623 64.5002 8.71044 64.4086 8.86444C64.3907 8.89468 64.3728 8.92492 64.3543 8.95608C64.2964 9.05368 64.2382 9.15113 64.1801 9.24857C64.14 9.31602 64.0999 9.38347 64.0598 9.45093C63.9476 9.63945 63.8352 9.82776 63.7226 10.016C63.6978 10.0576 63.673 10.0993 63.6474 10.1421C63.4644 10.4484 63.2785 10.7522 63.0848 11.052C63.0539 11.1004 63.0229 11.1488 62.991 11.1986C62.9296 11.2944 62.8677 11.3898 62.8052 11.4848C62.7774 11.5283 62.7496 11.5718 62.721 11.6165C62.6958 11.6553 62.6705 11.694 62.6446 11.7339C62.5871 11.8642 62.5966 11.9152 62.6478 12.0457C62.6653 12.0783 62.6829 12.1109 62.701 12.1446C62.7928 12.3388 62.7788 12.5468 62.7502 12.756C62.7006 12.8591 62.7006 12.8591 62.6414 12.9495C62.5939 13.0295 62.5939 13.0295 62.5454 13.1112C62.6037 13.3107 62.7119 13.4833 62.8175 13.6616C62.8344 13.6901 62.8512 13.7186 62.8685 13.7479C62.9238 13.8413 62.9793 13.9345 63.0349 14.0277C63.0736 14.093 63.1123 14.1582 63.1511 14.2235C63.6043 14.9857 64.0594 15.7489 64.5408 16.494C64.6439 16.6631 64.6439 16.6631 64.6439 16.7646C64.6841 16.7622 64.7243 16.7599 64.7657 16.7574C65.1164 16.7455 65.3375 16.7486 65.6164 16.9675C65.8468 17.2018 65.8437 17.4223 65.8433 17.7336C65.8211 17.8809 65.8211 17.8809 65.7397 18.0139C65.6572 18.1243 65.6572 18.1243 65.6778 18.2245C65.7326 18.3757 65.81 18.5052 65.8925 18.6436C65.9101 18.6732 65.9276 18.7028 65.9457 18.7333C66.0031 18.8299 66.0609 18.9262 66.1186 19.0225C66.1585 19.0894 66.1984 19.1564 66.2382 19.2233C66.3547 19.4188 66.4717 19.6139 66.5889 19.809C66.6193 19.8597 66.6497 19.9104 66.681 19.9627C66.9068 20.3384 67.1338 20.7133 67.3658 21.0853C67.3922 21.1276 67.4185 21.17 67.4457 21.2137C67.496 21.2943 67.5465 21.3749 67.5972 21.4553C67.7661 21.726 67.7661 21.726 67.7661 21.8387C67.8037 21.8369 67.8414 21.8351 67.8802 21.8333C68.3888 21.8193 68.3888 21.8193 68.585 21.9909C68.8344 22.2558 68.9081 22.4171 68.9029 22.7756C68.8819 23.0257 68.778 23.1645 68.6138 23.3482C68.4576 23.4738 68.331 23.4719 68.1339 23.4814C67.9164 23.5105 67.839 23.5361 67.7021 23.7107C67.6659 23.7734 67.6308 23.8367 67.5965 23.9004C67.5568 23.9701 67.517 24.0398 67.4773 24.1094C67.4473 24.1632 67.4473 24.1632 67.4168 24.218C67.3227 24.3852 67.2232 24.5492 67.1241 24.7134C67.0849 24.779 67.0457 24.8445 67.0065 24.9101C66.9869 24.943 66.9672 24.9759 66.947 25.0098C66.8846 25.1144 66.8224 25.219 66.7602 25.3237C66.5638 25.6533 66.3656 25.9809 66.1564 26.3027C66.1223 26.3558 66.0881 26.409 66.053 26.4637C65.9895 26.562 65.925 26.6596 65.8595 26.7565C65.7831 26.8753 65.7157 26.9832 65.6676 27.1157C65.7187 27.2821 65.7187 27.2821 65.8211 27.4202C65.8379 27.5795 65.8379 27.5795 65.8339 27.7373C65.8331 27.7899 65.8323 27.8425 65.8315 27.8966C65.8211 28.029 65.8211 28.029 65.7699 28.1305C65.5696 28.1028 65.484 28.0139 65.3477 27.8705C65.2054 27.7242 65.0637 27.5851 64.9062 27.455C64.6233 27.2134 64.3788 26.936 64.1321 26.659C64.1092 26.6335 64.0863 26.608 64.0627 26.5817C61.4931 23.7055 60.3294 19.9291 60.335 16.1303C60.335 16.0879 60.3351 16.0455 60.3351 16.0019C60.341 13.597 60.8141 11.1731 61.8801 9.0012C61.9154 8.9292 61.9154 8.9292 61.9514 8.85574C62.424 7.90316 62.9743 7.01661 63.6321 6.17874C63.7227 6.05815 63.7995 5.93417 63.8762 5.80453C63.9265 5.73621 63.9774 5.66832 64.0297 5.60156Z" fill="#FFFBF6"/>
<path d="M55.0716 1.59251C55.1013 1.61462 55.1311 1.63673 55.1617 1.6595C55.9798 2.29093 56.4301 3.34796 56.607 4.33252C56.7087 5.8091 56.3691 6.97397 55.3886 8.09111C54.6478 8.87304 53.5124 9.3812 52.4341 9.41692C51.051 9.43866 49.9193 9.01772 48.9009 8.07783C48.0238 7.17155 47.6674 6.03071 47.6769 4.79829C47.6895 4.34648 47.7565 3.94817 47.906 3.52067C47.9239 3.46801 47.9419 3.41536 47.9604 3.36111C48.3946 2.22064 49.2738 1.39123 50.3715 0.873045C51.934 0.17778 53.7809 0.530709 55.0716 1.59251Z" fill="#B07F46"/>
<path d="M96.6839 1.1875C96.6599 1.31613 96.6293 1.39563 96.555 1.50562C96.4671 1.66625 96.4586 1.76709 96.46 1.94861C96.4596 1.99989 96.4592 2.05117 96.4588 2.10401C96.469 2.25751 96.469 2.25751 96.5636 2.38308C96.6328 2.50676 96.6328 2.50676 96.6074 2.62073C96.582 2.66685 96.5566 2.71296 96.5304 2.76047C96.513 2.79246 96.4957 2.82445 96.4778 2.85742C96.4106 2.97936 96.3412 3.09987 96.2713 3.22031C96.2447 3.26621 96.2182 3.31212 96.1908 3.35941C95.9227 3.81998 95.6462 4.27569 95.3646 4.72834C95.1987 4.99536 95.0352 5.26229 94.8851 5.53853C94.5598 6.12859 94.5598 6.12859 94.3345 6.22116C94.1916 6.23257 94.0625 6.22415 93.9201 6.21085C93.6788 6.29782 93.5421 6.39877 93.4083 6.61678C93.2716 6.95971 93.3176 7.19829 93.4594 7.53011C93.5106 7.68234 93.5106 7.68234 93.4345 7.83659C93.3965 7.89992 93.358 7.96292 93.3191 8.02563C93.2985 8.05965 93.278 8.09367 93.2568 8.12872C93.1905 8.23816 93.1234 8.34715 93.0564 8.45613C93.0131 8.5272 92.97 8.59829 92.9268 8.6694C92.7977 8.88191 92.668 9.09399 92.5381 9.30604C92.3179 9.66593 92.0988 10.0253 91.8956 10.395C91.8673 10.445 91.839 10.4949 91.8098 10.5464C91.7526 10.6475 91.6969 10.7494 91.6427 10.8521C91.4333 11.2131 91.4333 11.2131 91.2208 11.2749C91.071 11.2863 91.071 11.2863 90.9308 11.282C90.7076 11.287 90.5506 11.3933 90.3885 11.5386C90.2138 11.7767 90.1926 12.0148 90.2349 12.2998C90.2908 12.4974 90.3653 12.6478 90.53 12.776C90.7624 12.9053 90.9953 12.9672 91.2586 12.9086C91.5118 12.7987 91.7173 12.6627 91.8216 12.4012C91.9063 12.0353 91.837 11.8228 91.668 11.4879C91.716 11.386 91.716 11.386 91.7924 11.2606C91.8202 11.2145 91.848 11.1684 91.8766 11.1209C91.907 11.0714 91.9374 11.0219 91.9687 10.971C91.9996 10.92 92.0305 10.869 92.0623 10.8164C92.1523 10.6679 92.2428 10.5197 92.3334 10.3716C92.4071 10.2501 92.4806 10.1285 92.5541 10.0069C92.5712 9.9788 92.5883 9.95069 92.6058 9.92174C92.7931 9.61297 92.9785 9.30306 93.1639 8.99313C93.2006 8.93181 93.2372 8.8705 93.2739 8.8092C93.4575 8.50249 93.6407 8.19574 93.8177 7.8853C94.029 7.85701 94.2215 7.84677 94.4319 7.8853C94.588 8.01415 94.6613 8.17518 94.7486 8.35465C94.8038 8.45716 94.8592 8.55956 94.9147 8.66187C94.9438 8.7168 94.9728 8.77173 95.0027 8.82832C95.1538 9.1051 95.3211 9.37159 95.488 9.63921C95.7668 10.0872 96.041 10.5376 96.295 11C96.3629 11.1232 96.431 11.238 96.517 11.3498C96.5816 11.4372 96.5816 11.4372 96.572 11.5418C96.5304 11.6401 96.5304 11.6401 96.428 11.7923C96.4078 11.931 96.4078 11.931 96.4088 12.0841C96.4074 12.1351 96.4059 12.1861 96.4044 12.2387C96.4352 12.451 96.5171 12.5761 96.6328 12.7564C96.0955 13.6716 95.5539 14.584 94.9928 15.485C94.9219 15.6007 94.8534 15.7165 94.7863 15.8344C94.7686 15.8648 94.7509 15.8952 94.7326 15.9265C94.6833 16.0112 94.6349 16.0964 94.5865 16.1816C94.4831 16.3083 94.4831 16.3083 94.3358 16.3553C94.1952 16.3654 94.1952 16.3654 94.0506 16.3618C93.8107 16.3567 93.6663 16.4613 93.4978 16.6191C93.3559 16.8501 93.2846 17.0719 93.3233 17.3437C93.3857 17.5633 93.4724 17.7458 93.661 17.8874C93.8044 17.948 93.9376 17.9476 94.0928 17.9574C94.3274 17.983 94.4071 18.0063 94.5679 18.1825C94.6771 18.3461 94.7674 18.5111 94.8414 18.6931C94.8245 18.7266 94.8076 18.7601 94.7902 18.7946C94.1255 18.4657 93.4768 18.1413 92.8964 17.6783C92.8673 17.6553 92.8381 17.6323 92.8081 17.6086C91.1774 16.3107 90.1658 14.5169 89.9278 12.452C89.6472 9.70148 90.2542 6.82731 92.0175 4.6383C92.264 4.33904 92.5245 4.05413 92.7941 3.77529C92.8198 3.7484 92.8455 3.72152 92.872 3.69382C93.6727 2.86072 95.4455 1.1875 96.6839 1.1875Z" fill="#B07F46"/>
<path d="M97.6176 1.12931C97.8599 1.26648 98.0348 1.42523 98.1179 1.694C98.1602 2.00197 98.1335 2.19265 97.9643 2.45512C97.9822 2.69164 98.0544 2.84894 98.1802 3.04835C98.2322 3.13176 98.2322 3.13176 98.2852 3.21685C98.3038 3.24618 98.3224 3.27551 98.3415 3.30572C98.4411 3.46284 98.539 3.62096 98.6371 3.77894C98.6575 3.81168 98.6779 3.84441 98.6989 3.87814C98.9237 4.23975 99.1401 4.60615 99.3558 4.97314C99.5094 5.23426 99.5094 5.23426 99.6638 5.49493C99.7241 5.59781 99.7829 5.70156 99.84 5.80619C99.8789 5.87585 99.8789 5.87585 99.9186 5.94692C99.9406 5.98771 99.9626 6.0285 99.9853 6.07052C100.057 6.17171 100.057 6.17171 100.188 6.18125C100.274 6.17697 100.36 6.17018 100.445 6.16138C100.671 6.15758 100.818 6.27065 100.984 6.41291C101.174 6.60554 101.204 6.76083 101.214 7.0218C101.204 7.28277 101.174 7.43806 100.984 7.63069C100.764 7.81182 100.56 7.92736 100.268 7.90521C99.9808 7.84713 99.7732 7.73361 99.6022 7.49432C99.4784 7.27042 99.4539 7.06943 99.4998 6.81884C99.5345 6.74883 99.5697 6.67906 99.6053 6.60953C99.666 6.43924 99.66 6.37772 99.588 6.20876C99.4909 6.04135 99.3814 5.88191 99.2727 5.72179C99.1197 5.49086 98.9799 5.25186 98.8376 5.01436C98.7721 4.90598 98.7065 4.79763 98.6409 4.6893C98.2618 4.06297 97.8827 3.43664 97.5037 2.8103C97.3237 2.80108 97.165 2.80926 96.9918 2.86105C96.85 2.99468 96.77 3.15249 96.6815 3.32406C96.629 3.41821 96.5764 3.51236 96.5238 3.6065C96.4988 3.65288 96.4737 3.69927 96.4479 3.74705C96.3573 3.91311 96.2596 4.07324 96.1601 4.23422C96.1238 4.29409 96.0875 4.35402 96.0514 4.41399C96.0311 4.44757 96.0108 4.48115 95.99 4.51575C95.843 4.75994 95.6964 5.00434 95.5499 5.24886C95.5136 5.30945 95.4773 5.37002 95.441 5.43059C95.2361 5.77217 95.034 6.11466 94.8422 6.46365C94.8668 6.49473 94.8915 6.52582 94.9169 6.55785C95.0523 6.74461 95.0602 6.94852 95.0469 7.17402C95.0026 7.28771 94.9513 7.38261 94.8838 7.48422C94.825 7.61956 94.8541 7.69224 94.8934 7.83365C94.9652 7.97354 94.9652 7.97354 95.0581 8.11749C95.0927 8.17325 95.1274 8.22902 95.1631 8.28648C95.191 8.33079 95.191 8.33079 95.2194 8.37599C95.3187 8.53391 95.4168 8.69262 95.5149 8.85125C95.5353 8.88414 95.5557 8.91703 95.5767 8.95092C95.801 9.31332 96.0177 9.67998 96.2337 10.0472C96.2517 10.0778 96.2696 10.1083 96.2881 10.1398C96.3057 10.1696 96.3232 10.1994 96.3413 10.2301C96.4078 10.3432 96.4746 10.4562 96.5417 10.569C96.6019 10.6718 96.6604 10.7755 96.717 10.8803C96.7427 10.9267 96.7684 10.9732 96.7949 11.021C96.8166 11.0618 96.8383 11.1026 96.8607 11.1446C96.9364 11.2473 96.9364 11.2473 97.0781 11.2553C97.1731 11.2511 97.268 11.2444 97.3627 11.2357C97.597 11.2317 97.7452 11.3327 97.9131 11.487C98.116 11.7115 98.1462 11.9382 98.1354 12.2334C98.113 12.3816 98.0449 12.4783 97.9643 12.6033C97.9822 12.8398 98.0544 12.9971 98.1802 13.1965C98.2149 13.2521 98.2495 13.3077 98.2852 13.365C98.3038 13.3944 98.3224 13.4237 98.3415 13.4539C98.4411 13.611 98.539 13.7691 98.6371 13.9271C98.6575 13.9599 98.6779 13.9926 98.6989 14.0263C98.9237 14.3879 99.1401 14.7543 99.3558 15.1213C99.5094 15.3824 99.5094 15.3824 99.6638 15.6431C99.7241 15.746 99.7829 15.8497 99.84 15.9544C99.866 16.0008 99.8919 16.0473 99.9186 16.0951C99.9406 16.1359 99.9626 16.1767 99.9853 16.2187C100.057 16.3199 100.057 16.3199 100.188 16.3294C100.274 16.3252 100.36 16.3184 100.445 16.3096C100.671 16.3058 100.818 16.4188 100.984 16.5611C101.212 16.7924 101.213 17.0091 101.216 17.3172C101.18 17.5226 101.091 17.6508 100.984 17.8296C101.012 17.8754 101.04 17.9212 101.068 17.9685C101.292 18.3373 101.515 18.7066 101.736 19.077C101.838 19.2478 101.94 19.4185 102.042 19.5888C102.24 19.9168 102.436 20.2453 102.623 20.5791C102.655 20.6337 102.686 20.6882 102.718 20.7443C102.776 20.8451 102.833 20.9466 102.888 21.049C102.962 21.1762 103.026 21.2806 103.134 21.3815C103.293 21.418 103.433 21.3995 103.594 21.3815C103.865 21.4569 104.056 21.6028 104.209 21.8381C104.303 22.1197 104.301 22.3933 104.177 22.6659C104.042 22.905 103.854 23.0208 103.594 23.1067C103.263 23.134 103.098 23.0952 102.827 22.9037C102.623 22.6855 102.563 22.5225 102.558 22.2282C102.556 22.1579 102.556 22.1579 102.554 22.0861C102.571 21.9396 102.571 21.9396 102.658 21.798C102.744 21.6378 102.744 21.6378 102.672 21.4816C102.638 21.4281 102.605 21.3745 102.571 21.3192C102.553 21.2898 102.535 21.2603 102.516 21.2299C102.458 21.1338 102.398 21.0389 102.337 20.9438C102.296 20.8776 102.256 20.8112 102.215 20.7448C102.134 20.6121 102.052 20.4799 101.969 20.3479C101.842 20.1455 101.719 19.9411 101.596 19.7364C101.501 19.5771 101.404 19.4184 101.307 19.2597C101.198 19.0802 101.09 18.9005 100.981 18.7207C100.945 18.6616 100.909 18.6025 100.874 18.5434C100.827 18.4663 100.827 18.4663 100.779 18.3878C100.75 18.3411 100.72 18.2945 100.69 18.2464C100.626 18.1341 100.626 18.1341 100.626 18.0326C100.424 17.9855 100.263 17.975 100.063 18.0326C99.8644 18.243 99.741 18.4884 99.6085 18.7429C99.5716 18.8105 99.5344 18.878 99.497 18.9453C99.4258 19.0739 99.3557 19.203 99.2863 19.3326C99.1779 19.5312 99.0609 19.7208 98.9368 19.91C98.4531 19.8416 97.9748 19.7555 97.4973 19.6531C97.4447 19.6419 97.4447 19.6419 97.3911 19.6304C95.062 19.1267 95.062 19.1267 94.7126 18.6331C94.6794 18.5752 94.6461 18.5172 94.6118 18.4575C94.5942 18.4278 94.5765 18.3981 94.5583 18.3675C94.4327 18.1522 94.4327 18.1522 94.4327 18.0326C94.3999 18.0349 94.3671 18.0373 94.3333 18.0397C94.0073 18.0532 93.8264 18.0232 93.5626 17.8296C93.3496 17.6299 93.2715 17.4052 93.2555 17.1192C93.2968 16.8009 93.4286 16.6099 93.6794 16.4136C93.8034 16.3354 93.8975 16.3061 94.0444 16.3142C94.2087 16.3203 94.3277 16.3096 94.4839 16.2566C94.6665 16.0649 94.779 15.8389 94.8997 15.6065C94.9362 15.5401 94.9729 15.4737 95.0099 15.4075C95.0672 15.3047 95.1243 15.2018 95.1807 15.0984C95.3811 14.7312 95.6003 14.3762 95.821 14.0209C96.0798 13.6018 96.3343 13.1809 96.5824 12.7555C96.5317 12.6865 96.5317 12.6865 96.48 12.616C96.3324 12.3613 96.3326 12.0768 96.3776 11.7914C96.4045 11.7561 96.4314 11.7207 96.459 11.6842C96.5423 11.5965 96.5423 11.5965 96.5213 11.5007C96.4656 11.3452 96.3856 11.2126 96.3009 11.0706C96.2829 11.0403 96.2649 11.01 96.2464 10.9787C96.188 10.8806 96.1293 10.7826 96.0706 10.6847C96.0302 10.6169 95.9898 10.5491 95.9494 10.4814C95.8366 10.2921 95.7233 10.103 95.6099 9.91403C95.5853 9.87288 95.5606 9.83173 95.5353 9.78933C95.347 9.47516 95.1557 9.16306 94.9625 8.85184C94.9295 8.79849 94.8965 8.74514 94.8625 8.69018C94.7965 8.58363 94.7304 8.47721 94.664 8.37092C94.6341 8.32254 94.6041 8.27416 94.5733 8.22432C94.5462 8.1808 94.5191 8.13729 94.4912 8.09245C94.4327 7.98588 94.4327 7.98588 94.4327 7.88439C94.23 7.88439 94.0273 7.88439 93.8185 7.88439C93.7847 7.96812 93.751 8.05184 93.7162 8.1381C93.6484 8.26399 93.5794 8.38837 93.5082 8.51231C93.4773 8.5664 93.4773 8.5664 93.4457 8.62157C93.1851 9.07532 92.9119 9.52138 92.6372 9.9669C92.559 10.0938 92.481 10.2207 92.4029 10.3477C92.345 10.4417 92.2869 10.5357 92.2288 10.6296C91.952 11.0719 91.952 11.0719 91.72 11.5377C91.7783 11.6692 91.7783 11.6692 91.8736 11.7914C91.9446 12.0981 91.9362 12.3286 91.7712 12.6033C91.675 12.7085 91.5838 12.7747 91.4641 12.857C91.4324 12.879 91.4008 12.901 91.3681 12.9236C91.1075 13.0072 90.8779 12.985 90.6324 12.876C90.3888 12.7427 90.2718 12.5582 90.1846 12.2989C90.1423 11.9953 90.1809 11.7747 90.3619 11.5239C90.4886 11.3826 90.6174 11.2876 90.7987 11.2333C90.8898 11.2327 90.9808 11.2333 91.0718 11.2349C91.2454 11.2203 91.3317 11.211 91.4589 11.0907C91.548 10.955 91.6219 10.8171 91.6944 10.672C91.7547 10.561 91.815 10.4502 91.8756 10.3394C91.8914 10.3098 91.9072 10.2802 91.9234 10.2498C92.1101 9.90064 92.3152 9.56254 92.52 9.22364C92.582 9.12083 92.6438 9.01783 92.7054 8.91476C92.7348 8.86564 92.7348 8.86564 92.7648 8.81552C92.8034 8.751 92.8419 8.68643 92.8804 8.6218C92.9749 8.46359 93.0718 8.30795 93.1746 8.15482C93.1942 8.1251 93.2138 8.09538 93.234 8.06475C93.2876 7.98377 93.3423 7.90345 93.3971 7.82319C93.4769 7.68443 93.4769 7.68443 93.422 7.5428C93.4008 7.50482 93.3797 7.46685 93.3579 7.42773C93.2566 7.13649 93.2335 6.9109 93.3481 6.62003C93.4797 6.39197 93.6716 6.24159 93.9209 6.1592C93.9616 6.16145 94.0024 6.16369 94.0444 6.16601C94.2087 6.17214 94.3277 6.16145 94.4839 6.10846C94.6665 5.91676 94.779 5.6907 94.8997 5.45835C94.9362 5.39189 94.9729 5.32556 95.0099 5.25936C95.0672 5.15651 95.1243 5.05358 95.1807 4.95022C95.3811 4.58304 95.6003 4.22805 95.821 3.87269C95.9233 3.70704 96.0254 3.54128 96.1266 3.37497C96.1938 3.26548 96.2626 3.15685 96.3324 3.04897C96.3662 2.99539 96.4 2.94181 96.4348 2.88661C96.4656 2.83897 96.4964 2.79132 96.5282 2.74223C96.5978 2.60848 96.5978 2.60848 96.5436 2.46938C96.5226 2.43118 96.5016 2.39299 96.48 2.35364C96.3729 2.14135 96.4069 1.87444 96.4288 1.64326C96.5394 1.41601 96.6811 1.27884 96.8895 1.13585C97.134 1.05506 97.3736 1.03466 97.6176 1.12931Z" fill="#FFFBF6"/>
<path d="M64.9497 18.3828C65.107 18.3967 65.1814 18.4139 65.2967 18.5221C65.379 18.6424 65.4466 18.7653 65.5139 18.8944C65.5666 18.982 65.6197 19.0693 65.6732 19.1564C65.7279 19.2487 65.7825 19.3411 65.837 19.4335C65.8961 19.5332 65.9552 19.6329 66.0143 19.7326C66.0428 19.7806 66.0712 19.8286 66.1005 19.878C66.2005 20.0464 66.3016 20.2142 66.4032 20.3817C66.4202 20.4101 66.4371 20.4384 66.4546 20.4677C66.5806 20.6775 66.7117 20.8838 66.8442 21.0897C66.8987 21.1759 66.9532 21.2622 67.0075 21.3485C67.0613 21.4333 67.1165 21.5173 67.1716 21.6013C67.2044 21.6536 67.2371 21.7059 67.2709 21.7599C67.3009 21.8066 67.331 21.8533 67.3619 21.9014C67.4076 22.0403 67.4076 22.0403 67.3408 22.2007C67.3122 22.2482 67.2836 22.2958 67.2541 22.3448C67.2283 22.4947 67.2283 22.4947 67.2317 22.646C67.2302 22.7205 67.2302 22.7205 67.2287 22.7965C67.2622 23.0039 67.3459 23.1318 67.4588 23.3088C66.4969 24.9424 66.4969 24.9424 66.0861 25.609C65.9432 25.8418 65.8056 26.0737 65.6828 26.3176C65.3944 26.8799 65.3944 26.8799 65.1372 26.9751C64.965 26.9901 64.8148 26.9845 64.6438 26.9622C64.5762 26.9622 64.5087 26.9622 64.4391 26.9622C63.5642 26.3439 62.878 25.0919 62.3567 24.1867C62.3098 24.1053 62.262 24.0245 62.2134 23.9441C62.1775 23.8834 62.1775 23.8834 62.1408 23.8214C62.1081 23.7669 62.1081 23.7669 62.0747 23.7113C62.0335 23.6133 62.0335 23.6133 62.0847 23.4611C62.172 23.4143 62.172 23.4143 62.2798 23.3723C62.4716 23.2814 62.574 23.1979 62.6671 23.0076C62.7289 22.8041 62.7304 22.6047 62.6988 22.3955C62.6241 22.2535 62.6241 22.2535 62.5453 22.1418C62.568 21.9812 62.6348 21.8608 62.7182 21.723C62.7439 21.6803 62.7695 21.6377 62.7959 21.5937C62.8241 21.5475 62.8522 21.5013 62.8812 21.4536C62.942 21.3527 63.0028 21.2519 63.0635 21.151C63.0958 21.0976 63.1281 21.0442 63.1613 20.9893C63.2985 20.7619 63.4344 20.5338 63.5703 20.3057C63.6397 20.1895 63.7094 20.0734 63.7794 19.9575C63.9422 19.6876 64.1016 19.4172 64.2513 19.14C64.2778 19.0924 64.3043 19.0447 64.3316 18.9957C64.3804 18.9076 64.4278 18.8187 64.4733 18.7289C64.5983 18.5071 64.6868 18.4087 64.9497 18.3828Z" fill="#B07F46"/>
<path d="M0 0.730469C2.12817 0.730469 4.25635 0.730469 6.44901 0.730469C6.36456 0.814191 6.28011 0.897914 6.1931 0.984173C6.01205 1.1946 6.01765 1.39913 6.02375 1.66482C6.04281 1.82314 6.10386 1.91896 6.1931 2.04973C6.17418 2.27499 6.07465 2.43516 5.95838 2.62632C5.93948 2.65762 5.92059 2.68893 5.90113 2.72118C5.83885 2.82422 5.77606 2.92694 5.71326 3.02967C5.66974 3.10144 5.62625 3.17324 5.5828 3.24507C5.51499 3.35713 5.44713 3.46918 5.37913 3.58113C5.21614 3.84948 5.05462 4.11866 4.89394 4.38837C4.87182 4.42547 4.8497 4.46258 4.82691 4.5008C4.7408 4.64524 4.6547 4.78968 4.56874 4.9342C4.50944 5.03385 4.44999 5.1334 4.39051 5.23293C4.35676 5.28956 4.32301 5.34619 4.28824 5.40453C4.13533 5.64968 4.13533 5.64968 4.04343 5.75382C3.90487 5.7776 3.90487 5.7776 3.74593 5.77919C3.39864 5.79788 3.23475 5.88413 3.00058 6.14072C2.88831 6.37189 2.88085 6.5669 2.91741 6.81938C2.96623 6.92199 3.01698 7.02378 3.07096 7.12382C3.05152 7.33429 2.96925 7.47979 2.85803 7.65759C2.82586 7.70943 2.7937 7.76127 2.76056 7.81467C2.72681 7.86821 2.69307 7.92175 2.6583 7.9769C2.62435 8.03142 2.59041 8.08594 2.55543 8.14211C2.4717 8.27648 2.38762 8.41062 2.30322 8.54457C2.17625 8.4187 2.15738 8.32506 2.10762 8.15418C2.08954 8.0927 2.07146 8.03123 2.05283 7.96789C2.03306 7.89941 2.01329 7.83093 1.99352 7.76244C1.97252 7.69061 1.95149 7.61879 1.93043 7.54698C1.87324 7.35166 1.81646 7.15622 1.75975 6.96077C1.70036 6.75627 1.64063 6.55186 1.58091 6.34745C1.50626 6.09185 1.43162 5.83625 1.35713 5.58061C1.19142 5.01211 1.02409 4.44411 0.855536 3.87643C0.781031 3.62543 0.706693 3.37438 0.632331 3.12333C0.572743 2.92223 0.513048 2.72116 0.453126 2.52016C0.396731 2.33097 0.340636 2.14169 0.28476 1.95235C0.264263 1.88309 0.243656 1.81386 0.222927 1.74467C0.194525 1.64983 0.166555 1.55485 0.138603 1.45987C0.122864 1.40689 0.107125 1.35391 0.0909097 1.29932C0.0454081 1.11271 0.0240198 0.920969 0 0.730469Z" fill="#B07F46"/>
<path d="M6.8295 12.4277C7.02138 12.4483 7.09447 12.4818 7.2288 12.6208C7.34115 12.7886 7.43718 12.9613 7.53026 13.1399C7.56573 13.204 7.60142 13.2681 7.63732 13.332C7.70716 13.4568 7.77596 13.5821 7.8438 13.708C7.94488 13.8937 8.05218 14.0733 8.16365 14.253C8.21691 14.341 8.27017 14.429 8.32339 14.517C8.37946 14.6096 8.43558 14.7022 8.49173 14.7948C8.58544 14.9494 8.67883 15.1042 8.77208 15.259C8.80978 15.3216 8.84757 15.384 8.88546 15.4464C8.93887 15.5344 8.99191 15.6226 9.04495 15.7108C9.07605 15.7623 9.10716 15.8138 9.13921 15.8669C9.20257 15.9844 9.24844 16.0747 9.26407 16.2065C9.24019 16.2381 9.2163 16.2696 9.1917 16.3021C9.03775 16.5058 9.08415 16.775 9.11052 17.0184C9.15944 17.121 9.20996 17.2229 9.26407 17.3228C9.20184 17.5238 9.09555 17.6982 8.98837 17.8786C8.96273 17.9219 8.96273 17.9219 8.93658 17.9661C8.88065 18.0605 8.82445 18.1547 8.76824 18.2489C8.72912 18.3147 8.69 18.3805 8.65089 18.4464C8.33346 18.9802 8.01394 19.5128 7.68941 20.0424C7.58962 20.2058 7.49344 20.3697 7.4031 20.5384C7.17901 20.9495 7.17901 20.9495 6.98705 21.0287C6.85209 21.0523 6.85209 21.0523 6.72194 21.0626C6.5174 21.0884 6.43432 21.1837 6.29548 21.3314C6.19981 21.4912 6.19981 21.4912 6.14193 21.6358C6.03324 21.4742 5.99173 21.3445 5.9374 21.1583C5.92289 21.109 5.92289 21.109 5.90808 21.0587C5.87595 20.9493 5.8442 20.8397 5.81244 20.7302C5.78974 20.6526 5.76702 20.5751 5.74427 20.4975C5.68399 20.2918 5.62402 20.086 5.56412 19.8802C5.49351 19.6377 5.42256 19.3953 5.35162 19.1529C5.29302 18.9527 5.23457 18.7525 5.17644 18.5522C5.05812 18.1451 4.93723 17.739 4.81178 17.334C4.7753 17.2151 4.73889 17.0963 4.7025 16.9774C4.6792 16.9019 4.6556 16.8266 4.6317 16.7513C4.59876 16.6476 4.56683 16.5436 4.53508 16.4395C4.50749 16.3515 4.50748 16.3515 4.47933 16.2617C4.43321 15.9883 4.58067 15.7979 4.71522 15.5665C4.74689 15.512 4.77856 15.4575 4.8112 15.4013C4.84497 15.3437 4.87875 15.286 4.91355 15.2266C4.93955 15.1821 4.93955 15.1821 4.96608 15.1366C5.18412 14.7631 5.40398 14.3911 5.64151 14.0294C5.7743 13.8249 5.89173 13.6158 6.00558 13.4003C6.03606 13.3443 6.06653 13.2882 6.09793 13.2305C6.15814 13.1193 6.21665 13.0072 6.2732 12.8941C6.4167 12.6328 6.51725 12.4662 6.8295 12.4277Z" fill="#B07F46"/>
<path d="M61.8433 13.3105C62.033 13.3206 62.1098 13.339 62.2462 13.4724C62.351 13.6277 62.4395 13.7855 62.5263 13.9513C62.5593 14.0107 62.5926 14.0699 62.6261 14.129C62.6913 14.2451 62.7557 14.3616 62.8192 14.4787C62.9177 14.6588 63.0227 14.8329 63.1309 15.0074C63.2784 15.2509 63.4248 15.4951 63.5707 15.7396C63.5892 15.7704 63.6076 15.8013 63.6266 15.8331C63.72 15.9896 63.8133 16.146 63.9066 16.3026C63.9408 16.36 63.9751 16.4174 64.0104 16.4765C64.0412 16.5283 64.072 16.58 64.1038 16.6333C64.162 16.7292 64.2231 16.8234 64.2857 16.9165C64.2719 17.0495 64.2464 17.1485 64.1821 17.2662C64.0964 17.4496 64.1024 17.6321 64.1321 17.8299C64.1796 17.9284 64.1796 17.9284 64.2409 18.017C64.3369 18.185 64.3369 18.185 64.3024 18.3295C64.2339 18.4909 64.1558 18.633 64.063 18.7818C64.0282 18.838 63.9935 18.8941 63.9577 18.9519C63.9392 18.9815 63.9207 19.011 63.9017 19.0414C63.803 19.1992 63.7053 19.3575 63.6075 19.5158C63.5874 19.5483 63.5672 19.5808 63.5465 19.6143C63.3007 20.012 63.0623 20.4139 62.824 20.8161C62.7619 20.9206 62.6995 21.0248 62.6366 21.1288C62.5743 21.2324 62.5132 21.3367 62.4534 21.4416C62.4083 21.5177 62.4083 21.5177 62.3623 21.5954C62.3361 21.6409 62.3099 21.6864 62.2829 21.7332C62.155 21.8738 62.0607 21.8785 61.8737 21.8923C61.8229 21.8908 61.7721 21.8893 61.7197 21.8877C61.5604 21.8892 61.462 21.9288 61.3171 21.9906C60.6782 20.141 60.3483 18.2579 60.3211 16.3021C60.3197 16.2271 60.3176 16.1521 60.3148 16.0771C60.2957 15.5582 60.3525 15.2425 60.7029 14.8361C60.7847 14.7072 60.8569 14.5736 60.93 14.4397C60.9695 14.3701 61.009 14.3006 61.0486 14.231C61.1239 14.0973 61.1952 13.9625 61.2641 13.8255C61.2966 13.7649 61.3292 13.7043 61.3619 13.6437C61.3892 13.5898 61.4165 13.5359 61.4446 13.4804C61.5899 13.3494 61.6517 13.3322 61.8433 13.3105Z" fill="#B07F46"/>
<path d="M97.6572 13.1114C97.7213 13.2086 97.7821 13.3079 97.8406 13.4085C97.8575 13.4375 97.8745 13.4664 97.8919 13.4962C97.9283 13.5584 97.9646 13.6208 98.0007 13.6832C98.097 13.8494 98.1943 14.015 98.2914 14.1807C98.321 14.2313 98.321 14.2313 98.3512 14.2829C98.5444 14.613 98.7417 14.9407 98.94 15.2679C98.9715 15.3201 99.003 15.3724 99.0355 15.4262C99.1665 15.6427 99.2981 15.8583 99.4374 16.0696C99.4576 16.1006 99.4778 16.1315 99.4986 16.1634C99.549 16.2399 99.6004 16.3158 99.652 16.3915C99.7045 16.511 99.7045 16.511 99.6664 16.6218C99.6452 16.6523 99.624 16.6827 99.6022 16.714C99.4941 16.9283 99.4598 17.137 99.4998 17.3736C99.5478 17.4707 99.5478 17.4707 99.6086 17.5607C99.7045 17.7288 99.7045 17.7288 99.6729 17.8429C99.5841 18.0182 99.4864 18.1871 99.3849 18.3554C99.3638 18.3906 99.3427 18.4258 99.321 18.462C99.2765 18.5361 99.232 18.6102 99.1874 18.6842C99.1193 18.7972 99.0516 18.9104 98.9839 19.0236C98.9406 19.0958 98.8972 19.168 98.8538 19.2401C98.8337 19.2738 98.8135 19.3075 98.7928 19.3422C98.6948 19.5045 98.5946 19.6608 98.4762 19.8092C97.915 19.7504 97.3668 19.6209 96.8178 19.4945C96.6505 19.4577 96.4833 19.4271 96.3145 19.3977C95.859 19.3043 95.5566 19.1973 95.2771 18.8124C94.7736 18.0228 94.7736 18.0228 94.8044 17.7724C94.8422 17.6781 94.8422 17.6781 94.9254 17.5195C95.0281 17.2878 95.0065 17.0571 94.9446 16.8155C94.8946 16.7302 94.8436 16.6455 94.791 16.5618C94.81 16.5305 94.829 16.4993 94.8485 16.4671C95.2301 15.838 95.6103 15.2082 95.9874 14.5765C96.4977 13.7222 96.4977 13.7222 96.6496 13.4698C96.6832 13.4138 96.7167 13.3579 96.7513 13.3003C96.9588 12.9708 96.9588 12.9708 97.1004 12.9211C97.1396 12.9169 97.1787 12.9127 97.219 12.9084C97.258 12.9032 97.297 12.898 97.3372 12.8926C97.5012 12.9151 97.5481 12.9896 97.6572 13.1114Z" fill="#B07F46"/>
<path d="M3.70334 7.35742C3.90104 7.37505 3.97203 7.40726 4.10894 7.55179C4.22596 7.73013 4.32587 7.91173 4.42389 8.1007C4.46112 8.16855 4.49858 8.23628 4.53625 8.30388C4.61134 8.43903 4.68542 8.57464 4.75875 8.71073C4.89545 8.96291 5.04427 9.20744 5.19483 9.45167C5.24339 9.53152 5.29191 9.6114 5.34038 9.69131C5.37443 9.74724 5.37443 9.74724 5.40916 9.80431C5.51705 9.98158 5.62467 10.159 5.73225 10.3365C5.76708 10.3938 5.80192 10.4512 5.83781 10.5103C5.87054 10.5649 5.90326 10.6195 5.93698 10.6758C5.95659 10.7068 5.97619 10.7379 5.9964 10.7699C6.14558 11.0125 6.14558 11.0125 6.10652 11.1991C6.06739 11.2785 6.02804 11.3578 5.98816 11.4369C5.95774 11.6797 5.95821 11.8732 6.09692 12.0807C6.19289 12.2488 6.19289 12.2488 6.15832 12.3934C6.09035 12.5536 6.01314 12.6944 5.92078 12.842C5.88627 12.8976 5.85176 12.9533 5.81621 13.0106C5.79783 13.04 5.77946 13.0693 5.76052 13.0995C5.66245 13.2561 5.56542 13.4134 5.46834 13.5706C5.44816 13.6032 5.42799 13.6359 5.4072 13.6695C5.17687 14.043 4.95364 14.4205 4.73099 14.7985C4.71171 14.8312 4.69243 14.8639 4.67257 14.8976C4.565 15.0801 4.45758 15.2627 4.35032 15.4454C4.24795 15.3947 4.24795 15.3947 4.2 15.2673C4.18345 15.2103 4.1669 15.1534 4.14985 15.0946C4.14057 15.0631 4.13129 15.0316 4.12173 14.9991C4.09072 14.8933 4.06028 14.7875 4.02983 14.6816C4.00797 14.6067 3.98607 14.5319 3.96413 14.4571C3.89292 14.2137 3.82247 13.9702 3.75212 13.7266C3.65537 13.3917 3.5585 13.0569 3.46142 12.7221C3.44325 12.6593 3.44325 12.6593 3.42471 12.5952C3.26462 12.0428 3.09608 11.4943 2.9168 10.9477C2.8609 10.7739 2.80518 10.6 2.74952 10.426C2.71446 10.3186 2.67839 10.2115 2.64128 10.1048C2.34636 9.25545 2.34636 9.25545 2.46862 8.94687C2.56363 8.76309 2.68781 8.60631 2.81484 8.4432C2.86845 8.34719 2.92015 8.25011 2.96939 8.15183C3.017 8.065 3.06465 7.97819 3.11234 7.89139C3.13507 7.84619 3.1578 7.801 3.18122 7.75443C3.31662 7.51468 3.41978 7.39424 3.70334 7.35742Z" fill="#B07F46"/>
<path d="M48.8786 1.89844C49.1072 2.08965 49.229 2.34058 49.3712 2.59613C49.5533 2.91779 49.7371 3.23668 49.9374 3.54752C50.1883 3.93816 50.4244 4.33722 50.6604 4.73676C50.6887 4.78461 50.6887 4.78461 50.7176 4.83343C50.8071 4.98485 50.8962 5.13643 50.9847 5.28845C51.0439 5.3896 51.104 5.49023 51.1655 5.59005C51.1898 5.63027 51.214 5.67049 51.239 5.71193C51.26 5.74578 51.2809 5.77963 51.3026 5.81451C51.3354 5.90697 51.3354 5.90697 51.249 6.08773C51.2178 6.13041 51.2178 6.13041 51.186 6.17395C51.0885 6.32932 51.0929 6.49495 51.1306 6.66808C51.1748 6.73143 51.2191 6.79465 51.2636 6.85777C51.3195 6.97857 51.3195 6.97857 51.3354 7.12475C51.2195 7.42421 51.0467 7.68407 50.8715 7.95246C50.8249 8.02679 50.7784 8.10122 50.7321 8.17574C50.3927 8.71798 50.3927 8.71798 50.2093 8.95142C49.9577 8.88216 49.7624 8.76979 49.5536 8.61844C49.5222 8.59576 49.4907 8.57308 49.4584 8.54972C48.5451 7.87743 47.8938 6.85234 47.7166 5.73143C47.6282 4.98218 47.6562 4.23685 47.9061 3.52215C47.933 3.44317 47.933 3.44317 47.9605 3.36259C48.1668 2.82073 48.4999 2.33605 48.8786 1.89844Z" fill="#B07F46"/>
<path d="M9.16229 35.0312C9.33072 35.1847 9.3971 35.3583 9.47718 35.5666C9.49994 35.6244 9.49994 35.6244 9.52317 35.6833C9.57278 35.8094 9.62184 35.9356 9.67091 36.0619C9.70503 36.1488 9.73919 36.2357 9.7734 36.3226C9.8256 36.4552 9.87777 36.5878 9.92978 36.7205C10.0827 37.1104 10.2384 37.4993 10.3954 37.8877C10.4349 37.9856 10.4744 38.0835 10.5138 38.1814C10.6237 38.4617 10.6237 38.4617 10.7489 38.7353C11.2466 37.5864 11.7415 36.4364 12.2332 35.285C12.4697 35.285 12.7062 35.285 12.9498 35.285C12.7594 35.7882 12.5513 36.2817 12.3363 36.775C12.235 37.0075 12.1341 37.2401 12.0333 37.4728C12.0123 37.5213 11.9913 37.5697 11.9696 37.6197C11.7202 38.1956 11.4744 38.7731 11.2288 39.3506C11.2071 39.4015 11.1855 39.4524 11.1632 39.5048C11.0421 39.7895 10.9211 40.0743 10.8001 40.359C10.6466 40.3083 10.6466 40.3083 10.5737 40.1674C10.5477 40.104 10.5224 40.0403 10.4976 39.9765C10.4836 39.9418 10.4696 39.9072 10.4552 39.8715C10.4089 39.7567 10.3635 39.6415 10.3181 39.5264C10.2862 39.4468 10.2543 39.3672 10.2224 39.2877C10.1383 39.0781 10.0549 38.8682 9.9717 38.6583C9.88668 38.4442 9.80101 38.2304 9.7154 38.0165C9.54745 37.5968 9.38023 37.1767 9.21347 36.7564C9.06687 36.9415 8.97707 37.1346 8.88738 37.3511C8.8629 37.4091 8.8629 37.4091 8.83793 37.4684C8.78478 37.5946 8.73202 37.721 8.67925 37.8474C8.62431 37.978 8.56927 38.1087 8.51422 38.2393C8.47715 38.3273 8.44012 38.4153 8.40311 38.5033C8.23222 38.9094 8.05809 39.3142 7.88272 39.7184C7.84359 39.8088 7.84359 39.8088 7.80366 39.9009C7.74477 40.0367 7.68582 40.1725 7.62681 40.3083C7.57614 40.3083 7.52547 40.3083 7.47326 40.3083C7.27985 39.8234 7.08671 39.3383 6.89378 38.8532C6.76985 38.5416 6.64571 38.2302 6.52144 37.9187C6.41842 37.6605 6.31556 37.4022 6.21281 37.1439C6.14895 36.9834 6.08502 36.8229 6.0209 36.6624C5.94834 36.4808 5.87606 36.299 5.80383 36.1172C5.77093 36.0351 5.77093 36.0351 5.73736 35.9514C5.71728 35.9007 5.69719 35.8499 5.67649 35.7977C5.65892 35.7536 5.64135 35.7095 5.62324 35.6641C5.5795 35.5387 5.5795 35.5387 5.52832 35.285C5.74789 35.285 5.96747 35.285 6.19369 35.285C6.35126 35.5846 6.47948 35.8866 6.59796 36.2032C6.61625 36.2515 6.63455 36.2998 6.6534 36.3496C6.7115 36.5031 6.76931 36.6567 6.82708 36.8104C6.90307 37.0118 6.97919 37.2133 7.0554 37.4147C7.07367 37.463 7.09193 37.5113 7.11075 37.5611C7.26008 37.9548 7.4154 38.3458 7.57562 38.7353C8.11876 37.5065 8.64189 36.2697 9.16229 35.0312Z" fill="#B07F46"/>
<path d="M58.8086 35.0312C58.9397 35.148 59.0111 35.2632 59.0881 35.4198C59.1119 35.4678 59.1357 35.5158 59.1602 35.5653C59.1856 35.6175 59.211 35.6696 59.2372 35.7234C59.2641 35.7778 59.2909 35.8323 59.3186 35.8884C59.4048 36.0634 59.4906 36.2387 59.5763 36.4139C59.6325 36.5281 59.6887 36.6422 59.7449 36.7562C60.1019 37.4818 60.4545 38.2095 60.8047 38.9383C60.947 38.7656 61.0446 38.5768 61.1432 38.3777C61.1699 38.3244 61.1699 38.3244 61.1972 38.2699C61.2358 38.1929 61.2742 38.1159 61.3126 38.0388C61.3733 37.917 61.4342 37.7953 61.4952 37.6736C61.6687 37.3278 61.8415 36.9817 62.0143 36.6355C62.1201 36.4236 62.2262 36.2119 62.3324 36.0002C62.3729 35.9194 62.4132 35.8386 62.4535 35.7577C62.5095 35.645 62.566 35.5324 62.6225 35.4199C62.6474 35.3694 62.6474 35.3694 62.6729 35.3179C62.7892 35.0878 62.7892 35.0878 62.9032 35.0312C63.021 35.6323 63.1223 36.2351 63.2173 36.8401C63.232 36.9331 63.2467 37.0261 63.2614 37.1191C63.2919 37.3121 63.3223 37.5051 63.3526 37.6981C63.3915 37.9458 63.4306 38.1934 63.4698 38.441C63.5 38.6322 63.5302 38.8233 63.5603 39.0145C63.5747 39.1059 63.5891 39.1973 63.6036 39.2887C63.6236 39.4156 63.6436 39.5425 63.6635 39.6694C63.6694 39.7071 63.6754 39.7448 63.6816 39.7837C63.7221 40.043 63.7221 40.043 63.7221 40.1561C63.5025 40.1561 63.283 40.1561 63.0567 40.1561C62.9601 39.5753 62.8663 38.9943 62.7832 38.4115C62.7775 38.3713 62.7718 38.3311 62.7659 38.2897C62.7373 38.0891 62.7091 37.8885 62.6812 37.6879C62.6708 37.6137 62.6603 37.5396 62.6499 37.4654C62.6407 37.3996 62.6316 37.3338 62.6221 37.266C62.6047 37.1163 62.6047 37.1163 62.5449 37.0101C62.3773 37.3411 62.2099 37.6722 62.0426 38.0033C61.9858 38.1156 61.9291 38.2278 61.8722 38.34C61.542 38.9923 61.2158 39.6457 60.9071 40.3083C60.8564 40.3083 60.8057 40.3083 60.7535 40.3083C60.7317 40.2634 60.7098 40.2185 60.6873 40.1723C60.5847 39.9618 60.482 39.7513 60.3792 39.5408C60.3607 39.5028 60.3421 39.4648 60.323 39.4256C60.0701 38.908 59.8153 38.3915 59.5528 37.8787C59.3981 37.5752 59.258 37.2698 59.1157 36.9594C58.9468 38.0143 58.7779 39.0692 58.6039 40.1561C58.3843 40.1561 58.1647 40.1561 57.9385 40.1561C58.0638 39.2167 58.2253 38.2833 58.3851 37.3492C58.4239 37.1225 58.4624 36.8958 58.5009 36.669C58.5307 36.4932 58.5607 36.3175 58.5907 36.1417C58.605 36.058 58.6192 35.9743 58.6335 35.8906C58.6532 35.7745 58.673 35.6585 58.6929 35.5425C58.7042 35.4766 58.7154 35.4108 58.727 35.3429C58.7574 35.1835 58.7574 35.1835 58.8086 35.0312Z" fill="#B07F46"/>
<path d="M20.0631 35.0312C20.0968 35.0312 20.1306 35.0312 20.1654 35.0312C20.5341 35.7769 20.9023 36.5227 21.27 37.2687C21.316 37.3621 21.362 37.4554 21.408 37.5487C21.5152 37.7662 21.6222 37.9837 21.7288 38.2014C21.7738 38.2931 21.8189 38.3847 21.8641 38.4763C21.8904 38.5302 21.9167 38.5841 21.9438 38.6396C21.9776 38.7085 21.9776 38.7085 22.0121 38.7788C22.0592 38.8876 22.0592 38.8876 22.0592 38.989C22.093 38.989 22.1267 38.989 22.1615 38.989C22.1747 38.9464 22.1879 38.9038 22.2014 38.8599C22.269 38.6704 22.3534 38.4937 22.4447 38.3147C22.4627 38.279 22.4807 38.2433 22.4992 38.2066C22.5583 38.0895 22.6176 37.9726 22.677 37.8557C22.7182 37.7742 22.7593 37.6928 22.8005 37.6113C22.9085 37.3975 23.0168 37.1838 23.1251 36.9701C23.2357 36.7518 23.3461 36.5334 23.4565 36.315C23.6729 35.887 23.8896 35.4591 24.1065 35.0312C24.1403 35.0312 24.174 35.0312 24.2089 35.0312C24.3092 35.6619 24.4093 36.2927 24.5092 36.9235C24.5555 37.2163 24.602 37.5092 24.6486 37.8021C24.6936 38.0847 24.7383 38.3673 24.783 38.6499C24.8001 38.7578 24.8172 38.8656 24.8344 38.9734C24.8585 39.1244 24.8823 39.2754 24.9061 39.4264C24.9133 39.4711 24.9205 39.5157 24.9279 39.5617C24.9376 39.6237 24.9376 39.6237 24.9474 39.6869C24.9531 39.7226 24.9588 39.7583 24.9646 39.7951C24.978 39.9148 24.9766 40.0357 24.9766 40.1561C24.757 40.1561 24.5374 40.1561 24.3112 40.1561C24.2576 39.7918 24.2041 39.4274 24.1511 39.063C24.1264 38.8938 24.1017 38.7246 24.0767 38.5554C24.048 38.3606 24.0196 38.1657 23.9913 37.9709C23.9824 37.9105 23.9734 37.8502 23.9642 37.7881C23.924 37.5092 23.8902 37.2412 23.9018 36.9594C23.868 36.9594 23.8342 36.9594 23.7994 36.9594C23.7856 37.0032 23.7718 37.047 23.7576 37.0921C23.6978 37.2616 23.6268 37.4163 23.5461 37.5771C23.5313 37.6067 23.5164 37.6364 23.5011 37.6669C23.4526 37.764 23.4037 37.8609 23.3547 37.9578C23.3207 38.0255 23.2867 38.0932 23.2526 38.1609C23.1815 38.3022 23.1103 38.4435 23.0389 38.5848C22.9473 38.766 22.8562 38.9475 22.7653 39.1291C22.6952 39.2687 22.6249 39.4082 22.5545 39.5476C22.5208 39.6145 22.4871 39.6814 22.4536 39.7484C22.4069 39.8417 22.3597 39.9348 22.3125 40.0279C22.2858 40.081 22.259 40.134 22.2315 40.1887C22.1615 40.3083 22.1615 40.3083 22.0592 40.359C22.0171 40.2733 22.0171 40.2733 21.9742 40.1858C21.8437 39.92 21.7131 39.6543 21.5825 39.3886C21.5475 39.3174 21.5475 39.3174 21.5118 39.2447C21.2197 38.6505 20.9269 38.0567 20.6253 37.4672C20.6053 37.4279 20.5853 37.3887 20.5647 37.3483C20.5479 37.3156 20.5311 37.2828 20.5138 37.2491C20.4725 37.1624 20.4725 37.1624 20.4213 37.0101C20.3329 37.0978 20.3408 37.2203 20.3229 37.3398C20.3138 37.3995 20.3048 37.4591 20.2954 37.5205C20.2858 37.5854 20.2761 37.6503 20.2662 37.7171C20.2509 37.8182 20.2355 37.9192 20.2202 38.0202C20.1932 38.1983 20.1666 38.3764 20.1398 38.5546C20.108 38.7667 20.0761 38.9789 20.0439 39.191C20.0238 39.3233 20.0039 39.4556 19.9842 39.588C19.9752 39.6477 19.9661 39.7075 19.9568 39.7691C19.9449 39.8483 19.9449 39.8483 19.9328 39.9291C19.9095 40.0546 19.9095 40.0546 19.8583 40.1561C19.6556 40.1561 19.453 40.1561 19.2441 40.1561C19.2763 39.5802 19.3687 39.0228 19.4683 38.4553C19.4854 38.3561 19.5026 38.2569 19.5197 38.1578C19.5644 37.8989 19.6095 37.6401 19.6547 37.3813C19.7009 37.1163 19.7468 36.8513 19.7927 36.5863C19.8825 36.0679 19.9726 35.5495 20.0631 35.0312Z" fill="#B07F46"/>
<path d="M49.186 1.64453C49.3717 1.70588 49.3835 1.7452 49.4771 1.90953C49.504 1.95595 49.5308 2.00237 49.5584 2.0502C49.5875 2.10156 49.6167 2.15293 49.6467 2.20585C49.711 2.31729 49.7755 2.42868 49.84 2.54003C49.8571 2.56968 49.8742 2.59934 49.8919 2.62989C50.1464 3.07061 50.4079 3.5074 50.6716 3.94277C50.713 4.01107 50.7543 4.07938 50.7957 4.14768C50.8158 4.18088 50.8359 4.21408 50.8566 4.24829C50.9808 4.45433 51.0994 4.66264 51.2151 4.87352C51.459 5.35781 51.459 5.35781 51.8699 5.67863C52.0436 5.7043 52.0436 5.7043 52.2112 5.69924C52.4188 5.70563 52.5079 5.78666 52.6526 5.9254C52.8319 6.15401 52.8406 6.34964 52.8376 6.633C52.814 6.81612 52.7219 6.92579 52.6153 7.07381C52.6792 7.30188 52.8154 7.49941 52.9386 7.70034C52.9823 7.77258 53.0261 7.84483 53.0698 7.91708C53.1386 8.03014 53.2074 8.14316 53.2764 8.25612C53.3431 8.36566 53.4096 8.47539 53.476 8.58513C53.4967 8.61881 53.5173 8.65248 53.5387 8.68717C53.6322 8.84205 53.703 8.97797 53.7413 9.15419C53.6294 9.18726 53.5174 9.21995 53.4054 9.2525C53.343 9.27075 53.2807 9.28899 53.2165 9.3078C52.2031 9.56865 51.158 9.40305 50.2097 9.00196C50.2875 8.79055 50.3929 8.60138 50.5088 8.40873C50.5277 8.37691 50.5466 8.34509 50.5661 8.3123C50.6263 8.21122 50.6867 8.11027 50.7471 8.00934C50.8075 7.90821 50.8678 7.80705 50.9281 7.70584C50.9655 7.64305 51.0029 7.5803 51.0405 7.51761C51.1728 7.30096 51.1728 7.30096 51.2845 7.07381C51.2522 6.97585 51.2522 6.97585 51.1885 6.88353C51.0709 6.66928 51.0326 6.50298 51.0798 6.26195C51.12 6.20126 51.1613 6.14136 51.2037 6.08218C51.2785 5.93752 51.2934 5.8833 51.2425 5.72647C51.1573 5.57243 51.0636 5.4278 50.9646 5.28202C50.9108 5.19823 50.8569 5.11445 50.8033 5.03053C50.7467 4.9424 50.6894 4.85471 50.6322 4.767C50.4605 4.50222 50.3008 4.23049 50.1403 3.95897C50.0548 3.81456 49.9687 3.67055 49.8826 3.5265C49.8508 3.47332 49.8191 3.42013 49.7863 3.36534C49.67 3.17089 49.5529 2.97687 49.4355 2.78303C49.3842 2.69767 49.3842 2.69767 49.3318 2.61059C49.2688 2.50784 49.2041 2.40607 49.1378 2.30535C49.1084 2.25996 49.0789 2.21457 49.0485 2.1678C49.0229 2.12993 48.9974 2.09205 48.9711 2.05304C48.9301 1.94898 48.9301 1.94898 48.9643 1.84016C49.0325 1.74601 49.0325 1.74601 49.186 1.64453Z" fill="#FFFBF6"/>
<path d="M63.7216 6.05859C63.9354 6.1352 64.0091 6.26474 64.1215 6.45501C64.1695 6.53399 64.1695 6.53399 64.2184 6.61456C64.2923 6.78697 64.2946 6.84873 64.2334 7.02267C64.2159 7.05688 64.1983 7.09109 64.1803 7.12633C64.0921 7.30436 64.102 7.48903 64.1311 7.6823C64.1786 7.78086 64.1786 7.78086 64.2398 7.86941C64.3358 8.03749 64.3358 8.03749 64.3013 8.18194C64.2328 8.34335 64.1548 8.48542 64.0619 8.63429C64.0272 8.69041 63.9924 8.74654 63.9566 8.80436C63.9289 8.84867 63.9289 8.84867 63.9006 8.89388C63.8019 9.05163 63.7043 9.20998 63.6065 9.36825C63.5863 9.40077 63.5662 9.43329 63.5454 9.46679C63.2996 9.86444 63.0612 10.2664 62.823 10.6685C62.7609 10.773 62.6984 10.8773 62.6355 10.9813C62.5732 11.0849 62.5122 11.1892 62.4523 11.2942C62.4073 11.3703 62.4073 11.3703 62.3613 11.448C62.3351 11.4936 62.3089 11.5391 62.2819 11.586C62.1536 11.7265 62.0599 11.7298 61.8726 11.7416C61.8218 11.7395 61.771 11.7374 61.7187 11.7352C61.5417 11.7429 61.4578 11.7911 61.316 11.8938C61.0771 12.1636 61.0465 12.3181 61.0479 12.6706C61.0625 12.834 61.122 12.9265 61.2137 13.0608C61.1936 13.2625 61.121 13.4021 61.0137 13.5724C60.9841 13.6197 60.9545 13.6669 60.924 13.7156C60.8929 13.7643 60.8618 13.813 60.8298 13.8632C60.7987 13.9129 60.7676 13.9625 60.7356 14.0137C60.5667 14.2813 60.5667 14.2813 60.4971 14.3801C60.4802 14.3801 60.4633 14.3801 60.4459 14.3801C60.4303 14.0029 60.4885 13.6447 60.5515 13.2733C60.5599 13.2235 60.5599 13.2235 60.5685 13.1727C60.8151 11.7308 61.2327 10.3186 61.879 9.00157C61.9026 8.95356 61.9261 8.90556 61.9504 8.85611C62.4455 7.85798 63.0302 6.9344 63.7216 6.05859Z" fill="#B07F46"/>
<path d="M39.3594 35.082C39.82 35.4245 39.82 35.4245 39.9874 35.5924C40.0249 35.6298 40.0625 35.6673 40.1013 35.7058C40.1404 35.7453 40.1796 35.7848 40.2199 35.8255C40.2615 35.867 40.3031 35.9086 40.346 35.9513C40.478 36.0831 40.6097 36.2152 40.7413 36.3474C40.873 36.4793 41.0047 36.6112 41.1366 36.7429C41.2183 36.8245 41.2999 36.9063 41.3814 36.9882C41.4189 37.0258 41.4565 37.0634 41.4952 37.1021C41.5277 37.1347 41.5601 37.1672 41.5935 37.2008C41.7647 37.3628 41.9451 37.5153 42.1232 37.6698C42.5286 38.0717 42.934 38.4736 43.3516 38.8876C43.3685 37.6987 43.3854 36.5099 43.4028 35.285C43.6224 35.285 43.8419 35.285 44.0682 35.285C44.0682 36.9594 44.0682 38.6339 44.0682 40.3591C43.8636 40.2577 43.7343 40.1418 43.5779 39.9827C43.5508 39.9555 43.5237 39.9284 43.4957 39.9004C43.409 39.8135 43.3227 39.7264 43.2365 39.6392C43.1233 39.5252 43.0101 39.4113 42.8966 39.2977C42.8689 39.27 42.8412 39.2422 42.8127 39.2136C42.6747 39.0764 42.5357 38.9437 42.3863 38.8184C42.0024 38.4946 41.6577 38.1242 41.3034 37.7693C40.8198 37.2804 40.8198 37.2804 40.3071 36.8223C40.2263 36.7537 40.1511 36.6788 40.0759 36.6043C40.059 37.7764 40.0422 38.9485 40.0247 40.1561C39.8052 40.1561 39.5856 40.1561 39.3594 40.1561C39.3594 38.4817 39.3594 36.8072 39.3594 35.082Z" fill="#B07F46"/>
<path d="M29.6855 35.082C30.1461 35.4245 30.1461 35.4245 30.3041 35.5831C30.3397 35.6185 30.3752 35.6539 30.4118 35.6904C30.4487 35.7276 30.4856 35.7649 30.5237 35.8033C30.5827 35.8622 30.5827 35.8622 30.6429 35.9223C30.7676 36.0468 30.892 36.1717 31.0163 36.2966C31.1407 36.4213 31.2651 36.546 31.3897 36.6704C31.4669 36.7475 31.5439 36.8248 31.6208 36.9022C31.8237 37.1053 32.0319 37.2975 32.2504 37.4841C32.3992 37.6138 32.5387 37.752 32.6781 37.8916C32.7039 37.9172 32.7296 37.9428 32.7562 37.9691C32.8502 38.0627 32.9441 38.1564 33.038 38.2502C33.2491 38.4605 33.4603 38.6709 33.6778 38.8876C33.6947 37.6987 33.7116 36.5099 33.729 35.285C33.9485 35.285 34.1681 35.285 34.3943 35.285C34.3943 36.9594 34.3943 38.6339 34.3943 40.3591C34.1813 40.2535 34.0451 40.1264 33.8817 39.9605C33.8523 39.9311 33.8229 39.9016 33.7926 39.8713C33.6986 39.7773 33.605 39.6829 33.5114 39.5885C33.3887 39.4649 33.2659 39.3416 33.1428 39.2184C33.1129 39.1885 33.083 39.1586 33.0522 39.1277C32.9079 38.9842 32.7631 38.8447 32.607 38.7138C32.2238 38.3914 31.8804 38.0216 31.5272 37.6678C31.0063 37.1445 31.0063 37.1445 30.4533 36.655C30.4364 36.6383 30.4195 36.6215 30.4021 36.6043C30.3852 37.7764 30.3683 38.9485 30.3509 40.1561C30.1313 40.1561 29.9118 40.1561 29.6855 40.1561C29.6855 38.4817 29.6855 36.8072 29.6855 35.082Z" fill="#B07F46"/>
<path d="M54.4736 35.2111C54.5204 35.2115 54.5672 35.2118 54.6154 35.2122C55.0026 35.2212 55.3285 35.2813 55.686 35.4363C55.7271 35.4541 55.7682 35.4719 55.8106 35.4902C56.494 35.8284 56.9309 36.4061 57.1703 37.1107C57.3565 37.679 57.2213 38.3443 56.9592 38.8613C56.5362 39.5677 55.9137 39.9614 55.1298 40.1821C54.4214 40.3367 53.6413 40.2107 53.0149 39.8666C52.41 39.4762 51.9815 39.0048 51.7993 38.3C51.6734 37.6495 51.7422 37.0202 52.1032 36.4511C52.6478 35.6595 53.5065 35.2 54.4736 35.2111ZM52.8326 36.4828C52.4853 36.9074 52.3676 37.3498 52.3893 37.8917C52.4472 38.3962 52.6596 38.7853 53.0245 39.1404C53.6097 39.5948 54.1864 39.7243 54.9183 39.6478C55.4872 39.5269 55.9607 39.1982 56.3002 38.7345C56.5951 38.2732 56.6547 37.7968 56.5561 37.263C56.4004 36.7542 56.0438 36.309 55.5848 36.0357C54.654 35.5511 53.5608 35.7329 52.8326 36.4828Z" fill="#B07F46"/>
<path d="M17.5561 35.7928C17.611 35.8315 17.6659 35.8702 17.7225 35.9101C18.2798 36.4501 18.4906 37.0678 18.5286 37.8224C18.5129 38.4289 18.2205 39.0035 17.812 39.4462C17.5179 39.6911 17.1982 39.9146 16.8396 40.055C16.8018 40.0702 16.7641 40.0853 16.7252 40.1008C16.0512 40.326 15.2351 40.2822 14.5875 40.0043C14.5394 39.984 14.4913 39.9636 14.4418 39.9427C13.8283 39.6475 13.3973 39.1605 13.1544 38.5328C12.9663 37.985 12.9751 37.3305 13.1888 36.7912C13.3064 36.5562 13.4479 36.3509 13.6151 36.148C13.6407 36.1163 13.6663 36.0845 13.6926 36.0519C14.6808 34.9559 16.4212 34.9782 17.5561 35.7928ZM14.0123 36.6366C13.7098 37.0402 13.6271 37.481 13.6662 37.9747C13.772 38.5559 14.1073 39.0043 14.5875 39.3447C15.1632 39.6563 15.7728 39.7582 16.4161 39.6031C16.9783 39.3995 17.3929 39.0972 17.6699 38.5647C17.8895 38.0895 17.9512 37.6231 17.7736 37.1184C17.6887 36.9119 17.5907 36.7321 17.4538 36.5539C17.4233 36.5131 17.3929 36.4723 17.3616 36.4302C17.0626 36.0849 16.5841 35.8246 16.1247 35.7839C15.2268 35.7288 14.6057 35.9512 14.0123 36.6366Z" fill="#B07F46"/>
<path d="M100.062 35.082C100.464 35.4239 100.464 35.4239 100.631 35.5924C100.667 35.6287 100.703 35.6651 100.741 35.7025C100.814 35.777 100.888 35.8516 100.962 35.9261C100.998 35.9625 101.035 35.9989 101.072 36.0364C101.104 36.0687 101.136 36.1011 101.169 36.1344C101.272 36.232 101.377 36.3243 101.484 36.4164C101.693 36.5964 101.889 36.7865 102.083 36.9816C102.118 37.0163 102.153 37.051 102.189 37.0868C102.336 37.2333 102.482 37.3801 102.629 37.527C102.737 37.6349 102.845 37.7428 102.953 37.8506C102.986 37.8832 103.018 37.9157 103.052 37.9493C103.241 38.1381 103.436 38.3168 103.641 38.489C103.784 38.6161 103.918 38.7529 104.054 38.8876C104.071 37.6987 104.088 36.5099 104.105 35.285C104.308 35.285 104.51 35.285 104.719 35.285C104.719 36.9594 104.719 38.6339 104.719 40.3591C104.012 39.7582 103.354 39.1126 102.7 38.4567C102.671 38.4276 102.641 38.3985 102.611 38.3685C102.557 38.3142 102.503 38.2598 102.449 38.2052C102.241 37.9978 102.025 37.8132 101.802 37.6191C101.447 37.2674 101.092 36.9158 100.727 36.5535C100.71 37.7424 100.693 38.9312 100.676 40.1561C100.473 40.1561 100.27 40.1561 100.062 40.1561C100.062 38.4817 100.062 36.8072 100.062 35.082Z" fill="#B07F46"/>
<path d="M6.34668 22.4473C6.40368 22.4834 6.40368 22.4834 6.46184 22.5202C6.6322 22.6112 6.761 22.5942 6.95127 22.5836C7.11342 22.5935 7.11342 22.5935 7.26797 22.6502C7.44132 22.8666 7.55352 23.1026 7.67288 23.3512C7.7565 23.5176 7.85686 23.6712 7.95893 23.8268C8.21175 24.2207 8.45017 24.6228 8.68828 25.0255C8.70692 25.057 8.72555 25.0884 8.74475 25.1208C8.83428 25.272 8.92337 25.4234 9.01155 25.5753C9.0762 25.6864 9.1417 25.797 9.20813 25.9071C9.23702 25.9563 9.26591 26.0055 9.29568 26.0562C9.32133 26.0991 9.34699 26.1419 9.37343 26.186C9.41764 26.3036 9.41764 26.3036 9.3877 26.4192C9.33446 26.5161 9.33446 26.5161 9.27009 26.6134C9.17181 26.7786 9.17804 26.9308 9.21291 27.1154C9.24954 27.1806 9.2881 27.2446 9.32827 27.3077C9.38397 27.415 9.38397 27.415 9.41764 27.5214C9.36671 27.676 9.32387 27.7647 9.2353 27.8956C9.21419 27.9295 9.19308 27.9635 9.17133 27.9984C9.12563 28.0717 9.07921 28.1444 9.03217 28.2168C8.95281 28.3397 8.8763 28.464 8.80025 28.5889C8.6662 28.809 8.53051 29.028 8.39398 29.2465C8.25743 29.1112 8.23767 28.9908 8.18412 28.8066C8.17384 28.7716 8.16356 28.7366 8.15297 28.7006C8.1187 28.5836 8.0849 28.4664 8.0511 28.3493C8.02695 28.2665 8.00277 28.1837 7.97856 28.101C7.91363 27.8788 7.8491 27.6565 7.78464 27.4341C7.71814 27.205 7.65129 26.976 7.58445 26.747C7.55767 26.6553 7.5309 26.5636 7.50412 26.4718C7.49089 26.4265 7.47765 26.3811 7.46401 26.3344C7.42386 26.1967 7.38375 26.0591 7.34365 25.9214C7.18585 25.3799 7.02677 24.8387 6.8657 24.2981C6.83832 24.2062 6.83832 24.2062 6.81038 24.1124C6.74292 23.8861 6.67538 23.6599 6.60762 23.4337C6.56272 23.2838 6.51797 23.1338 6.47324 22.9838C6.45365 22.9188 6.45365 22.9188 6.43367 22.8524C6.34668 22.5602 6.34668 22.5602 6.34668 22.4473Z" fill="#B07F46"/>
<path d="M47.8047 10.625C48.4634 10.625 49.1221 10.625 49.8008 10.625C49.6984 10.8787 49.6984 10.8787 49.6025 11.0246C49.5835 11.0769 49.5645 11.1292 49.5449 11.1831C49.5932 11.2706 49.6422 11.3579 49.698 11.4408C49.7921 11.6187 49.7803 11.8004 49.7496 11.995C49.6761 12.1694 49.6761 12.1694 49.5961 12.2994C49.5707 12.3497 49.5707 12.3497 49.5449 12.4009C49.6135 12.5437 49.6135 12.5437 49.714 12.706C49.7322 12.7364 49.7503 12.7669 49.769 12.7982C49.8282 12.8975 49.8881 12.9965 49.948 13.0954C49.9889 13.1637 50.0297 13.232 50.0706 13.3003C50.1849 13.4913 50.2999 13.6819 50.415 13.8724C50.4595 13.9465 50.5041 14.0205 50.5486 14.0946C50.6879 14.3256 50.8281 14.5559 50.969 14.786C51.0577 14.9309 51.1462 15.0759 51.2346 15.221C51.2875 15.3077 51.3407 15.3943 51.3939 15.4809C51.4261 15.5339 51.4584 15.5868 51.4916 15.6414C51.5209 15.6892 51.5501 15.7369 51.5802 15.7862C51.6434 15.9021 51.6434 15.9021 51.6434 16.0035C51.683 16 51.7226 15.9965 51.7633 15.9928C52.1095 15.975 52.3244 15.9918 52.5873 16.2253C52.7748 16.4196 52.829 16.5477 52.8366 16.8154C52.8266 17.0926 52.7848 17.2481 52.5967 17.4592C52.3361 17.6868 52.1342 17.7009 51.7925 17.6934C51.5853 17.672 51.4837 17.6212 51.3363 17.475C51.1291 17.1948 51.0785 16.9034 51.1316 16.5617C51.1813 16.4763 51.2322 16.3915 51.2851 16.308C51.2277 16.1289 51.1401 15.9729 51.0434 15.8121C51.0161 15.7665 50.9888 15.7209 50.9607 15.6739C50.9315 15.6257 50.9024 15.5775 50.8724 15.5278C50.8422 15.4775 50.8121 15.4272 50.7809 15.3754C50.6031 15.0793 50.4245 14.7837 50.2451 14.4885C50.1125 14.2699 49.9811 14.0505 49.85 13.831C49.8316 13.8001 49.8132 13.7693 49.7942 13.7375C49.7009 13.5813 49.6077 13.425 49.5145 13.2686C49.4632 13.1825 49.4632 13.1825 49.4107 13.0947C49.3799 13.0429 49.3491 12.9911 49.3173 12.9378C49.2108 12.7353 49.2108 12.7353 49.028 12.6175C48.874 12.6032 48.7713 12.6059 48.6236 12.6546C48.446 12.8425 48.3309 13.0624 48.2109 13.2889C48.1769 13.3501 48.1427 13.4112 48.1083 13.4722C48.0459 13.5832 47.9844 13.6947 47.924 13.8067C47.9015 13.8451 47.879 13.8836 47.8559 13.9232C47.839 13.9232 47.8221 13.9232 47.8047 13.9232C47.8047 12.8348 47.8047 11.7464 47.8047 10.625Z" fill="#FFFBF6"/>
<path d="M79.999 35.2852C81.8767 35.2852 81.8767 35.2852 82.4046 35.7418C82.7115 36.1162 82.7509 36.4911 82.7117 36.9596C82.649 37.2682 82.4878 37.513 82.2511 37.7207C82.0107 37.8762 81.7589 37.9499 81.4833 38.0252C81.5015 38.0483 81.5198 38.0715 81.5385 38.0953C81.9103 38.5679 82.2808 39.0415 82.647 39.5183C82.6855 39.5685 82.6855 39.5685 82.7249 39.6197C82.7608 39.6666 82.7608 39.6666 82.7975 39.7144C82.8588 39.7929 82.9225 39.8696 82.9864 39.946C83.07 40.0548 83.07 40.0548 83.07 40.1563C82.4148 40.2324 82.4148 40.2324 82.1853 40.0772C82.0995 39.9694 82.0245 39.8589 81.9525 39.7417C81.8256 39.5445 81.6789 39.3604 81.5377 39.1732C81.4756 39.0895 81.4135 39.0057 81.3516 38.9219C81.3218 38.8816 81.292 38.8413 81.2613 38.7999C81.2077 38.7274 81.1541 38.6549 81.1005 38.5824C81.0364 38.4959 80.972 38.4095 80.9075 38.3233C80.8724 38.276 80.8373 38.2288 80.8012 38.1802C80.7238 38.0713 80.7238 38.0713 80.6132 38.0252C80.6132 38.7284 80.6132 39.4317 80.6132 40.1563C80.4105 40.1563 80.2078 40.1563 79.999 40.1563C79.999 38.5488 79.999 36.9413 79.999 35.2852ZM80.6132 35.8433C80.6132 36.3959 80.6132 36.9484 80.6132 37.5178C81.2962 37.5334 81.2962 37.5334 81.8608 37.2482C82.0347 37.0716 82.098 36.944 82.0971 36.6954C82.0793 36.4637 82.0492 36.278 81.8928 36.097C81.4698 35.7975 81.1587 35.8433 80.6132 35.8433Z" fill="#B07F46"/>
<path d="M68.1748 35.2852C68.3944 35.2852 68.6139 35.2852 68.8402 35.2852C68.8406 35.3906 68.8411 35.4961 68.8416 35.6048C68.8433 35.9543 68.8462 36.3039 68.8496 36.6534C68.8516 36.8653 68.8532 37.0771 68.854 37.2889C68.8548 37.4935 68.8566 37.6982 68.859 37.9028C68.8598 37.9806 68.8602 38.0585 68.8602 38.1363C68.8583 38.808 68.8583 38.808 69.2144 39.3603C69.6152 39.6098 69.9523 39.654 70.4268 39.5981C70.7295 39.5028 70.9765 39.3664 71.1434 39.0907C71.2447 38.8831 71.2595 38.7119 71.2621 38.4822C71.2628 38.4301 71.2628 38.4301 71.2636 38.3771C71.2652 38.2631 71.2661 38.1492 71.2669 38.0353C71.2679 37.956 71.2689 37.8767 71.2699 37.7975C71.2726 37.5893 71.2746 37.3812 71.2765 37.1731C71.2785 36.9605 71.2812 36.7479 71.2837 36.5353C71.2887 36.1186 71.2929 35.7019 71.2969 35.2852C71.5165 35.2852 71.7361 35.2852 71.9623 35.2852C71.9646 35.7197 71.9665 36.1541 71.9676 36.5886C71.9681 36.7904 71.9688 36.9922 71.97 37.194C71.9711 37.3891 71.9717 37.5842 71.972 37.7793C71.9722 37.8534 71.9726 37.9275 71.9731 38.0015C71.978 38.6824 71.9542 39.2215 71.4693 39.7379C71 40.1696 70.4556 40.231 69.8416 40.2211C69.3732 40.2019 68.9735 40.0201 68.6354 39.6996C68.2745 39.294 68.168 38.9235 68.169 38.3842C68.169 38.3505 68.169 38.3168 68.1689 38.2821C68.169 38.1718 68.1694 38.0614 68.1698 37.951C68.1699 37.8741 68.1699 37.7972 68.17 37.7203C68.1702 37.5186 68.1707 37.3169 68.1713 37.1152C68.1718 36.909 68.172 36.7029 68.1723 36.4968C68.1728 36.0929 68.1737 35.689 68.1748 35.2852Z" fill="#B07F46"/>
<path d="M96.377 35.2852C97.289 35.2852 98.2011 35.2852 99.1408 35.2852C99.1408 35.4693 99.1408 35.6535 99.1408 35.8433C98.4483 35.8433 97.7558 35.8433 97.0423 35.8433C97.0423 36.2954 97.0423 36.7475 97.0423 37.2133C97.7179 37.2133 98.3935 37.2133 99.0896 37.2133C99.0896 37.3975 99.0896 37.5817 99.0896 37.7715C98.414 37.7715 97.7384 37.7715 97.0423 37.7715C97.0423 38.3743 97.0423 38.9771 97.0423 39.5981C97.7348 39.5981 98.4273 39.5981 99.1408 39.5981C99.1408 39.7823 99.1408 39.9665 99.1408 40.1563C98.2287 40.1563 97.3167 40.1563 96.377 40.1563C96.377 38.5488 96.377 36.9413 96.377 35.2852Z" fill="#B07F46"/>
<path d="M76.3125 35.2852C77.2246 35.2852 78.1366 35.2852 79.0764 35.2852C79.0764 35.4693 79.0764 35.6535 79.0764 35.8433C78.3839 35.8433 77.6914 35.8433 76.9779 35.8433C76.9779 36.2954 76.9779 36.7475 76.9779 37.2133C77.6535 37.2133 78.3291 37.2133 79.0252 37.2133C79.0252 37.3975 79.0252 37.5817 79.0252 37.7715C78.3496 37.7715 77.674 37.7715 76.9779 37.7715C76.9779 38.3743 76.9779 38.9771 76.9779 39.5981C77.6704 39.5981 78.3629 39.5981 79.0764 39.5981C79.0764 39.7823 79.0764 39.9665 79.0764 40.1563C78.1643 40.1563 77.2522 40.1563 76.3125 40.1563C76.3125 38.5488 76.3125 36.9413 76.3125 35.2852Z" fill="#B07F46"/>
<path d="M110.861 35.2852C111.773 35.2852 112.685 35.2852 113.625 35.2852C113.625 35.4693 113.625 35.6535 113.625 35.8433C112.916 35.8433 112.206 35.8433 111.476 35.8433C111.476 36.2954 111.476 36.7475 111.476 37.2133C112.168 37.2133 112.861 37.2133 113.574 37.2133C113.574 37.3975 113.574 37.5817 113.574 37.7715C112.882 37.7715 112.189 37.7715 111.476 37.7715C111.476 38.3743 111.476 38.9771 111.476 39.5981C112.185 39.5981 112.894 39.5981 113.625 39.5981C113.625 39.7823 113.625 39.9665 113.625 40.1563C112.713 40.1563 111.801 40.1563 110.861 40.1563C110.861 38.5488 110.861 36.9413 110.861 35.2852Z" fill="#B07F46"/>
<path d="M26.0518 35.2852C26.9469 35.2852 27.8421 35.2852 28.7644 35.2852C28.7644 35.4693 28.7644 35.6535 28.7644 35.8433C28.0719 35.8433 27.3794 35.8433 26.6659 35.8433C26.6659 36.2954 26.6659 36.7475 26.6659 37.2133C27.3416 37.2133 28.0172 37.2133 28.7133 37.2133C28.7133 37.3975 28.7133 37.5817 28.7133 37.7715C28.0376 37.7715 27.362 37.7715 26.6659 37.7715C26.6659 38.3743 26.6659 38.9771 26.6659 39.5981C27.3584 39.5981 28.051 39.5981 28.7644 39.5981C28.7644 39.7823 28.7644 39.9665 28.7644 40.1563C27.8693 40.1563 26.9741 40.1563 26.0518 40.1563C26.0518 38.5488 26.0518 36.9413 26.0518 35.2852Z" fill="#B07F46"/>
<path d="M50.8238 35.4374C50.8659 35.4523 50.9081 35.4671 50.9515 35.4824C51.0828 35.5395 51.1495 35.575 51.2332 35.6911C51.2674 35.9315 51.2569 36.1605 51.2332 36.4015C51.0048 36.2934 50.7923 36.1595 50.5765 36.0289C50.1048 35.7844 49.5343 35.7707 49.0186 35.8782C48.5048 36.0492 48.0502 36.401 47.7892 36.877C47.5682 37.3569 47.5093 37.8574 47.6792 38.3677C47.925 38.9497 48.3535 39.3035 48.9364 39.5443C49.4779 39.6987 50.1217 39.6551 50.619 39.3952C50.7443 39.3193 50.8649 39.2407 50.9837 39.1552C51.0797 39.0908 51.0797 39.0908 51.2332 39.04C51.2945 39.6632 51.2945 39.6632 51.1655 39.8469C51.0546 39.919 50.9491 39.9611 50.8238 40.0041C50.7784 40.0237 50.733 40.0432 50.6862 40.0634C50.0322 40.3107 49.2157 40.3071 48.5609 40.0681C47.8573 39.7526 47.2972 39.2767 47.0171 38.5485C46.8109 37.9266 46.8374 37.3034 47.1058 36.7024C47.4707 36.018 47.9905 35.5912 48.7299 35.3296C49.3889 35.1332 50.2002 35.1445 50.8238 35.4374Z" fill="#B07F46"/>
<path d="M88.0803 35.4084C88.3303 35.5937 88.5195 35.7395 88.5967 36.0459C88.4278 36.1296 88.2589 36.2133 88.0849 36.2996C88.0311 36.2289 88.0311 36.2289 87.9762 36.1568C87.8017 35.9542 87.6495 35.8553 87.3748 35.8286C87.077 35.8199 86.9045 35.831 86.6518 35.9951C86.618 35.9951 86.5842 35.9951 86.5494 35.9951C86.4351 36.2148 86.3873 36.4636 86.4471 36.7055C86.6474 36.9638 86.9047 37.0646 87.1988 37.1875C87.2909 37.2275 87.3831 37.2675 87.4751 37.3076C87.559 37.3437 87.6428 37.3798 87.7266 37.4159C88.1939 37.6194 88.5502 37.8438 88.7503 38.3292C88.7662 38.4678 88.7747 38.5908 88.7727 38.7288C88.7723 38.7647 88.772 38.8006 88.7716 38.8377C88.7628 39.1211 88.7153 39.3206 88.5456 39.547C88.4901 39.627 88.4901 39.627 88.4336 39.7087C88.1041 40.0354 87.6778 40.2162 87.2115 40.2259C86.6943 40.2246 86.2594 40.162 85.8639 39.7997C85.6715 39.5644 85.4746 39.2457 85.4746 38.9381C85.6773 38.8878 85.88 38.8376 86.0888 38.7859C86.2871 39.2235 86.2871 39.2235 86.3447 39.3948C86.4359 39.4527 86.4359 39.4527 86.5494 39.4962C86.6071 39.5222 86.6071 39.5222 86.666 39.5488C86.9777 39.6583 87.3473 39.6503 87.6499 39.5153C87.884 39.3797 88.0002 39.1902 88.0849 38.9381C88.1052 38.6716 88.091 38.4972 87.9314 38.2785C87.5951 38.0093 87.1653 37.8555 86.77 37.691C86.3581 37.5151 86.0016 37.3095 85.7817 36.9084C85.6693 36.542 85.7057 36.1808 85.8841 35.8429C86.0836 35.5462 86.3508 35.3706 86.6912 35.2536C87.1538 35.1741 87.6701 35.1637 88.0803 35.4084Z" fill="#B07F46"/>
<path d="M108.372 35.2173C108.417 35.2165 108.462 35.2157 108.509 35.2148C108.932 35.2145 109.32 35.3034 109.687 35.5186C109.724 35.5402 109.762 35.5618 109.801 35.584C109.888 35.6391 109.888 35.6391 109.94 35.6898C109.943 35.8092 109.944 35.9288 109.943 36.0482C109.942 36.1137 109.942 36.1792 109.941 36.2466C109.941 36.2973 109.94 36.348 109.94 36.4002C109.765 36.3031 109.597 36.2086 109.434 36.0926C108.961 35.8019 108.437 35.7773 107.892 35.8421C107.329 35.9859 106.861 36.3111 106.561 36.8061C106.3 37.3039 106.245 37.7916 106.401 38.3321C106.603 38.8465 106.97 39.205 107.467 39.4352C107.968 39.6525 108.59 39.6937 109.114 39.5176C109.41 39.3926 109.673 39.2169 109.94 39.0387C109.94 39.2899 109.94 39.5411 109.94 39.7999C109.135 40.178 108.351 40.3752 107.47 40.1202C107.371 40.0837 107.273 40.0448 107.176 40.0028C107.135 39.985 107.093 39.9672 107.051 39.9489C106.368 39.6107 105.931 39.033 105.691 38.3284C105.506 37.7453 105.653 37.0849 105.92 36.5556C106.309 35.8998 106.901 35.4978 107.625 35.2752C107.873 35.2185 108.118 35.2164 108.372 35.2173Z" fill="#B07F46"/>
<path d="M93.3571 35.4888C93.4053 35.5086 93.4535 35.5285 93.5031 35.549C93.613 35.641 93.613 35.641 93.638 35.8223C93.6363 35.892 93.6333 35.9615 93.629 36.0311C93.6279 36.0667 93.6267 36.1023 93.6255 36.139C93.6225 36.2267 93.6179 36.3144 93.613 36.4021C93.5789 36.3788 93.5448 36.3555 93.5097 36.3315C92.852 35.8975 92.2388 35.7216 91.4558 35.8757C90.9596 36.0335 90.5082 36.3465 90.2426 36.7947C89.9991 37.2701 89.9369 37.7743 90.0752 38.2974C90.2897 38.8517 90.625 39.1836 91.1563 39.4466C91.208 39.4726 91.208 39.4726 91.2608 39.4991C91.711 39.6847 92.3276 39.6715 92.7877 39.5195C93.084 39.3945 93.3469 39.2188 93.613 39.0406C93.613 39.2918 93.613 39.543 93.613 39.8017C92.8292 40.2079 92.0203 40.3727 91.1467 40.1252C90.4299 39.863 89.8739 39.4093 89.5184 38.7362C89.2365 38.0713 89.2572 37.4212 89.5086 36.748C89.7871 36.1381 90.2986 35.6888 90.9076 35.417C91.0409 35.3679 91.1729 35.3239 91.3098 35.2858C91.3411 35.277 91.3724 35.2683 91.4046 35.2592C92.0481 35.1178 92.7718 35.199 93.3571 35.4888Z" fill="#B07F46"/>
<path d="M64.7461 35.2852C66.7368 35.2852 66.7368 35.2852 67.2029 35.7418C67.4617 36.0214 67.5424 36.3025 67.5771 36.6742C67.5452 37.0417 67.4565 37.3697 67.1967 37.6428C66.647 38.0881 66.1289 38.0252 65.4115 38.0252C65.4115 38.7284 65.4115 39.4317 65.4115 40.1563C65.1919 40.1563 64.9723 40.1563 64.7461 40.1563C64.7461 38.5488 64.7461 36.9413 64.7461 35.2852ZM65.4115 35.8433C65.4115 36.3959 65.4115 36.9484 65.4115 37.5178C66.1121 37.5335 66.1121 37.5335 66.7192 37.244C66.8911 37.0553 66.9485 36.8364 66.9455 36.5856C66.905 36.3176 66.8017 36.1733 66.5911 36.0052C66.1881 35.7727 65.9086 35.8433 65.4115 35.8433Z" fill="#B07F46"/>
<path d="M72.5771 35.2852C73.6075 35.2852 74.6378 35.2852 75.6993 35.2852C75.6993 35.4693 75.6993 35.6535 75.6993 35.8433C75.2939 35.8433 74.8886 35.8433 74.4709 35.8433C74.4709 37.2666 74.4709 38.6899 74.4709 40.1563C74.2513 40.1563 74.0318 40.1563 73.8055 40.1563C73.8055 38.733 73.8055 37.3097 73.8055 35.8433C73.4002 35.8433 72.9948 35.8433 72.5771 35.8433C72.5771 35.6591 72.5771 35.4749 72.5771 35.2852Z" fill="#B07F46"/>
<path d="M97.707 23.1582C97.8031 23.1602 97.8991 23.1663 97.9949 23.1741C98.0751 23.1785 98.0751 23.1785 98.1569 23.183C98.4275 23.3093 98.4996 23.5604 98.6283 23.8178C98.693 23.9313 98.7587 24.0443 98.8253 24.1568C98.8425 24.1861 98.8598 24.2154 98.8776 24.2456C98.932 24.3378 98.9865 24.4298 99.041 24.5219C99.0597 24.5536 99.0785 24.5854 99.0978 24.6181C99.3812 25.0976 99.6708 25.5726 99.9714 26.0418C99.9969 26.082 100.022 26.1222 100.049 26.1636C100.071 26.1984 100.094 26.2331 100.117 26.2689C100.164 26.3549 100.164 26.3549 100.164 26.4564C100.196 26.454 100.228 26.4517 100.261 26.4492C100.628 26.4339 100.892 26.4835 101.167 26.734C101.343 26.94 101.377 27.1294 101.362 27.3953C101.314 27.6837 101.21 27.8695 100.98 28.0515C100.71 28.1939 100.452 28.2349 100.157 28.1504C99.9176 28.0482 99.7704 27.9152 99.644 27.6886C99.5667 27.481 99.564 27.2822 99.6008 27.0653C99.6499 26.9795 99.7008 26.8947 99.7543 26.8115C99.7371 26.5647 99.6553 26.404 99.524 26.1963C99.4821 26.1291 99.4403 26.0619 99.3985 25.9947C99.3743 25.9563 99.3501 25.9178 99.3252 25.8782C99.174 25.6365 99.0255 25.3931 98.8767 25.15C98.8202 25.0578 98.7637 24.9656 98.7072 24.8734C98.4645 24.4773 98.2236 24.0802 97.9853 23.6815C97.957 23.6342 97.9286 23.5869 97.8994 23.5382C97.8739 23.4952 97.8483 23.4523 97.822 23.4081C97.7997 23.3707 97.7773 23.3332 97.7543 23.2946C97.707 23.2089 97.707 23.2089 97.707 23.1582Z" fill="#FFFBF6"/>
<path d="M51.9307 7.2793C52.071 7.28405 52.071 7.28405 52.2058 7.32687C52.3559 7.48706 52.4479 7.67391 52.5494 7.86693C52.6884 8.11918 52.8463 8.36077 52.9991 8.6049C53.0629 8.70694 53.1263 8.80914 53.1895 8.91153C53.2169 8.95569 53.2443 8.99985 53.2725 9.04536C53.3318 9.15354 53.3318 9.15354 53.3318 9.25502C52.514 9.55165 51.4179 9.49395 50.6191 9.15354C50.6974 8.94142 50.8029 8.75064 50.9182 8.55674C50.9372 8.52468 50.9561 8.49262 50.9756 8.45958C51.0154 8.3922 51.0553 8.32487 51.0954 8.25758C51.1566 8.15452 51.2175 8.05124 51.2783 7.94795C51.3171 7.88236 51.356 7.81679 51.3949 7.75123C51.4131 7.72036 51.4312 7.68949 51.45 7.65769C51.5855 7.43055 51.6586 7.30978 51.9307 7.2793Z" fill="#B07F46"/>
<path d="M94.5342 35.2852C94.7538 35.2852 94.9733 35.2852 95.1996 35.2852C95.1996 36.8926 95.1996 38.5001 95.1996 40.1563C94.98 40.1563 94.7604 40.1563 94.5342 40.1563C94.5342 38.5488 94.5342 36.9413 94.5342 35.2852Z" fill="#B07F46"/>
<path d="M37.5176 35.2852C37.7372 35.2852 37.9567 35.2852 38.183 35.2852C38.183 36.8926 38.183 38.5001 38.183 40.1563C37.9634 40.1563 37.7438 40.1563 37.5176 40.1563C37.5176 38.5488 37.5176 36.9413 37.5176 35.2852Z" fill="#B07F46"/>
<path d="M54.0488 10.6253C54.1309 10.6198 54.213 10.6159 54.2951 10.6126C54.3409 10.6102 54.3866 10.6079 54.4337 10.6055C54.5607 10.6253 54.5607 10.6253 54.654 10.7212C54.7142 10.8283 54.7142 10.8283 54.7142 10.9297C54.768 10.9253 54.768 10.9253 54.823 10.9208C55.1316 10.9063 55.3487 10.921 55.6017 11.1053C55.8223 11.308 55.9026 11.4976 55.917 11.7955C55.9065 12.0326 55.8476 12.1694 55.6867 12.3505C55.4085 12.5935 55.237 12.6249 54.8705 12.6218C54.6465 12.5965 54.5046 12.5168 54.3559 12.3505C54.2154 12.1581 54.1825 12.0256 54.1864 11.7892C54.1866 11.7373 54.1868 11.6854 54.187 11.632C54.2022 11.4894 54.2361 11.4086 54.3047 11.2849C54.2911 11.0424 54.1621 10.8357 54.0488 10.6253Z" fill="#FFFBF6"/>
<path d="M47.8047 10.625C48.2945 10.625 48.7843 10.625 49.289 10.625C49.2552 10.7255 49.2214 10.8259 49.1866 10.9294C49.1458 10.9308 49.1051 10.9321 49.0631 10.9334C48.6534 10.9551 48.4294 11.0076 48.1438 11.3132C48.0268 11.5584 48.0242 11.7787 48.0606 12.0457C48.1363 12.1851 48.1363 12.1851 48.2141 12.2995C48.2213 12.6055 48.0268 12.8678 47.8559 13.1113C47.839 13.1113 47.8221 13.1113 47.8047 13.1113C47.8047 12.2908 47.8047 11.4703 47.8047 10.625Z" fill="#B07F46"/>
</svg>
