<svg preserveAspectRatio="none" width="100%" height="100%" overflow="visible" style="display: block;" viewBox="0 0 20 20" fill="none" xmlns="http://www.w3.org/2000/svg">
<path id="Subtract" d="M10 0C15.5229 0 20 4.47711 20 10C19.9998 15.5228 15.5227 20 10 20C4.47721 20 0.000172297 15.5228 0 10C0 4.47712 4.4771 1.68926e-05 10 0ZM8.18164 2.7998C8.6212 5.95932 10.4368 5.13593 11.5059 7.31348C11.4941 7.29758 9.69157 4.86477 6.73535 5.76465C6.73535 5.76465 7.81639 8.03426 11.0137 8.49805C11.0169 8.50911 11.2707 9.37592 11.3477 9.53027C11.345 9.52891 6.42256 6.96411 4.92773 11.8916C3.815 11.6396 3.44173 12.8477 4.7207 13.6729C4.7207 13.6729 4.93883 12.8082 5.46875 12.5518C5.46875 12.5518 4.33115 13.8201 5.66797 15.3389H10.4678C10.5838 15.1467 11.0973 14.1361 9.82812 13.3711C10.7241 13.3586 11.4536 15.0485 12.2383 15.3506H13.3799C13.4185 15.2565 13.4991 14.9753 13.3096 14.7227C13.0174 14.3875 12.3774 14.433 12.3828 13.8135C12.6038 10.9292 16.9285 11.814 16.791 8.34277C16.7695 8.31534 15.3842 6.56108 13.6465 6.45996C12.5163 6.39325 12.2424 6.54477 12.1934 6.65723C12.1232 6.07411 11.6247 3.37241 8.18164 2.7998Z" fill="var(--fill-0, black)"/>
</svg>
