<svg width="144" height="151" viewBox="0 0 144 151" fill="none" xmlns="http://www.w3.org/2000/svg">
<rect x="54.5605" y="12.8996" width="7.22636" height="27.4177" rx="2.60518" transform="rotate(-11.5162 54.5605 12.8996)" fill="#8FC200"/>
<path d="M69.3538 19.9186C74.318 15.0185 80.4012 14.3377 83.0911 14.299C83.8926 14.2875 84.4998 14.9328 84.4609 15.7334C84.3178 18.6799 83.4664 25.6219 78.7493 29.8138C72.6398 35.2432 63.0274 33.7241 63.0274 33.7241C63.0274 33.7241 62.7722 26.4153 69.3538 19.9186Z" fill="#8FC200"/>
<path d="M131.682 67.758C138.314 100.309 117.303 132.072 84.7527 138.704C52.2022 145.336 20.4385 124.325 13.8064 91.7749C1.73839 32.5445 40.8974 39.0678 63.5132 34.4599C86.129 29.852 119.73 9.09559 131.682 67.758Z" fill="#BD3C3C"/>
<path d="M108.658 56.7252C104.744 47.9175 104.292 42.3658 107.157 41.3837C110.023 40.4016 113.054 42.6695 117.429 52.9085C121.803 63.1475 121.514 67.3334 118.933 68.4442C116.351 69.555 112.571 65.5328 108.658 56.7252Z" fill="white"/>
</svg>
