<svg width="209" height="234" viewBox="0 0 209 234" fill="none" xmlns="http://www.w3.org/2000/svg">
<path d="M199.413 195.698C195.618 202.32 192.428 209.06 188.18 215.05C180.521 225.852 170.274 232.471 156.54 233.586C144.897 234.531 133.726 232.702 122.602 229.913C114.334 227.84 106.158 225.397 97.9078 223.247C96.9314 222.993 95.7437 223.549 95.0035 223.672C93.477 223.024 92.0467 221.969 90.547 221.858C83.084 221.309 75.6039 220.982 68.126 220.668C67.4683 220.641 66.7827 221.281 66.7394 221.302C63.7091 220.938 61.0958 220.481 58.465 220.331C43.243 219.461 29.706 214.005 18.2302 204.231C3.10662 191.35 -3.07094 174.999 1.44834 155.18C3.86269 144.592 9.43806 135.607 15.6218 126.916C16.6307 125.499 17.5777 124.037 18.7624 122.286C13.7467 122.009 8.81721 121.737 3.88088 121.464C2.73535 119.788 3.32275 118.813 4.7842 117.568C12.603 110.91 21.5556 106.759 31.5115 104.384C33.3475 103.946 35.1602 101.941 36.2774 100.204C42.3058 90.8345 48.1111 81.321 53.9945 71.8578C57.3918 66.3935 60.8481 60.9644 64.1398 55.4373C64.764 54.3891 65.2182 52.8307 64.93 51.7208C63.8398 47.5224 62.5473 43.3628 61.0737 39.2814C59.4572 34.8044 57.3465 30.4889 58.3935 25.4934C60.9647 13.226 69.144 5.81552 82.2269 6.45588C92.7653 6.9717 101.911 11.2217 110.581 16.763C112.055 17.7055 112.821 18.0109 114.535 16.8125C122.379 11.3282 129.837 5.07903 139.128 2.07474C145.54 0.00118588 152.084 -0.940521 158.784 1.26437C167.464 4.12058 172.709 11.3702 171.502 20.44C170.538 27.6933 168.589 34.812 167.202 42.0143C166.339 46.4924 165.653 51.0071 165 55.5218C164.746 57.2768 165.675 58.3401 167.281 59.2703C172.659 62.3859 178.138 65.4094 183.149 69.0592C191.299 74.996 194.17 83.812 195.108 93.4296C195.419 96.6183 195.262 99.9042 195.989 102.988C196.936 107.012 197.882 111.288 200 114.736C206.22 124.857 207.603 135.951 208.011 147.413C208.443 159.542 207.118 171.466 203.977 183.157C202.848 187.358 201.039 191.376 199.413 195.698ZM144.792 115.647C144.691 115.633 144.589 115.619 144.487 115.606C144.592 115.688 144.697 115.77 144.406 116.067C144.347 117.848 144.288 119.629 144.225 121.522C145.914 121.622 147.283 121.702 149.442 121.83C147.568 119.467 146.147 117.674 144.792 115.647ZM157.264 154.247C152.436 155.058 147.618 155.932 142.776 156.652C140.691 156.962 140.066 158.051 140.249 159.847C144.056 158.676 147.747 157.466 151.484 156.42C153.589 155.831 155.771 155.511 158.32 155.025C158.504 154.814 158.689 154.603 158.873 154.393C158.468 154.38 158.063 154.367 157.264 154.247ZM121.489 171.961C124.746 172.123 127.351 171.11 129.396 168.357C130.518 166.847 132.172 165.637 133.791 164.617C136.042 163.2 137.734 161.609 137.453 158.571C131.122 161.735 125.315 165.499 120.818 171.41C120.752 171.581 120.686 171.751 120.62 171.922C120.791 171.866 120.963 171.811 121.489 171.961ZM151.32 122.145C151.45 122.15 151.579 122.154 151.709 122.158C151.702 122.079 151.711 121.938 151.686 121.932C151.544 121.895 151.392 121.891 151.834 121.881C154.46 115.469 159.184 110.963 165.218 107.393C164.436 104.966 163.671 102.588 162.95 100.35C156.543 100.542 150.376 100.727 144.246 100.911C144.218 102.494 144.029 104.061 144.203 105.587C144.447 107.72 144.544 110.026 145.453 111.894C147.129 115.343 149.35 118.527 151.32 122.145ZM150.73 53.6402C142.102 47.8451 133.368 42.1996 124.895 36.1872C121.087 33.4853 117.61 30.2344 114.343 26.8814C112.236 24.7181 110.883 25.6187 108.897 26.8245C97.9539 33.4692 86.9387 39.9964 75.9215 46.519C74.4096 47.4141 72.7496 48.0589 70.4234 49.1709C76.869 51.7164 82.3847 54.572 88.2472 56.0756C102.57 59.7491 117.217 61.5049 132.029 61.4858C140.077 61.4754 147.891 60.2055 155.459 56.3509C153.843 55.443 152.514 54.6962 150.73 53.6402ZM164.136 32.2283C164.821 27.5338 165.865 22.8573 166.101 18.1404C166.407 12.0273 163.333 8.20447 157.464 6.54648C150.53 4.58763 143.746 5.76381 137.564 8.90041C130.559 12.4544 123.969 16.8259 117.2 20.841C130.39 34.4778 145.347 45.0931 161.24 55.7891C160.093 47.1417 162.159 39.924 164.136 32.2283ZM105.903 148.223C107.444 142.995 108.984 137.768 110.62 132.215C109.228 132.387 108.084 132.491 106.955 132.677C105.036 132.994 103.012 133.94 101.238 133.587C97.8039 132.902 95.5265 133.975 93.1395 136.355C90.7477 138.739 87.1126 137.28 86.5371 133.897C86.2347 132.12 86.4536 130.254 86.4371 128.423C81.5473 127.099 81.5474 127.099 79.702 131.493C79.3632 132.3 79.0472 133.117 78.6811 133.911C75.6268 140.536 72.296 147.071 73.7465 154.795C74.0069 156.182 73.6419 157.701 73.4803 159.149C73.1154 162.421 72.6971 165.686 72.3028 168.935C81.1125 172.517 90.2767 172.799 99.2011 173.001C101.417 164.793 103.593 156.733 105.903 148.223ZM19.1084 182.63C14.8685 179.251 10.6286 175.873 6.38872 172.495C6.58708 172.236 6.78545 171.976 6.98382 171.717C13.4665 176.104 19.9492 180.491 26.432 184.879C21.8609 178.131 19.8334 170.984 20.3372 162.996C20.8366 155.078 24.3457 148.224 27.8784 141.243C23.6544 139.079 19.7139 137.061 15.7954 135.054C-4.61474 163.851 3.77866 195.421 35.49 210.103C35.1112 209.147 34.9701 208.372 34.5512 207.8C31.1295 203.127 28.8655 197.855 28.2847 192.202C27.8182 187.661 24.8861 185.995 21.6388 184.213C20.8789 183.796 20.0523 183.5 19.1084 182.63ZM185.733 129.369C185.392 137.319 185.676 145.378 181.553 152.658C181.319 153.072 181.202 153.897 181.443 154.182C183.723 156.876 182.447 159.684 180.574 161.217C177.015 164.13 177.025 167.618 177.424 171.473C177.453 171.751 177.402 172.038 177.376 172.571C185.494 173.896 193.105 172.893 200.28 168.692C202.237 167.546 203.379 166.293 203.324 163.938C203.101 154.414 203.247 144.869 202.664 135.368C202.346 130.201 201.059 125.035 198.312 120.716C193.956 122.312 189.865 123.81 185.851 125.28C185.813 126.593 185.778 127.763 185.733 129.369ZM85.7691 13.2494C84.1155 13.1087 82.4646 12.9074 80.808 12.8369C67.6609 12.2774 60.614 25.0805 63.6204 33.3786C65.2913 37.9908 67.0511 42.5709 68.8319 47.3286C82.4113 40.213 95.0866 31.5742 107.437 22.0633C100.582 17.7439 93.7645 14.6151 85.7691 13.2494ZM191.371 174.137C186.735 174.504 182.1 174.872 177.116 175.267C177.021 188.116 169.625 198.981 163.655 210.606C170.2 211.734 176.338 211.408 182.109 209.117C185.242 207.874 189.054 206.107 190.58 203.443C196.525 193.069 200.646 181.887 202.408 170.199C198.867 171.475 195.323 172.753 191.371 174.137ZM90.0973 174.785C83.8659 173.755 77.6345 172.725 71.7018 171.744C69.8091 175.489 68.3806 179.671 65.8456 183.015C61.9497 188.153 62.7275 193.788 62.3532 200.047C73.2517 199.914 83.762 199.787 94.1251 199.66C95.7922 191.172 97.3416 183.284 98.8974 175.363C95.9555 175.146 93.2434 174.946 90.0973 174.785ZM180.671 94.0887C183.83 92.426 186.989 90.7633 190.226 89.0595C188.856 80.5637 186.198 76.2246 178.779 71.3286C174.403 68.4409 169.971 65.5706 165.299 63.2219C161.875 61.501 158.651 56.8486 154.048 61.2446C153.912 61.3746 153.791 61.5206 153.535 61.7981C155.697 74.3292 160.958 85.9389 165.251 98.2246C170.469 96.8504 175.371 95.5595 180.671 94.0887ZM72.5252 83.9255C68.1178 91.4136 63.7015 98.8965 59.326 106.403C59.0702 106.842 58.9983 107.5 59.091 108.01C59.4899 110.209 59.7703 112.466 60.5133 114.552C61.0267 115.993 61.9441 117.872 63.1679 118.379C68.4602 120.568 73.9319 122.325 79.2812 124.218C79.7912 123.098 80.0058 122.191 80.5351 121.539C82.7514 118.81 82.2331 116.618 80.1171 113.878C77.6441 110.676 76.0932 106.865 76.1868 102.571C76.3109 96.8792 78.5794 92.0929 82.2353 87.8553C79.011 86.3943 75.9992 85.0296 72.5252 83.9255ZM141.33 81.1053C141.489 75.772 141.648 70.4386 141.801 65.2931C135.778 65.4309 129.527 65.574 123.184 65.7191C123.174 68.433 123.244 71.1644 123.135 73.8886C122.977 77.7902 122.964 81.5902 124.597 85.3215C125.914 88.3335 126.629 91.6048 127.74 94.7156C128.005 95.4585 128.679 96.44 129.335 96.5962C133.331 97.5475 137.377 98.2923 141.63 99.151C141.535 92.8234 141.45 87.1771 141.33 81.1053ZM40.9159 100.535C40.2824 101.471 39.649 102.407 39.1827 103.096C43.6569 104.118 47.9556 104.878 52.0993 106.144C54.0954 106.754 55.0965 106.594 56.1269 104.772C57.6415 102.095 59.4872 99.6067 61.0726 96.9664C64.0074 92.0786 66.8558 87.1389 69.8618 82.0134C65.5843 79.1184 61.567 76.3995 57.5658 73.6916C52.2492 82.3193 46.7429 91.2549 40.9159 100.535ZM185.143 93.5785C179.285 97.3529 172.617 98.7163 165.938 99.7463C166.577 101.917 167.139 103.826 167.738 105.859C168.215 105.661 168.637 105.419 169.091 105.307C173.514 104.215 177.922 103.049 182.38 102.12C183.979 101.787 185.762 102.536 184.475 104.479C181.801 108.513 179.107 112.678 175.671 116.016C172.928 118.681 171.441 120.999 172.901 124.67C173.068 125.09 173.13 125.552 173.229 125.95C176.326 125.908 178.553 124.695 180.255 122.311C181.037 121.215 182.062 120.241 183.136 119.419C184.665 118.248 185.709 118.863 186.049 120.649C186.183 121.352 186.043 122.107 186.017 123.36C189.896 121.891 193.482 120.533 197.511 119.007C191.519 110.271 191.394 100.461 190.395 90.763C188.608 91.7142 187.065 92.5358 185.143 93.5785ZM135.457 216.25C131.435 215.622 127.413 214.994 123.551 214.391C121.352 217.639 119.151 220.892 116.826 224.327C127.282 226.978 137.423 229.6 148.002 229.666C148.894 229.671 150.27 229.57 150.606 229.02C153.973 223.509 157.169 217.894 160.414 212.308C160.158 211.992 159.903 211.676 159.647 211.36C155.86 212.692 152.16 214.454 148.262 215.237C144.237 216.046 140.02 215.904 135.457 216.25ZM143.183 68.4565C143.471 78.4629 143.76 88.4693 144.058 98.8315C150.161 98.6903 156.035 98.5544 161.703 98.4233C158.015 86.1513 154.486 74.411 150.955 62.6635C148.709 63.2786 145.933 64.0387 143.159 64.7985C143.157 65.8859 143.156 66.9604 143.183 68.4565ZM90.7602 201.945C81.317 202.062 71.8739 202.179 62.0734 202.301C62.8129 206.31 63.6138 210.507 64.3501 214.715C64.6453 216.402 65.5812 216.755 67.2081 216.795C75.7039 217.007 84.196 217.37 92.7202 217.681C93.0266 212.847 93.3688 207.449 93.7263 201.807C92.9051 201.848 92.0557 201.89 90.7602 201.945ZM77.6524 73.0201C76.3871 75.8279 75.1218 78.6358 73.7599 81.6578C76.6691 82.9436 79.36 84.268 82.1611 85.2904C83.0272 85.6065 84.3541 85.3894 85.1943 84.9214C88.8399 82.8908 92.3907 80.6891 95.9561 78.517C96.4721 78.2027 97.2175 77.7603 97.2859 77.2935C97.9884 72.4966 98.5731 67.6825 99.1641 63.0801C93.2619 61.5597 87.5635 60.0917 82.2486 58.7225C80.7849 63.3118 79.3099 67.9365 77.6524 73.0201ZM32.9441 198.306C34.1284 201.303 35.1426 204.384 36.5583 207.268C37.4612 209.107 38.612 211.534 40.2498 212.179C47.3309 214.969 54.8109 216.162 62.2995 216.32C61.184 211.42 60.0958 206.639 59.0084 201.865C56.9725 203.851 55.3388 202.727 53.7401 201.197C52.9998 200.488 52.3347 199.555 51.4429 199.173C44.7039 196.285 37.917 193.509 31.0612 190.664C31.5793 192.863 32.1751 195.393 32.9441 198.306ZM66.3532 78.3091C67.754 78.9334 69.1548 79.5578 71.1103 80.4293C74.2757 72.7242 77.386 65.1533 80.4261 57.7534C77.251 55.9468 74.6409 54.6287 72.2215 53.0232C70.7372 52.0383 69.8776 52.0628 68.9543 53.6261C65.6166 59.2773 62.1689 64.8642 58.9083 70.5588C58.5678 71.1535 58.8839 72.6605 59.4265 73.129C61.4664 74.8903 63.7264 76.3968 66.3532 78.3091ZM23.5051 136.893C25.1837 138.029 26.8623 139.165 28.1969 140.069C35.4664 131.787 42.5324 123.736 49.5984 115.686C49.4275 115.264 49.2565 114.841 49.0856 114.419C47.8017 114.462 46.4007 114.184 45.2545 114.603C40.6424 116.29 36.132 118.253 31.5361 119.987C29.5007 120.755 26.6757 120.582 25.3862 121.948C22.1589 125.366 19.6043 129.419 16.7369 133.276C19.0634 134.523 21.0305 135.577 23.5051 136.893ZM104.475 221.02C107.994 221.98 111.514 222.94 115.008 223.893C117.209 220.117 119.223 216.663 120.95 213.7C117.048 211.058 113.708 208.798 110.369 206.538C110.347 206.825 110.326 207.111 110.305 207.397C107.841 207.339 105.065 207.934 103.037 206.964C101.919 206.43 102.058 203.267 101.578 201.048C100.653 201.153 98.9505 201.345 96.8918 201.577C96.4823 206.826 96.0012 211.954 95.7754 217.093C95.7443 217.801 96.8458 218.941 97.6545 219.228C99.7138 219.958 101.904 220.32 104.475 221.02ZM136.74 120.346C133.899 115.316 131.057 110.286 128.327 105.454C126.872 115.148 123.179 124.165 114.503 131.027C123.363 130.836 132.223 130.644 140.945 130.455C141.782 126.291 142.114 122.891 137.766 121.28C137.52 121.189 137.361 120.867 136.74 120.346ZM171.183 130.861C171.041 130.214 170.899 129.567 170.753 128.901C165.809 129.705 161.051 130.48 156.043 131.295C158.128 137.615 163.087 143.074 160.624 150.156C165.013 152.066 169.145 153.865 174.213 156.07C173.18 147.325 172.233 139.301 171.183 130.861ZM163.833 212.581C163.274 213.161 162.571 213.658 162.179 214.335C159.837 218.376 157.581 222.467 155.262 226.522C154.72 227.468 154.047 228.338 153.279 229.473C169.696 229.202 180.293 220.329 187.406 208.423C179.958 212.443 172.382 214.028 163.833 212.581ZM36.8619 188.708C38.7316 189.785 40.6013 190.862 42.471 191.939C39.5099 185.855 38.3317 179.645 38.4634 173.434C38.5957 167.189 39.9271 160.968 40.787 154.32C39.5822 153.206 37.9009 151.652 36.0418 149.933C33.0288 157.987 31.9491 166.125 30.7189 174.282C29.7991 180.38 30.8636 185.152 36.8619 188.708ZM126.204 137.639C114.422 143.626 107.016 152.764 105.057 166.678C105.876 166.139 106.192 166.043 106.3 165.838C106.614 165.239 106.838 164.593 107.11 163.972C109.321 158.93 111.774 153.942 116.772 151.143C121.707 148.378 126.743 145.598 132.056 143.748C140.3 140.879 140.416 141.211 140.959 134.221C140.966 134.132 140.896 134.037 140.601 133.249C135.958 134.618 131.259 136.004 126.204 137.639ZM103.404 63.5565C102.576 63.4644 101.748 63.3723 100.842 63.2714C100.441 68.0472 100.062 72.5723 99.6312 77.7042C102.278 77.0651 104.519 76.3628 106.814 76.0103C109.744 75.5602 112.114 74.5507 113.829 71.9104C115.532 69.2879 118.054 68.3251 121.191 69.9414C121.373 68.2864 121.53 66.8623 121.669 65.594C115.64 64.9071 109.752 64.2364 103.404 63.5565ZM51.3628 119.862C45.4681 127.755 41.2928 136.581 37.4977 145.602C37.211 146.283 37.1976 147.489 37.6133 147.981C38.9486 149.564 40.5448 150.927 42.3212 152.646C45.4438 143.318 48.4544 134.566 51.2594 125.749C51.8454 123.906 51.6727 121.823 51.3628 119.862ZM179.754 128.067C173.949 135.748 176.417 143.847 178.602 151.959C183.444 143.91 182.465 134.902 183.183 125.365C181.774 126.399 180.919 127.025 179.754 128.067ZM24.953 159.487C24.014 165.279 24.0561 170.966 26.8389 176.926C27.0674 175.986 27.2459 175.558 27.2663 175.122C27.6979 165.925 29.4243 156.989 32.38 148.262C32.7005 147.316 31.9365 146.002 31.6755 144.859C31.1872 144.822 30.699 144.785 30.2107 144.748C28.5112 149.52 26.8117 154.292 24.953 159.487ZM167.546 115.103C167.064 113.367 166.581 111.631 166.04 109.686C159.94 112.766 156.298 117.672 153.716 123.504C153.863 123.793 154.01 124.081 154.157 124.37C158.95 122.743 163.742 121.117 168.65 119.452C168.21 117.751 167.92 116.634 167.546 115.103ZM9.69608 117.577C9.37987 117.987 9.06364 118.397 8.42876 119.22C12.609 119.251 16.2994 119.302 19.9894 119.286C20.6386 119.283 21.5569 119.226 21.8925 118.817C24.6032 115.517 27.2042 112.126 30.3904 108.058C22.3845 109.988 16.0061 113.214 9.69608 117.577ZM68.0261 127.476C69.4502 131.271 70.8743 135.066 72.5067 139.416C74.5822 134.581 76.3891 130.372 78.19 126.177C73.5194 124.658 69.2477 123.269 65.1034 121.921C66.004 123.679 66.8877 125.403 68.0261 127.476ZM173.699 106.621C172.064 107.177 170.43 107.733 168.653 108.338C169.557 111.439 170.386 114.278 171.278 117.337C176.035 113.855 179.803 109.975 182.442 104.26C179.306 105.079 176.692 105.761 173.699 106.621ZM113.736 186.89C113.156 190.439 112.576 193.987 111.996 197.536C113.012 197.212 113.85 196.559 114.205 195.706C117.195 188.531 120.098 181.319 122.995 174.195C120.47 174.155 117.588 174.259 116.622 178.25C115.945 181.045 114.856 183.741 113.736 186.89ZM111.534 139.881C111.11 141.403 110.687 142.925 110.134 144.909C112.826 142.369 114.894 140.053 117.327 138.224C119.752 136.402 122.543 135.068 125.896 133.095C121.09 132.937 117.246 132.811 113.557 132.689C112.882 135.104 112.276 137.269 111.534 139.881ZM120.734 111.377C119.082 115.643 117.429 119.908 115.617 124.587C121.84 119.661 127.051 105.845 123.804 98.5106C122.871 102.663 121.938 106.816 120.734 111.377ZM136.8 115.113C138.179 116.758 139.557 118.404 141.036 120.17C144.399 110.951 136.674 108.527 132.548 104.001C132.272 104.135 131.996 104.269 131.72 104.403C133.336 107.843 134.952 111.284 136.8 115.113ZM39.4294 113.928C40.7403 113.279 42.0512 112.63 43.4604 111.932C41.1594 110.375 38.9528 108.882 36.4239 107.17C33.8226 110.662 31.3016 114.046 28.7807 117.429C28.9875 117.63 29.1943 117.831 29.4012 118.031C32.6124 116.731 35.8235 115.432 39.4294 113.928ZM161.578 125.091C159.423 125.688 157.267 126.285 154.914 126.937C155.151 127.667 155.405 128.448 155.687 129.317C160.688 128.288 165.477 127.303 170.4 126.29C169.978 124.774 169.524 123.144 169.092 121.592C166.552 122.803 164.272 123.89 161.578 125.091ZM99.7891 198.753C101.622 198.607 103.459 198.496 105.288 198.309C108.265 198.004 109.635 195.582 108.527 192.51C105.275 193.446 102.034 194.378 98.7931 195.31C98.1869 195.628 97.8923 196.769 97.9111 197.906C97.9163 198.22 98.8525 198.52 99.7891 198.753ZM143.627 134.419C143.472 136.31 143.316 138.201 143.154 140.166C147.06 139.079 149.821 136.182 151.376 131.402C148.598 132.316 146.093 133.14 143.627 134.419ZM134.502 99.9771C134.406 100.235 134.156 100.652 134.235 100.728C136.602 103.008 139.002 105.254 141.768 107.854C141.712 105.099 141.668 102.936 141.624 100.719C139.291 100.481 137.088 100.256 134.502 99.9771ZM47.0065 107.219C44.5339 107.049 42.0614 106.879 39.0619 106.673C45.7699 111.944 45.1811 111.653 51.8512 108.492C50.13 108.007 48.7894 107.629 47.0065 107.219ZM147.581 127.297C148.121 126.5 148.661 125.702 149.458 124.524C147.269 124.594 145.763 124.642 144.125 124.694C144.065 126.476 144.011 128.084 143.93 130.469C145.415 129.213 146.336 128.433 147.581 127.297ZM36.5109 138.234C37.0485 136.944 37.586 135.654 38.1235 134.365C36.071 136.569 34.5127 139.011 32.8063 141.344C31.653 142.921 32.4215 143.61 33.754 144.392C34.632 142.352 35.4284 140.502 36.5109 138.234ZM84.7929 125.576C85.3045 125.696 85.8161 125.817 86.5356 125.987C85.971 124.266 85.4917 122.804 84.8034 120.706C83.9092 122.668 83.3715 123.847 82.7472 125.217C83.4662 125.308 83.9335 125.368 84.7929 125.576ZM18.8658 122.126C18.9509 122.241 19.0359 122.355 19.121 122.469C19.161 122.333 19.201 122.197 18.8658 122.126Z" fill="#FCF0DB"/>
</svg>
