<svg width="267" height="362" viewBox="0 0 267 362" fill="none" xmlns="http://www.w3.org/2000/svg">
<path d="M263.816 310.922C265.641 289.423 286.402 292.253 285.991 268C285.767 254.772 282.162 242.377 274.111 231.668C268.419 224.102 270.007 212.614 266.128 204.533C261.98 195.896 257.518 187.317 251.821 179.779C248.126 174.882 244.427 171.039 243.487 164.678L240.853 146.95C239.969 141.025 239.4 134.908 236.607 129.487C229.416 115.522 220.643 103.105 210.562 91.1525C207.59 87.6289 204.866 83.7474 203.989 79.074C202.406 70.62 203.281 60.7289 205.832 52.7803C206.08 51.9957 208.565 50.5632 208.346 49.7783C208.081 48.8477 207.17 47.5591 205.95 46.0477L225.68 19.457C225.635 18.8443 225.467 18.0966 225.175 17.7612C223.397 15.7042 219.216 22.1098 215.772 23.3358C215.002 19.389 216.263 7.28279 212.504 6.14009C211.943 5.96894 210.772 7.04274 210.471 7.69748L205.749 17.7405L205.738 8.04678C205.74 7.49935 204.886 5.9663 204.387 5.98948C203.763 5.99834 202.668 6.63474 202.313 7.15968L196.591 15.7153L195.098 6.52621C194.384 6.37645 192.311 7.0797 191.195 7.56274L185.511 0.660958C185.018 0.0683629 182.557 -0.294095 182.147 0.314417C179.819 3.7786 185.135 9.84853 182.026 25.7617C181.268 29.6407 181.695 33.8551 182.565 37.1838C180.674 37.5764 178.674 38.8566 178.684 40.5475C178.682 41.9886 180.324 43.3145 182.731 44.4408C178.765 53.4468 172.712 61.8394 165.697 69.3331C149.298 86.8499 111.45 79.2507 73.6358 111.509C59.8493 123.272 50.5663 138.212 45.3944 155.545C40.2226 172.878 32.6044 186.577 22.8078 200.984C15.1118 212.306 10.0531 224.935 4.84629 237.518C-1.19409 252.122 -1.06727 267.168 2.37627 282.454C5.32446 295.522 11.8373 306.473 22.9183 314.124C40.6907 326.401 55.7827 330.848 75.0014 341.057C82.9878 345.304 89.6189 351.269 94.102 359.147L101.944 372.935C106.256 380.521 112.896 385.322 121.39 387.275C138.593 391.221 155.738 387.155 170.341 377.23C178.932 371.403 187.836 367.639 197.978 365.527L224.364 360.046C248.196 355.098 261.812 334.279 263.796 310.902L263.816 310.922ZM211.995 10.6476C213.445 15.9552 212.631 20.4653 212.162 25.2673L214.182 28.2223L203.052 43.9946C197.347 41.1542 191.944 38.9795 185.302 37.193C183.887 22.3374 188.325 19.5996 184.721 3.37602C187.146 5.96395 188.866 9.87967 190.175 12.5239L193.287 13.6429C194.323 14.0118 193.217 17.5061 195.485 19.2096C197.753 20.9131 200.786 14.5472 202.257 14.0061L202.748 21.8286C202.778 22.3927 203.732 23.3076 204.214 23.3566C204.696 23.4055 206.352 22.6464 206.587 22.1193L211.976 10.6271L211.995 10.6476ZM186.022 49.4919C184.549 54.1148 180.106 66.5379 177.453 67.2227C172.325 68.5631 185.687 49.3168 186.022 49.4919ZM189.101 72.6823L185.768 71.5795C189.304 64.1357 189.338 55.5619 194.591 49.0871C193.954 57.65 190.347 64.7423 189.097 72.6701L189.101 72.6823ZM195.167 73.1823C195.052 73.925 192.171 73.414 191.337 72.7951L197.023 51.0995C197.819 50.9166 199.759 51.8293 199.549 52.5219C197.587 59.0722 196.124 66.5333 195.167 73.1823ZM167.398 88.1268L163.004 85.3826L175.282 67.0627C175.745 67.0509 177.558 67.8566 177.615 68.5057C177.672 69.1548 177.315 70.6539 176.94 71.3315L167.39 88.1428L167.398 88.1268ZM145.129 97.7201L124.882 108.32L115.638 92.5702L141.751 85.4939C146.557 84.1879 152.117 82.5653 156.44 81.0372C156.844 81.1774 157.967 81.6123 158.012 81.5849C158.061 81.5294 158.761 79.803 159.05 79.619L168.024 73.779C165.996 77.2688 163.995 80.2035 161.633 83.6912L158.476 81.5329L160.484 84.9184C155.919 89.3768 151.113 93.3638 145.881 97.0976L138.848 89.5516C140.294 92.8062 142.184 94.7082 145.108 97.7398L145.129 97.7201ZM98.6007 120.731L86.7985 106.65C95.6 100.984 104.104 96.8383 113.41 93.5887L123.946 108.653L98.5886 120.735L98.6007 120.731ZM185.75 97.0608L178.551 94.0485L185.6 73.086C185.944 72.0577 188.801 73.6833 188.591 74.6295C187.015 81.8591 186.319 89.173 185.75 97.0608ZM195.614 82.9523L189.196 82.8163L190.985 74.0125L195.471 74.5806L195.622 82.9364L195.614 82.9523ZM71.7207 142.213L61.6395 130.687C67.8635 121.521 75.8476 114.31 84.7717 108.099L96.7816 121.821C86.7674 127.321 79.1078 133.949 71.7207 142.213ZM172.938 90.5657L177.124 81.4108C177.288 81.0393 179.09 80.6613 179.188 81.0575C179.751 83.5354 177.232 89.5 176.093 92.3778C175.73 93.3052 172.434 91.6838 172.938 90.5657ZM101.734 121.963L124.845 110.799L128.336 113.68L126.506 110.265L146.092 99.6456L149.442 101.864L147.59 98.7629C153.038 94.6546 157.528 90.8067 162.386 85.9229C163.659 86.751 165.281 88.0966 166.545 89.4479C162.581 95.3985 158.806 100.676 154.707 105.682L149.634 101.497C150.362 103.309 151.898 104.722 153.879 106.489C144.973 115.015 134.988 121.586 124.713 127.7C118.385 124.828 112.519 125.052 105.96 126.468C104.085 126.869 100.782 123.649 101.739 121.935L101.734 121.963ZM187.993 98.1319L189.169 83.158C192.022 83.451 194.411 83.7961 195.96 84.3111C196.4 90.9491 197.647 95.1864 200.453 101.457L188.002 98.1159L187.993 98.1319ZM157.086 106.804L169.2 90.8967C167.013 97.8778 163.773 103.415 160.469 109.812C159.281 109.851 156.715 107.707 157.086 106.804ZM203.81 101.445C199.703 96.1695 198.325 89.9856 198.502 83.9545C198.763 83.5929 200.831 83.4249 201.181 84.0753C203.764 88.8278 208.452 95.615 212.136 100.516C209.832 101.252 206.289 101.735 203.802 101.461L203.81 101.445ZM157.971 136.017L151.844 132.215L172.191 92.6938L175.682 95.0675L163.797 132.391C163.349 133.812 162.939 135.314 162.322 136.028C161.706 136.741 158.779 136.511 157.967 136.005L157.971 136.017ZM195.842 148.798C186.224 142.155 176.96 138.216 165.22 136.72C165.988 133.892 166.675 131.316 167.515 128.718L178.154 95.72L185.94 99.2421C185.891 108.661 187.319 116.323 189.533 124.793L186.693 125.136C191.673 124.215 194.702 144.14 195.842 148.798ZM40.5325 180.464C48.9499 163.741 50.5547 148.219 60.316 132.422L70.2331 143.893C59.9125 156.331 52.3837 169.761 45.1431 184.621C43.161 183.148 41.5767 181.711 40.5286 180.452L40.5325 180.464ZM77.0839 147.495C75.5916 146.095 74.6439 145.072 74.2256 144.162C81.0948 135.821 89.0229 128.815 98.4193 123.642C99.9523 124.576 101.48 126.045 102.366 127.341C91.5448 132.052 83.2385 137.937 77.0923 147.479L77.0839 147.495ZM148.613 131.481C147.473 133.545 145.816 137.452 143.918 138.461L135.16 143.073C133.861 137.184 131.389 132.957 127.421 129.319C137.906 122.938 147.314 116.482 155.768 108.004L160.085 110.799L149.085 130.986C145.002 128.171 142.204 125.927 138.654 123.918C141.8 127.574 145.128 129.172 148.613 131.481ZM215.204 128.138C207.136 128.146 200.357 127.709 192.905 126.657C189.683 117.57 187.936 108.887 188.267 99.9L201.124 102.62C206.441 110.477 211.543 118.628 215.191 128.142L215.204 128.138ZM80.994 150.991C83.481 142.116 103.8 128.852 106.845 131.206L109.958 133.605L107.726 130.356C111.969 129.253 116.735 128.586 120.564 130.761C108.269 139.749 99.976 150.231 93.238 163.12C90.088 160.559 87.2755 157.586 85.0929 155.175C84.1301 154.103 80.4628 152.318 80.994 150.991ZM218.476 127.94C214.494 118.637 210.012 111.319 204.829 102.993L214.023 102.112L228.8 124.238C225.477 126.36 222.053 127.566 218.48 127.952L218.476 127.94ZM70.4766 199.957L47.7261 186.479C54.6991 172.17 62.301 158.93 72.2025 146.517C73.8109 147.734 75.0099 148.878 76.1256 150.183C71.1959 159.904 73.7618 170.517 82.8695 177.32C76.6367 184.075 72.6495 191.313 70.4926 199.965L70.4766 199.957ZM114.51 178.688L107.228 175.115C102.811 172.938 99.5 169.014 95.6073 165.445C102.162 151.76 111.305 139.905 123.908 131.727C130.744 135.494 132.83 143.216 131.641 150.912L128.738 150.034L131.497 153.05C129.088 163.196 122.999 172.707 114.51 178.688ZM87.5382 170.682C88.6415 171.776 89.506 172.279 89.5598 173.089C89.6136 173.899 88.2219 175.843 87.5451 175.428C80.5273 171.038 75.7186 161.354 80.0518 153.901C81.4566 155.021 83.5626 156.549 83.2513 157.513C82.9908 158.342 81.6451 159.964 81.0558 160.722C81.6169 161.747 82.4148 164.378 83.1984 165.346L87.526 170.685L87.5382 170.682ZM118.81 183.729C129.577 190.719 140.201 198.06 152.617 201.332C140.854 195.548 130.146 190.234 118.852 182.756L128.672 167.954L136.786 155.755L141.528 157.776C139.827 156.136 138.855 155.587 137.392 154.751L144.293 144.212L149.488 142.784C147.712 142.14 147.163 142.432 146.625 142.841C145.005 144.056 142.57 138.457 162.141 139.366L161.12 147.769C161.025 148.572 159.798 150.744 159.963 151.439C161.612 153.723 161.419 158.172 159.124 160.465C160.99 162.548 161.489 164.779 161.579 167.405C161.907 177.093 160.941 185.758 156.595 194.363L150.015 207.416C136.032 202.208 128.007 199.201 118.52 187.569C117.673 186.527 117.609 184.279 118.79 183.749L118.81 183.729ZM199.598 151.676C197.734 142.577 195.759 135.806 193.22 127.492C200.891 129.116 207.988 129.586 215.836 129.434C218.892 137.866 221.304 146.114 222.971 154.968L199.598 151.676ZM166.142 140.513L167.143 139.705C174.714 141.521 182.271 143.247 189.081 148.716C181.04 147.488 174.424 144.253 166.142 140.513ZM165.728 169.493C164.549 166.074 163.595 161.838 165.623 157.922C168.188 158.278 169.182 163.662 171.739 163.181C172.393 163.056 173.616 161.979 173.443 161.34L172.639 158.35L177.595 157.224C178.278 157.063 179.152 154.829 178.678 154.297C178.205 153.765 176.839 153.193 175.957 153.189L171.224 153.112C171.162 150.104 169.502 147.529 167.43 147.472L166.752 149.992C166.627 150.444 164.998 151.035 164.766 150.507C163.602 147.898 163.92 143.637 164.782 141.152C173.939 145.005 182.424 148.628 191.592 151.197C195.497 152.294 197.413 153.854 197.346 158.45C197.227 165.517 194.803 172.466 193.196 178.958C190.59 189.498 190.01 199.35 192.56 209.702C179.723 212.364 185.204 209.553 176.057 210.712C168.851 211.636 161.327 209.886 153.816 208.306C153.673 206.83 154.734 203.789 156.027 203.784L158.011 203.776C158.253 203.78 158.07 203.451 157.876 203.258C157.682 203.066 156.438 201.948 156.597 201.645C163.757 188.104 163.228 185.095 165.728 169.493ZM36.4197 203.347L29.9125 198.331L39.5449 182.761C40.9483 183.962 42.8451 185.928 43.8356 187.472L36.4076 203.351L36.4197 203.347ZM234.5 155.196L226.646 155.204L219.159 129.1L229.697 126.251C233.363 131.264 234.879 137.805 235.868 144.111L239.354 166.427L226.619 156.946C230.18 156.35 232.456 156.077 234.505 155.168L234.5 155.196ZM91.2469 177.749L94.9065 167.252L112.408 181.388C104.509 183.463 97.8864 181.017 91.2469 177.749ZM74.0972 204.104L79.7366 207.246C79.1367 209.034 77.1941 210.497 75.3027 210.462C67.9627 210.322 61.3123 212.339 54.8065 215.712L39.1409 205.136L46.5014 189.211L58.9748 197.773C59.2772 197.972 60.5084 198.453 60.7185 198.187L61.8138 196.83L70.1648 202.069L71.0819 209.464C73.4091 208.548 73.1439 207.404 74.085 204.108L74.0972 204.104ZM84.7379 196.902L83.138 200.564C82.7471 202.594 82.1587 204.419 81.0583 206.058L73.9936 201.816C76.103 192.672 80.3019 186.194 87.0899 179.679C88.5932 191.839 85.098 184.984 84.669 192.468C84.2338 192.271 80.4494 192.07 80.5581 193.183C80.7219 194.812 83.2363 196.238 84.7379 196.902ZM24.0255 229.853L16.0435 223.578C19.9484 215.098 23.7144 207.623 28.7429 199.791L35.4324 205.858L24.0376 229.849L24.0255 229.853ZM91.9715 202.491C92.5618 201.012 93.0446 199.914 92.6547 199.436L90.9347 197.267C92.0171 196.848 94.477 195.717 94.6385 194.573C94.8953 192.838 92.2518 192.319 89.8663 192.453L90.9003 182.006C98.6114 185.671 105.101 185.438 113.911 184.651C108.693 195.197 105.851 204.984 103.753 216.592L84.0039 207.455L87.9659 200.052L91.9556 202.483L91.9715 202.491ZM34.5804 239.443C31.129 237.07 28.3838 234.61 26.3582 231.977L37.9464 207.751C41.368 209.986 44.7491 212.902 48.1715 214.203C50.0505 214.922 52.1908 214.771 53.2575 216.557C44.2657 222.51 39.0705 229.767 34.5842 239.456L34.5804 239.443ZM210.974 201.17C205.947 204.919 201.063 207.677 195.332 208.926C188.81 188.456 198.947 178.156 200.428 157.685C207.226 164.611 213.063 172.679 215.302 181.527C209.646 180.672 205.091 179.672 200.228 179.862C205.627 181.171 210.257 181.814 215.475 182.673C217.994 189.18 216.907 196.736 210.966 201.186L210.974 201.17ZM227.173 174.846L229.218 182.648L218.748 182.221C216.917 173.272 212.586 165.879 206.887 158.462C213.214 157.372 218.716 158.796 224.399 161.056L225.753 168.101L222.374 167.32C221.741 167.171 220.803 168.946 221.237 169.437L223.05 171.563L222.259 175.252L227.161 174.849L227.173 174.846ZM136.019 229.022C125.493 225.651 116.184 222.166 106.665 217.84C109.332 206.347 109.964 199.253 115.382 188.792C124.148 199.783 135.993 205.701 148.879 209.706L143.794 224.251L136.019 229.022ZM16.7127 251.165L7.20795 244.5L15.172 225.692L22.8975 232.127C20.1916 238.858 18.3808 244.614 16.7127 251.165ZM64.1939 221.96L56.8675 217.053C62.2889 213.54 68.0128 212.227 74.6363 212.592L64.1818 221.964L64.1939 221.96ZM244.524 182.373L232.999 182.583C231.722 180.423 231.648 176.058 232.657 174.594C234.487 174.648 236.931 173.762 236.458 172.763L231.188 169.186L228.72 163.437C244.314 172.422 254.591 191.596 246.696 209.262C246.043 209.267 243.733 207.937 243.346 207.044L233.325 183.962C238.146 183.598 240.975 183.645 244.517 182.348L244.524 182.373ZM47.3809 247.73L36.687 240.931C40.1223 231.038 46.1612 222.983 55.3867 217.691L63.3116 222.89C55.8382 230.581 51.7039 237.945 47.3892 247.714L47.3809 247.73ZM66.5981 223.247L79.3216 212.391C88.1749 213.444 95.5998 216.239 102.803 221.945L97.9438 240.7C87.0648 235.013 77.4237 229.658 66.6019 223.259L66.5981 223.247ZM5.19558 268.553C9.17544 271.974 13.1878 275.158 15.9988 278.212C17.662 282.412 16.516 287.693 19.3057 291.701L18.1425 279.434L20.4003 281.021C20.6389 281.186 21.4717 280.098 21.2772 279.946L17.8735 277.384L18.4322 255.588L20.5449 256.967C20.8791 257.182 21.8496 257.385 21.747 257.27C20.5736 255.824 18.5441 254.073 18.8393 252.886C20.4004 246.462 22.6886 240.356 25.6354 233.884L34.5163 240.09C31.866 247.977 30.9599 255.13 30.6624 263.8L22.3115 257.667C24.3619 260.932 27.5158 262.612 30.7432 265.122C31.0432 274.591 32.9582 283.128 36.3021 292.563L22.1831 281.049C26.4931 288.035 33.4524 290.535 38.2115 296.06C40.8691 299.135 45.0227 302.302 47.1915 305.477C51.8315 312.239 54.6323 319.431 59.0523 327.236C49.1099 322.962 40.1278 318.561 31.0919 313.136C12.7054 302.092 7.24583 289.438 5.19558 268.553ZM82.8197 267.902C71.0604 261.703 60.8746 255.972 49.8978 249.462C53.4434 239.921 58.4248 231.131 65.6688 224.325L96.9748 242.418C95.529 246.019 94.0526 249.309 92.2806 252.252L82.8235 267.914L82.8197 267.902ZM15.6409 275.07L4.79076 265.559C4.36647 259.183 4.91814 253.154 6.73585 246.569L16.3828 253.603C15.367 261.257 15.5112 267.761 15.6531 275.066L15.6409 275.07ZM195.33 212.155L202.472 208.983C213.51 204.07 219.9 193.944 218.792 182.194C223.357 183.097 225.854 183.275 229.387 183.315L239.816 207.483C229.163 206.687 219.046 207.177 210.442 213.048C206.044 216.04 200.33 215.723 195.342 212.151L195.33 212.155ZM41.2875 271.954L33.751 266.42C33.5362 258.031 33.9745 249.81 36.2173 241.305L46.9588 248.809C44.4309 256.831 42.6798 264.182 41.2875 271.954ZM100.464 242.231L105.489 224.344C111.906 230.136 115.415 237.546 117.569 246.461C122.071 238.821 111.017 226.32 105.821 220.212L133.948 230.671C132.659 232.729 130.573 234.796 128.437 236.28C123.108 240.004 120.006 245.044 117.153 251.007L100.464 242.231ZM147.198 223.197L151.939 210.574L160.726 212.609C157.791 219.077 155.317 223.267 147.207 223.181L147.198 223.197ZM172.155 221.712L160.112 221.418L163.726 213.029L169.882 213.821L172.155 221.712ZM255.716 212.891L248.527 209.742C252.7 202.672 252.143 194.937 251.364 186.151C256.078 193.957 260.1 201.26 263.9 209.766L255.712 212.879L255.716 212.891ZM71.6165 292.207L44.6572 274.833C44.8153 266.527 46.6887 258.417 49.645 250.528L82.0524 269.156C77.8848 276.797 74.9049 283.76 71.6165 292.207ZM197.889 230.92C190.18 227.133 184.931 224.47 177.376 222.877L172.307 213.981C181.442 214.573 188.004 211.676 194.292 214.547C195.81 220.114 197.033 225.293 197.905 230.928L197.889 230.92ZM198.381 243.17C180.888 240.81 162.943 237.217 145.952 231.564C145.464 230.517 146.247 227.95 147.194 227.694C163.729 223.299 180.943 225.96 195.494 234.512C198.764 236.435 199.995 239.17 198.381 243.17ZM96.959 270.713C97.1696 270.194 97.36 269.014 97.3095 268.469C97.2589 267.925 95.7082 267.531 95.3387 267.926L93.9755 269.407C93.5689 269.855 92.7996 271.657 92.2816 271.365C88.6666 269.364 89.3598 267.533 87.8629 267.948L85.4353 268.629L100.007 243.922L116.788 252.055C114.052 260.008 114.307 268.144 117.449 276.043L113.16 281.935C110.44 281.427 95.8254 273.523 95.9269 273.251L96.9347 270.721L96.959 270.713ZM199.538 224.134L197.07 214.557L205.951 216.042L199.55 224.131L199.538 224.134ZM120.189 252.269C122.883 244.862 127.259 241.29 132.802 237.526L140.321 232.408C144.185 232.905 133.796 255.381 131.185 257.266L120.201 252.265L120.189 252.269ZM44.5223 298.577C37.226 289.553 34.7861 278.873 34.0165 267.99L41.7499 273.77C40.326 282.846 42.4473 290.211 44.5223 298.577ZM232.328 216.446C225.768 216.541 219.103 217.362 212.573 215.381C217.76 209.714 238.782 208.995 241.231 211.615C241.953 212.389 242.255 215.055 242.066 215.982C238.457 216.299 235.476 216.406 232.331 216.458L232.328 216.446ZM151.296 265.596C145.606 262.337 140.084 260.933 134.748 258.59L139.779 249.745C140.982 249.794 143.036 250.178 143.585 249.419L145.989 246.024C147.819 243.437 152.851 250.81 154.7 247.603C156.333 244.77 151.348 243.758 153.056 242.783L154.915 241.733C155.46 241.429 156.194 240.239 156.325 239.637C157.129 236.117 149.23 242.661 146.302 234.469C164.152 239.372 180.6 242.914 198.764 245.544C194.675 256.203 188.908 265.506 182.985 274.058C180.231 273.187 178.874 272.772 176.502 273.249L182.717 274.862C177.13 283.722 170.471 291.585 162.987 298.732C150.755 295.282 139.803 291.872 128.047 287.727L122.076 279.101L134.295 259.399C140.68 262.24 145.415 264.451 151.299 265.608L151.296 265.596ZM233.638 217.649L242.89 216.697C246.016 225.948 247.753 235.194 248.015 245.435C235.623 245.944 223.406 245.905 210.918 244.87C208.209 241.251 205.902 238.399 202.829 235.147C196.422 228.365 207.354 217.71 211.065 217.08C214.776 216.451 219.279 217.414 222.987 217.413C223.112 218.534 222.799 220.259 223.39 220.741L225.849 222.758L223.143 225.913C222.827 226.519 222.673 228.115 223.23 228.487C225.56 230.051 228.216 225.884 228.979 227.126L230.301 229.259C230.684 229.886 232.136 230.858 232.757 230.543C235.138 229.33 233.096 226.262 234.426 226.419L236.639 226.672C237.455 226.763 239.14 226.395 239.801 225.908C240.356 225.508 240.467 223.565 239.964 223.109C237.782 221.126 232.709 222.515 233.618 217.669L233.638 217.649ZM69.002 306.804C62.7644 306.692 56.8646 305.486 51.0399 303.244C46.2687 294.829 43.8019 285.638 44.4772 275.663C53.5064 282.13 62.3566 287.813 71.5646 292.85L69.002 306.804ZM120.495 275.248C117.19 267.894 116.864 260.3 119.803 253.377L130.842 258.254L120.495 275.248ZM251.608 245.283C251.168 235.11 249.687 226.171 246.861 217.026C258.182 208.97 272.959 235.991 273.181 244.831L251.596 245.287L251.608 245.283ZM258.315 214.077L264.065 212.209L265.732 220.423L258.327 214.073L258.315 214.077ZM97.8421 301.834C96.1815 302.622 92.3836 302.718 90.8865 302.027L79.4164 296.752L90.0893 302.93C83.8243 305.454 78.2764 306.606 71.458 306.555L73.4518 294.233L79.3017 296.641L73.731 293.038C76.6173 285.011 79.7872 278.229 84.2156 270.185L88.5067 273.535C86.1492 275.461 84.6453 276.706 84.3362 278.444C86.155 279.821 88.8805 278.473 90.8738 277.769L92.8742 283.131C93.1314 283.824 95.8208 282.914 95.7861 282.165L95.639 277.823C97.9579 276.923 112.354 282.468 111.831 283.352L110.447 285.706C110.186 286.148 108.86 287.324 109.291 287.549L110.627 288.238C105.096 291.825 101.534 296.249 97.8543 301.831L97.8421 301.834ZM186.097 274.67L195.104 259.87C197.708 255.452 199.565 251.162 201.349 246.002C202.392 245.755 206.295 246.039 207.239 247.263C213.35 256.206 213.662 268.352 208.57 277.898L186.097 274.67ZM217.457 278.887C215.157 278.061 213.59 275.911 213.609 273.717C216.887 264.941 216.186 255.85 211.953 247.067C224.405 247.686 235.946 247.911 248.052 247.851C247.785 259.726 246.072 270.987 240.882 281.536L217.457 278.887ZM151.802 326.499L115.253 313.424C113.852 304.487 114.801 296.066 118.352 287.777C120.272 287.603 122.967 287.732 124.788 288.095C133.123 298.647 144.824 303.85 158.594 304.844C153.728 311.917 153.114 318.685 151.802 326.499ZM99.071 306.011C102.676 298.532 106.795 292.693 113.988 289.172C112.109 296.923 111.391 303.23 111.215 311.435L99.071 306.011ZM68.726 317.628L70.8309 332.814C63.3255 332.912 56.7698 314.973 53.0103 308.041C55.4033 308.612 56.9718 309.361 58.4439 310.1C59.3147 310.027 61.3919 309.803 62.4079 309.938L68.8329 310.819L68.685 315.667L61.08 311.915C63.696 314.176 67.2469 315.718 68.726 317.628ZM244.577 281.792C249.393 270.56 251.034 259.921 251.572 247.549L273.57 246.497C277.167 260.615 272.489 274.459 260.7 282.168L244.573 281.78L244.577 281.792ZM162.053 300.985C149.866 303.978 138.378 299.028 130.764 290.61C141.607 294.054 151.805 297.141 162.053 300.985ZM166.698 299.209C174.347 291.61 180.271 284.125 185.681 275.214C188.371 275.838 191.291 276.644 193.88 277.073L207.661 279.423C204.284 288.737 174.243 306.048 166.686 299.213L166.698 299.209ZM71.1206 317.438L71.4954 310.505C80.3581 310.141 87.0327 307.903 95.7989 304.636C93.0864 312.622 91.1565 318.508 91.5256 327.049L71.1047 317.43L71.1206 317.438ZM109.684 332.469C100.812 332.208 103.56 332.508 95.3596 328.515C94.6184 320.745 95.3684 313.987 98.6488 306.877L111.727 312.729L112.936 328.716L110.306 328.073L109.684 332.469ZM277.37 282.626L266.978 282.068C276.048 273.77 278.653 263.484 278.902 251.721C281.609 260.743 282.853 274.585 277.37 282.626ZM101.925 363.298C95.7472 350.522 87.2013 340.915 74.0172 335.15C72.5754 329.613 71.7544 324.695 71.4467 318.776L91.7965 329.658C93.0394 339.966 96.8465 349.39 104.391 356.736L101.921 363.286L101.925 363.298ZM209.107 283.185C208.818 282.475 211.324 279.409 212.447 280.137C214.189 281.272 216.462 283.587 218.034 285.282L209.107 283.185ZM219.275 281.199L239.687 283.258C239.429 292.435 221.361 284.28 219.275 281.199ZM228.106 311.763L179.585 302.92C190.796 298.727 199.632 294.277 206.973 285.4L215.231 287.321C221.596 291.115 226.881 295.554 231.06 301.567L228.11 311.775L228.106 311.763ZM117.739 338.001C119.474 336.217 120.875 334.684 120.324 333.99C119.773 333.296 117.753 332.808 116.606 332.554L115.219 314.169C127.682 319.546 139.582 323.726 152.156 327.415C151.549 334.928 150.121 341.778 146.983 348.577C136.456 345.247 126.903 341.918 117.739 338.001ZM215.786 325.054C214.911 324.648 212.139 325.25 212.352 326.143L213.187 329.657L193.32 336.403L162.429 329.424C159.627 321.166 160.465 311.753 166.606 305.214C168.69 304.587 172.652 303.439 174.712 303.927C192.383 308.006 209.245 311.418 227.33 314.18C224.211 326.189 221.971 320.488 219.519 324.284C218.927 325.203 218.472 326.306 218.021 326.101L215.774 325.058L215.786 325.054ZM232.312 297.347L223.858 288.672L235.169 291.356L232.328 297.355L232.312 297.347ZM241.528 287.896L243.613 283.441L256.377 284.376C251.107 286.628 247.29 287.598 241.528 287.896ZM110.544 343.217L105.867 352.766C100.075 346.244 97.1305 340.125 96.2118 331.703L108.41 337.217L106.103 342.368L110.556 343.213L110.544 343.217ZM155.621 326.81C155.521 324.28 156.132 319.46 157.019 316.888L158.224 325.54C158.288 326 157.877 327.37 157.752 327.822C157.627 328.275 155.62 327.277 155.605 326.801L155.621 326.81ZM257.961 314.838L239.65 313.187L234.764 300.66C234.307 298.095 237.491 293.403 239.125 291.464C248.626 291.861 256.145 289.211 263.887 284.504L275.901 284.153C262.434 297.617 261.745 296.099 257.968 314.862L257.961 314.838ZM164.111 353.306C166.221 349.484 167.146 347.54 165.493 344.99C163.879 347.63 162.103 350.561 160.216 352.539L150.268 349.441C153.27 342.419 154.529 336.008 155.587 328.661C157.681 328.618 159.417 330.155 159.861 331.87C162.201 340.913 167.871 347.259 175.757 351.524C175.2 352.685 173.207 355.391 171.963 355.42C169.768 355.481 165.855 354.147 164.123 353.302L164.111 353.306ZM108.491 355.051L113.938 344.087L118.866 341.596L145.924 351.029L139.333 362.685C128.076 365.239 116.646 362.859 108.503 355.047L108.491 355.051ZM177.939 349.253C169.742 346.633 164.942 338.254 162.728 330.678L191.349 337.607C186.384 341.298 182.092 345.31 177.939 349.253ZM217.759 335.266C218.191 336.305 218.878 337.476 219.586 337.775C220.153 338.011 221.942 337.25 222.005 336.643L222.306 333.815L225.853 332.917C224.679 331.044 223.544 329.252 223.123 328.037C226.257 323.867 228.829 319.473 230.918 315.03C232.121 314.359 236.179 315.008 236.401 316.353C237.431 325.3 234.033 333.781 228.519 340.871C218.298 340.219 208.947 339.282 199.104 337.284C201.741 334.631 216.632 332.565 216.906 333.226L217.747 335.27L217.759 335.266ZM232.872 341.227C238.165 333.473 240.77 324.974 239.867 315.667L258.072 316.47C256.641 326.162 252.529 334.96 246.345 342.38L232.872 341.227ZM133.181 374.123L128.474 383.534C117.411 383.6 108.07 377.458 104.154 366.921L107.023 359.219C116.217 366.555 125.381 368.685 136.645 367.342C135.717 369.447 134.386 371.838 133.367 373.185L126.623 372.137C128.787 373.126 130.08 373.335 133.157 374.131L133.181 374.123ZM143.814 361.321L149.188 351.781L157.653 354.45C152.284 357.959 148.889 359.851 143.798 361.312L143.814 361.321ZM181.248 350.617C185.578 345.792 190.25 340.526 196.178 338.588L226.403 343.015C214.592 355.719 195.837 357.075 181.26 350.613L181.248 350.617ZM136.978 373.64C138.309 370.822 139.724 368.231 141.045 366.444C149.098 363.88 155.457 361.06 161.779 355.398L170.548 357.545L160.524 366.035C158.079 368.108 155.732 370.791 153.38 373.502C148.076 374.324 142.687 374.239 136.99 373.636L136.978 373.64ZM221.092 356.243C194.487 361.58 204.015 361.381 176.227 356.685C177.132 355.188 178.294 353.917 179.535 353.194C196.942 360.263 218.246 358.015 231.006 343.106L245.037 343.444C239.062 350.211 230.663 354.311 221.1 356.227L221.092 356.243ZM158.169 372.735L174.831 358.23L193.705 361.851C184.219 364.438 175.755 368.117 167.389 373.513C164.225 373.545 161.228 373.603 158.165 372.723L158.169 372.735ZM131.617 383.857L136.407 374.499L151.205 376.051C143.885 383.467 141.953 384.833 131.617 383.857ZM151.069 381.362L155.87 375.616L164.013 375.425C159.547 378.238 155.694 380.033 151.053 381.354L151.069 381.362Z" fill="white"/>
</svg>
