<svg width="281" height="244" viewBox="0 0 281 244" fill="none" xmlns="http://www.w3.org/2000/svg">
<path d="M180.195 52.3753C179.556 54.3442 178.986 56.0246 178.13 58.5477C189.828 64.1582 201.539 69.7263 213.207 75.3839C225.995 81.5847 238.793 87.7695 251.483 94.1655C256.335 96.6108 261.12 99.3143 265.546 102.449C271.769 106.855 275.722 111.347 271.241 122.005C271.059 122.44 270.846 122.863 270.561 123.478C271.037 123.661 271.42 123.904 271.824 123.949C278.3 124.656 280.979 127.846 279.715 134.304C278.697 139.508 276.937 144.564 275.56 149.701C275.35 150.486 275.104 151.523 275.434 152.149C277.275 155.645 276.573 158.955 274.957 162.225C271.11 170.01 267.17 177.75 263.371 185.559C260.057 192.372 257.243 199.454 253.559 206.055C249.231 213.808 246.454 222.622 239.199 228.527C238.935 228.742 238.853 229.298 238.591 229.376C233.131 231.013 230.413 235.877 226.674 239.512C220.548 245.469 215.396 244.236 210.658 237.468C209.108 235.254 207.88 232.814 206.378 230.262C205.255 230.949 204.087 231.647 202.936 232.371C197.744 235.641 192.618 235.155 187.531 232.12C179.171 227.132 170.892 222.002 162.431 217.191C150.404 210.352 138.309 203.627 126.121 197.081C115.903 191.593 105.358 186.703 95.2287 181.064C80.0651 172.622 64.9408 164.075 50.1789 154.959C40.025 148.688 30.0157 142.011 21.9082 133.007C17.31 127.9 13.9155 122.351 15.6379 115.099C12.3504 113.66 9.07734 112.427 5.991 110.832C-0.0234518 107.725 -1.37071 103.606 1.33015 97.3963C2.7018 94.2429 4.07015 91.088 5.44558 87.9362C5.63581 87.5003 6.08443 87.0489 6.03268 86.6546C4.91449 78.1364 11.0596 72.3539 13.9591 65.347C17.0623 57.8477 22.0568 51.7243 27.0171 45.4151C32.4209 38.5418 36.7347 30.8183 41.6493 23.5504C43.9712 20.1166 46.4714 16.7988 51.3115 16.6902C52.0961 16.6726 52.9076 15.5702 53.6176 14.8779C58.1163 10.4913 62.4192 5.8848 67.1318 1.74343C70.2862 -1.02866 74.7792 -0.475828 78.3499 3.26027C81.6341 6.69668 84.2384 10.783 87.2815 14.7653C92.9104 10.7506 98.75 13.7954 104.615 16.1992C116.679 21.1434 127.906 27.649 138.955 34.512C146.858 39.4217 154.91 44.093 162.848 48.9485C164.754 50.1142 166.36 50.438 168.401 49.1069C171.829 46.8709 176.125 45.7245 177.569 41.1544C177.623 40.9819 179.815 41.2139 179.823 41.337C180.063 44.9141 180.152 48.5013 180.195 52.3753ZM126.048 88.9237C129.242 109.49 152.102 121.284 166.904 120.057C174.593 119.42 179.428 115.47 180.322 108.936C180.949 104.352 180.77 99.4564 179.794 94.9507C179.398 93.1224 175.93 91.9595 173.86 90.4944C173.763 90.4255 173.656 90.3691 173.563 90.2955C168.935 86.6484 164.309 83.0001 160.5 79.9965C158.669 80.6386 157.319 81.1259 155.958 81.5829C155.439 81.7569 154.883 81.8196 154.37 82.006C153.095 82.4699 148.41 79.8804 148.261 78.5192C148.208 78.0389 148.509 77.4672 148.779 77.016C149.262 76.2115 149.712 75.2965 150.423 74.7465C151.099 74.2227 152.091 73.8785 152.944 73.8776C153.72 73.8768 154.496 74.4439 154.438 74.4201C154.139 71.8389 153.842 69.2667 153.409 65.5197C150.325 65.0131 146.018 63.0714 142.39 63.9459C132.33 66.3708 123.558 76.467 126.048 88.9237ZM39.8491 79.4504C53.1302 57.9564 66.3612 36.4273 82.9497 17.7449C80.4224 14.3437 77.9594 10.9225 75.3819 7.58981C72.6791 4.09517 71.2291 3.78785 68.2126 6.83845C63.0274 12.0824 57.2948 16.5507 54.7747 24.3907C52.6923 30.8694 47.767 36.4678 43.9116 42.3315C41.205 46.4478 38.0126 50.2461 35.332 54.3778C30.2399 62.2265 25.3867 70.2297 20.3771 78.1325C18.4108 81.2344 16.8873 85.0394 14.1083 87.1099C9.3432 90.6603 8.53132 95.866 6.62443 100.66C5.84862 102.611 6.10507 104.526 8.41356 105.74C11.6721 107.455 14.8035 109.411 17.9534 111.242C19.026 109.703 20.0872 108.15 21.1785 106.619C24.845 101.475 28.585 96.3816 32.1741 91.1841C34.7113 87.5098 37.0495 83.6981 39.8491 79.4504ZM121.549 114.848C121.571 112.708 121.818 110.543 121.575 108.435C120.542 99.4435 114.795 92.4378 106.794 90.1829C97.6908 87.6174 92.672 88.8496 87.4444 97.0827C79.0473 110.308 74.4878 124.149 81.9317 139.892C86.8594 150.314 98.5173 156.031 109.391 144.434C117.034 136.282 120.269 126.233 121.549 114.848ZM174.12 150.676C169.678 139.996 162.512 132.108 151.244 128.482C148.198 127.502 138.212 130.646 137.052 133.175C133.711 140.455 131.621 148.024 132.698 156.317C138.166 157.023 143.44 157.703 149.351 158.467C148.561 157.459 147.941 156.667 147.32 155.875C147.692 155.735 148.065 155.595 148.438 155.455C149.673 155.595 150.908 155.734 151.726 155.827C152.484 154.718 153.029 153.92 153.575 153.122C154.324 153.663 155.065 154.214 155.824 154.741C156.229 155.023 156.635 155.341 157.091 155.506C158.117 155.877 159.174 156.162 160.219 156.482C159.77 157.469 159.321 158.456 158.742 159.729C158.984 160.374 159.38 161.425 159.571 161.932C157.979 163.483 156.849 164.83 155.467 165.83C154.754 166.346 152.819 166.55 152.751 166.376C151.514 163.242 149.541 165.266 147.843 165.569C143.786 166.295 139.731 167.03 135.496 167.794C137.633 174.436 141.01 181.051 146.504 186.302C151.754 191.321 158.199 192.033 163.427 188.379C167.907 185.247 171.156 180.985 172.927 175.797C175.676 167.74 175.972 159.489 174.12 150.676ZM189.278 143.06C191.487 146.559 193.389 150.309 195.98 153.497C199.602 157.953 204.202 160.876 210.406 160.28C223.216 159.05 232.982 143.643 229.567 130.426C227.083 120.811 220.995 115.001 211.716 112.442C206.816 111.09 201.041 110.782 197.402 114.144C189.225 121.697 184.022 130.821 189.278 143.06ZM192.175 195.623C203.572 198.049 214.954 190.088 216.01 178.468C216.441 173.727 215.616 168.871 215.355 163.934C203.154 168.256 187.432 158.4 183.082 136.284C180.08 137.796 177.285 139.204 174.335 140.69C175.402 142.308 176.128 143.102 176.51 144.036C180.872 154.697 180.958 165.446 177.261 176.331C176.741 177.864 176.665 179.837 177.141 181.371C179.395 188.626 184.834 192.745 192.175 195.623ZM256.02 153.677C252.321 161.049 248.735 168.48 244.9 175.781C235.066 194.506 225.317 213.308 208.961 227.867C211.201 230.788 213.219 233.729 215.572 236.371C216.957 237.925 219.006 239.732 221.134 237.889C225.206 234.363 229.376 230.864 230.268 224.911C230.705 221.992 231.7 219.051 232.995 216.388C235.89 210.436 239.137 204.656 242.229 198.8C246.219 191.24 250.492 183.81 254.092 176.069C257.265 169.245 259.516 161.997 262.53 155.092C263.454 152.974 265.269 150.286 267.18 149.788C269.871 149.086 270.889 147.485 271.685 145.53C272.798 142.795 273.653 139.923 274.314 137.04C276.036 129.533 275.878 129.386 267.845 128.251C264.04 136.446 260.176 144.769 256.02 153.677ZM118.988 139.006C115.849 144.988 111.449 149.777 105.576 153.172C106.826 164.225 121.814 176.846 134.336 177.515C132.83 169.617 129.125 163.26 121.246 160.066C120.917 159.933 120.595 159.75 120.315 159.532C118.355 158.006 116.407 156.465 114.455 154.929C114.625 154.552 114.795 154.175 114.964 153.798C119.475 154.281 123.985 154.764 128.249 155.22C128.637 151.707 128.678 148.408 129.433 145.282C130.234 141.968 131.514 138.728 132.93 135.612C137.501 125.56 146.143 121.603 156.506 126.157C158.842 127.183 161.091 128.407 163.832 129.763C163.727 127.904 163.644 126.437 163.556 124.881C152.475 124.066 143.091 119.768 134.736 112.958C132.354 111.016 126.149 113.793 125.805 116.845C124.95 124.437 122.956 131.685 118.988 139.006ZM107.413 40.1408C100.5 39.8748 89.0744 48.5596 87.1717 55.4144C90.1002 56.612 93.0116 57.8026 95.9605 59.0085C96.4254 58.6309 96.9172 58.1381 97.4936 57.7823C98.7755 56.991 99.0604 53.736 101.74 56.262C102.92 57.3745 104.729 57.8036 106.192 58.6492C106.41 58.7751 106.403 59.8454 106.308 59.8757C103.204 60.8637 105.84 62.9252 105.353 64.693C104.158 64.8484 102.413 64.5387 101.607 65.2676C96.4973 69.8899 90.5074 70.9828 83.6084 69.8571C84.134 72.0457 84.3779 73.8237 84.9869 75.4663C87.7387 82.8886 93.4345 85.7052 100.835 83.0898C108.35 80.4339 114.309 75.6999 117.817 68.433C123.31 57.055 119.066 43.6683 107.413 40.1408ZM32.2071 111.684C31.0572 114.405 29.9073 117.125 28.6425 120.117C34.7061 119.589 40.0721 119.122 45.7125 118.631C44.3175 111.511 48.0591 105.869 50.6269 99.7371C47.4453 98.7086 44.459 97.5988 41.3852 96.8472C40.5797 96.6503 38.9991 97.3044 38.6325 98.0121C36.4112 102.301 34.4384 106.718 32.2071 111.684ZM62.5531 103.155C59.8444 102.387 57.1356 101.618 54.1643 100.775C51.712 106.615 46.6146 111.358 49.1705 118.397C55.8596 118.22 62.3501 118.048 69.1332 117.868C66.2679 113.619 67.3335 109.495 69.1896 105.435C66.9442 104.647 65.0442 103.98 62.5531 103.155ZM244.987 127.806C243.758 132.187 242.528 136.568 241.216 141.243C244.066 142.097 247.407 143.098 250.816 144.119C254.007 136.058 259.715 129.5 260.85 120.674C254.975 121.308 249.407 121.909 243.838 122.51C244.276 124.323 244.63 125.793 244.987 127.806ZM56.0857 91.5344C58.3143 88.4638 60.5429 85.3932 62.7914 82.2953C59.1043 80.1512 55.5666 78.0939 51.655 75.8192C48.002 82.1007 44.4474 88.2133 40.8135 94.4622C42.9908 94.9563 45.1703 95.4881 47.366 95.9418C52.7618 97.0567 52.7648 97.0422 56.0857 91.5344ZM58.8404 98.7066C63.0221 99.8365 67.2039 100.966 71.6025 102.155C73.9729 98.0788 76.2056 94.2394 78.3127 90.616C74.2264 88.2397 70.2733 85.9409 66.1068 83.5179C62.6893 88.4014 59.4262 93.0643 56.0408 97.902C56.9651 98.1968 57.6325 98.4096 58.8404 98.7066ZM37.6861 122.268C34.974 122.472 32.262 122.677 29.0171 122.921C29.9043 124.218 30.4242 125.438 31.3256 126.216C35.1498 129.515 39.0324 132.754 43.0283 135.841C43.8523 136.478 45.4871 136.892 46.345 136.508C49.3298 135.171 52.1374 133.439 55.1595 131.776C53.1372 129.86 50.6227 128.473 49.6763 126.378C47.5751 121.726 44.1418 121.424 39.9858 122.132C39.401 122.231 38.7993 122.231 37.6861 122.268ZM126.092 40.1787C124.496 39.2504 122.899 38.3222 121.327 37.4077C120.478 39.0873 118.75 40.9987 119.175 41.9398C120.636 45.1819 122.321 48.6855 124.911 50.9649C128.129 53.7974 132.332 55.5109 136.197 57.7583C137.75 55.0871 139.477 52.1172 141.283 49.0131C136.663 46.3269 131.692 43.4357 126.092 40.1787ZM99.4742 31.4988C98.851 29.7191 98.2278 27.9394 97.2337 25.1009C91.2395 30.0516 85.5915 34.7163 79.8217 39.4816C83.147 42.1076 85.8803 44.2662 88.5183 46.3495C92.4412 42.7892 96.4009 39.1956 100.603 35.382C100.411 34.7162 100.017 33.3545 99.4742 31.4988ZM74.747 46.105C70.8279 50.5681 66.9089 55.0313 62.5852 59.9552C67.1369 62.1773 70.9742 64.0506 74.8114 65.924C73.7652 64.0938 72.2757 62.7572 71.1575 61.1606C69.8672 59.3182 69.4603 57.2757 72.3323 56.4542C74.9157 55.7152 77.6165 55.3886 80.2035 54.6598C81.416 54.3183 82.7131 53.6768 83.5613 52.782C84.833 51.4405 85.7432 49.7563 86.6433 48.4547C83.8674 46.257 81.1306 44.0901 78.4141 41.9394C77.102 43.2296 75.9045 44.4072 74.747 46.105ZM242.604 157.349C244.572 153.966 246.54 150.582 248.634 146.981C245.436 145.739 242.312 144.527 239.455 143.418C236.357 148.745 233.414 153.805 230.527 158.77C233.48 160.487 236.099 162.01 238.921 163.651C240.107 161.611 241.174 159.776 242.604 157.349ZM198.598 217.224C198.944 217.822 199.29 218.42 200.021 219.685C204.798 213.462 209.302 207.595 213.792 201.747C212.034 199.7 210.661 198.101 209.2 196.4C207.08 197.623 203.899 198.356 203.088 200.157C201.447 203.8 198.674 205.484 195.632 207.021C196.587 210.251 197.54 213.477 198.598 217.224ZM68.7655 65.8878C66.458 64.5459 64.1505 63.204 61.7108 61.7853C58.922 65.9096 56.1809 69.9634 53.3703 74.1199C57.4741 75.9543 61.1925 77.6163 64.8975 79.2725C67.6786 75.6175 70.3381 72.1223 73.1432 68.4357C71.5934 67.5344 70.4811 66.8876 68.7655 65.8878ZM235.025 100.888C231.576 98.8821 228.126 96.8761 224.453 94.74C222.762 97.6472 221.292 100.176 219.789 102.759C223.968 105.734 228.26 108.79 232.603 111.883C235.435 109.438 238.185 107.064 241.173 104.485C239.106 103.283 237.368 102.272 235.025 100.888ZM212.937 98.826C214.137 99.5241 215.338 100.222 216.605 100.959C218.379 98.2767 219.975 95.8615 221.677 93.2876C216.179 90.0905 210.95 87.0499 205.97 84.1539C205.042 85.7498 204.036 87.1667 203.35 88.7243C201.925 91.96 202.939 93.983 206.37 95.4706C208.418 96.3585 210.39 97.4205 212.937 98.826ZM241.632 108.118C239.436 109.839 237.239 111.56 234.824 113.452C237.334 115.542 239.562 118.951 241.992 119.103C247.31 119.435 252.731 118.114 258.514 117.419C256.119 115.276 254.283 113.464 252.269 111.878C250.26 110.295 248.005 109.023 245.985 107.452C244.479 106.281 243.286 106.369 241.632 108.118ZM79.1269 145.754C78.2272 145.238 77.2511 144.82 76.4417 144.188C73.6474 142.009 71.1857 141.393 68.8072 144.894C67.6849 146.546 65.9751 147.798 64.2421 149.519C67.2596 151.057 70.0719 152.397 72.796 153.897C79.1798 157.413 79.1633 157.444 83.7743 151.65C83.9013 151.491 83.9846 151.296 84.101 151.096C82.6138 149.414 81.1386 147.746 79.1269 145.754ZM96.7478 165.528C98.3669 163.27 99.9861 161.012 101.919 158.317C96.7205 156.457 91.8349 154.709 86.7878 152.903C85.0006 154.873 83.1094 156.956 81.2585 158.996C85.9433 161.72 90.2017 164.245 94.5336 166.637C94.9425 166.863 95.8133 166.252 96.7478 165.528ZM224.695 168.136C223.447 170.079 222.199 172.022 220.972 173.931C223.731 175.986 226.131 177.774 228.664 179.66C231.624 175.109 234.399 170.84 237.078 166.72C234.125 164.654 231.644 162.918 229.062 161.112C227.731 163.4 226.469 165.572 224.695 168.136ZM61.7373 136.145C60.5341 135.631 59.0791 134.407 58.1724 134.729C54.6718 135.971 51.3463 137.706 47.5705 139.434C51.9845 142.001 55.9734 144.366 60.0188 146.63C60.732 147.029 62.1226 147.44 62.4509 147.106C64.5529 144.973 66.4456 142.634 68.5927 140.147C66.1399 138.721 64.2052 137.596 61.7373 136.145ZM76.3958 70.4119C73.7679 73.7398 71.1399 77.0677 68.1896 80.8039C72.649 83.0403 76.7056 85.0746 80.8664 87.1612C82.1343 85.8812 83.3313 84.6728 83.9032 84.0955C82.3711 80.2346 81.1123 76.7509 79.5847 73.3893C79.0797 72.2779 77.8819 71.4813 76.3958 70.4119ZM205.358 107.995C207.817 108.118 210.277 108.241 212.677 108.361C213.556 106.85 214.471 105.276 215.42 103.644C211.468 101.346 207.737 99.2368 204.07 97.0228C201.468 95.4522 199.632 96.0238 198.282 98.6875C197.655 99.9257 196.897 101.098 196.411 101.933C199.457 104.162 202.141 106.125 205.358 107.995ZM174.922 208.156C175.994 206.601 177.066 205.047 178.031 203.647C172.764 200.194 167.845 196.969 162.803 193.664C161.497 195.911 160.15 198.226 158.824 200.507C164.075 203.158 169.212 205.752 174.922 208.156ZM191.32 75.7283C188.595 74.1434 185.869 72.5585 183.134 70.9678C181.949 72.7316 180.808 74.4297 179.388 76.5422C188.573 76.756 193.254 83.2079 198.448 89.521C199.772 86.4741 200.812 84.0812 201.869 81.6468C199.886 80.6167 198.279 79.8265 196.716 78.9578C195.075 78.0453 193.475 77.0575 191.32 75.7283ZM220.47 192.192C221.361 190.792 222.246 189.388 223.143 187.992C227.396 181.38 227.398 181.38 220.709 177.176C220.617 177.117 220.476 177.135 220.082 177.076C219.257 184.119 216.495 190.294 210.905 195.017C212.417 196.591 213.603 197.825 214.98 199.259C216.748 196.985 218.405 194.852 220.47 192.192ZM172.001 186.629C169.915 188.482 167.829 190.334 165.552 192.356C170.305 195.12 174.802 197.735 179.237 200.314C180.333 198.43 181.252 196.849 181.848 195.824C178.937 191.449 176.234 187.386 173.646 183.497C173.361 184.064 172.831 185.122 172.001 186.629ZM147.285 60.8177C150.027 61.4528 152.769 62.0879 155.482 62.7161C156.28 61.3433 157.088 59.9547 157.821 58.6934C152.802 55.7747 147.991 52.9771 143.333 50.2681C141.821 53.7005 140.388 56.9533 138.856 60.4299C141.845 60.5425 144.29 60.6346 147.285 60.8177ZM65.9404 126.177C68.5172 124.941 71.0941 123.706 73.6709 122.47C73.5811 121.947 73.4912 121.424 73.4014 120.901C65.8218 121.05 58.2422 121.199 49.9304 121.363C51.0116 122.602 51.4321 123.021 51.782 123.493C56.7814 130.239 57.5197 130.425 64.8619 126.765C65.0743 126.659 65.2972 126.574 65.9404 126.177ZM117.634 37.9223C118.103 37.1154 118.572 36.3084 119.035 35.4979C105.772 25.3125 104.127 24.401 100.461 25.2053C101.596 28.1751 102.659 31.1759 103.919 34.0914C104.21 34.7628 105.102 35.3424 105.845 35.6199C108.904 36.7615 111.995 37.8308 115.118 38.7822C115.826 38.9979 116.711 38.6349 117.634 37.9223ZM108.173 166.635C106.876 164.752 105.578 162.869 104.319 161.041C101.936 163.642 99.7505 166.028 97.5819 168.395C102.946 171.514 108.192 174.565 113.441 177.617C116.022 175.631 116.504 174.037 113.61 172.028C111.69 170.695 110.18 168.771 108.173 166.635ZM137.749 182.467C137.473 182.088 137.197 181.71 136.829 181.205C135.109 183.342 133.472 185.374 131.749 187.514C140.16 191.644 148.346 195.664 156.433 199.635C157.486 197.823 158.347 196.343 159.259 194.774C156.692 194.52 154.348 194.481 152.086 194.027C145.557 192.718 141.728 187.867 137.749 182.467ZM241.18 127.26C240.75 125.804 240.32 124.347 239.878 122.848C236.831 123.186 233.968 123.505 231.173 123.816C231.738 125.499 232.368 126.815 232.602 128.197C233.019 130.646 233.441 133.14 233.407 135.609C233.368 138.439 234.397 139.697 238.188 139.393C239.17 135.67 240.209 131.731 241.18 127.26ZM181.244 205.067C180.12 206.637 178.997 208.207 177.748 209.952C184.023 213.056 189.901 215.964 196.524 219.241C194.891 214.851 193.642 211.492 192.713 208.995C188.661 207.675 185.228 206.558 181.244 205.067ZM123.924 68.3006C125.103 68.6829 126.857 69.7559 127.365 69.3326C130.159 67.0076 134.013 65.4493 134.536 61.0505C131.12 58.7563 127.779 56.5122 124.698 54.4433C124.273 57.9452 123.836 61.3174 123.47 64.6972C123.354 65.7668 123.426 66.8569 123.924 68.3006ZM115.415 79.0126C114.618 79.8393 113.82 80.666 112.716 81.811C115.571 83.2764 118.079 84.564 120.056 85.5791C121.613 80.8589 123.097 76.361 124.585 71.8529C123.813 71.4612 122.69 70.8917 121.87 70.4754C119.733 73.2964 117.758 75.9038 115.415 79.0126ZM122.387 177.634C121.186 176.935 119.986 176.237 118.687 175.482C117.683 177.017 116.892 178.227 116.359 179.043C120.804 181.628 124.973 184.052 129.11 186.458C130.718 184.31 132.033 182.552 133.151 181.059C129.748 179.95 126.384 178.854 122.387 177.634ZM173.603 66.1312C171.399 67.4966 169.196 68.8619 167.182 70.1104C169.286 74.1817 172.733 75.42 177.163 75.3078C178.107 73.4375 179.122 71.4265 179.978 69.7288C177.989 68.5722 176.089 67.4672 173.603 66.1312ZM221.891 113.149C223.573 114.591 225.255 116.032 227.037 117.56C228.158 116.35 229.172 115.258 230.446 113.883C226.181 110.938 222.077 108.104 217.832 105.173C216.924 106.734 216.176 108.02 215.39 109.373C217.468 110.582 219.394 111.701 221.891 113.149ZM67.8389 135.906C68.9498 136.552 70.0608 137.198 71.0457 137.771C72.4592 136.687 73.57 135.836 74.7683 134.917C74.3497 132.184 73.9303 129.447 73.481 126.514C69.7074 128.681 66.3062 130.634 62.5151 132.811C64.4013 133.908 65.8372 134.743 67.8389 135.906ZM185.297 106.421C184.546 109.177 183.742 111.92 183.08 114.697C182.904 115.434 183.164 116.275 183.225 117.068C183.838 116.645 184.676 116.359 185.029 115.778C187.283 112.069 189.43 108.295 191.623 104.523C189.986 103.571 187.811 102.306 185.455 100.935C185.379 102.815 185.317 104.337 185.297 106.421ZM177.488 127.481C179.194 124.865 180.901 122.25 182.997 119.037C181.489 119.076 180.418 118.795 179.689 119.174C175.758 121.216 171.912 123.421 168.103 125.534C170.335 126.529 173.089 127.795 175.893 128.94C176.151 129.045 176.726 128.37 177.488 127.481ZM75.471 106.809C74.193 107.274 71.8665 107.646 71.8161 108.219C71.5803 110.901 71.9079 113.644 72.2004 116.348C72.2499 116.805 73.3111 117.61 73.5619 117.497C74.1822 117.216 74.8694 116.575 75.059 115.939C75.8602 113.25 76.5197 110.516 77.1255 107.775C77.1754 107.549 76.434 107.149 75.471 106.809ZM183.426 123.995C181.928 126.218 180.43 128.442 178.851 130.786C180.41 131.944 181.764 132.95 182.898 133.793C184.242 130.063 185.547 126.556 186.737 123.01C186.903 122.518 186.505 121.837 186.369 121.244C185.812 121.482 185.155 121.609 184.725 121.991C184.306 122.363 184.118 122.996 183.426 123.995ZM218.324 162.807C217.684 163.11 217.045 163.413 216.611 163.619C217.726 165.599 218.844 167.583 220.079 169.776C222.206 166.118 224.241 162.618 226.276 159.119C226.133 158.867 225.99 158.614 225.848 158.362C223.482 159.735 221.115 161.108 218.324 162.807ZM183.528 200.054C182.001 200.894 181.504 201.944 183.42 202.738C185.761 203.708 188.226 204.377 190.991 205.293C190.228 200.438 188.429 197.341 183.67 196.715C183.576 197.65 183.483 198.581 183.528 200.054ZM120.623 95.1039C123.992 100.109 125.966 105.603 126.021 111.84C127.888 110.954 129.355 110.257 130.319 109.799C127.784 104.806 125.281 99.7872 122.637 94.8437C122.446 94.4859 121.236 94.6729 120.623 95.1039ZM80.0453 103.024C78.2187 98.585 82.5971 96.1032 83.4704 92.5117C81.1339 91.8757 76.7338 97.2563 74.6773 103.322C76.488 102.818 77.6625 107.077 80.0453 103.024ZM107.396 86.4021C111.151 88.2751 114.907 90.1482 118.868 92.1235C119.1 91.725 119.596 90.8714 120.08 90.0396C116.716 88.0833 113.563 86.0283 110.183 84.4628C109.47 84.1329 107.927 85.5983 107.396 86.4021ZM232.208 149.599C233.649 147.12 235.091 144.64 236.69 141.891C234.796 141.318 233.84 141.029 233.577 140.95C231.253 146.583 229.039 151.949 226.825 157.315C227.054 157.435 227.283 157.554 227.512 157.674C228.959 155.186 230.406 152.698 232.208 149.599ZM194.107 111.547C195.803 110.57 197.499 109.594 199.325 108.543C197.723 107.611 196.229 106.743 194.778 105.899C192.222 110.294 189.73 114.579 187.238 118.864C187.467 118.997 187.695 119.13 187.924 119.263C189.828 116.803 191.732 114.342 194.107 111.547ZM174.088 132.398C171.792 130.82 169.497 129.243 167.205 127.668C164.415 131.733 165.864 131.644 171.669 136.242C172.388 135.154 173.095 134.083 174.088 132.398ZM235.098 117.403C231.883 114.408 230.267 117.621 228.03 119.019C230.86 124.136 234.342 119.39 237.852 120.647C236.735 119.256 236.142 118.518 235.098 117.403ZM186.572 95.9932C185.944 96.0699 185.316 96.1466 184.688 96.2234C184.659 96.5247 184.63 96.8261 184.6 97.1275C187.421 98.4036 190.242 99.6797 193.087 100.967C193.785 99.4826 194.369 98.2395 194.956 96.992C192.23 96.6956 189.66 96.4162 186.572 95.9932ZM85.3771 90.0056C86.6584 89.3065 87.9397 88.6075 89.5256 87.7421C88.3351 86.6645 87.4988 85.9075 86.6942 85.1792C85.871 86.0568 84.9635 86.7056 84.5452 87.5867C84.2838 88.1372 84.76 89.0378 85.3771 90.0056Z" fill="#FCF0DB"/>
</svg>
