<svg width="122" height="133" viewBox="0 0 122 133" fill="none" xmlns="http://www.w3.org/2000/svg">
<rect x="70.1741" y="10.6016" width="5.85702" height="22.2222" rx="2.73818" transform="rotate(13.6374 70.1741 10.6016)" fill="#8FC200"/>
<path d="M83.7607 16.202C89.0115 17.3686 92.1069 20.9038 93.4364 22.8074C93.9187 23.498 93.6958 24.4044 92.9601 24.8148C90.7321 26.0578 85.8635 28.2584 81.1531 26.9497C74.7703 25.1764 71.579 17.9632 71.579 17.9632C71.579 17.9632 76.4436 14.5763 83.7607 16.202Z" fill="#8FC200"/>
<circle cx="58.8709" cy="73.2675" r="48.7511" transform="rotate(13.6374 58.8709 73.2675)" fill="#FF8800"/>
<path d="M26.6331 58.8508C27.5097 55.0315 29.1632 53.2273 31.0663 53.7907C32.9694 54.3541 33.8497 55.9436 32.7351 60.3312C31.6205 64.7189 30.0292 65.8903 28.2374 65.4508C26.4456 65.0112 25.7565 62.6701 26.6331 58.8508Z" fill="white"/>
<path d="M17.1849 72.3488C18.0614 68.5295 19.715 66.7254 21.6181 67.2888C23.5212 67.8522 24.4015 69.4416 23.2869 73.8293C22.1723 78.2169 20.5809 79.3883 18.7891 78.9488C16.9974 78.5093 16.3083 76.1681 17.1849 72.3488Z" fill="white"/>
<path d="M25.1217 83.4811C25.2534 79.5647 26.5323 77.4782 28.5079 77.6682C30.4836 77.8581 31.651 79.2504 31.3941 83.7701C31.1371 88.2898 29.7986 89.7433 27.9558 89.6537C26.1131 89.5642 24.99 87.3975 25.1217 83.4811Z" fill="white"/>
</svg>
