<svg width="89" height="148" viewBox="0 0 89 148" fill="none" xmlns="http://www.w3.org/2000/svg">
<rect x="56.6279" width="5.72161" height="21.7085" rx="2.04049" fill="#8FC200"/>
<path d="M72.8872 8.70166C77.4808 11.7871 78.9648 16.4117 79.4157 18.487C79.549 19.1004 79.1481 19.6667 78.5276 19.7621C76.2256 20.1158 70.6933 20.5559 66.6904 17.5516C61.5146 13.667 61.1781 5.96908 61.1781 5.96908C61.1781 5.96908 66.8089 4.61896 72.8872 8.70166Z" fill="#8FC200"/>
<path d="M58.3009 18.0949C40.3815 15.614 40.4078 40.6904 30.346 55.7244C26.5085 61.4582 2.74784 71.8554 0.239817 99.8084C-1.84252 123.017 9.55737 141.886 37.5141 146.401C59.5761 149.964 79.949 142.542 86.7344 116.127C92.9467 91.9432 81.3946 69.5371 78.4911 60.5742C72.7075 42.7212 81.5974 21.3203 58.3009 18.0949Z" fill="#BED76F"/>
<path d="M17.5209 102.133C17.4733 99.0414 18.631 97.3504 20.5734 97.4284C22.5158 97.5063 23.7213 98.5614 23.6736 102.133C23.6259 105.705 22.3812 106.899 20.5734 106.896C18.7657 106.892 17.5686 105.225 17.5209 102.133Z" fill="white"/>
<path d="M62.5024 58.098C62.4547 55.0063 63.6125 53.3152 65.5549 53.3932C67.4972 53.4712 68.7027 54.5262 68.655 58.098C68.6073 61.6698 67.3626 62.8642 65.5549 62.8605C63.7471 62.8568 62.5501 61.1898 62.5024 58.098Z" fill="white"/>
<path d="M70.0786 68.2845C70.0309 65.9657 71.1887 64.6974 73.131 64.7558C75.0734 64.8143 76.2789 65.6056 76.2312 68.2845C76.1835 70.9633 74.9388 71.8591 73.131 71.8563C71.3233 71.8535 70.1262 70.6033 70.0786 68.2845Z" fill="white"/>
<path d="M8.99751 112.786C8.94983 109.849 10.1076 108.243 12.05 108.317C13.9923 108.391 15.1978 109.393 15.1501 112.786C15.1024 116.18 13.8577 117.314 12.05 117.311C10.2422 117.307 9.04519 115.724 8.99751 112.786Z" fill="white"/>
<path d="M20.3358 121.832C19.6832 118.732 20.5209 116.804 22.4961 116.501C24.4712 116.199 25.8939 117.023 26.544 120.625C27.1942 124.227 26.1717 125.672 24.3469 126.023C22.522 126.374 20.9883 124.932 20.3358 121.832Z" fill="white"/>
</svg>
