<svg width="76" height="85" viewBox="0 0 76 85" fill="none" xmlns="http://www.w3.org/2000/svg">
<path d="M10.2547 8.12242C9.67028 7.186 9.95564 5.95313 10.8921 5.36873L11.3442 5.08656C12.2806 4.50216 13.5135 4.78753 14.0979 5.72395L21.0817 16.9145C21.6661 17.8509 21.3807 19.0838 20.4443 19.6682L19.9922 19.9503C19.0557 20.5348 17.8229 20.2494 17.2385 19.313L10.2547 8.12242Z" fill="white"/>
<path d="M19.644 1.94932C23.173 -0.349348 26.8482 -0.113781 28.5949 0.187109C29.2008 0.291496 29.5577 0.871449 29.3983 1.46532C28.8935 3.34644 27.48 7.29088 24.1729 9.20628C19.7389 11.7743 14.0255 9.63477 14.0255 9.63477C14.0255 9.63477 14.7861 5.11358 19.644 1.94932Z" fill="white"/>
<path fill-rule="evenodd" clip-rule="evenodd" d="M17.7487 14.597C35.4158 3.57166 58.6759 8.95605 69.7015 26.623C80.7268 44.2899 75.343 67.5496 57.6763 78.5753C40.0093 89.6009 16.749 84.2174 5.72325 66.5506C-5.30245 48.8835 0.0816361 25.6227 17.7487 14.597ZM28.0818 67.1059C25.7232 64.5185 24.322 64.4109 23.148 65.3998C21.974 66.3888 22.4347 68.2243 24.5279 70.4163C26.6211 72.6083 28.4262 73.1602 29.4729 72.1903C30.5195 71.2204 30.4406 69.6936 28.0818 67.1059ZM13.6847 63.5942C12.344 64.3412 12.4461 66.2309 14.0823 68.7817C15.7186 71.3326 17.3856 72.2191 18.598 71.4671C19.8105 70.7147 20.024 69.2008 18.2023 66.2105C16.3805 63.2204 15.0259 62.8473 13.6847 63.5942ZM11.3378 51.0703C9.99707 51.8173 10.0992 53.707 11.7354 56.2578C13.3717 58.8087 15.0387 59.6952 16.2511 58.9432C17.4636 58.1908 17.6771 56.6769 15.8554 53.6866C14.0336 50.6965 12.679 50.3234 11.3378 51.0703Z" fill="white"/>
</svg>
